<svg width="12" height="12" viewBox="0 0 12 12" fill="none" xmlns="http://www.w3.org/2000/svg">
<path d="M1.04999 1.05011C1.23752 0.86264 1.49182 0.757324 1.75699 0.757324C2.02215 0.757324 2.27646 0.86264 2.46399 1.05011L5.99999 4.58611L9.53599 1.05011C9.72459 0.867953 9.97719 0.767158 10.2394 0.769437C10.5016 0.771715 10.7524 0.876884 10.9378 1.06229C11.1232 1.2477 11.2284 1.49851 11.2307 1.76071C11.2329 2.02291 11.1321 2.27551 10.95 2.46411L7.41399 6.00011L10.95 9.53611C11.1321 9.72471 11.2329 9.97731 11.2307 10.2395C11.2284 10.5017 11.1232 10.7525 10.9378 10.9379C10.7524 11.1233 10.5016 11.2285 10.2394 11.2308C9.97719 11.2331 9.72459 11.1323 9.53599 10.9501L5.99999 7.41411L2.46399 10.9501C2.27539 11.1323 2.02278 11.2331 1.76059 11.2308C1.49839 11.2285 1.24758 11.1233 1.06217 10.9379C0.876762 10.7525 0.771593 10.5017 0.769315 10.2395C0.767036 9.97731 0.86783 9.72471 1.04999 9.53611L4.58599 6.00011L1.04999 2.46411C0.862517 2.27658 0.757202 2.02227 0.757202 1.75711C0.757202 1.49195 0.862517 1.23764 1.04999 1.05011Z" fill="black"/>
</svg>
