<svg width="28" height="28" viewBox="0 0 28 28" fill="none" xmlns="http://www.w3.org/2000/svg">
<path d="M24.1818 9.1875H20.3636V4.375H2.54545C1.14545 4.375 0 5.45781 0 6.78125V20.0156H2.54545C2.54545 22.0128 4.25091 23.625 6.36364 23.625C8.47636 23.625 10.1818 22.0128 10.1818 20.0156H17.8182C17.8182 22.0128 19.5236 23.625 21.6364 23.625C23.7491 23.625 25.4545 22.0128 25.4545 20.0156H28V14L24.1818 9.1875ZM6.36364 21.8203C5.30727 21.8203 4.45455 21.0142 4.45455 20.0156C4.45455 19.017 5.30727 18.2109 6.36364 18.2109C7.42 18.2109 8.27273 19.017 8.27273 20.0156C8.27273 21.0142 7.42 21.8203 6.36364 21.8203ZM23.5455 10.9922L26.04 14H20.3636V10.9922H23.5455ZM21.6364 21.8203C20.58 21.8203 19.7273 21.0142 19.7273 20.0156C19.7273 19.017 20.58 18.2109 21.6364 18.2109C22.6927 18.2109 23.5455 19.017 23.5455 20.0156C23.5455 21.0142 22.6927 21.8203 21.6364 21.8203Z" fill="white"/>
</svg>
