<svg width="8" height="6" viewBox="0 0 8 6" fill="none" xmlns="http://www.w3.org/2000/svg">
<path d="M0.0453172 0.214899C0.0116591 0.279609 -0.00374128 0.352263 0.00076912 0.425063C0.00527952 0.497863 0.02953 0.568061 0.0709181 0.628121L3.67111 5.82839C3.70792 5.88153 3.75707 5.92496 3.81433 5.95495C3.8716 5.98494 3.93528 6.00061 3.99992 6.00061C4.06457 6.00061 4.12825 5.98494 4.18552 5.95495C4.24278 5.92496 4.29193 5.88153 4.32874 5.82839L7.92893 0.628121C7.97046 0.568108 7.99477 0.497878 7.99925 0.425036C8.00372 0.352194 7.98818 0.279516 7.95432 0.214871C7.92045 0.150227 7.86954 0.0960785 7.80711 0.0582901C7.74467 0.0205017 7.67309 0.000512902 7.60011 0.000488269L0.399736 0.000487954C0.326717 0.000475918 0.255088 0.0204502 0.192612 0.0582459C0.130136 0.0960416 0.0791979 0.150217 0.0453172 0.214899Z"/>
</svg>