<?xml version="1.0" encoding="iso-8859-1"?>
<!-- Generator: Adobe Illustrator 18.1.1, SVG Export Plug-In . SVG Version: 6.00 Build 0)  -->
<svg version="1.1" id="Capa_1" xmlns="http://www.w3.org/2000/svg" xmlns:xlink="http://www.w3.org/1999/xlink" x="0px" y="0px"
	 viewBox="0 0 26 26" style="enable-background:new 0 0 26 26;" xml:space="preserve">
<g>
	<g>
		<path style="fill:#FFFFFF;" d="M5.438,13.836c-0.031,0.148-0.063,0.293-0.095,0.423l-0.254,1.02H5.81l-0.268-1.018
			C5.507,14.128,5.472,13.983,5.438,13.836z"/>
		<path style="fill:#FFFFFF;" d="M17,11H2c-0.551,0-1,0.449-1,1v6c0,0.551,0.449,1,1,1h15c0.551,0,1-0.449,1-1v-6
			C18,11.449,17.551,11,17,11z M7.844,18.044c-0.004,0-0.006,0-0.008,0H6.58c-0.072,0-0.136-0.049-0.154-0.118L6.062,16.57H4.841
			l-0.335,1.352c-0.018,0.071-0.081,0.122-0.155,0.122H3.156c-0.05,0-0.097-0.024-0.127-0.063s-0.041-0.091-0.027-0.139l1.561-5.741
			c0.019-0.07,0.082-0.119,0.153-0.119h1.521c0.072,0,0.135,0.048,0.154,0.118l1.586,5.695c0.017,0.026,0.025,0.057,0.025,0.089
			C8.003,17.973,7.933,18.044,7.844,18.044z M11.288,17.93c-0.02,0.067-0.082,0.114-0.153,0.114H9.78
			c-0.071,0-0.134-0.048-0.154-0.116l-1.643-5.742c-0.014-0.048-0.004-0.1,0.026-0.14c0.029-0.04,0.078-0.064,0.128-0.064h1.271
			c0.072,0,0.136,0.05,0.154,0.121l0.625,2.428c0.115,0.455,0.223,0.885,0.316,1.327c0.094-0.426,0.198-0.861,0.317-1.304
			l0.654-2.453c0.019-0.07,0.081-0.119,0.154-0.119h1.232c0.052,0,0.098,0.024,0.128,0.064c0.03,0.041,0.04,0.094,0.025,0.142
			L11.288,17.93z M15.473,17.884c0,0.089-0.072,0.16-0.16,0.16h-1.156c-0.089,0-0.16-0.071-0.16-0.16v-5.742
			c0-0.088,0.071-0.16,0.16-0.16h1.156c0.088,0,0.16,0.072,0.16,0.16V17.884z"/>
	</g>
	<path style="fill:#FFFFFF;" d="M22.266,4.207c-0.244-0.24-0.494-0.484-0.74-0.732c-0.248-0.246-0.492-0.496-0.732-0.74
		C19.082,0.988,18.063,0,17,0H9C6.795,0,5,1.795,5,4v7.2h2V4c0-1.104,0.896-2,2-2l7.289-0.004C17.01,2.18,17,3.066,17,3.953V7
		c0,0.551,0.449,1,1,1h3c0.998,0,2,0.005,2,1v13c0,1.104-0.896,2-2,2H9c-1.104,0-2-0.896-2-2v-3.2H5V22c0,2.205,1.795,4,4,4h12
		c2.205,0,4-1.795,4-4V8C25,6.938,24.012,5.918,22.266,4.207z"/>
</g>
<g>
</g>
<g>
</g>
<g>
</g>
<g>
</g>
<g>
</g>
<g>
</g>
<g>
</g>
<g>
</g>
<g>
</g>
<g>
</g>
<g>
</g>
<g>
</g>
<g>
</g>
<g>
</g>
<g>
</g>
</svg>
