<svg width="29" height="27" viewBox="0 0 29 27" fill="none" xmlns="http://www.w3.org/2000/svg">
<path d="M16.3906 0.5C12.6736 0.5 8.53362 1.13225 5.45562 4.54325C2.38212 7.95425 0.5 13.865 0.5 24.125V25.25H10.238C11.3518 25.9531 12.6039 26.375 14 26.375C15.395 26.375 16.6494 25.9441 17.762 25.25H28.625V24.125C28.625 14.9844 26.8587 9.6755 24.5469 6.58175C22.5106 3.85925 20.1684 3.101 18.4291 2.9255L17.375 1.0625L17.06 0.5H16.3906ZM15.7572 2.82088L16.6719 4.4375L16.9869 5H17.6562C18.7925 5 20.8603 5.3825 22.7525 7.91825C24.5592 10.3325 26.15 14.9338 26.3053 23H20.2584C20.3821 22.8425 20.4946 22.6715 20.6105 22.5072C22.1371 20.3281 23 17.6079 23 15.125H20.75C20.75 17.0623 20.0255 19.4304 18.7812 21.2068C17.537 22.9843 15.8731 24.125 14 24.125C12.1291 24.125 10.4641 22.9888 9.21875 21.2068C7.97337 19.427 7.25 17.0487 7.25 15.125C7.25 14.6255 7.34563 14.3746 7.4975 14.1755C7.646 13.9764 7.907 13.8042 8.30413 13.649C9.0995 13.334 10.4416 13.2046 11.8558 13.0865C13.271 12.9672 14.747 12.8547 16.0745 12.2428C17.402 11.6296 18.5 10.2425 18.5 8.375H16.25C16.25 9.5495 15.9418 9.842 15.1588 10.2031C14.378 10.5631 13.0415 10.7184 11.6442 10.8365C10.247 10.9535 8.7755 11.0199 7.45925 11.5385C6.80337 11.7973 6.16775 12.1887 5.70425 12.8053C5.23625 13.4206 5 14.2452 5 15.125C5 17.5977 5.864 20.2888 7.39062 22.4713C7.51438 22.6513 7.64375 22.829 7.77763 23H2.8175C2.96937 13.8166 4.74125 8.717 7.142 6.05413C9.491 3.45088 12.5229 2.88725 15.755 2.82088H15.7572ZM10.625 15.125C10.3266 15.125 10.0405 15.2435 9.8295 15.4545C9.61853 15.6655 9.5 15.9516 9.5 16.25C9.5 16.5484 9.61853 16.8345 9.8295 17.0455C10.0405 17.2565 10.3266 17.375 10.625 17.375C10.9234 17.375 11.2095 17.2565 11.4205 17.0455C11.6315 16.8345 11.75 16.5484 11.75 16.25C11.75 15.9516 11.6315 15.6655 11.4205 15.4545C11.2095 15.2435 10.9234 15.125 10.625 15.125ZM17.375 15.125C17.0766 15.125 16.7905 15.2435 16.5795 15.4545C16.3685 15.6655 16.25 15.9516 16.25 16.25C16.25 16.5484 16.3685 16.8345 16.5795 17.0455C16.7905 17.2565 17.0766 17.375 17.375 17.375C17.6734 17.375 17.9595 17.2565 18.1705 17.0455C18.3815 16.8345 18.5 16.5484 18.5 16.25C18.5 15.9516 18.3815 15.6655 18.1705 15.4545C17.9595 15.2435 17.6734 15.125 17.375 15.125Z" fill="#306FB5"/>
</svg>
