<svg width="24" height="28" viewBox="0 0 24 28" fill="none" xmlns="http://www.w3.org/2000/svg">
<path d="M14.25 0.5C10.1258 0.5 6.99825 1.46975 4.89788 3.45312C2.79975 5.4365 1.875 8.32775 1.875 11.75V12.7693C1.2315 13.3813 0.75 14.1687 0.75 15.125C0.75 16.5425 1.75125 17.5482 3 18.0432C3.41625 19.3561 3.86963 20.7354 4.3725 21.9099C4.91813 23.1946 5.412 24.2139 6.09375 24.9361C6.85058 25.7445 7.76527 26.3888 8.7812 26.8293C9.79713 27.2699 10.8927 27.4972 12 27.4972C13.1073 27.4972 14.2029 27.2699 15.2188 26.8293C16.2347 26.3888 17.1494 25.7445 17.9062 24.9361C18.588 24.2139 19.0459 23.1946 19.5938 21.9099C20.0955 20.7354 20.5837 19.3561 21 18.0444C22.2488 17.5494 23.25 16.5436 23.25 15.1261C23.25 14.1744 22.7662 13.3857 22.125 12.7704V11.75C22.125 8.573 21.4016 6.31175 20.1225 4.8245C19.0357 3.5645 17.5856 3.047 16.149 2.8895L15.2693 1.1345L14.9542 0.5H14.25ZM13.5818 2.82088L14.3557 4.36775C14.7304 5.117 14.8766 5.65025 14.8823 5.87863C14.889 6.10813 14.8969 6.01363 14.8485 6.05638C14.7506 6.1385 13.8023 6.38262 12.6323 6.44225C11.4623 6.503 10.0853 6.47375 8.8005 6.971C7.518 7.46825 6.38963 8.80137 6.375 10.6272H8.625C8.634 9.518 8.89162 9.35825 9.60938 9.08037C10.3271 8.8025 11.5646 8.72037 12.774 8.6585C13.9822 8.59662 15.2299 8.66975 16.2896 7.781C16.8184 7.33438 17.1559 6.566 17.1334 5.81225C17.1277 5.64575 17.0884 5.486 17.0625 5.31725C17.5781 5.53819 18.0355 5.8755 18.399 6.30275C19.2146 7.25 19.875 8.91725 19.875 11.75V13.8245L20.4375 14.1395C20.7795 14.3386 21 14.6975 21 15.125C21.0066 15.4074 20.9045 15.6815 20.7148 15.8909C20.5252 16.1002 20.2624 16.2287 19.9807 16.25L19.2068 16.2838L18.9964 17.0229C18.5822 18.3706 18.1009 19.6968 17.5541 20.9964C17.0479 22.1844 16.4663 23.1969 16.2885 23.3859C13.8923 25.9171 10.1044 25.9171 7.71038 23.3859C7.53038 23.1969 6.951 22.1844 6.44362 20.9953C5.89817 19.6954 5.41757 18.3693 5.00363 17.0218L4.79213 16.2826L4.01812 16.2489C3.73686 16.2274 3.47454 16.0988 3.28515 15.8898C3.09576 15.6807 2.99371 15.407 3 15.125C3 14.7042 3.21712 14.3398 3.5625 14.1406L4.125 13.8256V11.75C4.125 8.71587 4.8945 6.5345 6.44587 5.06975C7.88587 3.7085 10.2371 2.93225 13.5818 2.81975V2.82088ZM8.625 14C8.32663 14 8.04048 14.1185 7.82951 14.3295C7.61853 14.5405 7.5 14.8266 7.5 15.125C7.5 15.4234 7.61853 15.7095 7.82951 15.9205C8.04048 16.1315 8.32663 16.25 8.625 16.25C8.92337 16.25 9.20952 16.1315 9.42049 15.9205C9.63147 15.7095 9.75 15.4234 9.75 15.125C9.75 14.8266 9.63147 14.5405 9.42049 14.3295C9.20952 14.1185 8.92337 14 8.625 14ZM15.375 14C15.0766 14 14.7905 14.1185 14.5795 14.3295C14.3685 14.5405 14.25 14.8266 14.25 15.125C14.25 15.4234 14.3685 15.7095 14.5795 15.9205C14.7905 16.1315 15.0766 16.25 15.375 16.25C15.6734 16.25 15.9595 16.1315 16.1705 15.9205C16.3815 15.7095 16.5 15.4234 16.5 15.125C16.5 14.8266 16.3815 14.5405 16.1705 14.3295C15.9595 14.1185 15.6734 14 15.375 14Z" fill="#306FB5"/>
</svg>
