<svg width="66" height="66" viewBox="0 0 66 66" fill="none" xmlns="http://www.w3.org/2000/svg">
    <path fill-rule="evenodd" clip-rule="evenodd" d="M43.6436 15.0595C43.6435 20.2375 42.3568 26.9903 40.3775 25.9655C39.5681 28.6087 37.8688 30.8904 35.5682 32.423C33.2675 33.9556 30.5073 34.6447 27.7563 34.3734C25.0052 34.102 22.4329 32.8868 20.4761 30.9342C18.5192 28.9816 17.2985 26.4118 17.0212 23.6614C15.0568 20.2247 12.4804 13.338 19.1038 7.96982C19.2221 7.93138 19.2936 7.61545 19.3992 7.149L19.4031 7.13198L19.4037 7.12919C19.8139 5.32799 20.7241 1.33182 26.4499 2.09595C30.8679 2.68393 43.6431 4.96547 43.6436 15.0595ZM43.6436 15.0595C43.6436 15.0597 43.6436 15.0599 43.6436 15.0601V15.0586C43.6436 15.0589 43.6436 15.0592 43.6436 15.0595ZM37.9493 18.3231C37.9493 18.3231 37.273 20.3011 37.9074 22.5049C37.8992 24.8547 36.9699 27.1076 35.319 28.7799C33.6682 30.4522 31.4275 31.4105 29.078 31.4491C26.7285 31.4876 24.4575 30.6034 22.7526 28.9862C21.0478 27.3691 20.045 25.1479 19.9596 22.7996C20.1766 21.9767 20.1766 20.5838 20.1751 19.0353L20.1751 19.0273V19.0273C20.1736 16.2357 20.1718 12.9447 21.4498 11.6025C30.4102 17.5706 37.9493 18.3231 37.9493 18.3231ZM12.473 48.258C12.473 46.6392 13.3303 45.2208 14.617 44.4309C14.568 44.2446 14.5221 44.0576 14.4793 43.8698C14.2523 42.8477 14.0751 41.8151 13.9482 40.7758C13.8197 39.78 13.7423 38.7783 13.7163 37.7745C7.40108 40.2536 2 44.5745 2 49.1108V57.2349H55.8612V49.1108C55.8612 44.766 50.909 40.6202 44.9424 38.0992V38.1411C44.9693 39.0537 44.9184 40.101 44.8197 41.1079C44.7299 42.0415 44.5968 42.9721 44.4367 43.7696H45.3882C45.666 43.7697 45.9382 43.8472 46.1745 43.9933C46.4107 44.1395 46.6016 44.3485 46.7258 44.5969L48.2219 47.5892C48.3266 47.7972 48.3805 48.0261 48.3805 48.258V51.2503C48.3805 51.6471 48.2229 52.0277 47.9423 52.3082C47.6617 52.5888 47.2812 52.7464 46.8844 52.7464H43.8921V49.7542H45.3882V48.6111L44.4636 46.7619H40.3283L39.4036 48.6111V49.7542H40.8998V52.7464H37.9075C37.5107 52.7464 37.1301 52.5888 36.8496 52.3082C36.569 52.0277 36.4113 51.6471 36.4113 51.2503V48.258C36.4113 48.0261 36.4652 47.7972 36.5699 47.5892L38.0661 44.5969C38.1902 44.3485 38.3811 44.1395 38.6174 43.9933C38.8536 43.8472 39.1259 43.7697 39.4036 43.7696H41.3711C41.404 43.6409 41.4369 43.4988 41.4698 43.3417C41.6194 42.637 41.7526 41.7438 41.8424 40.8207C41.9321 39.8961 41.974 38.9789 41.9516 38.2249C41.946 37.9125 41.9215 37.6007 41.8783 37.2913C41.8486 37.0995 41.8189 37.0016 41.8089 36.969L41.8064 36.9606C41.8059 36.9591 41.8055 36.958 41.8051 36.9572C41.8048 36.9565 41.8047 36.9561 41.8047 36.9561C41.8048 36.956 41.8053 36.9565 41.8064 36.9576L41.8109 36.9561C41.0171 36.7095 40.2141 36.4934 39.4036 36.3083C38.6511 36.1362 37.8731 37.1716 37.5335 37.8194H19.9537C19.9101 37.736 19.8672 37.6522 19.8251 37.5681L19.8237 37.5652C19.5067 36.9344 19.1164 36.1574 18.4576 36.3083C17.8816 36.4385 17.3056 36.5881 16.7296 36.7527C16.711 37.015 16.703 37.2781 16.7056 37.5411C16.7116 38.3685 16.7909 39.3814 16.9181 40.4047C17.0452 41.4251 17.2173 42.4186 17.3968 43.2025C17.4477 43.4285 17.4986 43.6319 17.5464 43.807C18.4018 43.9194 19.2066 44.276 19.8646 44.834C20.5226 45.392 21.0058 46.1278 21.2564 46.9534C21.507 47.7789 21.5143 48.6592 21.2776 49.4888C21.0409 50.3184 20.5701 51.0622 19.9215 51.6311C19.273 52.2001 18.4743 52.5701 17.6209 52.6969C16.7676 52.8236 15.8957 52.7018 15.1098 52.3459C14.324 51.99 13.6573 51.4151 13.1896 50.6901C12.722 49.9651 12.4732 49.1207 12.473 48.258ZM16.9615 49.7766C17.7664 49.7766 18.4576 49.1168 18.4576 48.258C18.4576 47.3978 17.7664 46.7394 16.9615 46.7394C16.1565 46.7394 15.4653 47.3992 15.4653 48.258C15.4653 49.1183 16.1565 49.7766 16.9615 49.7766Z" fill="#0171BB"/>
    <circle cx="55.0457" cy="55.3308" r="8.70485" fill="white"/>
    <path fill-rule="evenodd" clip-rule="evenodd" d="M51.7961 49.6334C52.3561 49.5887 52.8877 49.3685 53.3151 49.0041C53.798 48.5929 54.4115 48.367 55.0457 48.367C55.6799 48.367 56.2934 48.5929 56.7762 49.0041C57.2037 49.3685 57.7352 49.5887 58.2952 49.6334C58.9275 49.684 59.5212 49.9581 59.9698 50.4067C60.4183 50.8552 60.6924 51.4489 60.743 52.0812C60.7874 52.641 61.0076 53.1728 61.3723 53.6002C61.7836 54.0831 62.0094 54.6965 62.0094 55.3308C62.0094 55.965 61.7836 56.5785 61.3723 57.0613C61.0079 57.4888 60.7877 58.0203 60.743 58.5803C60.6924 59.2126 60.4183 59.8063 59.9698 60.2549C59.5212 60.7034 58.9275 60.9775 58.2952 61.0281C57.7352 61.0728 57.2037 61.293 56.7762 61.6574C56.2934 62.0687 55.6799 62.2945 55.0457 62.2945C54.4115 62.2945 53.798 62.0687 53.3151 61.6574C52.8877 61.293 52.3561 61.0728 51.7961 61.0281C51.1638 60.9775 50.5701 60.7034 50.1216 60.2549C49.673 59.8063 49.3989 59.2126 49.3483 58.5803C49.3036 58.0203 49.0834 57.4888 48.719 57.0613C48.3078 56.5785 48.0819 55.965 48.0819 55.3308C48.0819 54.6965 48.3078 54.0831 48.719 53.6002C49.0834 53.1728 49.3036 52.6412 49.3483 52.0812C49.3989 51.4489 49.673 50.8552 50.1216 50.4067C50.5701 49.9581 51.1638 49.684 51.7961 49.6334V49.6334ZM58.2726 54.2052C58.4311 54.041 58.5189 53.8212 58.5169 53.5929C58.5149 53.3647 58.4233 53.1464 58.2619 52.985C58.1006 52.8236 57.8822 52.732 57.654 52.73C57.4257 52.7281 57.2059 52.8158 57.0417 52.9744L54.1752 55.8409L53.0496 54.7153C52.8855 54.5568 52.6656 54.469 52.4373 54.471C52.2091 54.473 51.9908 54.5645 51.8294 54.7259C51.668 54.8873 51.5764 55.1057 51.5745 55.3339C51.5725 55.5621 51.6602 55.782 51.8188 55.9462L53.5597 57.6872C53.723 57.8504 53.9444 57.942 54.1752 57.942C54.406 57.942 54.6274 57.8504 54.7906 57.6872L58.2726 54.2052V54.2052Z" fill="#0171BB"/>
</svg>