<svg width="74" height="54" viewBox="0 0 74 54" fill="none" xmlns="http://www.w3.org/2000/svg">
    <path d="M7.00004 0.333252C5.23193 0.333252 3.53624 1.03563 2.286 2.28587C1.03575 3.53612 0.333374 5.23181 0.333374 6.99992V43.6666H7.00004C7.00004 46.3187 8.05361 48.8623 9.92897 50.7377C11.8043 52.613 14.3479 53.6666 17 53.6666C19.6522 53.6666 22.1957 52.613 24.0711 50.7377C25.9465 48.8623 27 46.3187 27 43.6666H47C47 46.3187 48.0536 48.8623 49.929 50.7377C51.8043 52.613 54.3479 53.6666 57 53.6666C59.6522 53.6666 62.1958 52.613 64.0711 50.7377C65.9465 48.8623 67 46.3187 67 43.6666H73.6667V26.9999L63.6667 13.6666H53.6667V0.333252H7.00004ZM53.6667 18.6666H62L68.5667 26.9999H53.6667V18.6666ZM17 38.6666C18.3261 38.6666 19.5979 39.1934 20.5356 40.1311C21.4733 41.0687 22 42.3405 22 43.6666C22 44.9927 21.4733 46.2644 20.5356 47.2021C19.5979 48.1398 18.3261 48.6666 17 48.6666C15.674 48.6666 14.4022 48.1398 13.4645 47.2021C12.5268 46.2644 12 44.9927 12 43.6666C12 42.3405 12.5268 41.0687 13.4645 40.1311C14.4022 39.1934 15.674 38.6666 17 38.6666ZM57 38.6666C58.3261 38.6666 59.5979 39.1934 60.5356 40.1311C61.4733 41.0687 62 42.3405 62 43.6666C62 44.9927 61.4733 46.2644 60.5356 47.2021C59.5979 48.1398 58.3261 48.6666 57 48.6666C55.674 48.6666 54.4022 48.1398 53.4645 47.2021C52.5268 46.2644 52 44.9927 52 43.6666C52 42.3405 52.5268 41.0687 53.4645 40.1311C54.4022 39.1934 55.674 38.6666 57 38.6666Z" fill="#0171BB"/>
    <path fill-rule="evenodd" clip-rule="evenodd" d="M24.067 13.6367C24.8309 13.579 25.556 13.2943 26.1392 12.8234C26.7979 12.2919 27.6348 12 28.5 12C29.3652 12 30.2021 12.2919 30.8608 12.8234C31.444 13.2943 32.1691 13.579 32.933 13.6367C33.7957 13.7021 34.6056 14.0563 35.2175 14.6361C35.8294 15.2158 36.2034 15.9831 36.2723 16.8003C36.3329 17.5237 36.6333 18.2111 37.1309 18.7635C37.6919 19.3875 38 20.1803 38 21C38 21.8197 37.6919 22.6125 37.1309 23.2365C36.6338 23.789 36.3333 24.476 36.2723 25.1997C36.2034 26.0169 35.8294 26.7842 35.2175 27.3639C34.6056 27.9437 33.7957 28.2979 32.933 28.3633C32.1691 28.421 31.444 28.7057 30.8608 29.1766C30.2021 29.7081 29.3652 30 28.5 30C27.6348 30 26.7979 29.7081 26.1392 29.1766C25.556 28.7057 24.8309 28.421 24.067 28.3633C23.2043 28.2979 22.3944 27.9437 21.7825 27.3639C21.1706 26.7842 20.7966 26.0169 20.7277 25.1997C20.6667 24.476 20.3662 23.789 19.8691 23.2365C19.3081 22.6125 19 21.8197 19 21C19 20.1803 19.3081 19.3875 19.8691 18.7635C20.3662 18.211 20.6667 17.524 20.7277 16.8003C20.7966 15.9831 21.1706 15.2158 21.7825 14.6361C22.3944 14.0563 23.2043 13.7021 24.067 13.6367ZM32.9021 19.5453C33.1185 19.3332 33.2382 19.049 33.2354 18.754C33.2327 18.459 33.1079 18.1769 32.8877 17.9683C32.6675 17.7597 32.3697 17.6414 32.0583 17.6388C31.7469 17.6362 31.447 17.7496 31.223 17.9546L27.3125 21.6593L25.777 20.2046C25.553 19.9997 25.2531 19.8863 24.9417 19.8888C24.6303 19.8914 24.3325 20.0097 24.1123 20.2183C23.8922 20.4269 23.7673 20.7091 23.7646 21.004C23.7618 21.299 23.8815 21.5832 24.0979 21.7954L26.4729 24.0454C26.6956 24.2563 26.9976 24.3748 27.3125 24.3748C27.6274 24.3748 27.9294 24.2563 28.1521 24.0454L32.9021 19.5453Z" fill="white"/>
</svg>