<svg width="68" height="68" viewBox="0 0 68 68" fill="none" xmlns="http://www.w3.org/2000/svg">
    <path d="M24 17.3332V23.9998H37.3333V30.6665H30.6666C28.8985 30.6665 27.2028 31.3689 25.9526 32.6191C24.7023 33.8694 24 35.5651 24 37.3332V50.6665H44V43.9998H30.6666V37.3332H37.3333C39.1014 37.3332 40.7971 36.6308 42.0473 35.3805C43.2976 34.1303 44 32.4346 44 30.6665V23.9998C44 22.2317 43.2976 20.536 42.0473 19.2858C40.7971 18.0355 39.1014 17.3332 37.3333 17.3332H24ZM34 0.666504C38.3774 0.666504 42.7119 1.5287 46.7561 3.20385C50.8003 4.87901 54.4749 7.33432 57.5702 10.4296C60.6655 13.5249 63.1208 17.1995 64.7959 21.2437C66.4711 25.2879 67.3333 29.6224 67.3333 33.9998C67.3333 42.8404 63.8214 51.3188 57.5702 57.5701C51.319 63.8213 42.8405 67.3332 34 67.3332C29.6226 67.3332 25.288 66.471 21.2438 64.7958C17.1997 63.1207 13.525 60.6653 10.4297 57.5701C4.17852 51.3188 0.666626 42.8404 0.666626 33.9998C0.666626 25.1593 4.17852 16.6808 10.4297 10.4296C16.6809 4.1784 25.1594 0.666504 34 0.666504Z" fill="#0171BB"/>
</svg>
