<svg width="60" height="60" viewBox="0 0 60 60" fill="none" xmlns="http://www.w3.org/2000/svg">
    <path d="M30 60C33.9397 60 37.8407 59.224 41.4805 57.7164C45.1203 56.2087 48.4274 53.999 51.2132 51.2132C53.999 48.4274 56.2087 45.1203 57.7164 41.4805C59.224 37.8407 60 33.9397 60 30C60 26.0603 59.224 22.1593 57.7164 18.5195C56.2087 14.8797 53.999 11.5726 51.2132 8.7868C48.4274 6.00104 45.1203 3.79125 41.4805 2.28361C37.8407 0.775973 33.9397 -5.87054e-08 30 0C22.0435 1.18561e-07 14.4129 3.16071 8.7868 8.7868C3.16071 14.4129 0 22.0435 0 30C0 37.9565 3.16071 45.5871 8.7868 51.2132C14.4129 56.8393 22.0435 60 30 60ZM35 17.5V42.5C35 43.163 34.7366 43.7989 34.2678 44.2678C33.7989 44.7366 33.163 45 32.5 45C31.837 45 31.2011 44.7366 30.7322 44.2678C30.2634 43.7989 30 43.163 30 42.5V27.05C29.0684 27.7886 28.0987 28.4779 27.095 29.115L26.385 29.58C26.1122 29.7735 25.8033 29.9102 25.4766 29.9821C25.15 30.0541 24.8122 30.0597 24.4833 29.9988C24.1544 29.9378 23.8412 29.8115 23.562 29.6272C23.2828 29.443 23.0435 29.2046 22.8581 28.9262C22.6727 28.6478 22.5451 28.3351 22.4828 28.0064C22.4204 27.6778 22.4247 27.34 22.4953 27.0131C22.5658 26.6861 22.7013 26.3767 22.8937 26.103C23.086 25.8294 23.3313 25.5971 23.615 25.42L24.395 24.9C25.965 23.865 26.975 23.2 27.82 22.25C28.695 21.26 29.485 19.835 30.05 17.01C30.1732 16.4033 30.5171 15.8638 31.0152 15.4961C31.5133 15.1284 32.1302 14.9586 32.7463 15.0196C33.3624 15.0806 33.934 15.368 34.3503 15.8262C34.7667 16.2845 34.9982 16.8809 35 17.5Z" fill="#0171BB"/>
</svg>