<svg width="55" height="69" viewBox="0 0 55 69" fill="none" xmlns="http://www.w3.org/2000/svg">
    <path d="M12.34 4H6C4.4087 4 2.88258 4.63214 1.75736 5.75736C0.63214 6.88258 0 8.4087 0 10V58C0 59.5913 0.63214 61.1174 1.75736 62.2426C2.88258 63.3679 4.4087 64 6 64H42C43.5913 64 45.1174 63.3679 46.2426 62.2426C47.3679 61.1174 48 59.5913 48 58V10C48 8.4087 47.3679 6.88258 46.2426 5.75736C45.1174 4.63214 43.5913 4 42 4H35.66C35.2462 2.82969 34.4797 1.81651 33.466 1.10011C32.4523 0.383711 31.2413 -0.00064992 30 8.24947e-07H18C16.7587 -0.00064992 15.5477 0.383711 14.534 1.10011C13.5203 1.81651 12.7538 2.82969 12.34 4V4ZM18 4H30C30.5304 4 31.0391 4.21072 31.4142 4.58579C31.7893 4.96086 32 5.46957 32 6C32 6.53043 31.7893 7.03914 31.4142 7.41421C31.0391 7.78929 30.5304 8 30 8H18C17.4696 8 16.9609 7.78929 16.5858 7.41421C16.2107 7.03914 16 6.53043 16 6C16 5.46957 16.2107 4.96086 16.5858 4.58579C16.9609 4.21072 17.4696 4 18 4V4ZM20 26C20 25.4696 20.2107 24.9609 20.5858 24.5858C20.9609 24.2107 21.4696 24 22 24H36C36.5304 24 37.0391 24.2107 37.4142 24.5858C37.7893 24.9609 38 25.4696 38 26C38 26.5304 37.7893 27.0391 37.4142 27.4142C37.0391 27.7893 36.5304 28 36 28H22C21.4696 28 20.9609 27.7893 20.5858 27.4142C20.2107 27.0391 20 26.5304 20 26ZM20 38C20 37.4696 20.2107 36.9609 20.5858 36.5858C20.9609 36.2107 21.4696 36 22 36H36C36.5304 36 37.0391 36.2107 37.4142 36.5858C37.7893 36.9609 38 37.4696 38 38C38 38.5304 37.7893 39.0391 37.4142 39.4142C37.0391 39.7893 36.5304 40 36 40H22C21.4696 40 20.9609 39.7893 20.5858 39.4142C20.2107 39.0391 20 38.5304 20 38ZM20 50C20 49.4696 20.2107 48.9609 20.5858 48.5858C20.9609 48.2107 21.4696 48 22 48H36C36.5304 48 37.0391 48.2107 37.4142 48.5858C37.7893 48.9609 38 49.4696 38 50C38 50.5304 37.7893 51.0391 37.4142 51.4142C37.0391 51.7893 36.5304 52 36 52H22C21.4696 52 20.9609 51.7893 20.5858 51.4142C20.2107 51.0391 20 50.5304 20 50ZM16 26C16 26.7956 15.6839 27.5587 15.1213 28.1213C14.5587 28.6839 13.7956 29 13 29C12.2044 29 11.4413 28.6839 10.8787 28.1213C10.3161 27.5587 10 26.7956 10 26C10 25.2044 10.3161 24.4413 10.8787 23.8787C11.4413 23.3161 12.2044 23 13 23C13.7956 23 14.5587 23.3161 15.1213 23.8787C15.6839 24.4413 16 25.2044 16 26ZM16 38C16 38.7956 15.6839 39.5587 15.1213 40.1213C14.5587 40.6839 13.7956 41 13 41C12.2044 41 11.4413 40.6839 10.8787 40.1213C10.3161 39.5587 10 38.7956 10 38C10 37.2044 10.3161 36.4413 10.8787 35.8787C11.4413 35.3161 12.2044 35 13 35C13.7956 35 14.5587 35.3161 15.1213 35.8787C15.6839 36.4413 16 37.2044 16 38ZM13 53C12.2044 53 11.4413 52.6839 10.8787 52.1213C10.3161 51.5587 10 50.7956 10 50C10 49.2044 10.3161 48.4413 10.8787 47.8787C11.4413 47.3161 12.2044 47 13 47C13.7956 47 14.5587 47.3161 15.1213 47.8787C15.6839 48.4413 16 49.2044 16 50C16 50.7956 15.6839 51.5587 15.1213 52.1213C14.5587 52.6839 13.7956 53 13 53Z" fill="#0171BB"/>
    <circle cx="45.7048" cy="59.7048" r="8.70485" fill="white"/>
    <path fill-rule="evenodd" clip-rule="evenodd" d="M42.4554 54.0076C43.0154 53.9629 43.547 53.7427 43.9744 53.3783C44.4573 52.9671 45.0708 52.7412 45.705 52.7412C46.3392 52.7412 46.9527 52.9671 47.4355 53.3783C47.863 53.7427 48.3945 53.9629 48.9545 54.0076C49.5868 54.0582 50.1805 54.3323 50.6291 54.7809C51.0776 55.2294 51.3518 55.8231 51.4023 56.4554C51.4467 57.0152 51.6669 57.547 52.0316 57.9744C52.4429 58.4573 52.6687 59.0708 52.6687 59.705C52.6687 60.3392 52.4429 60.9527 52.0316 61.4355C51.6672 61.863 51.447 62.3945 51.4023 62.9545C51.3518 63.5868 51.0776 64.1805 50.6291 64.6291C50.1805 65.0776 49.5868 65.3518 48.9545 65.4023C48.3945 65.447 47.863 65.6672 47.4355 66.0316C46.9527 66.4429 46.3392 66.6687 45.705 66.6687C45.0708 66.6687 44.4573 66.4429 43.9744 66.0316C43.547 65.6672 43.0154 65.447 42.4554 65.4023C41.8231 65.3518 41.2294 65.0776 40.7809 64.6291C40.3323 64.1805 40.0582 63.5868 40.0076 62.9545C39.9629 62.3945 39.7427 61.863 39.3783 61.4355C38.9671 60.9527 38.7412 60.3392 38.7412 59.705C38.7412 59.0708 38.9671 58.4573 39.3783 57.9744C39.7427 57.547 39.9629 57.0154 40.0076 56.4554C40.0582 55.8231 40.3323 55.2294 40.7809 54.7809C41.2294 54.3323 41.8231 54.0582 42.4554 54.0076V54.0076ZM48.9319 58.5794C49.0904 58.4153 49.1782 58.1954 49.1762 57.9671C49.1742 57.7389 49.0826 57.5206 48.9212 57.3592C48.7599 57.1978 48.5415 57.1062 48.3133 57.1042C48.085 57.1023 47.8652 57.19 47.701 57.3486L44.8345 60.2151L43.7089 59.0895C43.5448 58.931 43.3249 58.8432 43.0966 58.8452C42.8684 58.8472 42.6501 58.9387 42.4887 59.1001C42.3273 59.2615 42.2357 59.4799 42.2338 59.7081C42.2318 59.9363 42.3195 60.1562 42.4781 60.3204L44.219 62.0614C44.3823 62.2246 44.6037 62.3162 44.8345 62.3162C45.0653 62.3162 45.2867 62.2246 45.4499 62.0614L48.9319 58.5794V58.5794Z" fill="#0171BB"/>
</svg>