<svg width="68" height="68" viewBox="0 0 68 68" fill="none" xmlns="http://www.w3.org/2000/svg">
    <path fill-rule="evenodd" clip-rule="evenodd" d="M0.666626 3.99996C0.666626 3.1159 1.01782 2.26806 1.64294 1.64294C2.26806 1.01782 3.1159 0.666626 3.99996 0.666626H64C64.884 0.666626 65.7319 1.01782 66.357 1.64294C66.9821 2.26806 67.3333 3.1159 67.3333 3.99996C67.3333 4.88401 66.9821 5.73186 66.357 6.35698C65.7319 6.9821 64.884 7.33329 64 7.33329V44C64 44.884 63.6488 45.7319 63.0237 46.357C62.3985 46.9821 61.5507 47.3333 60.6666 47.3333H45.29L50.4966 62.9466C50.776 63.7856 50.7106 64.7012 50.3149 65.492C49.9192 66.2827 49.2256 66.8839 48.3866 67.1633C47.5477 67.4426 46.6321 67.3773 45.8413 66.9816C45.0505 66.5859 44.4493 65.8923 44.17 65.0533L38.2666 47.3333H29.74L23.8333 65.0533C23.5539 65.8923 22.9527 66.5859 22.162 66.9816C21.3712 67.3773 20.4556 67.4426 19.6166 67.1633C18.7777 66.8839 18.084 66.2827 17.6883 65.492C17.2926 64.7012 17.2273 63.7856 17.5066 62.9466L22.71 47.3333H7.33329C6.44924 47.3333 5.60139 46.9821 4.97627 46.357C4.35115 45.7319 3.99996 44.884 3.99996 44V7.33329C3.1159 7.33329 2.26806 6.9821 1.64294 6.35698C1.01782 5.73186 0.666626 4.88401 0.666626 3.99996ZM32.5166 14.56C32.0146 14.225 31.4311 14.0327 30.8283 14.0034C30.2256 13.9741 29.6262 14.109 29.0941 14.3937C28.562 14.6784 28.1171 15.1022 27.807 15.6199C27.4969 16.1376 27.3332 16.7298 27.3333 17.3333V30.6666C27.3332 31.2701 27.4969 31.8623 27.807 32.38C28.1171 32.8977 28.562 33.3215 29.0941 33.6062C29.6262 33.8909 30.2256 34.0258 30.8283 33.9965C31.4311 33.9673 32.0146 33.7749 32.5166 33.44L42.5166 26.7733C42.9732 26.4689 43.3475 26.0565 43.6064 25.5727C43.8653 25.0889 44.0007 24.5487 44.0007 24C44.0007 23.4513 43.8653 22.911 43.6064 22.4272C43.3475 21.9434 42.9732 21.531 42.5166 21.2266L32.5166 14.56ZM34.6566 24L34 24.4366V23.5666L34.6566 24.0033V24Z" fill="#0171BB"/>
</svg>
