<svg width="18" height="18" viewBox="0 0 18 18" fill="none" xmlns="http://www.w3.org/2000/svg">
<path d="M9 16.875C6.91142 16.875 4.90838 16.0453 3.43153 14.5685C1.95468 13.0916 1.125 11.0886 1.125 9C1.125 6.91142 1.95468 4.90838 3.43153 3.43153C4.90838 1.95468 6.91142 1.125 9 1.125C11.0886 1.125 13.0916 1.95468 14.5685 3.43153C16.0453 4.90838 16.875 6.91142 16.875 9C16.875 11.0886 16.0453 13.0916 14.5685 14.5685C13.0916 16.0453 11.0886 16.875 9 16.875ZM9 18C11.3869 18 13.6761 17.0518 15.364 15.364C17.0518 13.6761 18 11.3869 18 9C18 6.61305 17.0518 4.32387 15.364 2.63604C13.6761 0.948212 11.3869 0 9 0C6.61305 0 4.32387 0.948212 2.63604 2.63604C0.948212 4.32387 0 6.61305 0 9C0 11.3869 0.948212 13.6761 2.63604 15.364C4.32387 17.0518 6.61305 18 9 18Z" fill="#0171BB"/>
<path d="M12.3409 5.5912C12.3329 5.59897 12.3254 5.60723 12.3184 5.61595L8.41127 10.5941L6.05665 8.23832C5.8967 8.08928 5.68515 8.00815 5.46656 8.012C5.24797 8.01586 5.03941 8.10441 4.88482 8.259C4.73023 8.41359 4.64168 8.62215 4.63783 8.84074C4.63397 9.05933 4.71511 9.27088 4.86415 9.43082L7.8409 12.4087C7.92109 12.4887 8.01658 12.5518 8.12168 12.5942C8.22678 12.6365 8.33933 12.6572 8.45261 12.6551C8.5659 12.653 8.6776 12.6281 8.78106 12.5819C8.88451 12.5357 8.9776 12.4692 9.05477 12.3862L13.5458 6.77245C13.6987 6.61195 13.7823 6.39771 13.7785 6.17605C13.7747 5.95439 13.6839 5.74313 13.5256 5.58793C13.3673 5.43273 13.1543 5.34607 12.9326 5.34668C12.7109 5.34729 12.4983 5.43513 12.3409 5.5912Z" fill="#0171BB"/>
</svg>
