<svg width="26" height="26" viewBox="0 0 26 26" fill="none" xmlns="http://www.w3.org/2000/svg">
<g clip-path="url(#clip0)">
<path d="M18.7778 14.0777C15.5386 14.0777 12.9097 16.7066 12.9097 19.9457C12.9097 23.1849 15.5386 25.8138 18.7778 25.8138C22.0169 25.8138 24.6458 23.1849 24.6458 19.9457C24.6458 16.7066 22.0169 14.0777 18.7778 14.0777ZM20.7142 22.7037L18.191 20.1805V16.4249H19.3646V19.6993L21.5357 21.8705L20.7142 22.7037ZM19.9514 3.51519H16.2193C15.7264 2.1538 14.4354 1.16797 12.9097 1.16797C11.384 1.16797 10.093 2.1538 9.60012 3.51519H5.86804C4.57706 3.51519 3.52081 4.57144 3.52081 5.86241V23.4666C3.52081 24.7575 4.57706 25.8138 5.86804 25.8138H13.0388C12.3464 25.1448 11.783 24.3468 11.3723 23.4666H5.86804V5.86241H8.21526V9.38325H17.6041V5.86241H19.9514V11.8244C20.7846 11.9417 21.571 12.1882 22.2986 12.5285V5.86241C22.2986 4.57144 21.2423 3.51519 19.9514 3.51519ZM12.9097 5.86241C12.2642 5.86241 11.7361 5.33429 11.7361 4.6888C11.7361 4.04332 12.2642 3.51519 12.9097 3.51519C13.5552 3.51519 14.0833 4.04332 14.0833 4.6888C14.0833 5.33429 13.5552 5.86241 12.9097 5.86241Z" fill="white"/>
</g>
<defs>
<clipPath id="clip0">
<rect width="26" height="26" fill="white"/>
</clipPath>
</defs>
</svg>
