<svg width="549" height="51" viewBox="0 0 549 51" fill="none" xmlns="http://www.w3.org/2000/svg">
<rect x="25" y="17" width="497" height="3" fill="#0171BB"/>
<path d="M4.32922 47.15C3.63589 47.15 3.00922 47 2.44922 46.7C1.88922 46.3933 1.44922 45.9633 1.12922 45.41C0.809219 44.8567 0.649219 44.2233 0.649219 43.51C0.649219 42.7967 0.809219 42.1633 1.12922 41.61C1.44922 41.0567 1.88922 40.6267 2.44922 40.32C3.00922 40.0133 3.63589 39.86 4.32922 39.86C5.02255 39.86 5.64922 40.0133 6.20922 40.32C6.76922 40.6267 7.20922 41.0567 7.52922 41.61C7.84922 42.1633 8.00922 42.7967 8.00922 43.51C8.00922 44.2233 7.84922 44.8567 7.52922 45.41C7.20922 45.9633 6.76922 46.3933 6.20922 46.7C5.64922 47 5.02255 47.15 4.32922 47.15ZM4.32922 46.23C4.82255 46.23 5.26922 46.12 5.66922 45.9C6.07589 45.6733 6.39589 45.3567 6.62922 44.95C6.86255 44.5367 6.97922 44.0567 6.97922 43.51C6.97922 42.97 6.86255 42.4967 6.62922 42.09C6.40255 41.6767 6.08922 41.36 5.68922 41.14C5.28922 40.9133 4.84255 40.8 4.34922 40.8C3.84922 40.8 3.39589 40.91 2.98922 41.13C2.58922 41.35 2.26922 41.6667 2.02922 42.08C1.79589 42.4933 1.67922 42.97 1.67922 43.51C1.67922 44.0567 1.79589 44.5367 2.02922 44.95C2.26255 45.3567 2.57922 45.6733 2.97922 45.9C3.38589 46.12 3.83589 46.23 4.32922 46.23ZM9.11094 42.2H10.0909V43.06C10.2909 42.7667 10.5709 42.55 10.9309 42.41C11.2976 42.27 11.7209 42.2 12.2009 42.2V42.99C11.6876 42.99 11.2476 43.0733 10.8809 43.24C10.5143 43.4067 10.2609 43.67 10.1209 44.03V47H9.11094V42.2ZM15.2786 47.15C14.7986 47.15 14.3653 47.0467 13.9786 46.84C13.5986 46.6267 13.2986 46.33 13.0786 45.95C12.8653 45.5633 12.7586 45.1167 12.7586 44.61C12.7586 44.11 12.8653 43.6667 13.0786 43.28C13.2986 42.8933 13.5986 42.5933 13.9786 42.38C14.3653 42.16 14.7986 42.05 15.2786 42.05C16.1453 42.05 16.8019 42.3133 17.2486 42.84V39.61H18.2586V47H17.2786V46.3C17.0119 46.5933 16.7186 46.81 16.3986 46.95C16.0853 47.0833 15.7119 47.15 15.2786 47.15ZM15.5086 46.35C15.9219 46.35 16.2819 46.2433 16.5886 46.03C16.9019 45.81 17.1219 45.5167 17.2486 45.15V44.07C17.1353 43.7033 16.9186 43.41 16.5986 43.19C16.2853 42.97 15.9219 42.86 15.5086 42.86C15.1819 42.86 14.8853 42.9333 14.6186 43.08C14.3586 43.2267 14.1519 43.4333 13.9986 43.7C13.8519 43.9667 13.7786 44.27 13.7786 44.61C13.7786 44.95 13.8519 45.2533 13.9986 45.52C14.1519 45.7867 14.3586 45.9933 14.6186 46.14C14.8853 46.28 15.1819 46.35 15.5086 46.35ZM22.2002 47.15C21.3135 47.15 20.6168 46.93 20.1102 46.49C19.6102 46.0433 19.3602 45.4167 19.3602 44.61C19.3602 43.8233 19.5835 43.2 20.0302 42.74C20.4835 42.28 21.1268 42.05 21.9602 42.05C22.5135 42.05 22.9835 42.1567 23.3702 42.37C23.7568 42.5767 24.0468 42.8667 24.2402 43.24C24.4402 43.6067 24.5402 44.0267 24.5402 44.5V45H20.3202C20.3535 45.4533 20.5435 45.7933 20.8902 46.02C21.2435 46.24 21.7202 46.35 22.3202 46.35C22.6268 46.35 22.9368 46.3233 23.2502 46.27C23.5635 46.21 23.8402 46.1333 24.0802 46.04V46.85C23.8668 46.9367 23.5835 47.0067 23.2302 47.06C22.8835 47.12 22.5402 47.15 22.2002 47.15ZM23.5902 44.29C23.5768 43.8367 23.4268 43.4867 23.1402 43.24C22.8602 42.9867 22.4602 42.86 21.9402 42.86C21.4335 42.86 21.0402 42.99 20.7602 43.25C20.4802 43.51 20.3335 43.8567 20.3202 44.29H23.5902ZM25.6441 42.2H26.6241V43.06C26.8241 42.7667 27.1041 42.55 27.4641 42.41C27.8308 42.27 28.2541 42.2 28.7341 42.2V42.99C28.2208 42.99 27.7808 43.0733 27.4141 43.24C27.0475 43.4067 26.7941 43.67 26.6541 44.03V47H25.6441V42.2ZM33.3395 40.01H36.1495C36.8961 40.01 37.4695 40.19 37.8695 40.55C38.2695 40.91 38.4695 41.4367 38.4695 42.13C38.4695 42.6433 38.3328 43.08 38.0595 43.44C37.7861 43.7933 37.3995 44.0333 36.8995 44.16L38.4395 47H37.3795L35.8895 44.24H34.3595V47H33.3395V40.01ZM35.9795 43.38C36.4261 43.38 36.7795 43.2767 37.0395 43.07C37.3061 42.8567 37.4395 42.5433 37.4395 42.13C37.4395 41.6767 37.3095 41.3533 37.0495 41.16C36.7961 40.9667 36.4395 40.87 35.9795 40.87H34.3595V43.38H35.9795ZM41.8095 47.15C40.9229 47.15 40.2262 46.93 39.7195 46.49C39.2195 46.0433 38.9695 45.4167 38.9695 44.61C38.9695 43.8233 39.1929 43.2 39.6395 42.74C40.0929 42.28 40.7362 42.05 41.5695 42.05C42.1229 42.05 42.5929 42.1567 42.9795 42.37C43.3662 42.5767 43.6562 42.8667 43.8495 43.24C44.0495 43.6067 44.1495 44.0267 44.1495 44.5V45H39.9295C39.9629 45.4533 40.1529 45.7933 40.4995 46.02C40.8529 46.24 41.3295 46.35 41.9295 46.35C42.2362 46.35 42.5462 46.3233 42.8595 46.27C43.1729 46.21 43.4495 46.1333 43.6895 46.04V46.85C43.4762 46.9367 43.1929 47.0067 42.8395 47.06C42.4929 47.12 42.1495 47.15 41.8095 47.15ZM43.1995 44.29C43.1862 43.8367 43.0362 43.4867 42.7495 43.24C42.4695 42.9867 42.0695 42.86 41.5495 42.86C41.0429 42.86 40.6495 42.99 40.3695 43.25C40.0895 43.51 39.9429 43.8567 39.9295 44.29H43.1995ZM47.7835 47.15C47.2502 47.15 46.7768 47.05 46.3635 46.85C45.9502 46.65 45.6268 46.36 45.3935 45.98C45.1668 45.5933 45.0535 45.1367 45.0535 44.61C45.0535 44.0833 45.1668 43.63 45.3935 43.25C45.6268 42.8633 45.9502 42.5667 46.3635 42.36C46.7835 42.1533 47.2635 42.05 47.8035 42.05C48.5368 42.05 49.1235 42.1933 49.5635 42.48V43.31C49.1302 43.01 48.5768 42.86 47.9035 42.86C47.3568 42.86 46.9135 43.01 46.5735 43.31C46.2402 43.6033 46.0735 44.0367 46.0735 44.61C46.0735 45.1833 46.2402 45.6167 46.5735 45.91C46.9068 46.2033 47.3435 46.35 47.8835 46.35C48.5568 46.35 49.1368 46.19 49.6235 45.87V46.69C49.3902 46.85 49.1235 46.9667 48.8235 47.04C48.5302 47.1133 48.1835 47.15 47.7835 47.15ZM53.3623 47.15C52.4756 47.15 51.7789 46.93 51.2723 46.49C50.7723 46.0433 50.5223 45.4167 50.5223 44.61C50.5223 43.8233 50.7456 43.2 51.1923 42.74C51.6456 42.28 52.2889 42.05 53.1223 42.05C53.6756 42.05 54.1456 42.1567 54.5323 42.37C54.9189 42.5767 55.2089 42.8667 55.4023 43.24C55.6023 43.6067 55.7023 44.0267 55.7023 44.5V45H51.4823C51.5156 45.4533 51.7056 45.7933 52.0523 46.02C52.4056 46.24 52.8823 46.35 53.4823 46.35C53.7889 46.35 54.0989 46.3233 54.4123 46.27C54.7256 46.21 55.0023 46.1333 55.2423 46.04V46.85C55.0289 46.9367 54.7456 47.0067 54.3923 47.06C54.0456 47.12 53.7023 47.15 53.3623 47.15ZM54.7523 44.29C54.7389 43.8367 54.5889 43.4867 54.3023 43.24C54.0223 42.9867 53.6223 42.86 53.1023 42.86C52.5956 42.86 52.2023 42.99 51.9223 43.25C51.6423 43.51 51.4956 43.8567 51.4823 44.29H54.7523ZM57.3963 41.26C57.2296 41.26 57.0896 41.2033 56.9763 41.09C56.8629 40.9767 56.8063 40.8367 56.8063 40.67C56.8063 40.5033 56.8629 40.3633 56.9763 40.25C57.0896 40.1367 57.2296 40.08 57.3963 40.08C57.5696 40.08 57.7129 40.1367 57.8263 40.25C57.9463 40.3633 58.0063 40.5033 58.0063 40.67C58.0063 40.8367 57.9463 40.9767 57.8263 41.09C57.7129 41.2033 57.5696 41.26 57.3963 41.26ZM56.8863 42.2H57.9163V47H56.8863V42.2ZM59.1063 42.2H60.1763L61.5863 45.65L62.9963 42.2H64.0663L62.0263 47H61.1463L59.1063 42.2ZM67.4052 47.15C66.5186 47.15 65.8219 46.93 65.3152 46.49C64.8152 46.0433 64.5652 45.4167 64.5652 44.61C64.5652 43.8233 64.7886 43.2 65.2352 42.74C65.6886 42.28 66.3319 42.05 67.1652 42.05C67.7186 42.05 68.1886 42.1567 68.5752 42.37C68.9619 42.5767 69.2519 42.8667 69.4452 43.24C69.6452 43.6067 69.7452 44.0267 69.7452 44.5V45H65.5252C65.5586 45.4533 65.7486 45.7933 66.0952 46.02C66.4486 46.24 66.9252 46.35 67.5252 46.35C67.8319 46.35 68.1419 46.3233 68.4552 46.27C68.7686 46.21 69.0452 46.1333 69.2852 46.04V46.85C69.0719 46.9367 68.7886 47.0067 68.4352 47.06C68.0886 47.12 67.7452 47.15 67.4052 47.15ZM68.7952 44.29C68.7819 43.8367 68.6319 43.4867 68.3452 43.24C68.0652 42.9867 67.6652 42.86 67.1452 42.86C66.6386 42.86 66.2452 42.99 65.9652 43.25C65.6852 43.51 65.5386 43.8567 65.5252 44.29H68.7952ZM73.1692 47.15C72.6892 47.15 72.2559 47.0467 71.8692 46.84C71.4892 46.6267 71.1892 46.33 70.9692 45.95C70.7559 45.5633 70.6492 45.1167 70.6492 44.61C70.6492 44.11 70.7559 43.6667 70.9692 43.28C71.1892 42.8933 71.4892 42.5933 71.8692 42.38C72.2559 42.16 72.6892 42.05 73.1692 42.05C74.0359 42.05 74.6926 42.3133 75.1392 42.84V39.61H76.1492V47H75.1692V46.3C74.9026 46.5933 74.6092 46.81 74.2892 46.95C73.9759 47.0833 73.6026 47.15 73.1692 47.15ZM73.3992 46.35C73.8126 46.35 74.1726 46.2433 74.4792 46.03C74.7926 45.81 75.0126 45.5167 75.1392 45.15V44.07C75.0259 43.7033 74.8092 43.41 74.4892 43.19C74.1759 42.97 73.8126 42.86 73.3992 42.86C73.0726 42.86 72.7759 42.9333 72.5092 43.08C72.2492 43.2267 72.0426 43.4333 71.8892 43.7C71.7426 43.9667 71.6692 44.27 71.6692 44.61C71.6692 44.95 71.7426 45.2533 71.8892 45.52C72.0426 45.7867 72.2492 45.9933 72.5092 46.14C72.7759 46.28 73.0726 46.35 73.3992 46.35Z" fill="#616161"/>
<path d="M128.263 41.11L126.753 42.2V41.23L128.403 40.01H129.283V47H128.263V41.11ZM139.758 47.15C139.425 47.15 139.071 47.1067 138.698 47.02C138.325 46.94 138.031 46.83 137.818 46.69V45.83C138.078 45.9833 138.378 46.11 138.718 46.21C139.058 46.3033 139.388 46.35 139.708 46.35C140.068 46.35 140.331 46.3067 140.498 46.22C140.665 46.1333 140.748 45.9933 140.748 45.8C140.748 45.6533 140.708 45.5367 140.628 45.45C140.555 45.3567 140.425 45.2733 140.238 45.2C140.058 45.1267 139.785 45.04 139.418 44.94C139.025 44.8267 138.711 44.7133 138.478 44.6C138.251 44.48 138.078 44.33 137.958 44.15C137.845 43.97 137.788 43.7367 137.788 43.45C137.788 42.99 137.968 42.6433 138.328 42.41C138.695 42.17 139.185 42.05 139.798 42.05C140.118 42.05 140.431 42.08 140.738 42.14C141.045 42.2 141.291 42.2833 141.478 42.39V43.23C141.285 43.1167 141.045 43.0267 140.758 42.96C140.478 42.8933 140.191 42.86 139.898 42.86C139.545 42.86 139.275 42.9033 139.088 42.99C138.901 43.0767 138.808 43.23 138.808 43.45C138.808 43.59 138.848 43.7033 138.928 43.79C139.008 43.8767 139.135 43.9533 139.308 44.02C139.488 44.08 139.771 44.16 140.158 44.26C140.765 44.4267 141.185 44.6233 141.418 44.85C141.658 45.0767 141.778 45.39 141.778 45.79C141.778 46.2033 141.608 46.5333 141.268 46.78C140.928 47.0267 140.425 47.15 139.758 47.15ZM145.52 47.15C144.634 47.15 143.937 46.93 143.43 46.49C142.93 46.0433 142.68 45.4167 142.68 44.61C142.68 43.8233 142.904 43.2 143.35 42.74C143.804 42.28 144.447 42.05 145.28 42.05C145.834 42.05 146.304 42.1567 146.69 42.37C147.077 42.5767 147.367 42.8667 147.56 43.24C147.76 43.6067 147.86 44.0267 147.86 44.5V45H143.64C143.674 45.4533 143.864 45.7933 144.21 46.02C144.564 46.24 145.04 46.35 145.64 46.35C145.947 46.35 146.257 46.3233 146.57 46.27C146.884 46.21 147.16 46.1333 147.4 46.04V46.85C147.187 46.9367 146.904 47.0067 146.55 47.06C146.204 47.12 145.86 47.15 145.52 47.15ZM146.91 44.29C146.897 43.8367 146.747 43.4867 146.46 43.24C146.18 42.9867 145.78 42.86 145.26 42.86C144.754 42.86 144.36 42.99 144.08 43.25C143.8 43.51 143.654 43.8567 143.64 44.29H146.91ZM150.814 47.15C150.328 47.15 149.951 47.01 149.684 46.73C149.424 46.45 149.294 46.0533 149.294 45.54V42.98H148.564V42.2H149.294V40.76H150.314V42.2H151.494V42.98H150.314V45.47C150.314 45.79 150.374 46.0167 150.494 46.15C150.621 46.2833 150.848 46.35 151.174 46.35C151.368 46.35 151.561 46.3067 151.754 46.22V47.02C151.501 47.1067 151.188 47.15 150.814 47.15ZM156.406 40.01H159.096C159.849 40.01 160.443 40.2 160.876 40.58C161.316 40.9533 161.536 41.4867 161.536 42.18C161.536 42.8867 161.319 43.4233 160.886 43.79C160.453 44.15 159.856 44.33 159.096 44.33H157.426V47H156.406V40.01ZM158.986 43.48C159.453 43.48 159.823 43.3833 160.096 43.19C160.369 42.9967 160.506 42.66 160.506 42.18C160.506 41.7 160.369 41.3633 160.096 41.17C159.823 40.97 159.453 40.87 158.986 40.87H157.426V43.48H158.986ZM162.431 42.2H163.411V43.06C163.611 42.7667 163.891 42.55 164.251 42.41C164.618 42.27 165.041 42.2 165.521 42.2V42.99C165.008 42.99 164.568 43.0733 164.201 43.24C163.835 43.4067 163.581 43.67 163.441 44.03V47H162.431V42.2ZM167.015 41.26C166.849 41.26 166.709 41.2033 166.595 41.09C166.482 40.9767 166.425 40.8367 166.425 40.67C166.425 40.5033 166.482 40.3633 166.595 40.25C166.709 40.1367 166.849 40.08 167.015 40.08C167.189 40.08 167.332 40.1367 167.445 40.25C167.565 40.3633 167.625 40.5033 167.625 40.67C167.625 40.8367 167.565 40.9767 167.445 41.09C167.332 41.2033 167.189 41.26 167.015 41.26ZM166.505 42.2H167.535V47H166.505V42.2ZM168.925 42.2H169.905V42.89C170.132 42.6033 170.409 42.3933 170.735 42.26C171.069 42.12 171.415 42.05 171.775 42.05C172.415 42.05 172.892 42.22 173.205 42.56C173.519 42.9 173.675 43.3567 173.675 43.93V47H172.665V44.03C172.665 43.25 172.292 42.86 171.545 42.86C171.225 42.86 170.925 42.9367 170.645 43.09C170.372 43.2367 170.135 43.4633 169.935 43.77V47H168.925V42.2ZM176.771 47.15C176.285 47.15 175.908 47.01 175.641 46.73C175.381 46.45 175.251 46.0533 175.251 45.54V42.98H174.521V42.2H175.251V40.76H176.271V42.2H177.451V42.98H176.271V45.47C176.271 45.79 176.331 46.0167 176.451 46.15C176.578 46.2833 176.805 46.35 177.131 46.35C177.325 46.35 177.518 46.3067 177.711 46.22V47.02C177.458 47.1067 177.145 47.15 176.771 47.15ZM181.302 47.15C180.415 47.15 179.718 46.93 179.212 46.49C178.712 46.0433 178.462 45.4167 178.462 44.61C178.462 43.8233 178.685 43.2 179.132 42.74C179.585 42.28 180.228 42.05 181.062 42.05C181.615 42.05 182.085 42.1567 182.472 42.37C182.858 42.5767 183.148 42.8667 183.342 43.24C183.542 43.6067 183.642 44.0267 183.642 44.5V45H179.422C179.455 45.4533 179.645 45.7933 179.992 46.02C180.345 46.24 180.822 46.35 181.422 46.35C181.728 46.35 182.038 46.3233 182.352 46.27C182.665 46.21 182.942 46.1333 183.182 46.04V46.85C182.968 46.9367 182.685 47.0067 182.332 47.06C181.985 47.12 181.642 47.15 181.302 47.15ZM182.692 44.29C182.678 43.8367 182.528 43.4867 182.242 43.24C181.962 42.9867 181.562 42.86 181.042 42.86C180.535 42.86 180.142 42.99 179.862 43.25C179.582 43.51 179.435 43.8567 179.422 44.29H182.692ZM187.066 47.15C186.586 47.15 186.152 47.0467 185.766 46.84C185.386 46.6267 185.086 46.33 184.866 45.95C184.652 45.5633 184.546 45.1167 184.546 44.61C184.546 44.11 184.652 43.6667 184.866 43.28C185.086 42.8933 185.386 42.5933 185.766 42.38C186.152 42.16 186.586 42.05 187.066 42.05C187.932 42.05 188.589 42.3133 189.036 42.84V39.61H190.046V47H189.066V46.3C188.799 46.5933 188.506 46.81 188.186 46.95C187.872 47.0833 187.499 47.15 187.066 47.15ZM187.296 46.35C187.709 46.35 188.069 46.2433 188.376 46.03C188.689 45.81 188.909 45.5167 189.036 45.15V44.07C188.922 43.7033 188.706 43.41 188.386 43.19C188.072 42.97 187.709 42.86 187.296 42.86C186.969 42.86 186.672 42.9333 186.406 43.08C186.146 43.2267 185.939 43.4333 185.786 43.7C185.639 43.9667 185.566 44.27 185.566 44.61C185.566 44.95 185.639 45.2533 185.786 45.52C185.939 45.7867 186.146 45.9933 186.406 46.14C186.672 46.28 186.969 46.35 187.296 46.35Z" fill="#616161"/>
<path d="M241.309 41.11L239.799 42.2V41.23L241.449 40.01H242.329V47H241.309V41.11ZM252.804 47.15C252.47 47.15 252.117 47.1067 251.744 47.02C251.37 46.94 251.077 46.83 250.864 46.69V45.83C251.124 45.9833 251.424 46.11 251.764 46.21C252.104 46.3033 252.434 46.35 252.754 46.35C253.114 46.35 253.377 46.3067 253.544 46.22C253.71 46.1333 253.794 45.9933 253.794 45.8C253.794 45.6533 253.754 45.5367 253.674 45.45C253.6 45.3567 253.47 45.2733 253.284 45.2C253.104 45.1267 252.83 45.04 252.464 44.94C252.07 44.8267 251.757 44.7133 251.524 44.6C251.297 44.48 251.124 44.33 251.004 44.15C250.89 43.97 250.834 43.7367 250.834 43.45C250.834 42.99 251.014 42.6433 251.374 42.41C251.74 42.17 252.23 42.05 252.844 42.05C253.164 42.05 253.477 42.08 253.784 42.14C254.09 42.2 254.337 42.2833 254.524 42.39V43.23C254.33 43.1167 254.09 43.0267 253.804 42.96C253.524 42.8933 253.237 42.86 252.944 42.86C252.59 42.86 252.32 42.9033 252.134 42.99C251.947 43.0767 251.854 43.23 251.854 43.45C251.854 43.59 251.894 43.7033 251.974 43.79C252.054 43.8767 252.18 43.9533 252.354 44.02C252.534 44.08 252.817 44.16 253.204 44.26C253.81 44.4267 254.23 44.6233 254.464 44.85C254.704 45.0767 254.824 45.39 254.824 45.79C254.824 46.2033 254.654 46.5333 254.314 46.78C253.974 47.0267 253.47 47.15 252.804 47.15ZM258.566 47.15C257.68 47.15 256.983 46.93 256.476 46.49C255.976 46.0433 255.726 45.4167 255.726 44.61C255.726 43.8233 255.95 43.2 256.396 42.74C256.85 42.28 257.493 42.05 258.326 42.05C258.88 42.05 259.35 42.1567 259.736 42.37C260.123 42.5767 260.413 42.8667 260.606 43.24C260.806 43.6067 260.906 44.0267 260.906 44.5V45H256.686C256.72 45.4533 256.91 45.7933 257.256 46.02C257.61 46.24 258.086 46.35 258.686 46.35C258.993 46.35 259.303 46.3233 259.616 46.27C259.93 46.21 260.206 46.1333 260.446 46.04V46.85C260.233 46.9367 259.95 47.0067 259.596 47.06C259.25 47.12 258.906 47.15 258.566 47.15ZM259.956 44.29C259.943 43.8367 259.793 43.4867 259.506 43.24C259.226 42.9867 258.826 42.86 258.306 42.86C257.8 42.86 257.406 42.99 257.126 43.25C256.846 43.51 256.7 43.8567 256.686 44.29H259.956ZM263.86 47.15C263.374 47.15 262.997 47.01 262.73 46.73C262.47 46.45 262.34 46.0533 262.34 45.54V42.98H261.61V42.2H262.34V40.76H263.36V42.2H264.54V42.98H263.36V45.47C263.36 45.79 263.42 46.0167 263.54 46.15C263.667 46.2833 263.894 46.35 264.22 46.35C264.414 46.35 264.607 46.3067 264.8 46.22V47.02C264.547 47.1067 264.234 47.15 263.86 47.15ZM269.452 40.01H271.702C272.455 40.01 273.108 40.15 273.662 40.43C274.215 40.71 274.638 41.11 274.932 41.63C275.232 42.15 275.382 42.7633 275.382 43.47C275.382 44.63 275.045 45.51 274.372 46.11C273.705 46.7033 272.768 47 271.562 47H269.452V40.01ZM271.552 46.15C272.485 46.15 273.185 45.92 273.652 45.46C274.118 45 274.352 44.3367 274.352 43.47C274.352 42.67 274.122 42.0367 273.662 41.57C273.208 41.1033 272.558 40.87 271.712 40.87H270.472V46.15H271.552ZM279.123 47.15C278.236 47.15 277.54 46.93 277.033 46.49C276.533 46.0433 276.283 45.4167 276.283 44.61C276.283 43.8233 276.506 43.2 276.953 42.74C277.406 42.28 278.05 42.05 278.883 42.05C279.436 42.05 279.906 42.1567 280.293 42.37C280.68 42.5767 280.97 42.8667 281.163 43.24C281.363 43.6067 281.463 44.0267 281.463 44.5V45H277.243C277.276 45.4533 277.466 45.7933 277.813 46.02C278.166 46.24 278.643 46.35 279.243 46.35C279.55 46.35 279.86 46.3233 280.173 46.27C280.486 46.21 280.763 46.1333 281.003 46.04V46.85C280.79 46.9367 280.506 47.0067 280.153 47.06C279.806 47.12 279.463 47.15 279.123 47.15ZM280.513 44.29C280.5 43.8367 280.35 43.4867 280.063 43.24C279.783 42.9867 279.383 42.86 278.863 42.86C278.356 42.86 277.963 42.99 277.683 43.25C277.403 43.51 277.256 43.8567 277.243 44.29H280.513ZM282.567 39.61H283.577V47H282.567V39.61ZM285.471 41.26C285.305 41.26 285.165 41.2033 285.051 41.09C284.938 40.9767 284.881 40.8367 284.881 40.67C284.881 40.5033 284.938 40.3633 285.051 40.25C285.165 40.1367 285.305 40.08 285.471 40.08C285.645 40.08 285.788 40.1367 285.901 40.25C286.021 40.3633 286.081 40.5033 286.081 40.67C286.081 40.8367 286.021 40.9767 285.901 41.09C285.788 41.2033 285.645 41.26 285.471 41.26ZM284.961 42.2H285.991V47H284.961V42.2ZM287.181 42.2H288.251L289.661 45.65L291.071 42.2H292.141L290.101 47H289.221L287.181 42.2ZM295.48 47.15C294.594 47.15 293.897 46.93 293.39 46.49C292.89 46.0433 292.64 45.4167 292.64 44.61C292.64 43.8233 292.864 43.2 293.31 42.74C293.764 42.28 294.407 42.05 295.24 42.05C295.794 42.05 296.264 42.1567 296.65 42.37C297.037 42.5767 297.327 42.8667 297.52 43.24C297.72 43.6067 297.82 44.0267 297.82 44.5V45H293.6C293.634 45.4533 293.824 45.7933 294.17 46.02C294.524 46.24 295 46.35 295.6 46.35C295.907 46.35 296.217 46.3233 296.53 46.27C296.844 46.21 297.12 46.1333 297.36 46.04V46.85C297.147 46.9367 296.864 47.0067 296.51 47.06C296.164 47.12 295.82 47.15 295.48 47.15ZM296.87 44.29C296.857 43.8367 296.707 43.4867 296.42 43.24C296.14 42.9867 295.74 42.86 295.22 42.86C294.714 42.86 294.32 42.99 294.04 43.25C293.76 43.51 293.614 43.8567 293.6 44.29H296.87ZM298.924 42.2H299.904V43.06C300.104 42.7667 300.384 42.55 300.744 42.41C301.111 42.27 301.534 42.2 302.014 42.2V42.99C301.501 42.99 301.061 43.0733 300.694 43.24C300.328 43.4067 300.074 43.67 299.934 44.03V47H298.924V42.2ZM305.256 47.15C304.369 47.15 303.672 46.93 303.166 46.49C302.666 46.0433 302.416 45.4167 302.416 44.61C302.416 43.8233 302.639 43.2 303.086 42.74C303.539 42.28 304.182 42.05 305.016 42.05C305.569 42.05 306.039 42.1567 306.426 42.37C306.812 42.5767 307.102 42.8667 307.296 43.24C307.496 43.6067 307.596 44.0267 307.596 44.5V45H303.376C303.409 45.4533 303.599 45.7933 303.946 46.02C304.299 46.24 304.776 46.35 305.376 46.35C305.682 46.35 305.992 46.3233 306.306 46.27C306.619 46.21 306.896 46.1333 307.136 46.04V46.85C306.922 46.9367 306.639 47.0067 306.286 47.06C305.939 47.12 305.596 47.15 305.256 47.15ZM306.646 44.29C306.632 43.8367 306.482 43.4867 306.196 43.24C305.916 42.9867 305.516 42.86 304.996 42.86C304.489 42.86 304.096 42.99 303.816 43.25C303.536 43.51 303.389 43.8567 303.376 44.29H306.646ZM311.02 47.15C310.54 47.15 310.106 47.0467 309.72 46.84C309.34 46.6267 309.04 46.33 308.82 45.95C308.606 45.5633 308.5 45.1167 308.5 44.61C308.5 44.11 308.606 43.6667 308.82 43.28C309.04 42.8933 309.34 42.5933 309.72 42.38C310.106 42.16 310.54 42.05 311.02 42.05C311.886 42.05 312.543 42.3133 312.99 42.84V39.61H314V47H313.02V46.3C312.753 46.5933 312.46 46.81 312.14 46.95C311.826 47.0833 311.453 47.15 311.02 47.15ZM311.25 46.35C311.663 46.35 312.023 46.2433 312.33 46.03C312.643 45.81 312.863 45.5167 312.99 45.15V44.07C312.876 43.7033 312.66 43.41 312.34 43.19C312.026 42.97 311.663 42.86 311.25 42.86C310.923 42.86 310.626 42.9333 310.36 43.08C310.1 43.2267 309.893 43.4333 309.74 43.7C309.593 43.9667 309.52 44.27 309.52 44.61C309.52 44.95 309.593 45.2533 309.74 45.52C309.893 45.7867 310.1 45.9933 310.36 46.14C310.626 46.28 310.923 46.35 311.25 46.35Z" fill="#616161"/>
<path d="M467.362 40.01H468.342L471.132 47H470.092L469.392 45.26H466.302L465.622 47H464.572L467.362 40.01ZM469.112 44.41L467.852 41.14L466.592 44.41H469.112ZM472.233 39.61H473.243V47H472.233V39.61ZM474.547 39.61H475.557V47H474.547V39.61ZM482.333 47.15C482 47.15 481.646 47.1067 481.273 47.02C480.9 46.94 480.606 46.83 480.393 46.69V45.83C480.653 45.9833 480.953 46.11 481.293 46.21C481.633 46.3033 481.963 46.35 482.283 46.35C482.643 46.35 482.906 46.3067 483.073 46.22C483.24 46.1333 483.323 45.9933 483.323 45.8C483.323 45.6533 483.283 45.5367 483.203 45.45C483.13 45.3567 483 45.2733 482.813 45.2C482.633 45.1267 482.36 45.04 481.993 44.94C481.6 44.8267 481.286 44.7133 481.053 44.6C480.826 44.48 480.653 44.33 480.533 44.15C480.42 43.97 480.363 43.7367 480.363 43.45C480.363 42.99 480.543 42.6433 480.903 42.41C481.27 42.17 481.76 42.05 482.373 42.05C482.693 42.05 483.006 42.08 483.313 42.14C483.62 42.2 483.866 42.2833 484.053 42.39V43.23C483.86 43.1167 483.62 43.0267 483.333 42.96C483.053 42.8933 482.766 42.86 482.473 42.86C482.12 42.86 481.85 42.9033 481.663 42.99C481.476 43.0767 481.383 43.23 481.383 43.45C481.383 43.59 481.423 43.7033 481.503 43.79C481.583 43.8767 481.71 43.9533 481.883 44.02C482.063 44.08 482.346 44.16 482.733 44.26C483.34 44.4267 483.76 44.6233 483.993 44.85C484.233 45.0767 484.353 45.39 484.353 45.79C484.353 46.2033 484.183 46.5333 483.843 46.78C483.503 47.0267 483 47.15 482.333 47.15ZM488.096 47.15C487.209 47.15 486.512 46.93 486.006 46.49C485.506 46.0433 485.256 45.4167 485.256 44.61C485.256 43.8233 485.479 43.2 485.926 42.74C486.379 42.28 487.022 42.05 487.856 42.05C488.409 42.05 488.879 42.1567 489.266 42.37C489.652 42.5767 489.942 42.8667 490.136 43.24C490.336 43.6067 490.436 44.0267 490.436 44.5V45H486.216C486.249 45.4533 486.439 45.7933 486.786 46.02C487.139 46.24 487.616 46.35 488.216 46.35C488.522 46.35 488.832 46.3233 489.146 46.27C489.459 46.21 489.736 46.1333 489.976 46.04V46.85C489.762 46.9367 489.479 47.0067 489.126 47.06C488.779 47.12 488.436 47.15 488.096 47.15ZM489.486 44.29C489.472 43.8367 489.322 43.4867 489.036 43.24C488.756 42.9867 488.356 42.86 487.836 42.86C487.329 42.86 486.936 42.99 486.656 43.25C486.376 43.51 486.229 43.8567 486.216 44.29H489.486ZM493.39 47.15C492.903 47.15 492.526 47.01 492.26 46.73C492 46.45 491.87 46.0533 491.87 45.54V42.98H491.14V42.2H491.87V40.76H492.89V42.2H494.07V42.98H492.89V45.47C492.89 45.79 492.95 46.0167 493.07 46.15C493.196 46.2833 493.423 46.35 493.75 46.35C493.943 46.35 494.136 46.3067 494.33 46.22V47.02C494.076 47.1067 493.763 47.15 493.39 47.15ZM496.855 47.15C496.521 47.15 496.168 47.1067 495.795 47.02C495.421 46.94 495.128 46.83 494.915 46.69V45.83C495.175 45.9833 495.475 46.11 495.815 46.21C496.155 46.3033 496.485 46.35 496.805 46.35C497.165 46.35 497.428 46.3067 497.595 46.22C497.761 46.1333 497.845 45.9933 497.845 45.8C497.845 45.6533 497.805 45.5367 497.725 45.45C497.651 45.3567 497.521 45.2733 497.335 45.2C497.155 45.1267 496.881 45.04 496.515 44.94C496.121 44.8267 495.808 44.7133 495.575 44.6C495.348 44.48 495.175 44.33 495.055 44.15C494.941 43.97 494.885 43.7367 494.885 43.45C494.885 42.99 495.065 42.6433 495.425 42.41C495.791 42.17 496.281 42.05 496.895 42.05C497.215 42.05 497.528 42.08 497.835 42.14C498.141 42.2 498.388 42.2833 498.575 42.39V43.23C498.381 43.1167 498.141 43.0267 497.855 42.96C497.575 42.8933 497.288 42.86 496.995 42.86C496.641 42.86 496.371 42.9033 496.185 42.99C495.998 43.0767 495.905 43.23 495.905 43.45C495.905 43.59 495.945 43.7033 496.025 43.79C496.105 43.8767 496.231 43.9533 496.405 44.02C496.585 44.08 496.868 44.16 497.255 44.26C497.861 44.4267 498.281 44.6233 498.515 44.85C498.755 45.0767 498.875 45.39 498.875 45.79C498.875 46.2033 498.705 46.5333 498.365 46.78C498.025 47.0267 497.521 47.15 496.855 47.15ZM503.678 40.01H505.928C506.682 40.01 507.335 40.15 507.888 40.43C508.442 40.71 508.865 41.11 509.158 41.63C509.458 42.15 509.608 42.7633 509.608 43.47C509.608 44.63 509.272 45.51 508.598 46.11C507.932 46.7033 506.995 47 505.788 47H503.678V40.01ZM505.778 46.15C506.712 46.15 507.412 45.92 507.878 45.46C508.345 45 508.578 44.3367 508.578 43.47C508.578 42.67 508.348 42.0367 507.888 41.57C507.435 41.1033 506.785 40.87 505.938 40.87H504.698V46.15H505.778ZM513.35 47.15C512.463 47.15 511.766 46.93 511.26 46.49C510.76 46.0433 510.51 45.4167 510.51 44.61C510.51 43.8233 510.733 43.2 511.18 42.74C511.633 42.28 512.276 42.05 513.11 42.05C513.663 42.05 514.133 42.1567 514.52 42.37C514.906 42.5767 515.196 42.8667 515.39 43.24C515.59 43.6067 515.69 44.0267 515.69 44.5V45H511.47C511.503 45.4533 511.693 45.7933 512.04 46.02C512.393 46.24 512.87 46.35 513.47 46.35C513.776 46.35 514.086 46.3233 514.4 46.27C514.713 46.21 514.99 46.1333 515.23 46.04V46.85C515.016 46.9367 514.733 47.0067 514.38 47.06C514.033 47.12 513.69 47.15 513.35 47.15ZM514.74 44.29C514.726 43.8367 514.576 43.4867 514.29 43.24C514.01 42.9867 513.61 42.86 513.09 42.86C512.583 42.86 512.19 42.99 511.91 43.25C511.63 43.51 511.483 43.8567 511.47 44.29H514.74ZM516.794 39.61H517.804V47H516.794V39.61ZM519.698 41.26C519.531 41.26 519.391 41.2033 519.278 41.09C519.165 40.9767 519.108 40.8367 519.108 40.67C519.108 40.5033 519.165 40.3633 519.278 40.25C519.391 40.1367 519.531 40.08 519.698 40.08C519.871 40.08 520.015 40.1367 520.128 40.25C520.248 40.3633 520.308 40.5033 520.308 40.67C520.308 40.8367 520.248 40.9767 520.128 41.09C520.015 41.2033 519.871 41.26 519.698 41.26ZM519.188 42.2H520.218V47H519.188V42.2ZM521.408 42.2H522.478L523.888 45.65L525.298 42.2H526.368L524.328 47H523.448L521.408 42.2ZM529.707 47.15C528.82 47.15 528.124 46.93 527.617 46.49C527.117 46.0433 526.867 45.4167 526.867 44.61C526.867 43.8233 527.09 43.2 527.537 42.74C527.99 42.28 528.634 42.05 529.467 42.05C530.02 42.05 530.49 42.1567 530.877 42.37C531.264 42.5767 531.554 42.8667 531.747 43.24C531.947 43.6067 532.047 44.0267 532.047 44.5V45H527.827C527.86 45.4533 528.05 45.7933 528.397 46.02C528.75 46.24 529.227 46.35 529.827 46.35C530.134 46.35 530.444 46.3233 530.757 46.27C531.07 46.21 531.347 46.1333 531.587 46.04V46.85C531.374 46.9367 531.09 47.0067 530.737 47.06C530.39 47.12 530.047 47.15 529.707 47.15ZM531.097 44.29C531.084 43.8367 530.934 43.4867 530.647 43.24C530.367 42.9867 529.967 42.86 529.447 42.86C528.94 42.86 528.547 42.99 528.267 43.25C527.987 43.51 527.84 43.8567 527.827 44.29H531.097ZM533.151 42.2H534.131V43.06C534.331 42.7667 534.611 42.55 534.971 42.41C535.338 42.27 535.761 42.2 536.241 42.2V42.99C535.728 42.99 535.288 43.0733 534.921 43.24C534.554 43.4067 534.301 43.67 534.161 44.03V47H533.151V42.2ZM539.482 47.15C538.596 47.15 537.899 46.93 537.392 46.49C536.892 46.0433 536.642 45.4167 536.642 44.61C536.642 43.8233 536.866 43.2 537.312 42.74C537.766 42.28 538.409 42.05 539.242 42.05C539.796 42.05 540.266 42.1567 540.652 42.37C541.039 42.5767 541.329 42.8667 541.522 43.24C541.722 43.6067 541.822 44.0267 541.822 44.5V45H537.602C537.636 45.4533 537.826 45.7933 538.172 46.02C538.526 46.24 539.002 46.35 539.602 46.35C539.909 46.35 540.219 46.3233 540.532 46.27C540.846 46.21 541.122 46.1333 541.362 46.04V46.85C541.149 46.9367 540.866 47.0067 540.512 47.06C540.166 47.12 539.822 47.15 539.482 47.15ZM540.872 44.29C540.859 43.8367 540.709 43.4867 540.422 43.24C540.142 42.9867 539.742 42.86 539.222 42.86C538.716 42.86 538.322 42.99 538.042 43.25C537.762 43.51 537.616 43.8567 537.602 44.29H540.872ZM545.246 47.15C544.766 47.15 544.333 47.0467 543.946 46.84C543.566 46.6267 543.266 46.33 543.046 45.95C542.833 45.5633 542.726 45.1167 542.726 44.61C542.726 44.11 542.833 43.6667 543.046 43.28C543.266 42.8933 543.566 42.5933 543.946 42.38C544.333 42.16 544.766 42.05 545.246 42.05C546.113 42.05 546.77 42.3133 547.216 42.84V39.61H548.226V47H547.246V46.3C546.98 46.5933 546.686 46.81 546.366 46.95C546.053 47.0833 545.68 47.15 545.246 47.15ZM545.476 46.35C545.89 46.35 546.25 46.2433 546.556 46.03C546.87 45.81 547.09 45.5167 547.216 45.15V44.07C547.103 43.7033 546.886 43.41 546.566 43.19C546.253 42.97 545.89 42.86 545.476 42.86C545.15 42.86 544.853 42.9333 544.586 43.08C544.326 43.2267 544.12 43.4333 543.966 43.7C543.82 43.9667 543.746 44.27 543.746 44.61C543.746 44.95 543.82 45.2533 543.966 45.52C544.12 45.7867 544.326 45.9933 544.586 46.14C544.853 46.28 545.15 46.35 545.476 46.35Z" fill="#616161"/>
<path d="M352.316 40.01H353.296L356.086 47H355.046L354.346 45.26H351.256L350.576 47H349.526L352.316 40.01ZM354.066 44.41L352.806 41.14L351.546 44.41H354.066ZM357.187 39.61H358.197V47H357.187V39.61ZM359.502 39.61H360.512V47H359.502V39.61ZM367.287 47.15C366.954 47.15 366.601 47.1067 366.227 47.02C365.854 46.94 365.561 46.83 365.347 46.69V45.83C365.607 45.9833 365.907 46.11 366.247 46.21C366.587 46.3033 366.917 46.35 367.237 46.35C367.597 46.35 367.861 46.3067 368.027 46.22C368.194 46.1333 368.277 45.9933 368.277 45.8C368.277 45.6533 368.237 45.5367 368.157 45.45C368.084 45.3567 367.954 45.2733 367.767 45.2C367.587 45.1267 367.314 45.04 366.947 44.94C366.554 44.8267 366.241 44.7133 366.007 44.6C365.781 44.48 365.607 44.33 365.487 44.15C365.374 43.97 365.317 43.7367 365.317 43.45C365.317 42.99 365.497 42.6433 365.857 42.41C366.224 42.17 366.714 42.05 367.327 42.05C367.647 42.05 367.961 42.08 368.267 42.14C368.574 42.2 368.821 42.2833 369.007 42.39V43.23C368.814 43.1167 368.574 43.0267 368.287 42.96C368.007 42.8933 367.721 42.86 367.427 42.86C367.074 42.86 366.804 42.9033 366.617 42.99C366.431 43.0767 366.337 43.23 366.337 43.45C366.337 43.59 366.377 43.7033 366.457 43.79C366.537 43.8767 366.664 43.9533 366.837 44.02C367.017 44.08 367.301 44.16 367.687 44.26C368.294 44.4267 368.714 44.6233 368.947 44.85C369.187 45.0767 369.307 45.39 369.307 45.79C369.307 46.2033 369.137 46.5333 368.797 46.78C368.457 47.0267 367.954 47.15 367.287 47.15ZM373.05 47.15C372.163 47.15 371.466 46.93 370.96 46.49C370.46 46.0433 370.21 45.4167 370.21 44.61C370.21 43.8233 370.433 43.2 370.88 42.74C371.333 42.28 371.976 42.05 372.81 42.05C373.363 42.05 373.833 42.1567 374.22 42.37C374.606 42.5767 374.896 42.8667 375.09 43.24C375.29 43.6067 375.39 44.0267 375.39 44.5V45H371.17C371.203 45.4533 371.393 45.7933 371.74 46.02C372.093 46.24 372.57 46.35 373.17 46.35C373.476 46.35 373.786 46.3233 374.1 46.27C374.413 46.21 374.69 46.1333 374.93 46.04V46.85C374.716 46.9367 374.433 47.0067 374.08 47.06C373.733 47.12 373.39 47.15 373.05 47.15ZM374.44 44.29C374.426 43.8367 374.276 43.4867 373.99 43.24C373.71 42.9867 373.31 42.86 372.79 42.86C372.283 42.86 371.89 42.99 371.61 43.25C371.33 43.51 371.183 43.8567 371.17 44.29H374.44ZM378.344 47.15C377.857 47.15 377.48 47.01 377.214 46.73C376.954 46.45 376.824 46.0533 376.824 45.54V42.98H376.094V42.2H376.824V40.76H377.844V42.2H379.024V42.98H377.844V45.47C377.844 45.79 377.904 46.0167 378.024 46.15C378.15 46.2833 378.377 46.35 378.704 46.35C378.897 46.35 379.09 46.3067 379.284 46.22V47.02C379.03 47.1067 378.717 47.15 378.344 47.15ZM381.809 47.15C381.475 47.15 381.122 47.1067 380.749 47.02C380.375 46.94 380.082 46.83 379.869 46.69V45.83C380.129 45.9833 380.429 46.11 380.769 46.21C381.109 46.3033 381.439 46.35 381.759 46.35C382.119 46.35 382.382 46.3067 382.549 46.22C382.715 46.1333 382.799 45.9933 382.799 45.8C382.799 45.6533 382.759 45.5367 382.679 45.45C382.605 45.3567 382.475 45.2733 382.289 45.2C382.109 45.1267 381.835 45.04 381.469 44.94C381.075 44.8267 380.762 44.7133 380.529 44.6C380.302 44.48 380.129 44.33 380.009 44.15C379.895 43.97 379.839 43.7367 379.839 43.45C379.839 42.99 380.019 42.6433 380.379 42.41C380.745 42.17 381.235 42.05 381.849 42.05C382.169 42.05 382.482 42.08 382.789 42.14C383.095 42.2 383.342 42.2833 383.529 42.39V43.23C383.335 43.1167 383.095 43.0267 382.809 42.96C382.529 42.8933 382.242 42.86 381.949 42.86C381.595 42.86 381.325 42.9033 381.139 42.99C380.952 43.0767 380.859 43.23 380.859 43.45C380.859 43.59 380.899 43.7033 380.979 43.79C381.059 43.8767 381.185 43.9533 381.359 44.02C381.539 44.08 381.822 44.16 382.209 44.26C382.815 44.4267 383.235 44.6233 383.469 44.85C383.709 45.0767 383.829 45.39 383.829 45.79C383.829 46.2033 383.659 46.5333 383.319 46.78C382.979 47.0267 382.475 47.15 381.809 47.15ZM388.632 40.01H391.322C392.076 40.01 392.669 40.2 393.102 40.58C393.542 40.9533 393.762 41.4867 393.762 42.18C393.762 42.8867 393.546 43.4233 393.112 43.79C392.679 44.15 392.082 44.33 391.322 44.33H389.652V47H388.632V40.01ZM391.212 43.48C391.679 43.48 392.049 43.3833 392.322 43.19C392.596 42.9967 392.732 42.66 392.732 42.18C392.732 41.7 392.596 41.3633 392.322 41.17C392.049 40.97 391.679 40.87 391.212 40.87H389.652V43.48H391.212ZM394.658 42.2H395.638V43.06C395.838 42.7667 396.118 42.55 396.478 42.41C396.844 42.27 397.268 42.2 397.748 42.2V42.99C397.234 42.99 396.794 43.0733 396.428 43.24C396.061 43.4067 395.808 43.67 395.668 44.03V47H394.658V42.2ZM399.242 41.26C399.075 41.26 398.935 41.2033 398.822 41.09C398.709 40.9767 398.652 40.8367 398.652 40.67C398.652 40.5033 398.709 40.3633 398.822 40.25C398.935 40.1367 399.075 40.08 399.242 40.08C399.415 40.08 399.559 40.1367 399.672 40.25C399.792 40.3633 399.852 40.5033 399.852 40.67C399.852 40.8367 399.792 40.9767 399.672 41.09C399.559 41.2033 399.415 41.26 399.242 41.26ZM398.732 42.2H399.762V47H398.732V42.2ZM401.152 42.2H402.132V42.89C402.359 42.6033 402.635 42.3933 402.962 42.26C403.295 42.12 403.642 42.05 404.002 42.05C404.642 42.05 405.119 42.22 405.432 42.56C405.745 42.9 405.902 43.3567 405.902 43.93V47H404.892V44.03C404.892 43.25 404.519 42.86 403.772 42.86C403.452 42.86 403.152 42.9367 402.872 43.09C402.599 43.2367 402.362 43.4633 402.162 43.77V47H401.152V42.2ZM408.998 47.15C408.511 47.15 408.135 47.01 407.868 46.73C407.608 46.45 407.478 46.0533 407.478 45.54V42.98H406.748V42.2H407.478V40.76H408.498V42.2H409.678V42.98H408.498V45.47C408.498 45.79 408.558 46.0167 408.678 46.15C408.805 46.2833 409.031 46.35 409.358 46.35C409.551 46.35 409.745 46.3067 409.938 46.22V47.02C409.685 47.1067 409.371 47.15 408.998 47.15ZM413.528 47.15C412.642 47.15 411.945 46.93 411.438 46.49C410.938 46.0433 410.688 45.4167 410.688 44.61C410.688 43.8233 410.912 43.2 411.358 42.74C411.812 42.28 412.455 42.05 413.288 42.05C413.842 42.05 414.312 42.1567 414.698 42.37C415.085 42.5767 415.375 42.8667 415.568 43.24C415.768 43.6067 415.868 44.0267 415.868 44.5V45H411.648C411.682 45.4533 411.872 45.7933 412.218 46.02C412.572 46.24 413.048 46.35 413.648 46.35C413.955 46.35 414.265 46.3233 414.578 46.27C414.892 46.21 415.168 46.1333 415.408 46.04V46.85C415.195 46.9367 414.912 47.0067 414.558 47.06C414.212 47.12 413.868 47.15 413.528 47.15ZM414.918 44.29C414.905 43.8367 414.755 43.4867 414.468 43.24C414.188 42.9867 413.788 42.86 413.268 42.86C412.762 42.86 412.368 42.99 412.088 43.25C411.808 43.51 411.662 43.8567 411.648 44.29H414.918ZM419.292 47.15C418.812 47.15 418.379 47.0467 417.992 46.84C417.612 46.6267 417.312 46.33 417.092 45.95C416.879 45.5633 416.772 45.1167 416.772 44.61C416.772 44.11 416.879 43.6667 417.092 43.28C417.312 42.8933 417.612 42.5933 417.992 42.38C418.379 42.16 418.812 42.05 419.292 42.05C420.159 42.05 420.816 42.3133 421.262 42.84V39.61H422.272V47H421.292V46.3C421.026 46.5933 420.732 46.81 420.412 46.95C420.099 47.0833 419.726 47.15 419.292 47.15ZM419.522 46.35C419.936 46.35 420.296 46.2433 420.602 46.03C420.916 45.81 421.136 45.5167 421.262 45.15V44.07C421.149 43.7033 420.932 43.41 420.612 43.19C420.299 42.97 419.936 42.86 419.522 42.86C419.196 42.86 418.899 42.9333 418.632 43.08C418.372 43.2267 418.166 43.4333 418.012 43.7C417.866 43.9667 417.792 44.27 417.792 44.61C417.792 44.95 417.866 45.2533 418.012 45.52C418.166 45.7867 418.372 45.9933 418.632 46.14C418.899 46.28 419.196 46.35 419.522 46.35Z" fill="#616161"/>
<g clip-path="url(#clip0_1413_10097)">
<ellipse cx="39" cy="16.9744" rx="16" ry="16.3419" fill="white"/>
<path d="M55 16.9744C55 21.3086 53.3143 25.4652 50.3137 28.5299C47.3131 31.5946 43.2435 33.3163 39 33.3163C34.7565 33.3163 30.6869 31.5946 27.6863 28.5299C24.6857 25.4652 23 21.3086 23 16.9744C23 12.6403 24.6857 8.48369 27.6863 5.41899C30.6869 2.3543 34.7565 0.632568 39 0.632568C43.2435 0.632568 47.3131 2.3543 50.3137 5.41899C53.3143 8.48369 55 12.6403 55 16.9744V16.9744ZM47.06 10.785C46.9171 10.6396 46.747 10.5251 46.5599 10.4484C46.3727 10.3716 46.1723 10.3342 45.9706 10.3384C45.769 10.3426 45.5703 10.3883 45.3863 10.4728C45.2023 10.5572 45.0369 10.6787 44.9 10.8299L37.954 19.869L33.768 15.5915C33.4836 15.3209 33.1076 15.1736 32.719 15.1806C32.3304 15.1876 31.9596 15.3484 31.6848 15.6291C31.4099 15.9098 31.2525 16.2885 31.2457 16.6854C31.2388 17.0823 31.383 17.4664 31.648 17.7568L36.94 23.1639C37.0826 23.3093 37.2523 23.4238 37.4392 23.5007C37.626 23.5776 37.8261 23.6152 38.0275 23.6114C38.2289 23.6076 38.4275 23.5624 38.6114 23.4785C38.7953 23.3946 38.9608 23.2737 39.098 23.1231L47.082 12.9298C47.3542 12.6408 47.5046 12.2543 47.5008 11.8532C47.4971 11.4522 47.3395 11.0687 47.062 10.785H47.06Z" fill="#0171BB"/>
</g>
<g clip-path="url(#clip1_1413_10097)">
<ellipse cx="158" cy="16.9744" rx="16" ry="16.3419" fill="white"/>
<path d="M174 16.9744C174 21.3086 172.314 25.4652 169.314 28.5299C166.313 31.5946 162.243 33.3163 158 33.3163C153.757 33.3163 149.687 31.5946 146.686 28.5299C143.686 25.4652 142 21.3086 142 16.9744C142 12.6403 143.686 8.48369 146.686 5.41899C149.687 2.3543 153.757 0.632568 158 0.632568C162.243 0.632568 166.313 2.3543 169.314 5.41899C172.314 8.48369 174 12.6403 174 16.9744V16.9744ZM166.06 10.785C165.917 10.6396 165.747 10.5251 165.56 10.4484C165.373 10.3716 165.172 10.3342 164.971 10.3384C164.769 10.3426 164.57 10.3883 164.386 10.4728C164.202 10.5572 164.037 10.6787 163.9 10.8299L156.954 19.869L152.768 15.5915C152.484 15.3209 152.108 15.1736 151.719 15.1806C151.33 15.1876 150.96 15.3484 150.685 15.6291C150.41 15.9098 150.253 16.2885 150.246 16.6854C150.239 17.0823 150.383 17.4664 150.648 17.7568L155.94 23.1639C156.083 23.3093 156.252 23.4238 156.439 23.5007C156.626 23.5776 156.826 23.6152 157.027 23.6114C157.229 23.6076 157.427 23.5624 157.611 23.4785C157.795 23.3946 157.961 23.2737 158.098 23.1231L166.082 12.9298C166.354 12.6408 166.505 12.2543 166.501 11.8532C166.497 11.4522 166.34 11.0687 166.062 10.785H166.06Z" fill="#0171BB"/>
</g>
<g clip-path="url(#clip2_1413_10097)">
<ellipse cx="277" cy="16.9744" rx="16" ry="16.3419" fill="white"/>
<path d="M293 16.9744C293 21.3086 291.314 25.4652 288.314 28.5299C285.313 31.5946 281.243 33.3163 277 33.3163C272.757 33.3163 268.687 31.5946 265.686 28.5299C262.686 25.4652 261 21.3086 261 16.9744C261 12.6403 262.686 8.48369 265.686 5.41899C268.687 2.3543 272.757 0.632568 277 0.632568C281.243 0.632568 285.313 2.3543 288.314 5.41899C291.314 8.48369 293 12.6403 293 16.9744V16.9744ZM285.06 10.785C284.917 10.6396 284.747 10.5251 284.56 10.4484C284.373 10.3716 284.172 10.3342 283.971 10.3384C283.769 10.3426 283.57 10.3883 283.386 10.4728C283.202 10.5572 283.037 10.6787 282.9 10.8299L275.954 19.869L271.768 15.5915C271.484 15.3209 271.108 15.1736 270.719 15.1806C270.33 15.1876 269.96 15.3484 269.685 15.6291C269.41 15.9098 269.253 16.2885 269.246 16.6854C269.239 17.0823 269.383 17.4664 269.648 17.7568L274.94 23.1639C275.083 23.3093 275.252 23.4238 275.439 23.5007C275.626 23.5776 275.826 23.6152 276.027 23.6114C276.229 23.6076 276.427 23.5624 276.611 23.4785C276.795 23.3946 276.961 23.2737 277.098 23.1231L285.082 12.9298C285.354 12.6408 285.505 12.2543 285.501 11.8532C285.497 11.4522 285.34 11.0687 285.062 10.785H285.06Z" fill="#0171BB"/>
</g>
<g clip-path="url(#clip3_1413_10097)">
<ellipse cx="387" cy="16.9744" rx="16" ry="16.3419" fill="white"/>
<path d="M403 16.9744C403 21.3086 401.314 25.4652 398.314 28.5299C395.313 31.5946 391.243 33.3163 387 33.3163C382.757 33.3163 378.687 31.5946 375.686 28.5299C372.686 25.4652 371 21.3086 371 16.9744C371 12.6403 372.686 8.48369 375.686 5.41899C378.687 2.3543 382.757 0.632568 387 0.632568C391.243 0.632568 395.313 2.3543 398.314 5.41899C401.314 8.48369 403 12.6403 403 16.9744V16.9744ZM395.06 10.785C394.917 10.6396 394.747 10.5251 394.56 10.4484C394.373 10.3716 394.172 10.3342 393.971 10.3384C393.769 10.3426 393.57 10.3883 393.386 10.4728C393.202 10.5572 393.037 10.6787 392.9 10.8299L385.954 19.869L381.768 15.5915C381.484 15.3209 381.108 15.1736 380.719 15.1806C380.33 15.1876 379.96 15.3484 379.685 15.6291C379.41 15.9098 379.253 16.2885 379.246 16.6854C379.239 17.0823 379.383 17.4664 379.648 17.7568L384.94 23.1639C385.083 23.3093 385.252 23.4238 385.439 23.5007C385.626 23.5776 385.826 23.6152 386.027 23.6114C386.229 23.6076 386.427 23.5624 386.611 23.4785C386.795 23.3946 386.961 23.2737 387.098 23.1231L395.082 12.9298C395.354 12.6408 395.505 12.2543 395.501 11.8532C395.497 11.4522 395.34 11.0687 395.062 10.785H395.06Z" fill="#0171BB"/>
</g>
<g clip-path="url(#clip4_1413_10097)">
<ellipse cx="506" cy="16.9744" rx="16" ry="16.3419" fill="white"/>
<path d="M522 16.9744C522 21.3086 520.314 25.4652 517.314 28.5299C514.313 31.5946 510.243 33.3163 506 33.3163C501.757 33.3163 497.687 31.5946 494.686 28.5299C491.686 25.4652 490 21.3086 490 16.9744C490 12.6403 491.686 8.48369 494.686 5.41899C497.687 2.3543 501.757 0.632568 506 0.632568C510.243 0.632568 514.313 2.3543 517.314 5.41899C520.314 8.48369 522 12.6403 522 16.9744Z" fill="#0171BB"/>
</g>
<path d="M133.906 40.09C133.706 40.09 133.494 40.064 133.27 40.012C133.046 39.964 132.87 39.898 132.742 39.814V39.298C132.898 39.39 133.078 39.466 133.282 39.526C133.486 39.582 133.684 39.61 133.876 39.61C134.092 39.61 134.25 39.584 134.35 39.532C134.45 39.48 134.5 39.396 134.5 39.28C134.5 39.192 134.476 39.122 134.428 39.07C134.384 39.014 134.306 38.964 134.194 38.92C134.086 38.876 133.922 38.824 133.702 38.764C133.466 38.696 133.278 38.628 133.138 38.56C133.002 38.488 132.898 38.398 132.826 38.29C132.758 38.182 132.724 38.042 132.724 37.87C132.724 37.594 132.832 37.386 133.048 37.246C133.268 37.102 133.562 37.03 133.93 37.03C134.122 37.03 134.31 37.048 134.494 37.084C134.678 37.12 134.826 37.17 134.938 37.234V37.738C134.822 37.67 134.678 37.616 134.506 37.576C134.338 37.536 134.166 37.516 133.99 37.516C133.778 37.516 133.616 37.542 133.504 37.594C133.392 37.646 133.336 37.738 133.336 37.87C133.336 37.954 133.36 38.022 133.408 38.074C133.456 38.126 133.532 38.172 133.636 38.212C133.744 38.248 133.914 38.296 134.146 38.356C134.51 38.456 134.762 38.574 134.902 38.71C135.046 38.846 135.118 39.034 135.118 39.274C135.118 39.522 135.016 39.72 134.812 39.868C134.608 40.016 134.306 40.09 133.906 40.09ZM136.802 40.09C136.51 40.09 136.284 40.006 136.124 39.838C135.968 39.67 135.89 39.432 135.89 39.124V37.588H135.452V37.12H135.89V36.256H136.502V37.12H137.21V37.588H136.502V39.082C136.502 39.274 136.538 39.41 136.61 39.49C136.686 39.57 136.822 39.61 137.018 39.61C137.134 39.61 137.25 39.584 137.366 39.532V40.012C137.214 40.064 137.026 40.09 136.802 40.09Z" fill="#616161"/>
<path d="M247.906 41.09C247.706 41.09 247.494 41.064 247.27 41.012C247.046 40.964 246.87 40.898 246.742 40.814V40.298C246.898 40.39 247.078 40.466 247.282 40.526C247.486 40.582 247.684 40.61 247.876 40.61C248.092 40.61 248.25 40.584 248.35 40.532C248.45 40.48 248.5 40.396 248.5 40.28C248.5 40.192 248.476 40.122 248.428 40.07C248.384 40.014 248.306 39.964 248.194 39.92C248.086 39.876 247.922 39.824 247.702 39.764C247.466 39.696 247.278 39.628 247.138 39.56C247.002 39.488 246.898 39.398 246.826 39.29C246.758 39.182 246.724 39.042 246.724 38.87C246.724 38.594 246.832 38.386 247.048 38.246C247.268 38.102 247.562 38.03 247.93 38.03C248.122 38.03 248.31 38.048 248.494 38.084C248.678 38.12 248.826 38.17 248.938 38.234V38.738C248.822 38.67 248.678 38.616 248.506 38.576C248.338 38.536 248.166 38.516 247.99 38.516C247.778 38.516 247.616 38.542 247.504 38.594C247.392 38.646 247.336 38.738 247.336 38.87C247.336 38.954 247.36 39.022 247.408 39.074C247.456 39.126 247.532 39.172 247.636 39.212C247.744 39.248 247.914 39.296 248.146 39.356C248.51 39.456 248.762 39.574 248.902 39.71C249.046 39.846 249.118 40.034 249.118 40.274C249.118 40.522 249.016 40.72 248.812 40.868C248.608 41.016 248.306 41.09 247.906 41.09ZM250.802 41.09C250.51 41.09 250.284 41.006 250.124 40.838C249.968 40.67 249.89 40.432 249.89 40.124V38.588H249.452V38.12H249.89V37.256H250.502V38.12H251.21V38.588H250.502V40.082C250.502 40.274 250.538 40.41 250.61 40.49C250.686 40.57 250.822 40.61 251.018 40.61C251.134 40.61 251.25 40.584 251.366 40.532V41.012C251.214 41.064 251.026 41.09 250.802 41.09Z" fill="#616161"/>
<defs>
<clipPath id="clip0_1413_10097">
<rect width="32" height="32.6838" fill="white" transform="translate(23 0.632568)"/>
</clipPath>
<clipPath id="clip1_1413_10097">
<rect width="32" height="32.6838" fill="white" transform="translate(142 0.632568)"/>
</clipPath>
<clipPath id="clip2_1413_10097">
<rect width="32" height="32.6838" fill="white" transform="translate(261 0.632568)"/>
</clipPath>
<clipPath id="clip3_1413_10097">
<rect width="32" height="32.6838" fill="white" transform="translate(371 0.632568)"/>
</clipPath>
<clipPath id="clip4_1413_10097">
<rect width="32" height="32.6838" fill="white" transform="translate(490 0.632568)"/>
</clipPath>
</defs>
</svg>
