<svg width="579" height="54" viewBox="0 0 579 54" fill="none" xmlns="http://www.w3.org/2000/svg">
<rect x="55" y="16" width="497" height="3" fill="#0171BB"/>
<path d="M4.4498 50.15C3.7298 50.15 3.0898 50 2.5298 49.7C1.9698 49.4 1.53314 48.9767 1.2198 48.43C0.906471 47.8767 0.749805 47.2367 0.749805 46.51C0.749805 45.7833 0.906471 45.1433 1.2198 44.59C1.53314 44.0367 1.9698 43.61 2.5298 43.31C3.0898 43.01 3.7298 42.86 4.4498 42.86C5.4098 42.86 6.21314 43.1033 6.8598 43.59V44.57C6.2798 44.0567 5.50647 43.8 4.5398 43.8C3.9998 43.8 3.5198 43.91 3.0998 44.13C2.68647 44.35 2.36314 44.6667 2.1298 45.08C1.89647 45.4867 1.7798 45.9633 1.7798 46.51C1.7798 47.0567 1.89647 47.5367 2.1298 47.95C2.3698 48.3633 2.69647 48.68 3.1098 48.9C3.5298 49.12 4.00647 49.23 4.5398 49.23C5.03314 49.23 5.47314 49.1667 5.85981 49.04C6.25314 48.9067 6.61647 48.6967 6.9498 48.41V49.4C6.34981 49.9 5.51647 50.15 4.4498 50.15ZM9.62293 50.15C9.04293 50.15 8.57626 50.0033 8.22293 49.71C7.87626 49.41 7.70293 49.0067 7.70293 48.5C7.70293 47.9667 7.8696 47.5567 8.20293 47.27C8.54293 46.9767 9.02293 46.83 9.64293 46.83C10.3029 46.83 10.8629 46.9633 11.3229 47.23V46.98C11.3229 46.6 11.2063 46.32 10.9729 46.14C10.7463 45.9533 10.3863 45.86 9.89293 45.86C9.5996 45.86 9.31293 45.89 9.03293 45.95C8.7596 46.0033 8.51293 46.08 8.29293 46.18V45.36C8.49293 45.2667 8.75293 45.1933 9.07293 45.14C9.39293 45.08 9.70293 45.05 10.0029 45.05C10.7963 45.05 11.3829 45.2267 11.7629 45.58C12.1496 45.9267 12.3429 46.41 12.3429 47.03V50H11.3929V49.46C11.1863 49.6867 10.9396 49.86 10.6529 49.98C10.3729 50.0933 10.0296 50.15 9.62293 50.15ZM9.87293 49.38C10.1929 49.38 10.4829 49.3167 10.7429 49.19C11.0029 49.0633 11.1963 48.8867 11.3229 48.66V48.01C10.8896 47.73 10.4063 47.59 9.87293 47.59C9.48626 47.59 9.19626 47.6667 9.00293 47.82C8.81626 47.9667 8.72293 48.1933 8.72293 48.5C8.72293 49.0867 9.10626 49.38 9.87293 49.38ZM15.2198 50.15C14.8865 50.15 14.5331 50.1067 14.1598 50.02C13.7865 49.94 13.4931 49.83 13.2798 49.69V48.83C13.5398 48.9833 13.8398 49.11 14.1798 49.21C14.5198 49.3033 14.8498 49.35 15.1698 49.35C15.5298 49.35 15.7931 49.3067 15.9598 49.22C16.1265 49.1333 16.2098 48.9933 16.2098 48.8C16.2098 48.6533 16.1698 48.5367 16.0898 48.45C16.0165 48.3567 15.8865 48.2733 15.6998 48.2C15.5198 48.1267 15.2465 48.04 14.8798 47.94C14.4865 47.8267 14.1731 47.7133 13.9398 47.6C13.7131 47.48 13.5398 47.33 13.4198 47.15C13.3065 46.97 13.2498 46.7367 13.2498 46.45C13.2498 45.99 13.4298 45.6433 13.7898 45.41C14.1565 45.17 14.6465 45.05 15.2598 45.05C15.5798 45.05 15.8931 45.08 16.1998 45.14C16.5065 45.2 16.7531 45.2833 16.9398 45.39V46.23C16.7465 46.1167 16.5065 46.0267 16.2198 45.96C15.9398 45.8933 15.6531 45.86 15.3598 45.86C15.0065 45.86 14.7365 45.9033 14.5498 45.99C14.3631 46.0767 14.2698 46.23 14.2698 46.45C14.2698 46.59 14.3098 46.7033 14.3898 46.79C14.4698 46.8767 14.5965 46.9533 14.7698 47.02C14.9498 47.08 15.2331 47.16 15.6198 47.26C16.2265 47.4267 16.6465 47.6233 16.8798 47.85C17.1198 48.0767 17.2398 48.39 17.2398 48.79C17.2398 49.2033 17.0698 49.5333 16.7298 49.78C16.3898 50.0267 15.8865 50.15 15.2198 50.15ZM20.9824 50.15C20.0957 50.15 19.399 49.93 18.8924 49.49C18.3924 49.0433 18.1424 48.4167 18.1424 47.61C18.1424 46.8233 18.3657 46.2 18.8124 45.74C19.2657 45.28 19.909 45.05 20.7424 45.05C21.2957 45.05 21.7657 45.1567 22.1524 45.37C22.539 45.5767 22.829 45.8667 23.0224 46.24C23.2224 46.6067 23.3224 47.0267 23.3224 47.5V48H19.1024C19.1357 48.4533 19.3257 48.7933 19.6724 49.02C20.0257 49.24 20.5024 49.35 21.1024 49.35C21.409 49.35 21.719 49.3233 22.0324 49.27C22.3457 49.21 22.6224 49.1333 22.8624 49.04V49.85C22.649 49.9367 22.3657 50.0067 22.0124 50.06C21.6657 50.12 21.3224 50.15 20.9824 50.15ZM22.3724 47.29C22.359 46.8367 22.209 46.4867 21.9224 46.24C21.6424 45.9867 21.2424 45.86 20.7224 45.86C20.2157 45.86 19.8224 45.99 19.5424 46.25C19.2624 46.51 19.1157 46.8567 19.1024 47.29H22.3724ZM28.1275 43.01H30.8175C31.5709 43.01 32.1642 43.2 32.5975 43.58C33.0375 43.9533 33.2575 44.4867 33.2575 45.18C33.2575 45.8867 33.0409 46.4233 32.6075 46.79C32.1742 47.15 31.5775 47.33 30.8175 47.33H29.1475V50H28.1275V43.01ZM30.7075 46.48C31.1742 46.48 31.5442 46.3833 31.8175 46.19C32.0909 45.9967 32.2275 45.66 32.2275 45.18C32.2275 44.7 32.0909 44.3633 31.8175 44.17C31.5442 43.97 31.1742 43.87 30.7075 43.87H29.1475V46.48H30.7075ZM34.1529 45.2H35.1329V46.06C35.3329 45.7667 35.6129 45.55 35.9729 45.41C36.3396 45.27 36.7629 45.2 37.2429 45.2V45.99C36.7296 45.99 36.2896 46.0733 35.9229 46.24C35.5563 46.4067 35.3029 46.67 35.1629 47.03V50H34.1529V45.2ZM40.4843 50.15C39.5977 50.15 38.901 49.93 38.3943 49.49C37.8943 49.0433 37.6443 48.4167 37.6443 47.61C37.6443 46.8233 37.8677 46.2 38.3143 45.74C38.7677 45.28 39.411 45.05 40.2443 45.05C40.7977 45.05 41.2677 45.1567 41.6543 45.37C42.041 45.5767 42.331 45.8667 42.5243 46.24C42.7243 46.6067 42.8243 47.0267 42.8243 47.5V48H38.6043C38.6377 48.4533 38.8277 48.7933 39.1743 49.02C39.5277 49.24 40.0043 49.35 40.6043 49.35C40.911 49.35 41.221 49.3233 41.5343 49.27C41.8477 49.21 42.1243 49.1333 42.3643 49.04V49.85C42.151 49.9367 41.8677 50.0067 41.5143 50.06C41.1677 50.12 40.8243 50.15 40.4843 50.15ZM41.8743 47.29C41.861 46.8367 41.711 46.4867 41.4243 46.24C41.1443 45.9867 40.7443 45.86 40.2243 45.86C39.7177 45.86 39.3243 45.99 39.0443 46.25C38.7643 46.51 38.6177 46.8567 38.6043 47.29H41.8743ZM45.6983 50.15C45.365 50.15 45.0117 50.1067 44.6383 50.02C44.265 49.94 43.9717 49.83 43.7583 49.69V48.83C44.0183 48.9833 44.3183 49.11 44.6583 49.21C44.9983 49.3033 45.3283 49.35 45.6483 49.35C46.0083 49.35 46.2717 49.3067 46.4383 49.22C46.605 49.1333 46.6883 48.9933 46.6883 48.8C46.6883 48.6533 46.6483 48.5367 46.5683 48.45C46.495 48.3567 46.365 48.2733 46.1783 48.2C45.9983 48.1267 45.725 48.04 45.3583 47.94C44.965 47.8267 44.6517 47.7133 44.4183 47.6C44.1917 47.48 44.0183 47.33 43.8983 47.15C43.785 46.97 43.7283 46.7367 43.7283 46.45C43.7283 45.99 43.9083 45.6433 44.2683 45.41C44.635 45.17 45.125 45.05 45.7383 45.05C46.0583 45.05 46.3717 45.08 46.6783 45.14C46.985 45.2 47.2317 45.2833 47.4183 45.39V46.23C47.225 46.1167 46.985 46.0267 46.6983 45.96C46.4183 45.8933 46.1317 45.86 45.8383 45.86C45.485 45.86 45.215 45.9033 45.0283 45.99C44.8417 46.0767 44.7483 46.23 44.7483 46.45C44.7483 46.59 44.7883 46.7033 44.8683 46.79C44.9483 46.8767 45.075 46.9533 45.2483 47.02C45.4283 47.08 45.7117 47.16 46.0983 47.26C46.705 47.4267 47.125 47.6233 47.3583 47.85C47.5983 48.0767 47.7183 48.39 47.7183 48.79C47.7183 49.2033 47.5483 49.5333 47.2083 49.78C46.8683 50.0267 46.365 50.15 45.6983 50.15ZM51.4609 50.15C50.5742 50.15 49.8776 49.93 49.3709 49.49C48.8709 49.0433 48.6209 48.4167 48.6209 47.61C48.6209 46.8233 48.8442 46.2 49.2909 45.74C49.7442 45.28 50.3876 45.05 51.2209 45.05C51.7742 45.05 52.2442 45.1567 52.6309 45.37C53.0176 45.5767 53.3076 45.8667 53.5009 46.24C53.7009 46.6067 53.8009 47.0267 53.8009 47.5V48H49.5809C49.6142 48.4533 49.8042 48.7933 50.1509 49.02C50.5042 49.24 50.9809 49.35 51.5809 49.35C51.8876 49.35 52.1976 49.3233 52.5109 49.27C52.8242 49.21 53.1009 49.1333 53.3409 49.04V49.85C53.1276 49.9367 52.8442 50.0067 52.4909 50.06C52.1442 50.12 51.8009 50.15 51.4609 50.15ZM52.8509 47.29C52.8376 46.8367 52.6876 46.4867 52.4009 46.24C52.1209 45.9867 51.7209 45.86 51.2009 45.86C50.6942 45.86 50.3009 45.99 50.0209 46.25C49.7409 46.51 49.5942 46.8567 49.5809 47.29H52.8509ZM54.9049 45.2H55.8849V45.89C56.1115 45.6033 56.3882 45.3933 56.7149 45.26C57.0482 45.12 57.3949 45.05 57.7549 45.05C58.3949 45.05 58.8715 45.22 59.1849 45.56C59.4982 45.9 59.6549 46.3567 59.6549 46.93V50H58.6449V47.03C58.6449 46.25 58.2715 45.86 57.5249 45.86C57.2049 45.86 56.9049 45.9367 56.6249 46.09C56.3515 46.2367 56.1149 46.4633 55.9149 46.77V50H54.9049V45.2ZM62.751 50.15C62.2643 50.15 61.8876 50.01 61.621 49.73C61.361 49.45 61.231 49.0533 61.231 48.54V45.98H60.501V45.2H61.231V43.76H62.251V45.2H63.431V45.98H62.251V48.47C62.251 48.79 62.311 49.0167 62.431 49.15C62.5576 49.2833 62.7843 49.35 63.111 49.35C63.3043 49.35 63.4976 49.3067 63.691 49.22V50.02C63.4376 50.1067 63.1243 50.15 62.751 50.15ZM66.2147 50.15C65.6347 50.15 65.1681 50.0033 64.8147 49.71C64.4681 49.41 64.2947 49.0067 64.2947 48.5C64.2947 47.9667 64.4614 47.5567 64.7947 47.27C65.1347 46.9767 65.6147 46.83 66.2347 46.83C66.8947 46.83 67.4547 46.9633 67.9147 47.23V46.98C67.9147 46.6 67.7981 46.32 67.5647 46.14C67.3381 45.9533 66.9781 45.86 66.4847 45.86C66.1914 45.86 65.9047 45.89 65.6247 45.95C65.3514 46.0033 65.1047 46.08 64.8847 46.18V45.36C65.0847 45.2667 65.3447 45.1933 65.6647 45.14C65.9847 45.08 66.2947 45.05 66.5947 45.05C67.3881 45.05 67.9747 45.2267 68.3547 45.58C68.7414 45.9267 68.9347 46.41 68.9347 47.03V50H67.9847V49.46C67.7781 49.6867 67.5314 49.86 67.2447 49.98C66.9647 50.0933 66.6214 50.15 66.2147 50.15ZM66.4647 49.38C66.7847 49.38 67.0747 49.3167 67.3347 49.19C67.5947 49.0633 67.7881 48.8867 67.9147 48.66V48.01C67.4814 47.73 66.9981 47.59 66.4647 47.59C66.0781 47.59 65.7881 47.6667 65.5947 47.82C65.4081 47.9667 65.3147 48.1933 65.3147 48.5C65.3147 49.0867 65.6981 49.38 66.4647 49.38ZM71.7842 50.15C71.2975 50.15 70.9208 50.01 70.6542 49.73C70.3942 49.45 70.2642 49.0533 70.2642 48.54V45.98H69.5342V45.2H70.2642V43.76H71.2842V45.2H72.4642V45.98H71.2842V48.47C71.2842 48.79 71.3442 49.0167 71.4642 49.15C71.5908 49.2833 71.8175 49.35 72.1442 49.35C72.3375 49.35 72.5308 49.3067 72.7242 49.22V50.02C72.4708 50.1067 72.1575 50.15 71.7842 50.15ZM74.2644 44.26C74.0977 44.26 73.9577 44.2033 73.8444 44.09C73.7311 43.9767 73.6744 43.8367 73.6744 43.67C73.6744 43.5033 73.7311 43.3633 73.8444 43.25C73.9577 43.1367 74.0977 43.08 74.2644 43.08C74.4377 43.08 74.5811 43.1367 74.6944 43.25C74.8144 43.3633 74.8744 43.5033 74.8744 43.67C74.8744 43.8367 74.8144 43.9767 74.6944 44.09C74.5811 44.2033 74.4377 44.26 74.2644 44.26ZM73.7544 45.2H74.7844V50H73.7544V45.2ZM78.7044 50.15C78.1644 50.15 77.6877 50.05 77.2744 49.85C76.8677 49.6433 76.5477 49.35 76.3144 48.97C76.0877 48.5833 75.9744 48.13 75.9744 47.61C75.9744 47.0967 76.0877 46.6467 76.3144 46.26C76.5411 45.8733 76.8611 45.5767 77.2744 45.37C77.6877 45.1567 78.1644 45.05 78.7044 45.05C79.2444 45.05 79.7211 45.1567 80.1344 45.37C80.5477 45.5767 80.8677 45.8733 81.0944 46.26C81.3277 46.6467 81.4444 47.0967 81.4444 47.61C81.4444 48.13 81.3277 48.5833 81.0944 48.97C80.8677 49.35 80.5477 49.6433 80.1344 49.85C79.7211 50.05 79.2444 50.15 78.7044 50.15ZM78.7044 49.35C79.2244 49.35 79.6377 49.19 79.9444 48.87C80.2511 48.55 80.4044 48.13 80.4044 47.61C80.4044 47.07 80.2511 46.6433 79.9444 46.33C79.6377 46.0167 79.2244 45.86 78.7044 45.86C78.1844 45.86 77.7711 46.0167 77.4644 46.33C77.1577 46.6433 77.0044 47.07 77.0044 47.61C77.0044 48.13 77.1577 48.55 77.4644 48.87C77.7711 49.19 78.1844 49.35 78.7044 49.35ZM82.5416 45.2H83.5216V45.89C83.7483 45.6033 84.0249 45.3933 84.3516 45.26C84.6849 45.12 85.0316 45.05 85.3916 45.05C86.0316 45.05 86.5083 45.22 86.8216 45.56C87.1349 45.9 87.2916 46.3567 87.2916 46.93V50H86.2816V47.03C86.2816 46.25 85.9083 45.86 85.1616 45.86C84.8416 45.86 84.5416 45.9367 84.2616 46.09C83.9883 46.2367 83.7516 46.4633 83.5516 46.77V50H82.5416V45.2ZM92.2389 43.01H95.0489C95.7955 43.01 96.3689 43.19 96.7689 43.55C97.1689 43.91 97.3689 44.4367 97.3689 45.13C97.3689 45.6433 97.2322 46.08 96.9589 46.44C96.6855 46.7933 96.2989 47.0333 95.7989 47.16L97.3389 50H96.2789L94.7889 47.24H93.2589V50H92.2389V43.01ZM94.8789 46.38C95.3255 46.38 95.6789 46.2767 95.9389 46.07C96.2055 45.8567 96.3389 45.5433 96.3389 45.13C96.3389 44.6767 96.2089 44.3533 95.9489 44.16C95.6955 43.9667 95.3389 43.87 94.8789 43.87H93.2589V46.38H94.8789ZM100.709 50.15C99.8223 50.15 99.1256 49.93 98.6189 49.49C98.1189 49.0433 97.8689 48.4167 97.8689 47.61C97.8689 46.8233 98.0923 46.2 98.5389 45.74C98.9923 45.28 99.6356 45.05 100.469 45.05C101.022 45.05 101.492 45.1567 101.879 45.37C102.266 45.5767 102.556 45.8667 102.749 46.24C102.949 46.6067 103.049 47.0267 103.049 47.5V48H98.8289C98.8623 48.4533 99.0523 48.7933 99.3989 49.02C99.7523 49.24 100.229 49.35 100.829 49.35C101.136 49.35 101.446 49.3233 101.759 49.27C102.072 49.21 102.349 49.1333 102.589 49.04V49.85C102.376 49.9367 102.092 50.0067 101.739 50.06C101.392 50.12 101.049 50.15 100.709 50.15ZM102.099 47.29C102.086 46.8367 101.936 46.4867 101.649 46.24C101.369 45.9867 100.969 45.86 100.449 45.86C99.9423 45.86 99.5489 45.99 99.2689 46.25C98.9889 46.51 98.8423 46.8567 98.8289 47.29H102.099ZM106.683 50.15C106.15 50.15 105.676 50.05 105.263 49.85C104.85 49.65 104.526 49.36 104.293 48.98C104.066 48.5933 103.953 48.1367 103.953 47.61C103.953 47.0833 104.066 46.63 104.293 46.25C104.526 45.8633 104.85 45.5667 105.263 45.36C105.683 45.1533 106.163 45.05 106.703 45.05C107.436 45.05 108.023 45.1933 108.463 45.48V46.31C108.03 46.01 107.476 45.86 106.803 45.86C106.256 45.86 105.813 46.01 105.473 46.31C105.14 46.6033 104.973 47.0367 104.973 47.61C104.973 48.1833 105.14 48.6167 105.473 48.91C105.806 49.2033 106.243 49.35 106.783 49.35C107.456 49.35 108.036 49.19 108.523 48.87V49.69C108.29 49.85 108.023 49.9667 107.723 50.04C107.43 50.1133 107.083 50.15 106.683 50.15ZM112.262 50.15C111.375 50.15 110.678 49.93 110.172 49.49C109.672 49.0433 109.422 48.4167 109.422 47.61C109.422 46.8233 109.645 46.2 110.092 45.74C110.545 45.28 111.188 45.05 112.022 45.05C112.575 45.05 113.045 45.1567 113.432 45.37C113.818 45.5767 114.108 45.8667 114.302 46.24C114.502 46.6067 114.602 47.0267 114.602 47.5V48H110.382C110.415 48.4533 110.605 48.7933 110.952 49.02C111.305 49.24 111.782 49.35 112.382 49.35C112.688 49.35 112.998 49.3233 113.312 49.27C113.625 49.21 113.902 49.1333 114.142 49.04V49.85C113.928 49.9367 113.645 50.0067 113.292 50.06C112.945 50.12 112.602 50.15 112.262 50.15ZM113.652 47.29C113.638 46.8367 113.488 46.4867 113.202 46.24C112.922 45.9867 112.522 45.86 112.002 45.86C111.495 45.86 111.102 45.99 110.822 46.25C110.542 46.51 110.395 46.8567 110.382 47.29H113.652ZM116.296 44.26C116.129 44.26 115.989 44.2033 115.876 44.09C115.762 43.9767 115.706 43.8367 115.706 43.67C115.706 43.5033 115.762 43.3633 115.876 43.25C115.989 43.1367 116.129 43.08 116.296 43.08C116.469 43.08 116.612 43.1367 116.726 43.25C116.846 43.3633 116.906 43.5033 116.906 43.67C116.906 43.8367 116.846 43.9767 116.726 44.09C116.612 44.2033 116.469 44.26 116.296 44.26ZM115.786 45.2H116.816V50H115.786V45.2ZM118.006 45.2H119.076L120.486 48.65L121.896 45.2H122.966L120.926 50H120.046L118.006 45.2ZM126.305 50.15C125.418 50.15 124.721 49.93 124.215 49.49C123.715 49.0433 123.465 48.4167 123.465 47.61C123.465 46.8233 123.688 46.2 124.135 45.74C124.588 45.28 125.231 45.05 126.065 45.05C126.618 45.05 127.088 45.1567 127.475 45.37C127.861 45.5767 128.151 45.8667 128.345 46.24C128.545 46.6067 128.645 47.0267 128.645 47.5V48H124.425C124.458 48.4533 124.648 48.7933 124.995 49.02C125.348 49.24 125.825 49.35 126.425 49.35C126.731 49.35 127.041 49.3233 127.355 49.27C127.668 49.21 127.945 49.1333 128.185 49.04V49.85C127.971 49.9367 127.688 50.0067 127.335 50.06C126.988 50.12 126.645 50.15 126.305 50.15ZM127.695 47.29C127.681 46.8367 127.531 46.4867 127.245 46.24C126.965 45.9867 126.565 45.86 126.045 45.86C125.538 45.86 125.145 45.99 124.865 46.25C124.585 46.51 124.438 46.8567 124.425 47.29H127.695ZM132.069 50.15C131.589 50.15 131.155 50.0467 130.769 49.84C130.389 49.6267 130.089 49.33 129.869 48.95C129.655 48.5633 129.549 48.1167 129.549 47.61C129.549 47.11 129.655 46.6667 129.869 46.28C130.089 45.8933 130.389 45.5933 130.769 45.38C131.155 45.16 131.589 45.05 132.069 45.05C132.935 45.05 133.592 45.3133 134.039 45.84V42.61H135.049V50H134.069V49.3C133.802 49.5933 133.509 49.81 133.189 49.95C132.875 50.0833 132.502 50.15 132.069 50.15ZM132.299 49.35C132.712 49.35 133.072 49.2433 133.379 49.03C133.692 48.81 133.912 48.5167 134.039 48.15V47.07C133.925 46.7033 133.709 46.41 133.389 46.19C133.075 45.97 132.712 45.86 132.299 45.86C131.972 45.86 131.675 45.9333 131.409 46.08C131.149 46.2267 130.942 46.4333 130.789 46.7C130.642 46.9667 130.569 47.27 130.569 47.61C130.569 47.95 130.642 48.2533 130.789 48.52C130.942 48.7867 131.149 48.9933 131.409 49.14C131.675 49.28 131.972 49.35 132.299 49.35Z" fill="#616161"/>
<path d="M158.263 44.11L156.753 45.2V44.23L158.403 43.01H159.283V50H158.263V44.11ZM169.758 50.15C169.425 50.15 169.071 50.1067 168.698 50.02C168.325 49.94 168.031 49.83 167.818 49.69V48.83C168.078 48.9833 168.378 49.11 168.718 49.21C169.058 49.3033 169.388 49.35 169.708 49.35C170.068 49.35 170.331 49.3067 170.498 49.22C170.665 49.1333 170.748 48.9933 170.748 48.8C170.748 48.6533 170.708 48.5367 170.628 48.45C170.555 48.3567 170.425 48.2733 170.238 48.2C170.058 48.1267 169.785 48.04 169.418 47.94C169.025 47.8267 168.711 47.7133 168.478 47.6C168.251 47.48 168.078 47.33 167.958 47.15C167.845 46.97 167.788 46.7367 167.788 46.45C167.788 45.99 167.968 45.6433 168.328 45.41C168.695 45.17 169.185 45.05 169.798 45.05C170.118 45.05 170.431 45.08 170.738 45.14C171.045 45.2 171.291 45.2833 171.478 45.39V46.23C171.285 46.1167 171.045 46.0267 170.758 45.96C170.478 45.8933 170.191 45.86 169.898 45.86C169.545 45.86 169.275 45.9033 169.088 45.99C168.901 46.0767 168.808 46.23 168.808 46.45C168.808 46.59 168.848 46.7033 168.928 46.79C169.008 46.8767 169.135 46.9533 169.308 47.02C169.488 47.08 169.771 47.16 170.158 47.26C170.765 47.4267 171.185 47.6233 171.418 47.85C171.658 48.0767 171.778 48.39 171.778 48.79C171.778 49.2033 171.608 49.5333 171.268 49.78C170.928 50.0267 170.425 50.15 169.758 50.15ZM175.52 50.15C174.634 50.15 173.937 49.93 173.43 49.49C172.93 49.0433 172.68 48.4167 172.68 47.61C172.68 46.8233 172.904 46.2 173.35 45.74C173.804 45.28 174.447 45.05 175.28 45.05C175.834 45.05 176.304 45.1567 176.69 45.37C177.077 45.5767 177.367 45.8667 177.56 46.24C177.76 46.6067 177.86 47.0267 177.86 47.5V48H173.64C173.674 48.4533 173.864 48.7933 174.21 49.02C174.564 49.24 175.04 49.35 175.64 49.35C175.947 49.35 176.257 49.3233 176.57 49.27C176.884 49.21 177.16 49.1333 177.4 49.04V49.85C177.187 49.9367 176.904 50.0067 176.55 50.06C176.204 50.12 175.86 50.15 175.52 50.15ZM176.91 47.29C176.897 46.8367 176.747 46.4867 176.46 46.24C176.18 45.9867 175.78 45.86 175.26 45.86C174.754 45.86 174.36 45.99 174.08 46.25C173.8 46.51 173.654 46.8567 173.64 47.29H176.91ZM180.814 50.15C180.328 50.15 179.951 50.01 179.684 49.73C179.424 49.45 179.294 49.0533 179.294 48.54V45.98H178.564V45.2H179.294V43.76H180.314V45.2H181.494V45.98H180.314V48.47C180.314 48.79 180.374 49.0167 180.494 49.15C180.621 49.2833 180.848 49.35 181.174 49.35C181.368 49.35 181.561 49.3067 181.754 49.22V50.02C181.501 50.1067 181.188 50.15 180.814 50.15ZM186.406 43.01H189.096C189.849 43.01 190.443 43.2 190.876 43.58C191.316 43.9533 191.536 44.4867 191.536 45.18C191.536 45.8867 191.319 46.4233 190.886 46.79C190.453 47.15 189.856 47.33 189.096 47.33H187.426V50H186.406V43.01ZM188.986 46.48C189.453 46.48 189.823 46.3833 190.096 46.19C190.369 45.9967 190.506 45.66 190.506 45.18C190.506 44.7 190.369 44.3633 190.096 44.17C189.823 43.97 189.453 43.87 188.986 43.87H187.426V46.48H188.986ZM192.431 45.2H193.411V46.06C193.611 45.7667 193.891 45.55 194.251 45.41C194.618 45.27 195.041 45.2 195.521 45.2V45.99C195.008 45.99 194.568 46.0733 194.201 46.24C193.835 46.4067 193.581 46.67 193.441 47.03V50H192.431V45.2ZM197.015 44.26C196.849 44.26 196.709 44.2033 196.595 44.09C196.482 43.9767 196.425 43.8367 196.425 43.67C196.425 43.5033 196.482 43.3633 196.595 43.25C196.709 43.1367 196.849 43.08 197.015 43.08C197.189 43.08 197.332 43.1367 197.445 43.25C197.565 43.3633 197.625 43.5033 197.625 43.67C197.625 43.8367 197.565 43.9767 197.445 44.09C197.332 44.2033 197.189 44.26 197.015 44.26ZM196.505 45.2H197.535V50H196.505V45.2ZM198.925 45.2H199.905V45.89C200.132 45.6033 200.409 45.3933 200.735 45.26C201.069 45.12 201.415 45.05 201.775 45.05C202.415 45.05 202.892 45.22 203.205 45.56C203.519 45.9 203.675 46.3567 203.675 46.93V50H202.665V47.03C202.665 46.25 202.292 45.86 201.545 45.86C201.225 45.86 200.925 45.9367 200.645 46.09C200.372 46.2367 200.135 46.4633 199.935 46.77V50H198.925V45.2ZM206.771 50.15C206.285 50.15 205.908 50.01 205.641 49.73C205.381 49.45 205.251 49.0533 205.251 48.54V45.98H204.521V45.2H205.251V43.76H206.271V45.2H207.451V45.98H206.271V48.47C206.271 48.79 206.331 49.0167 206.451 49.15C206.578 49.2833 206.805 49.35 207.131 49.35C207.325 49.35 207.518 49.3067 207.711 49.22V50.02C207.458 50.1067 207.145 50.15 206.771 50.15ZM211.302 50.15C210.415 50.15 209.718 49.93 209.212 49.49C208.712 49.0433 208.462 48.4167 208.462 47.61C208.462 46.8233 208.685 46.2 209.132 45.74C209.585 45.28 210.228 45.05 211.062 45.05C211.615 45.05 212.085 45.1567 212.472 45.37C212.858 45.5767 213.148 45.8667 213.342 46.24C213.542 46.6067 213.642 47.0267 213.642 47.5V48H209.422C209.455 48.4533 209.645 48.7933 209.992 49.02C210.345 49.24 210.822 49.35 211.422 49.35C211.728 49.35 212.038 49.3233 212.352 49.27C212.665 49.21 212.942 49.1333 213.182 49.04V49.85C212.968 49.9367 212.685 50.0067 212.332 50.06C211.985 50.12 211.642 50.15 211.302 50.15ZM212.692 47.29C212.678 46.8367 212.528 46.4867 212.242 46.24C211.962 45.9867 211.562 45.86 211.042 45.86C210.535 45.86 210.142 45.99 209.862 46.25C209.582 46.51 209.435 46.8567 209.422 47.29H212.692ZM217.066 50.15C216.586 50.15 216.152 50.0467 215.766 49.84C215.386 49.6267 215.086 49.33 214.866 48.95C214.652 48.5633 214.546 48.1167 214.546 47.61C214.546 47.11 214.652 46.6667 214.866 46.28C215.086 45.8933 215.386 45.5933 215.766 45.38C216.152 45.16 216.586 45.05 217.066 45.05C217.932 45.05 218.589 45.3133 219.036 45.84V42.61H220.046V50H219.066V49.3C218.799 49.5933 218.506 49.81 218.186 49.95C217.872 50.0833 217.499 50.15 217.066 50.15ZM217.296 49.35C217.709 49.35 218.069 49.2433 218.376 49.03C218.689 48.81 218.909 48.5167 219.036 48.15V47.07C218.922 46.7033 218.706 46.41 218.386 46.19C218.072 45.97 217.709 45.86 217.296 45.86C216.969 45.86 216.672 45.9333 216.406 46.08C216.146 46.2267 215.939 46.4333 215.786 46.7C215.639 46.9667 215.566 47.27 215.566 47.61C215.566 47.95 215.639 48.2533 215.786 48.52C215.939 48.7867 216.146 48.9933 216.406 49.14C216.672 49.28 216.969 49.35 217.296 49.35Z" fill="#616161"/>
<path d="M271.309 44.11L269.799 45.2V44.23L271.449 43.01H272.329V50H271.309V44.11ZM282.804 50.15C282.47 50.15 282.117 50.1067 281.744 50.02C281.37 49.94 281.077 49.83 280.864 49.69V48.83C281.124 48.9833 281.424 49.11 281.764 49.21C282.104 49.3033 282.434 49.35 282.754 49.35C283.114 49.35 283.377 49.3067 283.544 49.22C283.71 49.1333 283.794 48.9933 283.794 48.8C283.794 48.6533 283.754 48.5367 283.674 48.45C283.6 48.3567 283.47 48.2733 283.284 48.2C283.104 48.1267 282.83 48.04 282.464 47.94C282.07 47.8267 281.757 47.7133 281.524 47.6C281.297 47.48 281.124 47.33 281.004 47.15C280.89 46.97 280.834 46.7367 280.834 46.45C280.834 45.99 281.014 45.6433 281.374 45.41C281.74 45.17 282.23 45.05 282.844 45.05C283.164 45.05 283.477 45.08 283.784 45.14C284.09 45.2 284.337 45.2833 284.524 45.39V46.23C284.33 46.1167 284.09 46.0267 283.804 45.96C283.524 45.8933 283.237 45.86 282.944 45.86C282.59 45.86 282.32 45.9033 282.134 45.99C281.947 46.0767 281.854 46.23 281.854 46.45C281.854 46.59 281.894 46.7033 281.974 46.79C282.054 46.8767 282.18 46.9533 282.354 47.02C282.534 47.08 282.817 47.16 283.204 47.26C283.81 47.4267 284.23 47.6233 284.464 47.85C284.704 48.0767 284.824 48.39 284.824 48.79C284.824 49.2033 284.654 49.5333 284.314 49.78C283.974 50.0267 283.47 50.15 282.804 50.15ZM288.566 50.15C287.68 50.15 286.983 49.93 286.476 49.49C285.976 49.0433 285.726 48.4167 285.726 47.61C285.726 46.8233 285.95 46.2 286.396 45.74C286.85 45.28 287.493 45.05 288.326 45.05C288.88 45.05 289.35 45.1567 289.736 45.37C290.123 45.5767 290.413 45.8667 290.606 46.24C290.806 46.6067 290.906 47.0267 290.906 47.5V48H286.686C286.72 48.4533 286.91 48.7933 287.256 49.02C287.61 49.24 288.086 49.35 288.686 49.35C288.993 49.35 289.303 49.3233 289.616 49.27C289.93 49.21 290.206 49.1333 290.446 49.04V49.85C290.233 49.9367 289.95 50.0067 289.596 50.06C289.25 50.12 288.906 50.15 288.566 50.15ZM289.956 47.29C289.943 46.8367 289.793 46.4867 289.506 46.24C289.226 45.9867 288.826 45.86 288.306 45.86C287.8 45.86 287.406 45.99 287.126 46.25C286.846 46.51 286.7 46.8567 286.686 47.29H289.956ZM293.86 50.15C293.374 50.15 292.997 50.01 292.73 49.73C292.47 49.45 292.34 49.0533 292.34 48.54V45.98H291.61V45.2H292.34V43.76H293.36V45.2H294.54V45.98H293.36V48.47C293.36 48.79 293.42 49.0167 293.54 49.15C293.667 49.2833 293.894 49.35 294.22 49.35C294.414 49.35 294.607 49.3067 294.8 49.22V50.02C294.547 50.1067 294.234 50.15 293.86 50.15ZM299.452 43.01H301.702C302.455 43.01 303.108 43.15 303.662 43.43C304.215 43.71 304.638 44.11 304.932 44.63C305.232 45.15 305.382 45.7633 305.382 46.47C305.382 47.63 305.045 48.51 304.372 49.11C303.705 49.7033 302.768 50 301.562 50H299.452V43.01ZM301.552 49.15C302.485 49.15 303.185 48.92 303.652 48.46C304.118 48 304.352 47.3367 304.352 46.47C304.352 45.67 304.122 45.0367 303.662 44.57C303.208 44.1033 302.558 43.87 301.712 43.87H300.472V49.15H301.552ZM309.123 50.15C308.236 50.15 307.54 49.93 307.033 49.49C306.533 49.0433 306.283 48.4167 306.283 47.61C306.283 46.8233 306.506 46.2 306.953 45.74C307.406 45.28 308.05 45.05 308.883 45.05C309.436 45.05 309.906 45.1567 310.293 45.37C310.68 45.5767 310.97 45.8667 311.163 46.24C311.363 46.6067 311.463 47.0267 311.463 47.5V48H307.243C307.276 48.4533 307.466 48.7933 307.813 49.02C308.166 49.24 308.643 49.35 309.243 49.35C309.55 49.35 309.86 49.3233 310.173 49.27C310.486 49.21 310.763 49.1333 311.003 49.04V49.85C310.79 49.9367 310.506 50.0067 310.153 50.06C309.806 50.12 309.463 50.15 309.123 50.15ZM310.513 47.29C310.5 46.8367 310.35 46.4867 310.063 46.24C309.783 45.9867 309.383 45.86 308.863 45.86C308.356 45.86 307.963 45.99 307.683 46.25C307.403 46.51 307.256 46.8567 307.243 47.29H310.513ZM312.567 42.61H313.577V50H312.567V42.61ZM315.471 44.26C315.305 44.26 315.165 44.2033 315.051 44.09C314.938 43.9767 314.881 43.8367 314.881 43.67C314.881 43.5033 314.938 43.3633 315.051 43.25C315.165 43.1367 315.305 43.08 315.471 43.08C315.645 43.08 315.788 43.1367 315.901 43.25C316.021 43.3633 316.081 43.5033 316.081 43.67C316.081 43.8367 316.021 43.9767 315.901 44.09C315.788 44.2033 315.645 44.26 315.471 44.26ZM314.961 45.2H315.991V50H314.961V45.2ZM317.181 45.2H318.251L319.661 48.65L321.071 45.2H322.141L320.101 50H319.221L317.181 45.2ZM325.48 50.15C324.594 50.15 323.897 49.93 323.39 49.49C322.89 49.0433 322.64 48.4167 322.64 47.61C322.64 46.8233 322.864 46.2 323.31 45.74C323.764 45.28 324.407 45.05 325.24 45.05C325.794 45.05 326.264 45.1567 326.65 45.37C327.037 45.5767 327.327 45.8667 327.52 46.24C327.72 46.6067 327.82 47.0267 327.82 47.5V48H323.6C323.634 48.4533 323.824 48.7933 324.17 49.02C324.524 49.24 325 49.35 325.6 49.35C325.907 49.35 326.217 49.3233 326.53 49.27C326.844 49.21 327.12 49.1333 327.36 49.04V49.85C327.147 49.9367 326.864 50.0067 326.51 50.06C326.164 50.12 325.82 50.15 325.48 50.15ZM326.87 47.29C326.857 46.8367 326.707 46.4867 326.42 46.24C326.14 45.9867 325.74 45.86 325.22 45.86C324.714 45.86 324.32 45.99 324.04 46.25C323.76 46.51 323.614 46.8567 323.6 47.29H326.87ZM328.924 45.2H329.904V46.06C330.104 45.7667 330.384 45.55 330.744 45.41C331.111 45.27 331.534 45.2 332.014 45.2V45.99C331.501 45.99 331.061 46.0733 330.694 46.24C330.328 46.4067 330.074 46.67 329.934 47.03V50H328.924V45.2ZM335.256 50.15C334.369 50.15 333.672 49.93 333.166 49.49C332.666 49.0433 332.416 48.4167 332.416 47.61C332.416 46.8233 332.639 46.2 333.086 45.74C333.539 45.28 334.182 45.05 335.016 45.05C335.569 45.05 336.039 45.1567 336.426 45.37C336.812 45.5767 337.102 45.8667 337.296 46.24C337.496 46.6067 337.596 47.0267 337.596 47.5V48H333.376C333.409 48.4533 333.599 48.7933 333.946 49.02C334.299 49.24 334.776 49.35 335.376 49.35C335.682 49.35 335.992 49.3233 336.306 49.27C336.619 49.21 336.896 49.1333 337.136 49.04V49.85C336.922 49.9367 336.639 50.0067 336.286 50.06C335.939 50.12 335.596 50.15 335.256 50.15ZM336.646 47.29C336.632 46.8367 336.482 46.4867 336.196 46.24C335.916 45.9867 335.516 45.86 334.996 45.86C334.489 45.86 334.096 45.99 333.816 46.25C333.536 46.51 333.389 46.8567 333.376 47.29H336.646ZM341.02 50.15C340.54 50.15 340.106 50.0467 339.72 49.84C339.34 49.6267 339.04 49.33 338.82 48.95C338.606 48.5633 338.5 48.1167 338.5 47.61C338.5 47.11 338.606 46.6667 338.82 46.28C339.04 45.8933 339.34 45.5933 339.72 45.38C340.106 45.16 340.54 45.05 341.02 45.05C341.886 45.05 342.543 45.3133 342.99 45.84V42.61H344V50H343.02V49.3C342.753 49.5933 342.46 49.81 342.14 49.95C341.826 50.0833 341.453 50.15 341.02 50.15ZM341.25 49.35C341.663 49.35 342.023 49.2433 342.33 49.03C342.643 48.81 342.863 48.5167 342.99 48.15V47.07C342.876 46.7033 342.66 46.41 342.34 46.19C342.026 45.97 341.663 45.86 341.25 45.86C340.923 45.86 340.626 45.9333 340.36 46.08C340.1 46.2267 339.893 46.4333 339.74 46.7C339.593 46.9667 339.52 47.27 339.52 47.61C339.52 47.95 339.593 48.2533 339.74 48.52C339.893 48.7867 340.1 48.9933 340.36 49.14C340.626 49.28 340.923 49.35 341.25 49.35Z" fill="#616161"/>
<path d="M497.362 43.01H498.342L501.132 50H500.092L499.392 48.26H496.302L495.622 50H494.572L497.362 43.01ZM499.112 47.41L497.852 44.14L496.592 47.41H499.112ZM502.233 42.61H503.243V50H502.233V42.61ZM504.547 42.61H505.557V50H504.547V42.61ZM512.333 50.15C512 50.15 511.646 50.1067 511.273 50.02C510.9 49.94 510.606 49.83 510.393 49.69V48.83C510.653 48.9833 510.953 49.11 511.293 49.21C511.633 49.3033 511.963 49.35 512.283 49.35C512.643 49.35 512.906 49.3067 513.073 49.22C513.24 49.1333 513.323 48.9933 513.323 48.8C513.323 48.6533 513.283 48.5367 513.203 48.45C513.13 48.3567 513 48.2733 512.813 48.2C512.633 48.1267 512.36 48.04 511.993 47.94C511.6 47.8267 511.286 47.7133 511.053 47.6C510.826 47.48 510.653 47.33 510.533 47.15C510.42 46.97 510.363 46.7367 510.363 46.45C510.363 45.99 510.543 45.6433 510.903 45.41C511.27 45.17 511.76 45.05 512.373 45.05C512.693 45.05 513.006 45.08 513.313 45.14C513.62 45.2 513.866 45.2833 514.053 45.39V46.23C513.86 46.1167 513.62 46.0267 513.333 45.96C513.053 45.8933 512.766 45.86 512.473 45.86C512.12 45.86 511.85 45.9033 511.663 45.99C511.476 46.0767 511.383 46.23 511.383 46.45C511.383 46.59 511.423 46.7033 511.503 46.79C511.583 46.8767 511.71 46.9533 511.883 47.02C512.063 47.08 512.346 47.16 512.733 47.26C513.34 47.4267 513.76 47.6233 513.993 47.85C514.233 48.0767 514.353 48.39 514.353 48.79C514.353 49.2033 514.183 49.5333 513.843 49.78C513.503 50.0267 513 50.15 512.333 50.15ZM518.096 50.15C517.209 50.15 516.512 49.93 516.006 49.49C515.506 49.0433 515.256 48.4167 515.256 47.61C515.256 46.8233 515.479 46.2 515.926 45.74C516.379 45.28 517.022 45.05 517.856 45.05C518.409 45.05 518.879 45.1567 519.266 45.37C519.652 45.5767 519.942 45.8667 520.136 46.24C520.336 46.6067 520.436 47.0267 520.436 47.5V48H516.216C516.249 48.4533 516.439 48.7933 516.786 49.02C517.139 49.24 517.616 49.35 518.216 49.35C518.522 49.35 518.832 49.3233 519.146 49.27C519.459 49.21 519.736 49.1333 519.976 49.04V49.85C519.762 49.9367 519.479 50.0067 519.126 50.06C518.779 50.12 518.436 50.15 518.096 50.15ZM519.486 47.29C519.472 46.8367 519.322 46.4867 519.036 46.24C518.756 45.9867 518.356 45.86 517.836 45.86C517.329 45.86 516.936 45.99 516.656 46.25C516.376 46.51 516.229 46.8567 516.216 47.29H519.486ZM523.39 50.15C522.903 50.15 522.526 50.01 522.26 49.73C522 49.45 521.87 49.0533 521.87 48.54V45.98H521.14V45.2H521.87V43.76H522.89V45.2H524.07V45.98H522.89V48.47C522.89 48.79 522.95 49.0167 523.07 49.15C523.196 49.2833 523.423 49.35 523.75 49.35C523.943 49.35 524.136 49.3067 524.33 49.22V50.02C524.076 50.1067 523.763 50.15 523.39 50.15ZM526.855 50.15C526.521 50.15 526.168 50.1067 525.795 50.02C525.421 49.94 525.128 49.83 524.915 49.69V48.83C525.175 48.9833 525.475 49.11 525.815 49.21C526.155 49.3033 526.485 49.35 526.805 49.35C527.165 49.35 527.428 49.3067 527.595 49.22C527.761 49.1333 527.845 48.9933 527.845 48.8C527.845 48.6533 527.805 48.5367 527.725 48.45C527.651 48.3567 527.521 48.2733 527.335 48.2C527.155 48.1267 526.881 48.04 526.515 47.94C526.121 47.8267 525.808 47.7133 525.575 47.6C525.348 47.48 525.175 47.33 525.055 47.15C524.941 46.97 524.885 46.7367 524.885 46.45C524.885 45.99 525.065 45.6433 525.425 45.41C525.791 45.17 526.281 45.05 526.895 45.05C527.215 45.05 527.528 45.08 527.835 45.14C528.141 45.2 528.388 45.2833 528.575 45.39V46.23C528.381 46.1167 528.141 46.0267 527.855 45.96C527.575 45.8933 527.288 45.86 526.995 45.86C526.641 45.86 526.371 45.9033 526.185 45.99C525.998 46.0767 525.905 46.23 525.905 46.45C525.905 46.59 525.945 46.7033 526.025 46.79C526.105 46.8767 526.231 46.9533 526.405 47.02C526.585 47.08 526.868 47.16 527.255 47.26C527.861 47.4267 528.281 47.6233 528.515 47.85C528.755 48.0767 528.875 48.39 528.875 48.79C528.875 49.2033 528.705 49.5333 528.365 49.78C528.025 50.0267 527.521 50.15 526.855 50.15ZM533.678 43.01H535.928C536.682 43.01 537.335 43.15 537.888 43.43C538.442 43.71 538.865 44.11 539.158 44.63C539.458 45.15 539.608 45.7633 539.608 46.47C539.608 47.63 539.272 48.51 538.598 49.11C537.932 49.7033 536.995 50 535.788 50H533.678V43.01ZM535.778 49.15C536.712 49.15 537.412 48.92 537.878 48.46C538.345 48 538.578 47.3367 538.578 46.47C538.578 45.67 538.348 45.0367 537.888 44.57C537.435 44.1033 536.785 43.87 535.938 43.87H534.698V49.15H535.778ZM543.35 50.15C542.463 50.15 541.766 49.93 541.26 49.49C540.76 49.0433 540.51 48.4167 540.51 47.61C540.51 46.8233 540.733 46.2 541.18 45.74C541.633 45.28 542.276 45.05 543.11 45.05C543.663 45.05 544.133 45.1567 544.52 45.37C544.906 45.5767 545.196 45.8667 545.39 46.24C545.59 46.6067 545.69 47.0267 545.69 47.5V48H541.47C541.503 48.4533 541.693 48.7933 542.04 49.02C542.393 49.24 542.87 49.35 543.47 49.35C543.776 49.35 544.086 49.3233 544.4 49.27C544.713 49.21 544.99 49.1333 545.23 49.04V49.85C545.016 49.9367 544.733 50.0067 544.38 50.06C544.033 50.12 543.69 50.15 543.35 50.15ZM544.74 47.29C544.726 46.8367 544.576 46.4867 544.29 46.24C544.01 45.9867 543.61 45.86 543.09 45.86C542.583 45.86 542.19 45.99 541.91 46.25C541.63 46.51 541.483 46.8567 541.47 47.29H544.74ZM546.794 42.61H547.804V50H546.794V42.61ZM549.698 44.26C549.531 44.26 549.391 44.2033 549.278 44.09C549.165 43.9767 549.108 43.8367 549.108 43.67C549.108 43.5033 549.165 43.3633 549.278 43.25C549.391 43.1367 549.531 43.08 549.698 43.08C549.871 43.08 550.015 43.1367 550.128 43.25C550.248 43.3633 550.308 43.5033 550.308 43.67C550.308 43.8367 550.248 43.9767 550.128 44.09C550.015 44.2033 549.871 44.26 549.698 44.26ZM549.188 45.2H550.218V50H549.188V45.2ZM551.408 45.2H552.478L553.888 48.65L555.298 45.2H556.368L554.328 50H553.448L551.408 45.2ZM559.707 50.15C558.82 50.15 558.124 49.93 557.617 49.49C557.117 49.0433 556.867 48.4167 556.867 47.61C556.867 46.8233 557.09 46.2 557.537 45.74C557.99 45.28 558.634 45.05 559.467 45.05C560.02 45.05 560.49 45.1567 560.877 45.37C561.264 45.5767 561.554 45.8667 561.747 46.24C561.947 46.6067 562.047 47.0267 562.047 47.5V48H557.827C557.86 48.4533 558.05 48.7933 558.397 49.02C558.75 49.24 559.227 49.35 559.827 49.35C560.134 49.35 560.444 49.3233 560.757 49.27C561.07 49.21 561.347 49.1333 561.587 49.04V49.85C561.374 49.9367 561.09 50.0067 560.737 50.06C560.39 50.12 560.047 50.15 559.707 50.15ZM561.097 47.29C561.084 46.8367 560.934 46.4867 560.647 46.24C560.367 45.9867 559.967 45.86 559.447 45.86C558.94 45.86 558.547 45.99 558.267 46.25C557.987 46.51 557.84 46.8567 557.827 47.29H561.097ZM563.151 45.2H564.131V46.06C564.331 45.7667 564.611 45.55 564.971 45.41C565.338 45.27 565.761 45.2 566.241 45.2V45.99C565.728 45.99 565.288 46.0733 564.921 46.24C564.554 46.4067 564.301 46.67 564.161 47.03V50H563.151V45.2ZM569.482 50.15C568.596 50.15 567.899 49.93 567.392 49.49C566.892 49.0433 566.642 48.4167 566.642 47.61C566.642 46.8233 566.866 46.2 567.312 45.74C567.766 45.28 568.409 45.05 569.242 45.05C569.796 45.05 570.266 45.1567 570.652 45.37C571.039 45.5767 571.329 45.8667 571.522 46.24C571.722 46.6067 571.822 47.0267 571.822 47.5V48H567.602C567.636 48.4533 567.826 48.7933 568.172 49.02C568.526 49.24 569.002 49.35 569.602 49.35C569.909 49.35 570.219 49.3233 570.532 49.27C570.846 49.21 571.122 49.1333 571.362 49.04V49.85C571.149 49.9367 570.866 50.0067 570.512 50.06C570.166 50.12 569.822 50.15 569.482 50.15ZM570.872 47.29C570.859 46.8367 570.709 46.4867 570.422 46.24C570.142 45.9867 569.742 45.86 569.222 45.86C568.716 45.86 568.322 45.99 568.042 46.25C567.762 46.51 567.616 46.8567 567.602 47.29H570.872ZM575.246 50.15C574.766 50.15 574.333 50.0467 573.946 49.84C573.566 49.6267 573.266 49.33 573.046 48.95C572.833 48.5633 572.726 48.1167 572.726 47.61C572.726 47.11 572.833 46.6667 573.046 46.28C573.266 45.8933 573.566 45.5933 573.946 45.38C574.333 45.16 574.766 45.05 575.246 45.05C576.113 45.05 576.77 45.3133 577.216 45.84V42.61H578.226V50H577.246V49.3C576.98 49.5933 576.686 49.81 576.366 49.95C576.053 50.0833 575.68 50.15 575.246 50.15ZM575.476 49.35C575.89 49.35 576.25 49.2433 576.556 49.03C576.87 48.81 577.09 48.5167 577.216 48.15V47.07C577.103 46.7033 576.886 46.41 576.566 46.19C576.253 45.97 575.89 45.86 575.476 45.86C575.15 45.86 574.853 45.9333 574.586 46.08C574.326 46.2267 574.12 46.4333 573.966 46.7C573.82 46.9667 573.746 47.27 573.746 47.61C573.746 47.95 573.82 48.2533 573.966 48.52C574.12 48.7867 574.326 48.9933 574.586 49.14C574.853 49.28 575.15 49.35 575.476 49.35Z" fill="#616161"/>
<path d="M382.316 43.01H383.296L386.086 50H385.046L384.346 48.26H381.256L380.576 50H379.526L382.316 43.01ZM384.066 47.41L382.806 44.14L381.546 47.41H384.066ZM387.187 42.61H388.197V50H387.187V42.61ZM389.502 42.61H390.512V50H389.502V42.61ZM397.287 50.15C396.954 50.15 396.601 50.1067 396.227 50.02C395.854 49.94 395.561 49.83 395.347 49.69V48.83C395.607 48.9833 395.907 49.11 396.247 49.21C396.587 49.3033 396.917 49.35 397.237 49.35C397.597 49.35 397.861 49.3067 398.027 49.22C398.194 49.1333 398.277 48.9933 398.277 48.8C398.277 48.6533 398.237 48.5367 398.157 48.45C398.084 48.3567 397.954 48.2733 397.767 48.2C397.587 48.1267 397.314 48.04 396.947 47.94C396.554 47.8267 396.241 47.7133 396.007 47.6C395.781 47.48 395.607 47.33 395.487 47.15C395.374 46.97 395.317 46.7367 395.317 46.45C395.317 45.99 395.497 45.6433 395.857 45.41C396.224 45.17 396.714 45.05 397.327 45.05C397.647 45.05 397.961 45.08 398.267 45.14C398.574 45.2 398.821 45.2833 399.007 45.39V46.23C398.814 46.1167 398.574 46.0267 398.287 45.96C398.007 45.8933 397.721 45.86 397.427 45.86C397.074 45.86 396.804 45.9033 396.617 45.99C396.431 46.0767 396.337 46.23 396.337 46.45C396.337 46.59 396.377 46.7033 396.457 46.79C396.537 46.8767 396.664 46.9533 396.837 47.02C397.017 47.08 397.301 47.16 397.687 47.26C398.294 47.4267 398.714 47.6233 398.947 47.85C399.187 48.0767 399.307 48.39 399.307 48.79C399.307 49.2033 399.137 49.5333 398.797 49.78C398.457 50.0267 397.954 50.15 397.287 50.15ZM403.05 50.15C402.163 50.15 401.466 49.93 400.96 49.49C400.46 49.0433 400.21 48.4167 400.21 47.61C400.21 46.8233 400.433 46.2 400.88 45.74C401.333 45.28 401.976 45.05 402.81 45.05C403.363 45.05 403.833 45.1567 404.22 45.37C404.606 45.5767 404.896 45.8667 405.09 46.24C405.29 46.6067 405.39 47.0267 405.39 47.5V48H401.17C401.203 48.4533 401.393 48.7933 401.74 49.02C402.093 49.24 402.57 49.35 403.17 49.35C403.476 49.35 403.786 49.3233 404.1 49.27C404.413 49.21 404.69 49.1333 404.93 49.04V49.85C404.716 49.9367 404.433 50.0067 404.08 50.06C403.733 50.12 403.39 50.15 403.05 50.15ZM404.44 47.29C404.426 46.8367 404.276 46.4867 403.99 46.24C403.71 45.9867 403.31 45.86 402.79 45.86C402.283 45.86 401.89 45.99 401.61 46.25C401.33 46.51 401.183 46.8567 401.17 47.29H404.44ZM408.344 50.15C407.857 50.15 407.48 50.01 407.214 49.73C406.954 49.45 406.824 49.0533 406.824 48.54V45.98H406.094V45.2H406.824V43.76H407.844V45.2H409.024V45.98H407.844V48.47C407.844 48.79 407.904 49.0167 408.024 49.15C408.15 49.2833 408.377 49.35 408.704 49.35C408.897 49.35 409.09 49.3067 409.284 49.22V50.02C409.03 50.1067 408.717 50.15 408.344 50.15ZM411.809 50.15C411.475 50.15 411.122 50.1067 410.749 50.02C410.375 49.94 410.082 49.83 409.869 49.69V48.83C410.129 48.9833 410.429 49.11 410.769 49.21C411.109 49.3033 411.439 49.35 411.759 49.35C412.119 49.35 412.382 49.3067 412.549 49.22C412.715 49.1333 412.799 48.9933 412.799 48.8C412.799 48.6533 412.759 48.5367 412.679 48.45C412.605 48.3567 412.475 48.2733 412.289 48.2C412.109 48.1267 411.835 48.04 411.469 47.94C411.075 47.8267 410.762 47.7133 410.529 47.6C410.302 47.48 410.129 47.33 410.009 47.15C409.895 46.97 409.839 46.7367 409.839 46.45C409.839 45.99 410.019 45.6433 410.379 45.41C410.745 45.17 411.235 45.05 411.849 45.05C412.169 45.05 412.482 45.08 412.789 45.14C413.095 45.2 413.342 45.2833 413.529 45.39V46.23C413.335 46.1167 413.095 46.0267 412.809 45.96C412.529 45.8933 412.242 45.86 411.949 45.86C411.595 45.86 411.325 45.9033 411.139 45.99C410.952 46.0767 410.859 46.23 410.859 46.45C410.859 46.59 410.899 46.7033 410.979 46.79C411.059 46.8767 411.185 46.9533 411.359 47.02C411.539 47.08 411.822 47.16 412.209 47.26C412.815 47.4267 413.235 47.6233 413.469 47.85C413.709 48.0767 413.829 48.39 413.829 48.79C413.829 49.2033 413.659 49.5333 413.319 49.78C412.979 50.0267 412.475 50.15 411.809 50.15ZM418.632 43.01H421.322C422.076 43.01 422.669 43.2 423.102 43.58C423.542 43.9533 423.762 44.4867 423.762 45.18C423.762 45.8867 423.546 46.4233 423.112 46.79C422.679 47.15 422.082 47.33 421.322 47.33H419.652V50H418.632V43.01ZM421.212 46.48C421.679 46.48 422.049 46.3833 422.322 46.19C422.596 45.9967 422.732 45.66 422.732 45.18C422.732 44.7 422.596 44.3633 422.322 44.17C422.049 43.97 421.679 43.87 421.212 43.87H419.652V46.48H421.212ZM424.658 45.2H425.638V46.06C425.838 45.7667 426.118 45.55 426.478 45.41C426.844 45.27 427.268 45.2 427.748 45.2V45.99C427.234 45.99 426.794 46.0733 426.428 46.24C426.061 46.4067 425.808 46.67 425.668 47.03V50H424.658V45.2ZM429.242 44.26C429.075 44.26 428.935 44.2033 428.822 44.09C428.709 43.9767 428.652 43.8367 428.652 43.67C428.652 43.5033 428.709 43.3633 428.822 43.25C428.935 43.1367 429.075 43.08 429.242 43.08C429.415 43.08 429.559 43.1367 429.672 43.25C429.792 43.3633 429.852 43.5033 429.852 43.67C429.852 43.8367 429.792 43.9767 429.672 44.09C429.559 44.2033 429.415 44.26 429.242 44.26ZM428.732 45.2H429.762V50H428.732V45.2ZM431.152 45.2H432.132V45.89C432.359 45.6033 432.635 45.3933 432.962 45.26C433.295 45.12 433.642 45.05 434.002 45.05C434.642 45.05 435.119 45.22 435.432 45.56C435.745 45.9 435.902 46.3567 435.902 46.93V50H434.892V47.03C434.892 46.25 434.519 45.86 433.772 45.86C433.452 45.86 433.152 45.9367 432.872 46.09C432.599 46.2367 432.362 46.4633 432.162 46.77V50H431.152V45.2ZM438.998 50.15C438.511 50.15 438.135 50.01 437.868 49.73C437.608 49.45 437.478 49.0533 437.478 48.54V45.98H436.748V45.2H437.478V43.76H438.498V45.2H439.678V45.98H438.498V48.47C438.498 48.79 438.558 49.0167 438.678 49.15C438.805 49.2833 439.031 49.35 439.358 49.35C439.551 49.35 439.745 49.3067 439.938 49.22V50.02C439.685 50.1067 439.371 50.15 438.998 50.15ZM443.528 50.15C442.642 50.15 441.945 49.93 441.438 49.49C440.938 49.0433 440.688 48.4167 440.688 47.61C440.688 46.8233 440.912 46.2 441.358 45.74C441.812 45.28 442.455 45.05 443.288 45.05C443.842 45.05 444.312 45.1567 444.698 45.37C445.085 45.5767 445.375 45.8667 445.568 46.24C445.768 46.6067 445.868 47.0267 445.868 47.5V48H441.648C441.682 48.4533 441.872 48.7933 442.218 49.02C442.572 49.24 443.048 49.35 443.648 49.35C443.955 49.35 444.265 49.3233 444.578 49.27C444.892 49.21 445.168 49.1333 445.408 49.04V49.85C445.195 49.9367 444.912 50.0067 444.558 50.06C444.212 50.12 443.868 50.15 443.528 50.15ZM444.918 47.29C444.905 46.8367 444.755 46.4867 444.468 46.24C444.188 45.9867 443.788 45.86 443.268 45.86C442.762 45.86 442.368 45.99 442.088 46.25C441.808 46.51 441.662 46.8567 441.648 47.29H444.918ZM449.292 50.15C448.812 50.15 448.379 50.0467 447.992 49.84C447.612 49.6267 447.312 49.33 447.092 48.95C446.879 48.5633 446.772 48.1167 446.772 47.61C446.772 47.11 446.879 46.6667 447.092 46.28C447.312 45.8933 447.612 45.5933 447.992 45.38C448.379 45.16 448.812 45.05 449.292 45.05C450.159 45.05 450.816 45.3133 451.262 45.84V42.61H452.272V50H451.292V49.3C451.026 49.5933 450.732 49.81 450.412 49.95C450.099 50.0833 449.726 50.15 449.292 50.15ZM449.522 49.35C449.936 49.35 450.296 49.2433 450.602 49.03C450.916 48.81 451.136 48.5167 451.262 48.15V47.07C451.149 46.7033 450.932 46.41 450.612 46.19C450.299 45.97 449.936 45.86 449.522 45.86C449.196 45.86 448.899 45.9333 448.632 46.08C448.372 46.2267 448.166 46.4333 448.012 46.7C447.866 46.9667 447.792 47.27 447.792 47.61C447.792 47.95 447.866 48.2533 448.012 48.52C448.166 48.7867 448.372 48.9933 448.632 49.14C448.899 49.28 449.196 49.35 449.522 49.35Z" fill="#616161"/>
<g clip-path="url(#clip0_1413_10323)">
<circle cx="69" cy="16" r="16" fill="white"/>
<path d="M85 16C85 20.2435 83.3143 24.3131 80.3137 27.3137C77.3131 30.3143 73.2435 32 69 32C64.7565 32 60.6869 30.3143 57.6863 27.3137C54.6857 24.3131 53 20.2435 53 16C53 11.7565 54.6857 7.68687 57.6863 4.68629C60.6869 1.68571 64.7565 0 69 0C73.2435 0 77.3131 1.68571 80.3137 4.68629C83.3143 7.68687 85 11.7565 85 16V16ZM77.06 9.94C76.9171 9.79764 76.747 9.68555 76.5599 9.61043C76.3727 9.53531 76.1723 9.49872 75.9706 9.50282C75.769 9.50693 75.5703 9.55166 75.3863 9.63434C75.2023 9.71701 75.0369 9.83594 74.9 9.984L67.954 18.834L63.768 14.646C63.4836 14.381 63.1076 14.2368 62.719 14.2437C62.3304 14.2505 61.9596 14.4079 61.6848 14.6828C61.4099 14.9576 61.2525 15.3284 61.2457 15.717C61.2388 16.1056 61.383 16.4817 61.648 16.766L66.94 22.06C67.0826 22.2023 67.2523 22.3144 67.4392 22.3897C67.626 22.465 67.8261 22.5018 68.0275 22.4981C68.2289 22.4944 68.4275 22.4501 68.6114 22.368C68.7953 22.2858 68.9608 22.1675 69.098 22.02L77.082 12.04C77.3542 11.757 77.5046 11.3786 77.5008 10.9859C77.4971 10.5933 77.3395 10.2178 77.062 9.94H77.06Z" fill="#0171BB"/>
</g>
<g clip-path="url(#clip1_1413_10323)">
<circle cx="188" cy="16" r="16" fill="white"/>
<path d="M204 16C204 20.2435 202.314 24.3131 199.314 27.3137C196.313 30.3143 192.243 32 188 32C183.757 32 179.687 30.3143 176.686 27.3137C173.686 24.3131 172 20.2435 172 16C172 11.7565 173.686 7.68687 176.686 4.68629C179.687 1.68571 183.757 0 188 0C192.243 0 196.313 1.68571 199.314 4.68629C202.314 7.68687 204 11.7565 204 16V16ZM196.06 9.94C195.917 9.79764 195.747 9.68555 195.56 9.61043C195.373 9.53531 195.172 9.49872 194.971 9.50282C194.769 9.50693 194.57 9.55166 194.386 9.63434C194.202 9.71701 194.037 9.83594 193.9 9.984L186.954 18.834L182.768 14.646C182.484 14.381 182.108 14.2368 181.719 14.2437C181.33 14.2505 180.96 14.4079 180.685 14.6828C180.41 14.9576 180.253 15.3284 180.246 15.717C180.239 16.1056 180.383 16.4817 180.648 16.766L185.94 22.06C186.083 22.2023 186.252 22.3144 186.439 22.3897C186.626 22.465 186.826 22.5018 187.027 22.4981C187.229 22.4944 187.427 22.4501 187.611 22.368C187.795 22.2858 187.961 22.1675 188.098 22.02L196.082 12.04C196.354 11.757 196.505 11.3786 196.501 10.9859C196.497 10.5933 196.34 10.2178 196.062 9.94H196.06Z" fill="#0171BB"/>
</g>
<g clip-path="url(#clip2_1413_10323)">
<circle cx="307" cy="16" r="16" fill="white"/>
<path d="M323 16C323 20.2435 321.314 24.3131 318.314 27.3137C315.313 30.3143 311.243 32 307 32C302.757 32 298.687 30.3143 295.686 27.3137C292.686 24.3131 291 20.2435 291 16C291 11.7565 292.686 7.68687 295.686 4.68629C298.687 1.68571 302.757 0 307 0C311.243 0 315.313 1.68571 318.314 4.68629C321.314 7.68687 323 11.7565 323 16V16ZM315.06 9.94C314.917 9.79764 314.747 9.68555 314.56 9.61043C314.373 9.53531 314.172 9.49872 313.971 9.50282C313.769 9.50693 313.57 9.55166 313.386 9.63434C313.202 9.71701 313.037 9.83594 312.9 9.984L305.954 18.834L301.768 14.646C301.484 14.381 301.108 14.2368 300.719 14.2437C300.33 14.2505 299.96 14.4079 299.685 14.6828C299.41 14.9576 299.253 15.3284 299.246 15.717C299.239 16.1056 299.383 16.4817 299.648 16.766L304.94 22.06C305.083 22.2023 305.252 22.3144 305.439 22.3897C305.626 22.465 305.826 22.5018 306.027 22.4981C306.229 22.4944 306.427 22.4501 306.611 22.368C306.795 22.2858 306.961 22.1675 307.098 22.02L315.082 12.04C315.354 11.757 315.505 11.3786 315.501 10.9859C315.497 10.5933 315.34 10.2178 315.062 9.94H315.06Z" fill="#0171BB"/>
</g>
<g clip-path="url(#clip3_1413_10323)">
<circle cx="417" cy="16" r="16" fill="white"/>
<path d="M433 16C433 20.2435 431.314 24.3131 428.314 27.3137C425.313 30.3143 421.243 32 417 32C412.757 32 408.687 30.3143 405.686 27.3137C402.686 24.3131 401 20.2435 401 16C401 11.7565 402.686 7.68687 405.686 4.68629C408.687 1.68571 412.757 0 417 0C421.243 0 425.313 1.68571 428.314 4.68629C431.314 7.68687 433 11.7565 433 16V16ZM425.06 9.94C424.917 9.79764 424.747 9.68555 424.56 9.61043C424.373 9.53531 424.172 9.49872 423.971 9.50282C423.769 9.50693 423.57 9.55166 423.386 9.63434C423.202 9.71701 423.037 9.83594 422.9 9.984L415.954 18.834L411.768 14.646C411.484 14.381 411.108 14.2368 410.719 14.2437C410.33 14.2505 409.96 14.4079 409.685 14.6828C409.41 14.9576 409.253 15.3284 409.246 15.717C409.239 16.1056 409.383 16.4817 409.648 16.766L414.94 22.06C415.083 22.2023 415.252 22.3144 415.439 22.3897C415.626 22.465 415.826 22.5018 416.027 22.4981C416.229 22.4944 416.427 22.4501 416.611 22.368C416.795 22.2858 416.961 22.1675 417.098 22.02L425.082 12.04C425.354 11.757 425.505 11.3786 425.501 10.9859C425.497 10.5933 425.34 10.2178 425.062 9.94H425.06Z" fill="#0171BB"/>
</g>
<g clip-path="url(#clip4_1413_10323)">
<circle cx="536" cy="16" r="16" fill="white"/>
<path d="M552 16C552 20.2435 550.314 24.3131 547.314 27.3137C544.313 30.3143 540.243 32 536 32C531.757 32 527.687 30.3143 524.686 27.3137C521.686 24.3131 520 20.2435 520 16C520 11.7565 521.686 7.68687 524.686 4.68629C527.687 1.68571 531.757 0 536 0C540.243 0 544.313 1.68571 547.314 4.68629C550.314 7.68687 552 11.7565 552 16Z" fill="#0171BB"/>
</g>
<path d="M162.906 44.09C162.706 44.09 162.494 44.064 162.27 44.012C162.046 43.964 161.87 43.898 161.742 43.814V43.298C161.898 43.39 162.078 43.466 162.282 43.526C162.486 43.582 162.684 43.61 162.876 43.61C163.092 43.61 163.25 43.584 163.35 43.532C163.45 43.48 163.5 43.396 163.5 43.28C163.5 43.192 163.476 43.122 163.428 43.07C163.384 43.014 163.306 42.964 163.194 42.92C163.086 42.876 162.922 42.824 162.702 42.764C162.466 42.696 162.278 42.628 162.138 42.56C162.002 42.488 161.898 42.398 161.826 42.29C161.758 42.182 161.724 42.042 161.724 41.87C161.724 41.594 161.832 41.386 162.048 41.246C162.268 41.102 162.562 41.03 162.93 41.03C163.122 41.03 163.31 41.048 163.494 41.084C163.678 41.12 163.826 41.17 163.938 41.234V41.738C163.822 41.67 163.678 41.616 163.506 41.576C163.338 41.536 163.166 41.516 162.99 41.516C162.778 41.516 162.616 41.542 162.504 41.594C162.392 41.646 162.336 41.738 162.336 41.87C162.336 41.954 162.36 42.022 162.408 42.074C162.456 42.126 162.532 42.172 162.636 42.212C162.744 42.248 162.914 42.296 163.146 42.356C163.51 42.456 163.762 42.574 163.902 42.71C164.046 42.846 164.118 43.034 164.118 43.274C164.118 43.522 164.016 43.72 163.812 43.868C163.608 44.016 163.306 44.09 162.906 44.09ZM165.802 44.09C165.51 44.09 165.284 44.006 165.124 43.838C164.968 43.67 164.89 43.432 164.89 43.124V41.588H164.452V41.12H164.89V40.256H165.502V41.12H166.21V41.588H165.502V43.082C165.502 43.274 165.538 43.41 165.61 43.49C165.686 43.57 165.822 43.61 166.018 43.61C166.134 43.61 166.25 43.584 166.366 43.532V44.012C166.214 44.064 166.026 44.09 165.802 44.09Z" fill="#616161"/>
<path d="M276.906 44.09C276.706 44.09 276.494 44.064 276.27 44.012C276.046 43.964 275.87 43.898 275.742 43.814V43.298C275.898 43.39 276.078 43.466 276.282 43.526C276.486 43.582 276.684 43.61 276.876 43.61C277.092 43.61 277.25 43.584 277.35 43.532C277.45 43.48 277.5 43.396 277.5 43.28C277.5 43.192 277.476 43.122 277.428 43.07C277.384 43.014 277.306 42.964 277.194 42.92C277.086 42.876 276.922 42.824 276.702 42.764C276.466 42.696 276.278 42.628 276.138 42.56C276.002 42.488 275.898 42.398 275.826 42.29C275.758 42.182 275.724 42.042 275.724 41.87C275.724 41.594 275.832 41.386 276.048 41.246C276.268 41.102 276.562 41.03 276.93 41.03C277.122 41.03 277.31 41.048 277.494 41.084C277.678 41.12 277.826 41.17 277.938 41.234V41.738C277.822 41.67 277.678 41.616 277.506 41.576C277.338 41.536 277.166 41.516 276.99 41.516C276.778 41.516 276.616 41.542 276.504 41.594C276.392 41.646 276.336 41.738 276.336 41.87C276.336 41.954 276.36 42.022 276.408 42.074C276.456 42.126 276.532 42.172 276.636 42.212C276.744 42.248 276.914 42.296 277.146 42.356C277.51 42.456 277.762 42.574 277.902 42.71C278.046 42.846 278.118 43.034 278.118 43.274C278.118 43.522 278.016 43.72 277.812 43.868C277.608 44.016 277.306 44.09 276.906 44.09ZM279.802 44.09C279.51 44.09 279.284 44.006 279.124 43.838C278.968 43.67 278.89 43.432 278.89 43.124V41.588H278.452V41.12H278.89V40.256H279.502V41.12H280.21V41.588H279.502V43.082C279.502 43.274 279.538 43.41 279.61 43.49C279.686 43.57 279.822 43.61 280.018 43.61C280.134 43.61 280.25 43.584 280.366 43.532V44.012C280.214 44.064 280.026 44.09 279.802 44.09Z" fill="#616161"/>
<defs>
<clipPath id="clip0_1413_10323">
<rect width="32" height="32" fill="white" transform="translate(53)"/>
</clipPath>
<clipPath id="clip1_1413_10323">
<rect width="32" height="32" fill="white" transform="translate(172)"/>
</clipPath>
<clipPath id="clip2_1413_10323">
<rect width="32" height="32" fill="white" transform="translate(291)"/>
</clipPath>
<clipPath id="clip3_1413_10323">
<rect width="32" height="32" fill="white" transform="translate(401)"/>
</clipPath>
<clipPath id="clip4_1413_10323">
<rect width="32" height="32" fill="white" transform="translate(520)"/>
</clipPath>
</defs>
</svg>
