<svg width="17" height="16" viewBox="0 0 17 16" fill="none" xmlns="http://www.w3.org/2000/svg">
<path fill-rule="evenodd" clip-rule="evenodd" d="M8.37207 0C3.95607 0 0.37207 3.584 0.37207 8C0.37207 12.416 3.95607 16 8.37207 16C12.7881 16 16.3721 12.416 16.3721 8C16.3721 3.584 12.7881 0 8.37207 0ZM9.17207 13.6H7.57207V12H9.17207V13.6ZM10.8281 7.4L10.1081 8.136C9.53207 8.72 9.17207 9.2 9.17207 10.4H7.57207V10C7.57207 9.12 7.93207 8.32 8.50807 7.736L9.50007 6.728C9.79607 6.44 9.97207 6.04 9.97207 5.6C9.97207 4.72 9.25207 4 8.37207 4C7.49207 4 6.77207 4.72 6.77207 5.6H5.17207C5.17207 3.832 6.60407 2.4 8.37207 2.4C10.1401 2.4 11.5721 3.832 11.5721 5.6C11.5721 6.304 11.2841 6.944 10.8281 7.4Z" fill="#0171BB"/>
</svg>
