<svg width="21" height="21" viewBox="0 0 21 21" fill="none" xmlns="http://www.w3.org/2000/svg">
<path d="M10.0001 20.949C10.385 20.9401 10.7545 20.7954 11.043 20.5404C11.3315 20.2854 11.5206 19.9366 11.5767 19.5557H8.3623C8.42004 19.947 8.61795 20.304 8.91921 20.5603C9.22048 20.8166 9.60459 20.9547 10.0001 20.949Z" fill="#FF0000"/>
<path d="M19.0749 17.1908L18.8671 17.0075C18.2776 16.4823 17.7617 15.88 17.3332 15.2169C16.8652 14.3018 16.5848 13.3024 16.5082 12.2775V9.25857C16.5057 8.89188 16.473 8.52601 16.4104 8.16468C15.3753 7.95192 14.4455 7.38797 13.7784 6.56833C13.1113 5.74868 12.748 4.7237 12.7499 3.66691V3.28191C12.1118 2.96791 11.4263 2.76143 10.721 2.67079V1.90079C10.721 1.68442 10.635 1.47691 10.482 1.32391C10.329 1.17091 10.1215 1.08496 9.90516 1.08496C9.68879 1.08496 9.48128 1.17091 9.32828 1.32391C9.17528 1.47691 9.08933 1.68442 9.08933 1.90079V2.70135C7.51004 2.92413 6.06468 3.71075 5.02007 4.91598C3.97547 6.1212 3.40216 7.66366 3.40599 9.25857V12.2775C3.32945 13.3024 3.04897 14.3018 2.58099 15.2169C2.15986 15.8783 1.65222 16.4805 1.07155 17.0075L0.86377 17.1908V18.9141H19.0749V17.1908Z" fill="#FF0000"/>
<path d="M17.3334 6.72244C19.0209 6.72244 20.3889 5.35442 20.3889 3.66688C20.3889 1.97935 19.0209 0.611328 17.3334 0.611328C15.6459 0.611328 14.2778 1.97935 14.2778 3.66688C14.2778 5.35442 15.6459 6.72244 17.3334 6.72244Z" fill="#FF0000"/>
</svg>
