<svg width="47" height="19" viewBox="0 0 47 19" fill="none" xmlns="http://www.w3.org/2000/svg">
<path d="M3.56662 7.83L0.902617 9.756V7.632L3.92662 5.418H5.83462V18H3.56662V7.83ZM24.3337 18.27C23.7097 18.27 23.0437 18.198 22.3357 18.054C21.6277 17.91 21.0757 17.712 20.6797 17.46V15.534C21.1477 15.822 21.7057 16.056 22.3537 16.236C23.0017 16.404 23.6137 16.488 24.1897 16.488C24.7657 16.488 25.1857 16.44 25.4497 16.344C25.7137 16.236 25.8457 16.044 25.8457 15.768C25.8457 15.552 25.7737 15.378 25.6297 15.246C25.4977 15.102 25.2757 14.976 24.9637 14.868C24.6637 14.748 24.1957 14.604 23.5597 14.436C22.8397 14.232 22.2697 14.022 21.8497 13.806C21.4417 13.59 21.1297 13.32 20.9137 12.996C20.7097 12.66 20.6077 12.228 20.6077 11.7C20.6077 10.836 20.9497 10.188 21.6337 9.756C22.3177 9.312 23.2417 9.09 24.4057 9.09C25.0057 9.09 25.5997 9.15 26.1877 9.27C26.7877 9.378 27.2557 9.534 27.5917 9.738V11.592C27.2317 11.376 26.7937 11.202 26.2777 11.07C25.7617 10.938 25.2337 10.872 24.6937 10.872C24.1057 10.872 23.6617 10.932 23.3617 11.052C23.0617 11.16 22.9117 11.376 22.9117 11.7C22.9117 11.916 22.9897 12.09 23.1457 12.222C23.3137 12.342 23.5297 12.45 23.7937 12.546C24.0577 12.63 24.5377 12.762 25.2337 12.942C25.9777 13.146 26.5597 13.368 26.9797 13.608C27.3997 13.848 27.6997 14.136 27.8797 14.472C28.0597 14.808 28.1497 15.228 28.1497 15.732C28.1497 16.5 27.8197 17.118 27.1597 17.586C26.5117 18.042 25.5697 18.27 24.3337 18.27ZM34.8101 18.27C33.2021 18.27 31.9301 17.868 30.9941 17.064C30.0581 16.26 29.5901 15.138 29.5901 13.698C29.5901 12.282 30.0041 11.16 30.8321 10.332C31.6601 9.504 32.8421 9.09 34.3781 9.09C35.3861 9.09 36.2441 9.282 36.9521 9.666C37.6721 10.05 38.2121 10.578 38.5721 11.25C38.9321 11.91 39.1121 12.666 39.1121 13.518V14.562H31.7501C31.9061 15.846 33.0221 16.488 35.0981 16.488C35.6501 16.488 36.2141 16.44 36.7901 16.344C37.3661 16.248 37.8701 16.116 38.3021 15.948V17.694C37.8941 17.862 37.3661 18 36.7181 18.108C36.0821 18.216 35.4461 18.27 34.8101 18.27ZM36.9701 13.014C36.9461 12.33 36.7001 11.802 36.2321 11.43C35.7761 11.058 35.1461 10.872 34.3421 10.872C33.5501 10.872 32.9261 11.064 32.4701 11.448C32.0141 11.832 31.7741 12.354 31.7501 13.014H36.9701ZM44.3929 18.27C43.4449 18.27 42.7249 18.006 42.2329 17.478C41.7409 16.95 41.4949 16.206 41.4949 15.246V11.088H40.1989V9.36H41.4949V6.768H43.7629V9.36H45.8329V11.088H43.7629V14.958C43.7629 15.51 43.8649 15.906 44.0689 16.146C44.2729 16.374 44.6449 16.488 45.1849 16.488C45.5569 16.488 45.9229 16.404 46.2829 16.236V17.964C45.7669 18.168 45.1369 18.27 44.3929 18.27Z" fill="#D55FFF"/>
<path d="M9.60965 7.15C9.26298 7.15 8.89298 7.11 8.49965 7.03C8.10632 6.95 7.79965 6.84 7.57965 6.7V5.63C7.83965 5.79 8.14965 5.92 8.50965 6.02C8.86965 6.11333 9.20965 6.16 9.52965 6.16C9.84965 6.16 10.083 6.13333 10.2296 6.08C10.3763 6.02 10.4496 5.91333 10.4496 5.76C10.4496 5.64 10.4096 5.54333 10.3296 5.47C10.2563 5.39 10.133 5.32 9.95965 5.26C9.79298 5.19333 9.53298 5.11333 9.17965 5.02C8.77965 4.90667 8.46298 4.79 8.22965 4.67C8.00298 4.55 7.82965 4.4 7.70965 4.22C7.59632 4.03333 7.53965 3.79333 7.53965 3.5C7.53965 3.02 7.72965 2.66 8.10965 2.42C8.48965 2.17333 9.00298 2.05 9.64965 2.05C9.98298 2.05 10.313 2.08333 10.6396 2.15C10.973 2.21 11.233 2.29667 11.4196 2.41V3.44C11.2196 3.32 10.9763 3.22333 10.6896 3.15C10.403 3.07667 10.1096 3.04 9.80965 3.04C9.48298 3.04 9.23632 3.07333 9.06965 3.14C8.90298 3.2 8.81965 3.32 8.81965 3.5C8.81965 3.62 8.86298 3.71667 8.94965 3.79C9.04298 3.85667 9.16298 3.91667 9.30965 3.97C9.45632 4.01667 9.72298 4.09 10.1096 4.19C10.523 4.30333 10.8463 4.42667 11.0796 4.56C11.313 4.69333 11.4796 4.85333 11.5796 5.04C11.6796 5.22667 11.7296 5.46 11.7296 5.74C11.7296 6.16667 11.5463 6.51 11.1796 6.77C10.8196 7.02333 10.2963 7.15 9.60965 7.15ZM14.5134 7.15C13.9867 7.15 13.5867 7.00333 13.3134 6.71C13.0401 6.41667 12.9034 6.00333 12.9034 5.47V3.16H12.1834V2.2H12.9034V0.76H14.1634V2.2H15.3134V3.16H14.1634V5.31C14.1634 5.61667 14.2201 5.83667 14.3334 5.97C14.4467 6.09667 14.6534 6.16 14.9534 6.16C15.1601 6.16 15.3634 6.11333 15.5634 6.02V6.98C15.2767 7.09333 14.9267 7.15 14.5134 7.15Z" fill="#D55FFF"/>
</svg>
