<svg width="50" height="20" viewBox="0 0 50 20" fill="none" xmlns="http://www.w3.org/2000/svg">
<path d="M0.00417974 17.524L2.48818 15.238L3.67618 14.176C4.33618 13.6 4.83418 13.138 5.17018 12.79C5.51818 12.442 5.80018 12.07 6.01618 11.674C6.23218 11.266 6.34018 10.828 6.34018 10.36C6.34018 9.676 6.13618 9.154 5.72818 8.794C5.33218 8.422 4.76218 8.236 4.01818 8.236C3.44218 8.236 2.84218 8.344 2.21818 8.56C1.60618 8.764 1.04818 9.058 0.54418 9.442V7.264C1.58818 6.52 2.87218 6.148 4.39618 6.148C5.74018 6.148 6.78418 6.508 7.52818 7.228C8.27218 7.948 8.64418 8.932 8.64418 10.18C8.64418 10.768 8.53018 11.32 8.30218 11.836C8.07418 12.34 7.75018 12.832 7.33018 13.312C6.91018 13.792 6.34018 14.362 5.62018 15.022L3.37018 17.11H9.09418V19H0.00417974V17.524ZM27.2321 19.27C26.6081 19.27 25.9421 19.198 25.2341 19.054C24.5261 18.91 23.9741 18.712 23.5781 18.46V16.534C24.0461 16.822 24.6041 17.056 25.2521 17.236C25.9001 17.404 26.5121 17.488 27.0881 17.488C27.6641 17.488 28.0841 17.44 28.3481 17.344C28.6121 17.236 28.7441 17.044 28.7441 16.768C28.7441 16.552 28.6721 16.378 28.5281 16.246C28.3961 16.102 28.1741 15.976 27.8621 15.868C27.5621 15.748 27.0941 15.604 26.4581 15.436C25.7381 15.232 25.1681 15.022 24.7481 14.806C24.3401 14.59 24.0281 14.32 23.8121 13.996C23.6081 13.66 23.5061 13.228 23.5061 12.7C23.5061 11.836 23.8481 11.188 24.5321 10.756C25.2161 10.312 26.1401 10.09 27.3041 10.09C27.9041 10.09 28.4981 10.15 29.0861 10.27C29.6861 10.378 30.1541 10.534 30.4901 10.738V12.592C30.1301 12.376 29.6921 12.202 29.1761 12.07C28.6601 11.938 28.1321 11.872 27.5921 11.872C27.0041 11.872 26.5601 11.932 26.2601 12.052C25.9601 12.16 25.8101 12.376 25.8101 12.7C25.8101 12.916 25.8881 13.09 26.0441 13.222C26.2121 13.342 26.4281 13.45 26.6921 13.546C26.9561 13.63 27.4361 13.762 28.1321 13.942C28.8761 14.146 29.4581 14.368 29.8781 14.608C30.2981 14.848 30.5981 15.136 30.7781 15.472C30.9581 15.808 31.0481 16.228 31.0481 16.732C31.0481 17.5 30.7181 18.118 30.0581 18.586C29.4101 19.042 28.4681 19.27 27.2321 19.27ZM37.7086 19.27C36.1006 19.27 34.8286 18.868 33.8926 18.064C32.9566 17.26 32.4886 16.138 32.4886 14.698C32.4886 13.282 32.9026 12.16 33.7306 11.332C34.5586 10.504 35.7406 10.09 37.2766 10.09C38.2846 10.09 39.1426 10.282 39.8506 10.666C40.5706 11.05 41.1106 11.578 41.4706 12.25C41.8306 12.91 42.0106 13.666 42.0106 14.518V15.562H34.6486C34.8046 16.846 35.9206 17.488 37.9966 17.488C38.5486 17.488 39.1126 17.44 39.6886 17.344C40.2646 17.248 40.7686 17.116 41.2006 16.948V18.694C40.7926 18.862 40.2646 19 39.6166 19.108C38.9806 19.216 38.3446 19.27 37.7086 19.27ZM39.8686 14.014C39.8446 13.33 39.5986 12.802 39.1306 12.43C38.6746 12.058 38.0446 11.872 37.2406 11.872C36.4486 11.872 35.8246 12.064 35.3686 12.448C34.9126 12.832 34.6726 13.354 34.6486 14.014H39.8686ZM47.2913 19.27C46.3433 19.27 45.6233 19.006 45.1313 18.478C44.6393 17.95 44.3933 17.206 44.3933 16.246V12.088H43.0973V10.36H44.3933V7.768H46.6613V10.36H48.7313V12.088H46.6613V15.958C46.6613 16.51 46.7633 16.906 46.9673 17.146C47.1713 17.374 47.5433 17.488 48.0833 17.488C48.4553 17.488 48.8213 17.404 49.1813 17.236V18.964C48.6653 19.168 48.0353 19.27 47.2913 19.27Z" fill="#A901E3"/>
<path d="M9.72305 3.2H10.943V3.85C11.1697 3.57667 11.4397 3.37667 11.753 3.25C12.0664 3.11667 12.3964 3.05 12.743 3.05C13.3897 3.05 13.873 3.22667 14.193 3.58C14.513 3.92667 14.673 4.39 14.673 4.97V8H13.413V5.09C13.413 4.39 13.0864 4.04 12.433 4.04C12.1464 4.04 11.8764 4.11 11.623 4.25C11.3697 4.38333 11.1564 4.58667 10.983 4.86V8H9.72305V3.2ZM18.1566 8.15C17.6699 8.15 17.2332 8.04667 16.8466 7.84C16.4666 7.62667 16.1666 7.33 15.9466 6.95C15.7332 6.56333 15.6266 6.11667 15.6266 5.61C15.6266 5.11 15.7332 4.66667 15.9466 4.28C16.1666 3.89333 16.4666 3.59333 16.8466 3.38C17.2332 3.16 17.6699 3.05 18.1566 3.05C18.9432 3.05 19.5632 3.25667 20.0166 3.67V0.61H21.2766V8H20.0566V7.44C19.7832 7.69333 19.4999 7.87667 19.2066 7.99C18.9132 8.09667 18.5632 8.15 18.1566 8.15ZM18.4666 7.16C18.8266 7.16 19.1466 7.06333 19.4266 6.87C19.7066 6.67667 19.9032 6.41667 20.0166 6.09V5.12C19.9099 4.79333 19.7132 4.53333 19.4266 4.34C19.1466 4.14 18.8266 4.04 18.4666 4.04C18.0132 4.04 17.6399 4.18667 17.3466 4.48C17.0532 4.77333 16.9066 5.15 16.9066 5.61C16.9066 6.07 17.0532 6.44333 17.3466 6.73C17.6399 7.01667 18.0132 7.16 18.4666 7.16Z" fill="#A901E3"/>
</svg>
