<svg width="64" height="64" viewBox="0 0 64 64" fill="none" xmlns="http://www.w3.org/2000/svg">
<g clip-path="url(#clipstar)">
<path d="M61.9999 22.8001L43.0999 21.3001C42.2999 21.2001 41.4999 20.7001 41.1999 19.9001L33.9999 1.4001C33.2999 -0.499902 30.5999 -0.499902 29.8999 1.4001L22.6999 19.9001C22.3999 20.7001 21.6999 21.2001 20.7999 21.3001L1.99988 22.8001C0.0998849 22.9001 -0.700115 25.4001 0.699885 26.6001L15.2999 39.5001C15.8999 40.0001 16.1999 40.9001 15.9999 41.7001L11.3999 61.3001C10.8999 63.2001 13.0999 64.7001 14.6999 63.7001L30.6999 53.3001C31.3999 52.8001 32.3999 52.8001 33.0999 53.3001L49.0999 63.7001C50.7999 64.8001 52.8999 63.3001 52.3999 61.3001L47.9999 41.7001C47.7999 40.9001 48.0999 40.1001 48.6999 39.5001L63.2999 26.6001C64.6999 25.3001 63.8999 22.9001 61.9999 22.8001Z"/>
</g>
<defs>
<clipPath id="clipstar">
<rect width="64" height="64" fill="white"/>
</clipPath>
</defs>
</svg>
