<svg width="46" height="43" viewBox="0 0 46 43" fill="none" xmlns="http://www.w3.org/2000/svg">
<g clip-path="url(#clip11)">
<path d="M20.0804 18.7612L17.5732 20.6059V18.9677L20.3108 16.9024H21.7718V28.7168H20.0804V18.7612Z"/>
<path d="M26.1038 18.7612L23.5967 20.6059V18.9677L26.3343 16.9024H27.7953V28.7168H26.1038V18.7612Z"/>
<path d="M23.6348 43C21.5803 42.9879 19.5468 42.5769 17.6434 41.789C10.7672 38.9727 1.86766 28.7449 0.254595 19.2587C-0.588808 14.2785 0.715468 10.0776 3.9969 7.11109C6.66998 4.70317 10.2648 4.20562 14.0256 3.86767L15.5142 3.73624C21.0447 3.26686 26.778 2.74585 32.1518 1.20158L32.6864 1.042C35.53 0.215886 38.7515 -0.722878 41.5122 0.849548C44.8996 2.77401 46.379 6.7966 45.9228 12.8094C45.7488 14.8436 45.4315 16.8624 44.9734 18.8503C43.4824 25.6753 40.1901 31.9561 35.4517 37.0154C32.8155 39.8316 30.2438 41.5871 27.6168 42.4132C26.3259 42.8111 24.9835 43.0089 23.6348 43ZM38.0648 1.87749C36.5209 1.87749 34.8387 2.34687 33.1888 2.84911L32.6449 3.00401C27.1144 4.5999 21.289 5.11153 15.6663 5.60438L14.1823 5.73581C10.7441 6.0456 7.4673 6.49151 5.21361 8.51923C2.38384 11.068 1.32383 14.5742 2.06584 18.9395C3.55446 27.6934 12.03 37.4707 18.3255 40.0616C21.0956 41.2563 24.1828 41.4534 27.0776 40.6202C29.4142 39.888 31.7232 38.2733 34.1382 35.7152C38.6452 30.9049 41.7766 24.9322 43.1944 18.4419C43.6363 16.5407 43.9444 14.6098 44.1161 12.6639C44.5125 7.44905 43.3465 4.02726 40.6503 2.49238C39.856 2.06091 38.9646 1.84891 38.0648 1.87749Z"/>
</g>
<defs>
<clipPath id="clip11">
<rect width="46" height="43" fill="white"/>
</clipPath>
</defs>
</svg>
