<svg width="32" height="42" viewBox="0 0 32 42" fill="none" xmlns="http://www.w3.org/2000/svg">
<g clip-path="url(#clip31)">
<path d="M10.3195 28.3524C9.76193 28.2697 9.21777 28.1137 8.70117 27.8887V26.4975C9.75345 26.9699 10.8955 27.2103 12.0495 27.2024C12.8524 27.2606 13.6533 27.0642 14.3376 26.6413C14.5825 26.4559 14.7783 26.2137 14.908 25.9356C15.0376 25.6576 15.0973 25.3522 15.0816 25.046C15.1069 24.7454 15.0481 24.4437 14.9119 24.1744C14.7756 23.9051 14.5671 23.6787 14.3097 23.5204C13.5878 23.168 12.7867 23.0083 11.9844 23.0566H10.6125V21.6655H11.9519C12.6628 21.699 13.368 21.5232 13.9795 21.16C14.2272 20.9997 14.4284 20.7775 14.563 20.5155C14.6976 20.2535 14.761 19.9608 14.7468 19.6668C14.7657 19.3889 14.7178 19.1104 14.607 18.8547C14.4961 18.599 14.3257 18.3734 14.1097 18.1967C13.5645 17.8244 12.9086 17.6479 12.2495 17.6959C11.6792 17.6874 11.1107 17.7608 10.5614 17.9139C10.0112 18.0782 9.48678 18.3186 9.00345 18.628V17.2368C10.0496 16.6297 11.2439 16.3231 12.4541 16.3511C13.7562 16.3511 14.7515 16.6432 15.4304 17.2183C15.7728 17.5158 16.0428 17.8871 16.2201 18.3041C16.3973 18.7211 16.4772 19.1728 16.4535 19.625C16.465 20.2101 16.2891 20.7835 15.9513 21.262C15.5655 21.762 15.0419 22.1391 14.4445 22.3471C15.1155 22.4749 15.7281 22.8128 16.1931 23.3117C16.6117 23.8054 16.8306 24.437 16.807 25.0831C16.828 25.5569 16.741 26.0292 16.5525 26.4646C16.3641 26.8999 16.079 27.287 15.7188 27.5965C14.9933 28.2133 13.8586 28.524 12.2681 28.524C11.6148 28.5224 10.9629 28.465 10.3195 28.3524Z" />
<path d="M20.8387 18.4285L18.3135 20.251V18.628L21.0759 16.6154H22.5454V28.2874H20.8387V18.4285Z" />
<path d="M9.47786 42C6.60851 42 3.92518 41.4806 2.13009 39.8854C0.544278 38.4942 -0.1626 36.3888 0.0327204 33.6899V33.5879C0.312198 31.0223 0.81321 28.4856 1.53018 26.0059C1.95802 24.3411 2.39981 22.6207 2.68814 20.9467L2.83232 20.0841C3.5485 15.8827 4.28328 11.5376 6.18997 7.56341C7.15076 5.40626 8.6011 3.50124 10.4266 1.99865C11.3716 1.22792 12.4647 0.657981 13.6387 0.323847C14.8127 -0.0102875 16.0428 -0.10156 17.2535 0.0556256C20.267 0.542542 23.0201 2.91683 24.8012 6.58029C26.8939 10.8744 28.2379 15.8224 29.1773 19.6575C29.7354 21.939 30.2749 24.318 30.8143 26.9288C30.9213 27.4389 31.0794 27.9953 31.2468 28.5889C31.7118 30.2954 32.2699 32.2292 31.8328 33.9543C30.619 38.74 24.4245 39.8158 20.7274 40.4465C20.1647 40.5439 19.5834 40.6551 18.9463 40.7757C16.2118 41.3415 12.7239 42 9.47786 42ZM1.89757 33.7363V33.7827C1.73945 35.9483 2.2231 37.4925 3.37177 38.5035C6.51085 41.2858 14.0679 39.8576 18.6161 38.9997C19.2578 38.8744 19.8531 38.7631 20.3833 38.6704C23.6758 38.1 29.1262 37.1586 30.0423 33.5323C30.3585 32.2895 29.9075 30.685 29.4703 29.1268C29.2936 28.5054 29.1262 27.9165 29.0053 27.3415C28.4658 24.7539 27.9356 22.3935 27.3776 20.1351C26.4475 16.3882 25.15 11.5654 23.1363 7.42428C22.4202 5.95426 20.3833 2.47629 16.9651 1.92446C16.0065 1.80933 15.0343 1.88973 14.1078 2.16076C13.1812 2.4318 12.3196 2.88783 11.5752 3.50113C9.97304 4.81998 8.69953 6.49149 7.85484 8.38421C6.05975 12.094 5.34823 16.3186 4.65531 20.3902L4.50649 21.2573C4.20886 23.0102 3.75311 24.7678 3.31596 26.465C2.63784 28.8444 2.16335 31.2769 1.89757 33.7363Z" />
</g>
<defs>
<clipPath id="clip31">
<rect width="32" height="42" fill="white"/>
</clipPath>
</defs>
</svg>
