<svg width="37" height="42" viewBox="0 0 37 42" fill="none" xmlns="http://www.w3.org/2000/svg">
<g clip-path="url(#clip12)">
<path d="M15.736 17.9016L13.2939 19.6819V18.101L15.9654 16.1079H17.3866V27.5093H15.736V17.9016Z"/>
<path d="M19.168 26.4176L21.6145 24.053C21.8304 23.8356 22.1317 23.5502 22.514 23.2014C23.1257 22.6397 23.5979 22.1822 23.9217 21.8425C24.2401 21.5065 24.5096 21.1267 24.7222 20.7146C24.929 20.3212 25.0356 19.8823 25.0326 19.4372C25.051 19.1532 25.0084 18.8685 24.9074 18.6027C24.8065 18.3369 24.6498 18.0962 24.4479 17.8971C23.9672 17.5121 23.3605 17.323 22.7479 17.3671C22.216 17.3703 21.6884 17.4638 21.1873 17.6434C20.6475 17.8317 20.1417 18.107 19.6897 18.4588V16.8597C20.661 16.1776 21.8252 15.8296 23.0087 15.8677C23.9956 15.8113 24.9648 16.1481 25.7072 16.8054C26.0377 17.1383 26.2952 17.5372 26.4633 17.9764C26.6314 18.4156 26.7063 18.8855 26.6831 19.3556C26.6878 19.8711 26.5804 20.3813 26.3683 20.8505C26.1228 21.3604 25.8097 21.8343 25.4373 22.2592C25.0371 22.7122 24.4974 23.2875 23.8183 23.9488L21.6145 26.1186H27.1328V27.5047H19.168V26.4176Z"/>
<path d="M23.4453 42.0001C21.611 41.9774 19.7909 41.6719 18.0485 41.0941C10.9066 38.8293 4.79467 34.4761 1.70047 29.507C0.184847 27.0745 -0.33685 24.3521 0.274794 22.0374C0.958397 19.4373 2.97323 17.4714 4.57879 15.895L16.272 4.46191C18.008 2.75872 20.3916 0.430413 23.4678 0.0544423C30.124 -0.756386 34.329 6.10168 35.8761 12.2169C36.2339 13.6512 36.5028 15.1066 36.6811 16.5745C37.5042 23.2469 36.7306 30.1049 34.6124 34.9201C33.936 36.4292 32.9573 37.7812 31.7376 38.8912C30.5178 40.0012 29.0835 40.8453 27.5245 41.3704C26.2067 41.7978 24.8297 42.0103 23.4453 42.0001ZM24.4752 1.82558C24.1926 1.82607 23.9102 1.84422 23.6297 1.87994C21.381 2.15625 19.5056 3.80962 17.4863 5.7846L5.79309 17.2177C4.26398 18.7126 2.52799 20.3886 1.97031 22.5266C1.48909 24.3385 1.92983 26.5581 3.18011 28.5648C6.57114 34.0005 13.3442 37.724 18.5567 39.3909C20.6929 40.0749 23.8816 40.6774 26.9443 39.6627C28.2721 39.2209 29.4943 38.5059 30.5333 37.5631C31.5723 36.6204 32.4054 35.4704 32.9798 34.1862C34.9407 29.729 35.6782 23.0657 34.9092 16.7965C34.7422 15.4044 34.4868 14.0245 34.1446 12.6653C32.8314 7.53762 29.5483 1.82558 24.4752 1.82558Z"/>
</g>
<defs>
<clipPath id="clip12">
<rect width="37" height="42" fill="white"/>
</clipPath>
</defs>
</svg>
