<svg width="34" height="46" viewBox="0 0 34 46" fill="none" xmlns="http://www.w3.org/2000/svg">
<g clip-path="url(#clip42)">
<path d="M14.4989 26.502H8.54785V25.381L14.4795 17.4381H16.2979V25.1031H18.1892V26.4829H16.2979V29.4483H14.4989V26.502ZM14.708 25.1223V19.5172L10.5656 25.1031L14.708 25.1223Z" />
<path d="M19.4141 28.3129L22.059 25.8122C22.2924 25.5822 22.6181 25.2804 23.0314 24.9163C23.6991 24.3191 24.208 23.84 24.5581 23.4791C24.8953 23.1256 25.1831 22.7293 25.4138 22.3006C25.6352 21.8823 25.7488 21.4167 25.7444 20.9449C25.7653 20.6448 25.7201 20.3439 25.6118 20.0628C25.5036 19.7816 25.3348 19.5268 25.1172 19.316C24.5968 18.9102 23.9414 18.7103 23.2794 18.7555C22.7028 18.7593 22.1309 18.8581 21.5874 19.0477C21.0048 19.249 20.4583 19.54 19.9683 19.9101V18.2046C21.019 17.4843 22.2771 17.1165 23.5565 17.1554C24.6315 17.0899 25.6891 17.4464 26.498 18.1471C26.8549 18.4992 27.1328 18.9212 27.3137 19.3858C27.4946 19.8504 27.5745 20.3473 27.5482 20.8442C27.5507 21.3927 27.4277 21.9347 27.1884 22.4299C26.9267 22.9728 26.5878 23.4761 26.182 23.9246C25.7541 24.4133 25.1707 25.0073 24.4317 25.7068L22.0541 28.0015H28.0101V29.4674H19.4141V28.3129Z" />
<path d="M25.9376 46.0001C24.5554 46.0022 23.1912 45.6907 21.9508 45.0898L20.8471 44.5389C17.9299 43.1017 14.9398 41.5975 12.0955 39.8776C8.89685 37.901 5.81278 35.7498 2.85769 33.4342C-0.26372 31.0388 -0.769369 28.8639 0.912885 25.2038C2.48676 21.8148 3.72895 18.2857 4.62259 14.6643C5.2988 11.7876 6.59477 9.08772 8.42267 6.74772C10.2506 4.40772 12.5677 2.48229 15.2169 1.10192C18.6203 -0.732911 22.0237 -0.273008 25.3493 2.46246C30.435 6.67346 31.8984 12.5229 32.6423 17.6441C32.816 19.0361 32.8891 20.4385 32.8611 21.8407C32.8341 23.1888 32.9072 24.5369 33.0799 25.8745L33.3765 27.7045C33.8099 30.043 34.0086 32.4178 33.9697 34.7947C33.8724 37.075 33.3327 41.3148 30.7705 44.1269C29.589 45.4348 27.7755 46.0001 25.9376 46.0001ZM19.3204 1.92591C18.2035 1.94614 17.1105 2.24798 16.1455 2.80261C13.743 4.0575 11.6426 5.80686 9.98658 7.93201C8.3306 10.0572 7.15788 12.5084 6.54795 15.1194C5.62336 18.8613 4.34221 22.5089 2.72155 26.0134C1.40881 28.8591 1.6908 30.0807 4.09263 31.9443C6.98737 34.2166 10.0098 36.3262 13.1457 38.2631C15.9122 39.9255 18.8585 41.3914 21.7466 42.8286L22.8502 43.3796C24.8437 44.3808 27.9359 44.4 29.3556 42.8478C31.5095 40.4812 31.9714 36.7397 32.054 34.7037C32.0874 32.4551 31.8968 30.2087 31.4852 27.9967L31.1886 26.1667C30.9999 24.7373 30.9186 23.2962 30.9455 21.8551C30.9736 20.5426 30.907 19.2299 30.7461 17.9268C30.0071 12.8966 28.6944 7.72263 24.1192 3.938C22.4662 2.58703 20.9006 1.91154 19.3156 1.91154L19.3204 1.92591Z" />
</g>
<defs>
<clipPath id="clip42">
<rect width="34" height="46" fill="white"/>
</clipPath>
</defs>
</svg>
