<svg width="36" height="43" viewBox="0 0 36 43" fill="none" xmlns="http://www.w3.org/2000/svg">
<g clip-path="url(#clip43)">
<path d="M14.8729 24.5741H9.05664V23.4742L14.8539 15.6573H16.6358V23.2016H18.4843V24.5553H16.6358V27.4649H14.8729V24.5741ZM15.0772 23.2203V17.7208L11.0287 23.2016L15.0772 23.2203Z" />
<path d="M21.3315 27.5777C20.7633 27.4939 20.2088 27.3358 19.6826 27.1076V25.6975C20.7582 26.1748 21.9252 26.4169 23.1039 26.4073C23.923 26.4678 24.7403 26.2686 25.4371 25.8385C25.6885 25.6527 25.8896 25.4083 26.0222 25.1269C26.1549 24.8456 26.2151 24.5362 26.1974 24.2262C26.2235 23.9214 26.1641 23.6153 26.0258 23.3416C25.8875 23.068 25.6756 22.8373 25.4133 22.6751C24.675 22.32 23.857 22.1581 23.0374 22.205H21.6119V20.7949H22.9804C23.7074 20.828 24.4281 20.6482 25.0522 20.2778C25.3065 20.1163 25.5133 19.8914 25.6518 19.6257C25.7903 19.36 25.8555 19.0629 25.841 18.7643C25.8588 18.4827 25.8091 18.201 25.696 17.9421C25.5828 17.6832 25.4095 17.4543 25.19 17.2742C24.6329 16.8968 23.9627 16.7178 23.2893 16.7666C22.7051 16.7599 22.1229 16.8343 21.5596 16.9875C20.9976 17.1568 20.462 17.402 19.9677 17.7161V16.3059C21.0377 15.6933 22.2577 15.3842 23.4936 15.4128C24.8289 15.4128 25.841 15.7043 26.5395 16.2918C26.8876 16.5936 27.162 16.9694 27.3423 17.3911C27.5225 17.8128 27.6038 18.2694 27.5802 18.7267C27.5926 19.3198 27.4128 19.9012 27.067 20.3859C26.6761 20.8962 26.14 21.2793 25.5274 21.4858C26.2155 21.615 26.8435 21.9594 27.3188 22.4683C27.7425 22.9688 27.9643 23.6067 27.9413 24.2591C27.9628 24.7393 27.874 25.2181 27.6814 25.6594C27.4888 26.1007 27.1975 26.493 26.8294 26.8068C26.0881 27.4335 24.9128 27.7469 23.3035 27.7469C22.6425 27.7457 21.9828 27.6891 21.3315 27.5777Z" />
<path d="M21.0842 43.0047C18.005 43.0047 15.0399 41.8907 12.8208 40.7532C7.8028 38.182 3.88253 34.3465 1.77746 29.9421C-0.622223 24.9314 -0.59846 19.0605 1.863 14.6185C3.32657 11.9674 5.66447 9.62191 9.03353 7.45028C10.8582 6.27046 12.7922 5.25046 14.6692 4.26336C15.6529 3.74631 16.6745 3.21045 17.6581 2.66049L18.1713 2.36907C19.996 1.33966 21.8873 0.27265 24.0826 0.0188242C25.4766 -0.0916856 26.8782 0.0981948 28.1908 0.575357C29.5034 1.05252 30.6957 1.80561 31.6856 2.78271C34.0526 5.10193 35.5108 8.17672 35.8007 11.4598V11.6807C36.086 14.9989 36.0654 18.336 35.7389 21.6504C35.3979 25.4287 34.5658 29.1477 33.2632 32.7154C31.4385 37.5945 28.6492 40.8942 25.1851 42.248C23.8791 42.7554 22.4873 43.0122 21.0842 43.0047ZM24.957 1.88023C24.7331 1.88104 24.5095 1.89359 24.287 1.91782C22.486 2.11054 20.7706 3.07884 19.1122 4.01894L18.5942 4.31037C17.5869 4.86972 16.5557 5.41498 15.5578 5.93673C13.7236 6.90503 11.8229 7.90623 10.0742 9.03905C6.98074 11.0368 4.84715 13.1614 3.53089 15.5351C1.36405 19.4553 1.34979 24.6729 3.49763 29.1665C5.39837 33.1854 9.04304 36.7155 13.6951 39.0939C16.5462 40.5605 20.7468 41.9941 24.5055 40.5041C28.2643 39.014 30.3503 35.1079 31.4908 32.0432C32.7384 28.6285 33.537 25.0693 33.8667 21.453C34.1748 18.2615 34.1907 15.049 33.9142 11.8546V11.6337C33.6691 8.80149 32.4144 6.1476 30.3741 4.14585C28.9289 2.73136 26.9896 1.92026 24.957 1.88023Z" />
</g>
<defs>
<clipPath id="clip43">
<rect width="36" height="43" fill="white"/>
</clipPath>
</defs>
</svg>
