<svg width="41" height="46" viewBox="0 0 41 46" fill="none" xmlns="http://www.w3.org/2000/svg">
<g clip-path="url(#clip23)">
<path d="M11.9189 27.9953L14.4498 25.556C14.6684 25.3317 14.9848 25.0373 15.3802 24.6775C16.016 24.0981 16.5014 23.6308 16.8363 23.2757C17.1617 22.9302 17.4387 22.5419 17.6598 22.1215C17.8701 21.7145 17.9786 21.2622 17.9761 20.8037C17.9965 20.5106 17.9529 20.2166 17.8485 19.9422C17.744 19.6678 17.5812 19.4196 17.3714 19.2149C16.8741 18.8178 16.2465 18.6227 15.6128 18.6682C15.0627 18.6723 14.5171 18.7687 13.9985 18.9532C13.4401 19.1474 12.9169 19.4315 12.4493 19.7944V18.1448C13.4537 17.4393 14.6575 17.0772 15.8826 17.1121C16.9033 17.055 17.9055 17.4023 18.674 18.0794C19.0156 18.4237 19.2815 18.8362 19.4546 19.2901C19.6277 19.7441 19.7041 20.2295 19.6788 20.7149C19.6784 21.2496 19.5609 21.7777 19.3346 22.2616C19.0841 22.7896 18.7598 23.279 18.3716 23.7149C17.9575 24.1822 17.3993 24.7757 16.6968 25.4579L14.4218 27.6962H20.1115V29.1261H11.9189V27.9953Z" />
<path d="M23.2654 29.2149C22.7078 29.1309 22.1635 28.9738 21.6465 28.7476V27.3458C22.7005 27.8171 23.8423 28.0576 24.9961 28.0514C25.7995 28.1123 26.6013 27.9142 27.285 27.4859C27.5318 27.3008 27.729 27.057 27.8589 26.7765C27.9889 26.4959 28.0474 26.1874 28.0293 25.8785C28.054 25.5762 27.9955 25.2728 27.8601 25.0017C27.7247 24.7305 27.5177 24.502 27.2617 24.3411C26.5389 23.9881 25.738 23.8272 24.9356 23.8738H23.5399V22.4953H24.8798C25.5915 22.5277 26.2969 22.3489 26.9081 21.9813C27.1559 21.8198 27.3572 21.5959 27.4919 21.3318C27.6266 21.0678 27.69 20.7729 27.6757 20.4766C27.6969 20.1952 27.651 19.9127 27.5417 19.6526C27.4325 19.3926 27.2632 19.1624 27.0477 18.9813C26.5016 18.6075 25.846 18.4296 25.1868 18.4766C24.0316 18.4456 22.8948 18.7718 21.9303 19.4112V18.0093C22.9771 17.3981 24.1717 17.0893 25.3822 17.1168C26.6895 17.1168 27.6804 17.4112 28.3643 17.9953C28.7056 18.2949 28.9746 18.6684 29.1511 19.0878C29.3276 19.5071 29.407 19.9612 29.3831 20.4159C29.3946 21.0054 29.2186 21.5832 28.8807 22.0654C28.498 22.5727 27.9731 22.9535 27.3734 23.1588C28.0506 23.2797 28.6708 23.6173 29.1412 24.1215C29.5601 24.6171 29.7791 25.2522 29.7553 25.9018C29.7764 26.3792 29.6894 26.8552 29.5008 27.2939C29.3122 27.7326 29.027 28.1226 28.6667 28.4345C27.9409 29.0576 26.7903 29.3691 25.2147 29.3691C24.5619 29.3713 23.9099 29.3197 23.2654 29.2149Z" />
<path d="M17.2781 46.0001H16.9198C10.1741 45.9674 3.52143 41.2431 1.10228 34.7851C-0.553909 30.3552 -0.363168 25.7197 1.68381 20.6169C3.55797 15.9374 5.74324 11.3897 8.22483 7.00473C9.13111 5.33145 10.3834 3.87235 11.8976 2.72543C13.4117 1.57852 15.1527 0.770344 17.0036 0.3552C21.372 -0.621435 26.3592 0.565481 30.6811 3.62623C35.6822 7.15894 38.7108 12.215 40.2088 19.5141C41.33 25.0001 41.8045 30.7057 37.678 35.2244C33.0956 40.2524 26.6383 46.0001 17.2781 46.0001ZM20.0973 1.86922C19.1917 1.86859 18.2886 1.96572 17.4037 2.15894C15.8065 2.52144 14.3049 3.22262 12.9995 4.21551C11.694 5.2084 10.615 6.47006 9.8345 7.91595C7.39861 12.2333 5.25529 16.7108 3.41911 21.3178C1.55822 25.9674 1.36746 30.1589 2.85152 34.1309C4.97758 39.8178 11.0348 44.1262 16.9477 44.1543H17.2781C25.8474 44.1543 31.6999 39.0141 36.2963 33.9814C39.6599 30.2945 39.5529 25.6917 38.3759 19.9066C36.9802 13.0795 34.1889 8.39258 29.6018 5.14959C26.8434 3.10991 23.5305 1.96538 20.1066 1.86922H20.0973Z" />
</g>
<defs>
<clipPath id="clip23">
<rect width="41" height="46" fill="white"/>
</clipPath>
</defs>
</svg>
