<svg width="55" height="57" viewBox="0 0 55 57" fill="none" xmlns="http://www.w3.org/2000/svg">
<g clip-path="url(#clip28)">
<path d="M20.0439 33.2535L22.518 30.8847C22.7364 30.6669 23.0411 30.381 23.4277 30.0316C24.0462 29.4689 24.5238 29.0106 24.8512 28.6702C25.1693 28.3358 25.4387 27.9585 25.6517 27.5494C25.8608 27.1553 25.9686 26.7156 25.9655 26.2697C25.9842 25.9852 25.941 25.7001 25.8389 25.4338C25.7369 25.1675 25.5784 24.9263 25.3743 24.7268C24.8881 24.3412 24.2746 24.1517 23.6551 24.1959C23.1172 24.1992 22.5837 24.2928 22.0769 24.4727C21.531 24.6613 21.0195 24.9372 20.5623 25.2895V23.6877C21.5441 23.0026 22.7214 22.6525 23.9188 22.6893C24.9165 22.6348 25.896 22.972 26.6477 23.6287C26.9812 23.9634 27.2409 24.364 27.4101 24.8047C27.5793 25.2455 27.6542 25.7167 27.6301 26.188C27.6319 26.707 27.5185 27.22 27.2981 27.6901C27.0499 28.2009 26.7331 28.6757 26.3566 29.1013C25.9533 29.5672 25.4076 30.1314 24.7193 30.794L22.4907 32.9676H28.0576V34.3562H20.0166L20.0439 33.2535Z" />
<path d="M30.6862 33.7162C30.0786 33.1875 29.6865 32.4548 29.5842 31.6569C29.482 30.859 29.6766 30.0514 30.1314 29.3871C30.5128 28.8925 31.0491 28.5395 31.655 28.3843C31.1417 28.1773 30.7037 27.8194 30.3991 27.3583C30.0945 26.8971 29.9377 26.3544 29.9494 25.8022C29.9332 25.37 30.0181 24.94 30.1973 24.5462C30.3765 24.1524 30.6451 23.8056 30.9819 23.5333C31.7962 22.9833 32.7569 22.6894 33.7402 22.6894C34.7236 22.6894 35.6844 22.9833 36.4987 23.5333C36.8363 23.8049 37.1054 24.1515 37.2847 24.5455C37.464 24.9395 37.5484 25.3699 37.5311 25.8022C37.5432 26.3539 37.387 26.8962 37.0832 27.3573C36.7795 27.8184 36.3425 28.1765 35.8301 28.3843C36.4368 28.5405 36.9742 28.8932 37.3583 29.3871C37.7573 29.9152 37.9628 30.5639 37.9404 31.225C37.9663 31.7 37.8774 32.1743 37.6811 32.6079C37.4848 33.0415 37.1869 33.4216 36.8125 33.7162C35.8937 34.2884 34.8324 34.5918 33.7493 34.5918C32.6663 34.5918 31.605 34.2884 30.6862 33.7162ZM35.5982 32.7769C35.8255 32.5652 36.0035 32.3064 36.1198 32.0187C36.2361 31.731 36.2878 31.4213 36.2713 31.1115C36.2848 30.8093 36.2292 30.508 36.1086 30.2305C35.988 29.9529 35.8057 29.7064 35.5754 29.5097C35.0596 29.1021 34.4135 28.8942 33.7562 28.9243C33.0995 28.899 32.4551 29.1064 31.9369 29.5097C31.7053 29.7055 31.5218 29.9518 31.4003 30.2294C31.2789 30.5071 31.2229 30.8089 31.2365 31.1115C31.2196 31.4218 31.2716 31.7319 31.3887 32.0198C31.5059 32.3077 31.6853 32.5662 31.9142 32.7769C32.4365 33.2036 33.1004 33.419 33.7744 33.3804C34.4366 33.4138 35.0873 33.1985 35.5982 32.7769ZM35.3207 27.3315C35.52 27.1585 35.6777 26.9431 35.7824 26.7012C35.8871 26.4593 35.936 26.1971 35.9256 25.9338C35.9356 25.6661 35.8876 25.3994 35.7848 25.1519C35.6819 24.9044 35.5267 24.682 35.3298 24.4999C34.8809 24.1326 34.3184 23.932 33.738 23.932C33.1575 23.932 32.595 24.1326 32.1461 24.4999C31.9499 24.6825 31.7952 24.905 31.6924 25.1524C31.5897 25.3997 31.5412 25.6662 31.5504 25.9338C31.5399 26.1971 31.5889 26.4593 31.6936 26.7012C31.7983 26.9431 31.956 27.1585 32.1552 27.3315C32.6065 27.6756 33.1587 27.862 33.7266 27.862C34.2946 27.862 34.8467 27.6756 35.298 27.3315H35.3207Z" />
<path d="M22.126 57C18.1646 57 14.849 55.3936 12.8297 52.4304C11.6972 50.765 10.5102 49.0905 9.35495 47.4705C7.42656 44.7478 5.43451 41.948 3.62892 39.08C1.25937 35.3272 -0.00954616 31.4882 -0.00954616 27.985C-0.0175045 26.5552 0.191021 25.1324 0.608987 23.7648C2.20082 18.6279 6.35777 14.5847 10.2145 11.3038C14.2078 7.91404 19.6109 3.73467 26.0465 1.52927C32.6594 -0.739653 39.4588 -0.46738 44.6936 2.26895C47.5759 3.71722 49.9348 6.02485 51.4429 8.87153C52.871 11.7031 53.1939 14.9432 53.4759 17.7975L54.7039 30.1042C54.9541 32.6499 55.2452 35.5496 54.522 38.2723C53.5624 41.9026 50.7425 45.3423 46.5856 47.8925C43.9386 49.5171 41.0233 50.6879 38.208 51.8178C37.262 52.199 36.3205 52.5756 35.3836 52.9704L33.5644 53.7691C30.6127 55.0624 27.5564 56.401 24.2636 56.8548C23.5552 56.9517 22.841 57.0002 22.126 57ZM34.9379 1.81516C32.1138 1.83284 29.3121 2.3174 26.6468 3.24913C20.5023 5.35469 15.2766 9.39792 11.4061 12.6879C7.76767 15.7963 3.81083 19.6081 2.35999 24.3002C1.99212 25.4846 1.80658 26.7178 1.80969 27.9577C1.80969 31.9556 3.62892 35.6721 5.15707 38.0908C6.93537 40.9179 8.91833 43.7041 10.8331 46.3996C11.9883 48.0242 13.1845 49.7077 14.326 51.3912C16.2953 54.2819 19.8201 55.6114 23.9998 55.0215C27.047 54.604 29.9806 53.3198 32.8186 52.0764C33.4416 51.8042 34.0602 51.5319 34.6833 51.2687C35.6293 50.8694 36.5844 50.4837 37.5395 50.1025C40.2683 48.9998 43.1245 47.8608 45.6441 46.3134C49.4009 44.0082 51.9342 40.9769 52.771 37.7822C53.4077 35.359 53.153 32.7633 52.9029 30.2539L51.6749 17.9472C51.3929 15.1156 51.1018 12.1842 49.8284 9.65204C48.4888 7.14553 46.4022 5.11591 43.8567 3.84358C41.0914 2.45872 38.0316 1.76127 34.9379 1.81063V1.81516Z" />
</g>
<defs>
<clipPath id="clip28">
<rect width="55" height="57" fill="white"/>
</clipPath>
</defs>
</svg>
