<svg width="48" height="41" viewBox="0 0 48 41" fill="none" xmlns="http://www.w3.org/2000/svg">
<g clip-path="url(#clip14)">
<path d="M18.4051 17.6841L15.8174 19.5393V17.8918L18.6482 15.8146H20.1828V27.6968H18.429L18.4051 17.6841Z"/>
<path d="M27.5363 24.7889H21.7031V23.6842L27.5173 15.8288H29.2996V23.4293H31.1439V24.7889H29.2901V27.711H27.5268L27.5363 24.7889ZM27.7412 23.4293V17.906L23.6761 23.4293H27.7412Z"/>
<path d="M27.1506 41.0003C26.4643 41.0003 25.7971 41.0002 25.1633 40.9436C18.4277 40.4943 11.9102 38.3952 6.19582 34.8349C1.75897 32.0024 -0.309332 27.6688 0.0385631 22.0085C0.219659 19.1005 1.03458 15.796 2.53101 11.9108C5.12354 5.17894 13.7351 -0.363254 20.9599 0.0191299C23.3489 0.220953 25.6458 1.02544 27.6319 2.35592C32.3976 5.45275 37.1633 8.82338 41.7669 12.3687C43.5314 13.6981 44.9946 15.3796 46.0618 17.3044C47.129 19.2292 47.7764 21.3545 47.9623 23.5428C48.1111 25.5938 47.8175 27.6526 47.101 29.5825C46.3845 31.5124 45.2615 33.269 43.8066 34.7358C38.917 39.7728 32.369 41.0003 27.1506 41.0003ZM1.94484 22.1171C1.63507 27.1164 3.37453 30.7514 7.23474 33.2393C16.0179 38.9042 33.2792 42.8508 42.4293 33.4187C43.6988 32.1424 44.6793 30.613 45.3055 28.9321C45.9317 27.2512 46.1891 25.4574 46.0608 23.6702C45.8939 21.7458 45.3212 19.8775 44.3796 18.186C43.438 16.4946 42.1485 15.0178 40.5946 13.851C36.0195 10.334 31.3015 6.99645 26.5834 3.93738C24.8778 2.799 22.9119 2.10119 20.8646 1.90744C14.4786 1.55811 6.60568 6.65182 4.32291 12.5906C2.8932 16.2917 2.12116 19.4121 1.94007 22.1313L1.94484 22.1171Z"/>
</g>
<defs>
<clipPath id="clip14">
<rect width="48" height="41" fill="white"/>
</clipPath>
</defs>
</svg>
