<svg width="58" height="58" viewBox="0 0 58 58" fill="none" xmlns="http://www.w3.org/2000/svg">
<g clip-path="url(#clip38)">
<path d="M22.1441 35.9236C21.5924 35.8413 21.0541 35.6862 20.543 35.4624V34.0786C21.584 34.5484 22.714 34.7876 23.8557 34.7797C24.6501 34.8376 25.4424 34.6422 26.1194 34.2215C26.3617 34.0371 26.5554 33.7962 26.6837 33.5197C26.812 33.2431 26.871 32.9394 26.8555 32.6348C26.8805 32.3358 26.8224 32.0357 26.6876 31.7678C26.5528 31.4999 26.3465 31.2747 26.0918 31.1172C25.3776 30.7667 24.585 30.6078 23.7913 30.6559H22.434V29.2952H23.7591C24.4629 29.3272 25.1606 29.1507 25.7651 28.7878C26.0101 28.6284 26.2092 28.4073 26.3424 28.1467C26.4756 27.8861 26.5383 27.595 26.5242 27.3025C26.543 27.0261 26.4956 26.7491 26.3859 26.4948C26.2763 26.2404 26.1076 26.016 25.8939 25.8403C25.3545 25.47 24.7056 25.2943 24.0535 25.3421C23.4893 25.3336 22.9268 25.4066 22.3834 25.5589C21.8407 25.7123 21.322 25.9405 20.842 26.237V24.8532C21.8771 24.2492 23.0587 23.9443 24.256 23.9722C25.5443 23.9722 26.5288 24.2628 27.2006 24.8347C27.5393 25.1307 27.8065 25.5 27.9819 25.9148C28.1572 26.3295 28.2362 26.7789 28.2128 27.2287C28.2242 27.8107 28.0501 28.381 27.7159 28.857C27.3342 29.3544 26.8161 29.7295 26.2252 29.9364C26.889 30.0634 27.4951 30.3995 27.9551 30.8958C28.3693 31.3869 28.5859 32.0152 28.5625 32.6578C28.5834 33.1291 28.4973 33.5989 28.3108 34.0319C28.1243 34.465 27.8422 34.85 27.4858 35.1579C26.7681 35.7714 25.6455 36.0805 24.0719 36.0805C23.4261 36.0835 22.7811 36.031 22.1441 35.9236Z" />
<path d="M31.1947 35.1902C30.8151 34.8915 30.5131 34.5052 30.3144 34.0643C30.1157 33.6234 30.0263 33.1409 30.0536 32.6578C30.0361 31.9952 30.2402 31.3457 30.6334 30.8128C31.0176 30.3103 31.5586 29.9514 32.1701 29.7934C31.6587 29.5856 31.2212 29.2289 30.914 28.7693C30.6017 28.2952 30.4412 27.7368 30.4539 27.1688C30.4375 26.7294 30.5234 26.2923 30.7046 25.892C30.8859 25.4917 31.1577 25.1392 31.4984 24.8624C32.3222 24.3034 33.2941 24.0046 34.2888 24.0046C35.2836 24.0046 36.2556 24.3034 37.0794 24.8624C37.4201 25.1392 37.6918 25.4917 37.8731 25.892C38.0544 26.2923 38.1402 26.7294 38.1238 27.1688C38.1365 27.7368 37.976 28.2952 37.6637 28.7693C37.3553 29.2296 36.916 29.5863 36.403 29.7934C37.0185 29.9509 37.5641 30.3096 37.9535 30.8128C38.3516 31.3437 38.5591 31.9939 38.5424 32.6578C38.5689 33.1412 38.4785 33.6239 38.2791 34.0647C38.0796 34.5056 37.777 34.8917 37.3968 35.1902C36.4682 35.7719 35.3953 36.0804 34.3003 36.0804C33.2054 36.0804 32.1325 35.7719 31.2039 35.1902H31.1947ZM36.1638 34.2354C36.393 34.0196 36.5726 33.7565 36.6901 33.4641C36.8077 33.1718 36.8605 32.8573 36.8447 32.5425C36.8587 32.2353 36.8026 31.9289 36.6806 31.6468C36.5586 31.3646 36.374 31.1141 36.1407 30.9143C35.6195 30.4983 34.9659 30.2853 34.3003 30.3146C33.6354 30.2894 32.9831 30.502 32.46 30.9143C32.2245 31.1127 32.0377 31.3627 31.9141 31.6451C31.7904 31.9274 31.7332 32.2345 31.7468 32.5425C31.7306 32.8582 31.7841 33.1736 31.9034 33.4662C32.0227 33.7588 32.2048 34.0215 32.4369 34.2354C32.9813 34.6339 33.6379 34.8486 34.3119 34.8486C34.9859 34.8486 35.6424 34.6339 36.1867 34.2354H36.1638ZM35.8831 28.7002C36.0841 28.5239 36.2434 28.3049 36.3492 28.0591C36.4551 27.8134 36.5049 27.547 36.495 27.2795C36.5037 27.0068 36.4545 26.7354 36.3506 26.4833C36.2467 26.2312 36.0904 26.0042 35.8923 25.8172C35.4367 25.4472 34.8682 25.2453 34.2819 25.2453C33.6956 25.2453 33.1271 25.4472 32.6716 25.8172C32.4719 26.0032 32.3143 26.23 32.2096 26.4822C32.1048 26.7345 32.0553 27.0064 32.0643 27.2795C32.0553 27.5473 32.106 27.8138 32.2126 28.0596C32.3193 28.3053 32.4792 28.5242 32.6808 28.7002C33.1373 29.0499 33.6959 29.2394 34.2705 29.2394C34.845 29.2394 35.4036 29.0499 35.8601 28.7002H35.8831Z" />
<path d="M30.3935 58.0048C29.777 58.0048 29.1512 58.0048 28.5209 57.9495C24.5548 57.6816 20.6551 56.7929 16.9632 55.3156C14.2066 54.283 11.541 53.0208 8.99431 51.5424C6.62493 50.2134 4.53197 48.4408 2.82898 46.3209C-1.52355 40.615 0.0683787 33.8666 1.49008 27.9301C1.67872 27.1459 1.86279 26.3617 2.03763 25.5914C2.3551 24.1569 2.60816 22.6439 2.85201 21.1771C3.50535 17.3071 4.17708 13.3032 6.1187 9.74222C8.87929 4.70977 14.6075 0.858185 20.4139 0.152443C20.8188 0.101704 21.2237 0.0694047 21.6194 0.0555666C30.2692 -0.267322 36.6002 0.908923 42.1398 3.88411C51.2498 8.77357 56.5087 16.6013 57.7832 27.1413C59.2187 39.2127 54.1024 48.5811 42.5999 54.9973C38.8568 57.0357 34.6526 58.0716 30.3935 58.0048ZM28.6267 56.1044C33.5406 56.395 37.9345 55.4817 41.6981 53.3829C52.6346 47.2849 57.2908 38.7699 55.9336 27.3581C54.7557 17.4731 49.8281 10.0928 41.2702 5.50777C36.0343 2.69864 30.0024 1.58238 21.6884 1.89604C21.3433 1.89604 20.9891 1.93756 20.6348 1.98368C15.3897 2.62023 10.209 6.09359 7.75207 10.6279C5.95769 13.9167 5.31353 17.7637 4.6878 21.4861C4.43475 22.9714 4.17706 24.5075 3.85039 25.9881C3.67555 26.7723 3.48693 27.5657 3.29829 28.359C1.918 34.1757 0.48707 40.1906 4.31049 45.2C5.87141 47.134 7.78784 48.75 9.9559 49.9603C12.4141 51.3859 14.9874 52.6018 17.6488 53.5951C21.1609 55.0027 24.8713 55.8494 28.6451 56.1044H28.6267Z" />
</g>
<defs>
<clipPath id="clip38">
<rect width="58" height="58" fill="white"/>
</clipPath>
</defs>
</svg>
