<svg width="42" height="41" viewBox="0 0 42 41" fill="none" xmlns="http://www.w3.org/2000/svg">
<g clip-path="url(#clip44)">
<path d="M17.0743 23.0552H11.2139V21.9206L17.0552 13.8816H18.8507V21.6394H20.7132V23.0358H18.8507V26.0371H17.0743V23.0552ZM17.2946 21.6394V15.9665L13.2105 21.6394H17.2946Z" />
<path d="M27.4347 23.0552H21.5742V21.9206L27.4155 13.8573H29.2062V21.6394H31.0687V23.0358H29.2062V26.0371H27.4347V23.0552ZM27.6406 21.6588V15.9859L23.5564 21.6588H27.6406Z" />
<path d="M19.8609 40.999C17.1885 41.0052 14.5417 40.4711 12.0757 39.4281C9.503 38.3215 7.19125 36.675 5.29301 34.5973C3.39477 32.5195 1.9532 30.0578 1.0634 27.3744C-1.64658 19.5293 0.943696 11.2624 7.99636 5.26466C9.9949 3.55114 12.2599 2.18473 14.6995 1.22091C17.1798 0.280271 19.8258 -0.129178 22.4704 0.0184445C25.7021 0.210645 28.8994 0.795043 31.9936 1.7591C34.7634 2.57165 37.1863 4.29669 38.8787 6.66106C41.8329 10.7969 43.4943 17.3038 40.1523 21.8033C39.5384 22.7665 39.2171 23.891 39.2282 25.0374C39.0511 33.2364 33.2864 36.8923 28.9724 38.9335C26.1197 40.2848 23.0103 40.9897 19.8609 40.999ZM21.5176 1.9385C19.422 1.91332 17.3402 2.28497 15.3794 3.03429C13.1329 3.91603 11.0484 5.1731 9.21251 6.75318C2.79664 12.2079 0.421813 19.6796 2.8541 26.7344C3.65992 29.1617 4.96452 31.3884 6.68194 33.268C8.39935 35.1476 10.4906 36.6373 12.8178 37.639C15.2642 38.6611 17.8968 39.1464 20.5419 39.0628C23.187 38.9792 25.7846 38.3287 28.1633 37.1541C34.3876 34.2449 37.1934 30.4678 37.3131 24.9743C37.3072 23.42 37.7626 21.8997 38.6202 20.6106C41.2583 17.0565 39.9656 11.4612 37.3274 7.7714C35.8876 5.7545 33.823 4.28327 31.4622 3.59188C28.5157 2.67301 25.4713 2.11468 22.3938 1.92881C22.0826 1.94335 21.8049 1.9385 21.5176 1.9385Z" />
</g>
<defs>
<clipPath id="clip44">
<rect width="42" height="41" fill="white"/>
</clipPath>
</defs>
</svg>
