<svg width="445" height="194" viewBox="0 0 445 194" fill="none" xmlns="http://www.w3.org/2000/svg">
<g clip-path="url(#clip0)">
<path d="M365.652 182.255C364.161 184.124 362.921 185.709 361.663 187.279C360.181 189.125 358.198 189.537 356.015 189.116C353.814 188.76 351.641 188.246 349.513 187.578C347.497 186.873 345.63 185.732 343.397 184.634C341.023 187.859 337.294 189.308 333.476 190.556C326.858 192.734 323.853 191.729 319.664 186.078C318.517 184.526 317.342 182.989 316.028 181.213C315.633 181.853 315.206 182.297 315.053 182.82C313.283 188.92 308.685 191.172 302.977 191.458C297.748 191.719 292.463 191.878 287.271 191.383C284.375 191.131 281.551 190.339 278.943 189.046C277.815 188.462 272.372 185.391 273.166 183.573C270.031 190.766 263.148 192.523 255.912 193.35C247.362 194.327 238.794 194.374 230.369 192.093C229.395 191.879 228.476 191.464 227.671 190.873C226.217 189.667 225.14 189.551 223.463 190.752C221.967 191.827 219.97 192.364 218.113 192.724C209.671 194.325 201.016 194.432 192.537 193.042C189.293 192.447 186.11 191.552 183.03 190.369C181.557 189.879 180.209 189.066 179.085 187.99C177.961 186.913 177.088 185.6 176.528 184.143C176.439 183.928 176.313 183.73 176.156 183.559C176.068 183.461 175.896 183.437 175.594 183.311C175.269 183.877 174.893 184.442 174.61 185.05C174.129 186.07 173.443 186.98 172.597 187.722C171.751 188.464 170.762 189.023 169.692 189.364C162.493 191.962 155.071 192.294 147.557 191.607C145.105 191.383 142.667 191.004 140.224 190.71C135.719 190.163 133.146 187.307 131.479 183.344C131.158 182.577 130.819 181.82 130.461 181.007C128.139 183.68 126.026 186.246 123.792 188.7C120.825 191.972 117.151 192.341 113.18 191.037C110.254 190.065 107.143 189.541 104.546 187.812C101.853 186.036 101.216 184.377 97.6961 186.19C94.7377 187.714 91.3009 188.354 88.0174 189.158C83.9026 190.168 81.3111 187.756 79.1004 184.727C78.5106 183.923 77.9765 183.077 77.3821 182.194C74.837 183.447 72.487 184.793 69.993 185.765C67.9585 186.485 65.8584 187.002 63.7233 187.307C60.6766 187.845 58.5821 185.928 57.2213 183.704C55.4565 180.862 53.3758 181.231 50.9747 182.217C46.8785 183.905 44.7003 179.217 41.0081 178.441C37.3159 177.665 35.435 174.744 33.9628 171.58C31.7196 166.682 31.5896 161.517 32.4255 156.278C32.8064 153.89 32.6113 151.88 30.591 149.992C23.5085 143.374 19.886 134.755 17.2016 125.627C15.1814 118.752 14.6148 111.367 9.97513 105.404C6.93313 101.496 4.04904 97.4581 1.2021 93.4013C0.543292 92.4859 0.161095 91.3985 0.101413 90.2698C0.0363929 73.3647 0.0735479 56.4596 0.0224609 39.5591C0.0224609 37.9467 0.486888 37.0493 1.98234 36.3295C21.1787 27.1813 40.3409 17.9895 59.4691 8.75412C65.0422 6.08071 70.5689 3.34186 76.1513 0.710516C77.1226 0.257726 78.1787 0.0187145 79.2491 0.00944654C175.144 -0.0185962 271.04 -0.00301696 366.938 0.0561845C368.666 0.0561845 370.473 0.990944 372.098 1.7481C389.205 10.0145 406.289 18.3136 423.352 26.6454C430.017 29.9171 436.677 33.1887 443.262 36.5679C443.714 36.8572 444.095 37.2446 444.377 37.7015C444.66 38.1585 444.838 38.6735 444.897 39.2086C444.995 56.3474 445.101 73.4862 444.809 90.6204C444.772 92.9573 442.816 95.383 441.354 97.4955C437.824 102.585 433.751 107.31 430.495 112.573C428.247 116.205 426.701 120.364 425.349 124.459C422.024 134.54 416.99 143.486 409.094 150.632C407.432 152.142 407.237 153.651 407.492 155.773C408.268 162.489 408.398 169.22 404.051 174.982C402.94 176.334 401.525 177.398 399.922 178.086C398.176 178.871 396.397 179.38 395.152 181.044C393.615 183.101 391.497 182.746 389.454 181.979C387.41 181.213 385.706 181.213 384.461 183.456C382.213 187.499 378.67 188.083 374.68 186.653C372.446 185.854 370.343 184.676 368.178 183.634C367.305 183.218 366.455 182.699 365.652 182.255ZM135.055 149.071C135.686 147.959 136.1 147.328 136.415 146.65C138.947 141.261 142.769 137.134 148.119 134.498C150.543 133.311 153.023 132.535 155.684 133.76C159.465 135.503 162.916 137.798 165.28 141.238C168.893 146.514 172.199 151.987 175.525 157.231C177.122 150.87 179.598 144.43 183.42 138.634C185.05 136.152 187.001 133.386 189.495 132.091C196.234 128.539 203.135 128.941 209.298 133.745C215.619 138.676 219.515 145.481 222.91 152.614C223.779 154.455 224.536 156.353 225.437 158.437C227.183 154.656 228.59 151.118 230.401 147.8C233.341 142.415 236.602 137.218 241.571 133.4C249.466 127.324 260.334 129.385 264.63 136.634C266.858 140.524 268.873 144.534 270.667 148.646C271.944 151.473 272.827 154.483 274.03 157.806C276.069 153.819 277.857 150.305 279.654 146.799C282.241 141.738 285.492 137.298 290.614 134.503C293.071 133.166 295.421 132.685 298.101 133.998C302.666 136.237 306.484 139.209 308.806 143.878C309.642 145.561 310.515 147.225 311.504 149.15L312.336 147.842C316.409 141.242 320.454 134.624 324.569 128.048C326.255 125.356 328.591 124.094 330.699 124.954C332.559 125.698 334.296 126.719 335.854 127.983C340.721 132.026 342.556 137.676 343.698 143.663C344.2 146.276 344.869 148.851 345.463 151.445L346.355 152.011C347.163 150.898 347.85 149.674 348.798 148.692C351.705 145.706 354.571 142.649 357.733 139.948C359.837 138.153 361.449 138.485 362.698 140.812C364.136 143.631 365.377 146.547 366.414 149.538C367.147 151.529 367.556 153.642 368.299 156.399C370.157 154.488 371.601 153.048 372.981 151.543C375.335 148.977 377.509 146.22 380.012 143.818C383.105 140.845 385.283 141.336 387.248 145.098C387.477 145.503 387.682 145.921 387.861 146.351C388.553 148.197 389.222 150.048 389.997 152.151C390.736 151.687 391.447 151.181 392.129 150.637C394.075 148.861 395.923 146.977 397.93 145.276C398.687 144.635 399.889 143.897 400.656 144.098C401.422 144.299 401.887 145.617 402.235 146.547C402.554 147.615 402.777 148.71 402.899 149.819C403.647 149.183 404.292 148.136 405.189 147.706C405.583 147.519 405.997 147.033 406.494 147.239C406.754 147.337 407.422 148.879 407.344 148.954C407.766 148.666 408.172 148.354 408.56 148.019C415.573 140.943 420.324 132.558 423.25 123.014C424.792 117.999 426.626 113.157 430.128 108.942C434.415 103.8 438.024 98.0564 441.939 92.5834C441.685 92.2543 441.399 91.952 441.084 91.6813C429.72 84.8435 417.64 79.6463 404.445 78.1553C393.262 76.8934 381.958 76.7532 370.714 76.0662C368.868 75.9472 367.03 75.7319 365.206 75.4212C357.459 74.1265 349.75 72.5187 341.961 71.5279C334.173 70.537 326.44 70.1959 318.68 69.4995C306.605 68.4245 294.557 69.1069 282.636 70.8175C273.26 72.1739 263.984 74.1505 254.867 76.7345C245.319 79.4266 236.067 83.1843 226.64 86.3392C225.273 86.746 223.817 86.7297 222.46 86.2924C217.189 84.5584 212.033 82.4599 206.757 80.7493C195.816 77.2066 184.711 74.206 173.282 72.8038C163.728 71.6027 154.156 70.1772 144.557 69.836C135.951 69.5322 127.28 70.3828 118.67 71.0792C110.449 71.7429 102.275 72.916 94.055 73.7713C87.0282 74.5004 79.9968 75.2856 72.9468 75.7109C64.6196 76.211 56.2692 76.2204 47.942 76.6971C43.6345 76.9995 39.3472 77.5457 35.1006 78.3329C25.7842 79.9361 17.2666 83.7639 9.0277 88.2601C7.02602 89.3491 5.14509 90.6624 3.13412 91.9197C5.094 94.5417 6.92384 96.8365 8.59114 99.2482C11.9815 104.146 15.7619 108.886 17.0716 114.891C18.8039 122.865 20.8752 130.722 24.5674 138.022C26.5107 141.921 29.1618 145.419 32.3837 148.337C35.0495 144.678 35.7044 149.305 37.5621 149.295C37.5588 148.775 37.6307 148.257 37.7757 147.758C38.3563 146.486 38.8253 144.486 39.7403 144.233C40.7295 143.953 42.2992 145.168 43.3953 146C45.5363 147.645 47.5751 149.463 49.5722 151.268C50.8911 152.45 51.4717 152.011 51.9872 150.496C52.568 148.569 53.3332 146.704 54.2722 144.925C56.4503 141.153 58.452 140.84 61.703 143.846C64.2527 146.182 66.5005 148.87 68.9434 151.324C70.6479 153.044 72.4545 154.651 74.433 156.512C74.8184 155.348 75.0321 154.693 75.2503 154.039C76.5043 150.3 77.5725 146.468 79.0679 142.822C80.8699 138.377 83.8051 137.816 87.3115 141.037C90.0516 143.542 92.592 146.262 95.2486 148.861C96.2982 149.889 97.4221 150.838 98.6667 151.964C99.8232 147.187 100.71 142.85 101.946 138.616C102.709 135.911 104.008 133.39 105.764 131.203C107.52 129.016 109.696 127.209 112.163 125.889C115.948 123.79 118.475 124.487 120.904 128.043C124.252 132.979 127.54 137.961 130.861 142.915C132.189 144.864 133.522 146.799 135.055 149.057V149.071ZM78.9704 72.9674C81.8591 72.5982 84.5064 72.2243 87.1582 71.9252C94.5101 71.0979 101.857 70.2099 109.223 69.5182C119.506 68.5507 129.793 67.4243 140.103 66.9896C146.071 66.7373 152.099 67.63 158.09 68.1534C163.073 68.5928 168.075 69.0274 173.008 69.8547C178.465 70.7894 183.898 71.9205 189.263 73.3273C197.585 75.5146 205.852 77.945 214.105 80.3941C217.161 81.3008 220.114 82.5581 223.24 83.7031V2.74362H220.983C174.54 2.74362 128.097 2.72804 81.6548 2.69688C79.3327 2.69688 78.8264 3.51012 78.8311 5.67876C78.8961 27.1782 78.8682 48.6777 78.8775 70.1772C78.8497 71.0185 78.9193 71.8644 78.9704 72.9674ZM226.273 83.9275C271.866 63.8068 318.633 62.7926 366.284 73.0422V2.73894H364.031C318.982 2.73894 273.932 2.72181 228.883 2.68753C226.514 2.68753 226.096 3.55686 226.096 5.68344C226.155 30.7693 226.171 55.852 226.143 80.9316C226.138 81.7588 226.208 82.5768 226.273 83.9275ZM369.428 3.3886C369.298 4.02913 369.207 4.67681 369.154 5.32823C369.154 27.3761 369.144 49.424 369.126 71.4718C369.126 72.874 369.535 73.3413 370.984 73.4068C377.852 73.6311 384.726 73.8741 391.586 74.3041C396.504 74.6219 401.436 75.0519 406.303 75.8138C418.248 77.6833 429.302 82.1701 439.849 88.0217C440.661 88.3847 441.502 88.6816 442.361 88.9098C442.464 88.4883 442.538 88.0605 442.584 87.6291C442.584 71.9719 442.584 56.3147 442.626 40.6528C442.626 39.1058 441.823 38.4608 440.62 37.8812C432.136 33.7808 423.659 29.6631 415.188 25.5284C401.165 18.6735 387.147 11.8077 373.134 4.93096C371.982 4.37945 370.788 3.95413 369.428 3.3886ZM76.0584 3.72512C75.5678 3.82703 75.0851 3.96449 74.6141 4.13641C66.8736 7.82871 59.1332 11.5272 51.3927 15.232C35.8468 22.7007 20.3179 30.1679 4.80605 37.6335C3.28738 38.358 2.61396 39.1759 2.62325 40.9566C2.69291 56.1511 2.6604 71.3363 2.66969 86.5355C2.66969 87.2459 2.79045 87.961 2.87404 88.8724C3.70537 88.4704 4.21159 88.2835 4.65744 88.003C17.1366 80.2305 30.6096 75.3417 45.2948 74.3742C54.6159 73.7573 63.9787 73.6732 73.3183 73.3507C74.2147 73.318 75.111 73.2712 76.0538 73.2292L76.0584 3.72512ZM224.294 174.543C224.917 167.607 224.067 160.942 221.043 154.581C217.658 147.454 213.854 140.621 207.552 135.666C201.091 130.591 192.226 131.268 187.405 137.377C182.566 143.563 179.339 150.869 178.019 158.629C177.016 164.307 176.941 170.22 177.09 176.011C177.239 181.801 179.445 186.933 185.64 188.719C189.597 189.859 193.712 190.808 197.803 191.056C204.877 191.458 211.978 191.453 218.995 189.831C222.409 189.041 224.29 187.242 224.317 183.662C224.313 180.614 224.294 177.581 224.294 174.543ZM272.595 169.636C272.697 164.233 271.991 159.035 269.845 154.114C267.467 148.664 265.201 143.116 262.359 137.929C259.814 133.325 255.058 131.853 250.181 132.446C245.635 132.979 241.78 135.503 239.063 139.359C236.704 142.71 234.117 145.986 232.347 149.641C230.179 154.137 227.833 158.881 227.239 163.723C226.38 170.701 226.979 177.866 227.039 184.947C227.023 186.056 227.393 187.135 228.087 187.997C228.78 188.859 229.752 189.448 230.833 189.663C241.079 191.705 251.384 192.163 261.574 189.639C266.395 188.448 270.43 185.741 271.29 180.18C271.838 176.684 272.177 173.15 272.604 169.636H272.595ZM174.429 171.318C174.127 168.075 173.964 165.135 173.565 162.237C172.752 156.675 169.45 152.24 166.664 147.608C163.877 142.976 160.626 138.835 155.582 136.718C153.826 136.051 151.895 136.016 150.116 136.62C141.631 139.849 138.166 147.178 136.081 155.315C134.873 160.031 134.126 164.873 133.294 169.682C132.602 173.767 132.445 177.857 133.68 181.918C134.172 183.555 135.106 185.022 136.376 186.158C137.647 187.293 139.205 188.051 140.879 188.349C148.604 189.495 156.454 189.495 164.179 188.349C169.822 187.55 172.074 185.933 173.379 180.488C174.122 177.427 174.131 174.221 174.438 171.318H174.429ZM274.745 171.678C274.838 173.618 275.019 175.581 275.154 177.6C276.045 190.771 289.806 189.593 299.671 189.097C302.139 189.021 304.59 188.668 306.981 188.046C310.854 186.952 313.506 182.568 313.427 177.469C313.269 167.998 311.646 158.609 308.616 149.641C307.023 144.878 304.255 140.761 299.903 137.9C295.723 135.157 293.345 135.232 289.435 138.312C286.319 140.761 284.196 143.944 282.306 147.356C279.77 151.936 277.132 156.549 275.665 161.611C274.685 165.032 274.606 168.322 274.764 171.678H274.745ZM133.378 153.534C133.113 152.539 133.072 151.254 132.472 150.333C127.745 143.06 122.91 135.844 118.103 128.632C117.128 127.169 115.874 126.908 114.295 127.67C109.265 130.091 105.972 133.993 104.491 139.377C103.525 142.906 102.847 146.472 101.862 149.978C99.2984 159.218 98.9454 168.5 101.291 177.824C102.452 182.437 104.714 186.129 109.776 187.293C111.499 187.69 113.18 188.289 114.885 188.836C117.499 189.682 119.835 189.158 121.684 187.167C123.685 185.012 125.427 182.61 127.443 180.474C128.382 179.521 129.11 178.38 129.582 177.124C130.053 175.869 130.256 174.527 130.178 173.188C130.122 170.823 130.796 168.434 131.195 166.069C131.883 161.943 132.626 157.83 133.378 153.534ZM344.381 165.121C344.219 162.784 344.279 160.447 343.852 158.171C342.7 152.095 341.269 146.047 340.09 139.943C339.335 135.844 337.108 132.168 333.834 129.614C329.441 126.16 328.298 126.782 325.739 130.857C322.567 135.909 319.562 141.079 316.223 146.019C313.436 150.174 312.837 154.432 313.966 159.26C314.895 163.167 315.201 167.205 315.824 171.192C316.204 173.599 316.139 176.282 317.217 178.324C318.842 181.362 321.253 183.989 323.435 186.704C325.196 188.901 327.481 189.742 330.253 188.812C332.227 188.153 334.233 187.583 336.17 186.83C338.78 185.816 340.666 184.157 341.692 181.315C343.526 176.118 344.436 170.636 344.381 165.121ZM76.3232 165.981C76.351 172.921 78.0462 179.661 82.3607 184.718C83.192 185.695 84.7618 186.863 85.7882 186.695C90.0841 185.999 94.538 185.639 98.3277 183.068C99.4981 182.278 99.8789 181.629 99.3634 180.068C97.1134 173.445 96.4561 166.379 97.4453 159.451C97.6822 157.811 98.0444 155.913 97.3013 154.343C96.2239 152.057 93.8228 150.711 92.0069 149.094C89.8287 147.159 87.8781 144.972 85.7325 143.018C83.5868 141.065 82.6905 141.317 81.3018 143.841C81.1114 144.177 80.9674 144.537 80.8095 144.893C77.9173 151.546 76.3913 158.719 76.3232 165.981ZM360.32 141.167C359.113 141.995 358.393 142.331 357.877 142.869C354.222 146.655 350.558 150.44 347.024 154.343C346.522 154.89 346.443 156.091 346.587 156.918C347.885 164.603 347.331 172.489 344.971 179.913C344.4 181.783 344.841 182.83 346.48 183.386C349.731 184.498 353.075 185.405 356.331 186.536C358.026 187.125 359.391 186.601 360.167 185.302C361.941 182.339 364.161 179.38 364.927 176.118C367.138 166.705 366.2 157.297 363.214 148.127C362.461 145.879 361.402 143.747 360.32 141.167ZM53.1808 160.942C53.4269 164.036 53.4873 167.154 53.9517 170.21C54.7227 175.296 56.5107 179.993 60.4537 183.526C61.2009 184.152 62.1225 184.529 63.0916 184.606C67.5873 184.886 71.247 182.582 74.8788 180.367C75.3432 180.096 75.5801 178.848 75.3804 178.235C73.4948 172.557 73.7317 166.747 73.9871 160.905C73.9348 160.037 73.5699 159.218 72.9607 158.601C70.4528 155.955 67.852 153.413 65.2652 150.838C63.4678 149.033 61.6705 147.229 59.8453 145.453C58.2802 143.925 57.2538 144.472 56.3017 146.267C53.8728 150.875 53.0182 155.768 53.1808 160.942ZM368.452 166.892C368.452 167.99 368.499 169.089 368.452 170.192C368.373 172.949 367.677 175.534 367.254 178.245C367.147 178.913 367.389 180.068 367.849 180.329C370.35 181.845 372.963 183.165 375.665 184.279C378.702 185.442 380.685 184.746 382.464 182.082C383.695 180.245 384.898 178.263 385.525 176.17C386.414 173.057 387.054 169.878 387.438 166.663C388.33 159.891 388.088 153.188 385.279 146.804C384.22 144.397 383.124 144.093 381.345 145.953C378.623 148.809 376.311 152.099 373.371 154.689C371.206 156.596 369.126 158.867 368.661 161.835C368.446 163.511 368.376 165.203 368.452 166.892ZM40.6134 147.44C40.5058 147.487 40.4116 147.561 40.3394 147.655C38.765 149.716 39.3083 152.917 39.6195 155.287C40.7295 163.728 40.6552 171.346 46.4001 178.226C47.1309 179.134 48.1689 179.74 49.3154 179.926C50.462 180.112 51.6365 179.866 52.6142 179.236C54.4069 178.095 52.6745 176.772 52.5259 175.534C52.5207 175.455 52.5083 175.377 52.4888 175.3C50.4267 169.299 51.1373 163.074 50.9933 156.909C50.9933 156.283 50.8168 155.427 50.3989 155.067C49.2889 154.123 42.5407 146.584 40.6134 147.44ZM399.903 147.907L399.351 147.683C397.029 149.702 394.785 151.819 392.384 153.707C390.88 154.88 390.104 156.007 390.127 158.101C390.211 164.677 390.866 171.351 388.098 177.651C388.056 177.867 388.064 178.089 388.12 178.301C388.176 178.513 388.28 178.71 388.423 178.876C389.551 180.166 392.853 180.175 393.796 178.764C395.343 176.455 397.047 174.141 398.041 171.585C401.06 163.906 399.523 155.825 399.894 147.907H399.903ZM40.9803 175.59C40.6784 174.749 40.4462 174.141 40.2465 173.529C38.268 167.546 37.9661 161.452 37.6503 155.086C37.576 153.544 37.1859 152.441 35.5743 151.992C32.7181 163.032 35.4072 173.487 40.9803 175.59ZM404.808 152.637L403.911 152.23C403.493 153.203 402.699 154.175 402.718 155.137C402.843 161.933 402.453 168.612 399.527 174.903C399.458 175.057 399.625 175.324 399.857 176.179C407.018 169.14 405.681 160.835 404.808 152.637Z"/>
<path d="M209.694 108.17C209.601 106.422 209.489 104.324 209.508 102.758H209.452C209.03 104.23 208.523 105.791 207.882 107.521L205.681 113.597H204.464L202.449 107.628C201.854 105.862 201.357 104.244 201.004 102.753H200.967C200.93 104.319 200.842 106.418 200.73 108.297L200.396 113.671H198.863L199.732 101.136H201.771L203.893 107.212C204.413 108.755 204.822 110.129 205.152 111.419H205.207C205.519 110.152 205.964 108.778 206.517 107.212L208.737 101.136H210.79L211.565 113.671H209.991L209.694 108.17Z" />
<path d="M219.061 113.676L218.954 112.526H218.898C218.582 112.954 218.17 113.3 217.695 113.536C217.22 113.771 216.697 113.89 216.167 113.882C215.815 113.908 215.462 113.861 215.129 113.743C214.797 113.625 214.492 113.438 214.235 113.195C213.977 112.952 213.773 112.658 213.635 112.331C213.497 112.004 213.428 111.652 213.432 111.297C213.432 109.119 215.355 107.932 218.81 107.951V107.764C218.81 107.021 218.606 105.679 216.776 105.679C215.955 105.683 215.152 105.914 214.454 106.348L214.082 105.273C214.968 104.734 215.987 104.457 217.022 104.473C219.757 104.473 220.421 106.343 220.421 108.152V111.521C220.409 112.243 220.459 112.964 220.57 113.676H219.061ZM218.824 109.082C217.05 109.044 215.034 109.362 215.034 111.11C215.017 111.318 215.045 111.527 215.115 111.724C215.186 111.92 215.298 112.098 215.443 112.247C215.589 112.396 215.764 112.511 215.958 112.585C216.152 112.659 216.36 112.69 216.567 112.676C217.04 112.688 217.505 112.548 217.894 112.277C218.283 112.006 218.576 111.617 218.731 111.166C218.789 110.999 218.82 110.824 218.824 110.647V109.082Z"/>
<path d="M223.775 104.674L225.052 106.609C225.382 107.114 225.66 107.577 225.958 108.082H226.013C226.306 107.539 226.603 107.077 226.9 106.591L228.154 104.674H229.91L226.849 109.03L229.989 113.676H228.131L226.849 111.652C226.496 111.129 226.204 110.629 225.888 110.087H225.851C225.554 110.629 225.242 111.11 224.922 111.652L223.598 113.676H221.806L224.987 109.082L221.954 104.674H223.775Z"/>
<path d="M233.388 102.146C233.388 102.415 233.282 102.673 233.093 102.863C232.904 103.053 232.648 103.16 232.38 103.16C232.113 103.16 231.857 103.053 231.668 102.863C231.479 102.673 231.372 102.415 231.372 102.146C231.369 102.01 231.392 101.876 231.442 101.75C231.492 101.624 231.567 101.509 231.662 101.413C231.757 101.318 231.871 101.242 231.996 101.192C232.121 101.142 232.255 101.118 232.39 101.122C232.524 101.118 232.657 101.141 232.782 101.191C232.906 101.241 233.019 101.317 233.113 101.413C233.207 101.509 233.28 101.624 233.327 101.75C233.374 101.876 233.395 102.011 233.388 102.146ZM231.577 113.676V104.674H233.202V113.676H231.577Z"/>
<path d="M235.901 100.473H237.532V113.676H235.906L235.901 100.473Z"/>
<path d="M240.262 100.473H241.887V113.676H240.262V100.473Z"/>
<path d="M249.579 113.676L249.449 112.545H249.393C249.075 112.97 248.661 113.313 248.185 113.545C247.71 113.777 247.186 113.893 246.658 113.882C246.306 113.908 245.952 113.861 245.619 113.743C245.287 113.625 244.982 113.438 244.725 113.195C244.468 112.952 244.263 112.658 244.125 112.331C243.987 112.004 243.918 111.652 243.922 111.297C243.922 109.119 245.845 107.932 249.3 107.951V107.764C249.3 107.021 249.096 105.679 247.266 105.679C246.446 105.683 245.642 105.914 244.944 106.348L244.572 105.273C245.458 104.734 246.477 104.457 247.512 104.473C250.248 104.473 250.912 106.343 250.912 108.152V111.521C250.9 112.243 250.949 112.964 251.06 113.676H249.579ZM249.337 109.082C247.563 109.044 245.548 109.362 245.548 111.11C245.53 111.318 245.558 111.527 245.629 111.724C245.699 111.92 245.811 112.098 245.957 112.247C246.102 112.396 246.278 112.511 246.472 112.585C246.666 112.659 246.873 112.69 247.08 112.676C247.553 112.688 248.018 112.548 248.407 112.277C248.797 112.006 249.09 111.617 249.244 111.166C249.302 110.999 249.333 110.824 249.337 110.647V109.082Z"/>
</g>
<defs>
<clipPath id="clip0">
<rect width="445" height="194" fill="white"/>
</clipPath>
</defs>
</svg>
