<svg width="48" height="44" viewBox="0 0 48 44" fill="none" xmlns="http://www.w3.org/2000/svg">
<g clip-path="url(#clip45)">
<path d="M20.3443 25.237H14.4727V24.1022L20.3299 16.0616H22.1241V23.8209H23.9901V25.2176H22.1241V28.2194H20.3443V25.237ZM20.5506 23.8403V18.1663L16.4587 23.8403H20.5506Z" />
<path d="M26.72 28.3021C26.1912 28.1917 25.6808 28.0055 25.2041 27.7492V26.1634C25.7037 26.4665 26.2454 26.6921 26.8111 26.8327C27.3678 26.9866 27.9419 27.0665 28.5189 27.0703C29.3716 27.1342 30.2197 26.8958 30.9175 26.3962C31.1934 26.1512 31.4101 25.8453 31.5506 25.5023C31.6912 25.1592 31.7519 24.7881 31.7282 24.4176C31.7515 24.0647 31.6958 23.711 31.5654 23.3827C31.4351 23.0545 31.2333 22.7601 30.975 22.5214C30.3309 22.0408 29.5381 21.8086 28.7396 21.8667C28.302 21.8681 27.8653 21.9087 27.4348 21.988C27.0205 22.0598 26.6141 22.1718 26.2211 22.3226L25.444 21.8667L25.8901 16.0473H32.6444V17.5167H27.4971L27.2381 20.6592C27.9544 20.5078 28.6842 20.4314 29.416 20.4313C29.963 20.3999 30.5106 20.4799 31.0265 20.6665C31.5423 20.8531 32.0159 21.1425 32.419 21.5176C32.7856 21.897 33.0714 22.3483 33.2587 22.8438C33.446 23.3393 33.5308 23.8683 33.5079 24.3982C33.5431 24.9637 33.4508 25.5298 33.2381 26.054C33.0254 26.5782 32.6977 27.0467 32.2799 27.4243C31.4643 28.1259 30.2331 28.4783 28.5861 28.4815C27.9595 28.49 27.3338 28.4298 26.72 28.3021Z" />
<path d="M23.4291 44.0009H22.887C20.8124 44.0259 18.7393 43.8767 16.6891 43.5547C12.5069 42.7469 8.60506 40.8515 5.36793 38.0553C0.235012 33.7344 -0.978661 29.7238 0.71952 22.7259C1.90573 17.7959 4.43905 13.3024 8.03034 9.75819C10.1876 7.67289 12.6245 5.90487 15.2692 4.50613L16.6028 3.7593C19.0925 2.35293 21.6638 0.902906 24.5852 0.301562C25.2503 0.168279 25.9234 0.0791856 26.6 0.0348422C29.4783 -0.144591 32.8842 0.621629 36.1127 2.19288C38.8452 3.49539 41.1038 5.63285 42.5696 8.30332C43.8313 10.6117 44.9394 13.0365 46.0092 15.3837C46.3881 16.2178 46.7671 17.0568 47.1557 17.886C48.6236 21.0334 47.8896 24.0353 47.0837 26.2952C46.4405 28.1516 45.676 29.9629 44.7955 31.717C43.2718 34.7 41.1045 37.2987 38.4537 39.3211C35.8223 41.3341 32.7838 42.735 29.555 43.4238C27.5387 43.8324 25.4854 44.0259 23.4291 44.0009ZM27.4539 1.94071C27.2044 1.94071 26.9742 1.94071 26.7151 1.94071C26.1286 1.97852 25.5452 2.05628 24.969 2.17348C22.3402 2.71663 19.8984 4.11331 17.5382 5.42269L16.1855 6.17922C13.6964 7.50059 11.4033 9.16898 9.37353 11.1355C6.04082 14.43 3.6891 18.6035 2.58561 23.1818C1.07931 29.3892 2.10589 32.7645 6.6008 36.5568C9.58517 39.1445 13.187 40.8982 17.0489 41.644C18.9933 41.9434 20.9587 42.0812 22.9254 42.0562C25.0175 42.1123 27.1092 41.9317 29.1617 41.5179C32.1207 40.8905 34.9057 39.6087 37.3168 37.7644C39.7408 35.9166 41.7229 33.5416 43.1165 30.8149C43.9568 29.1377 44.686 27.4058 45.2992 25.6308C46.3258 22.755 46.3689 20.6842 45.4479 18.7056C45.0545 17.8667 44.6708 17.0277 44.287 16.1839C43.2316 13.8706 42.1427 11.4749 40.929 9.22959C39.6385 6.91238 37.6622 5.06211 35.278 3.93873C32.8467 2.70007 30.1754 2.01791 27.4539 1.94071Z" />
</g>
<defs>
<clipPath id="clip45">
<rect width="48" height="44" fill="white"/>
</clipPath>
</defs>
</svg>
