<svg width="57" height="57" viewBox="0 0 57 57" fill="none" xmlns="http://www.w3.org/2000/svg">
<g clip-path="url(#clip47)">
<path d="M25.4781 31.2221H19.7383V30.1397L25.4641 22.4706H27.2038V29.8714H29.028V31.2036H27.2038V34.0668H25.4641L25.4781 31.2221ZM25.6798 29.8899V24.4781L21.6797 29.8899H25.6798Z" />
<path d="M36.3151 23.8583H30.0547V22.4706H38.0736V23.7195L33.3279 34.1084H31.6397L36.3151 23.8583Z" />
<path d="M27.3349 56.9998C22.8616 56.9513 18.4724 55.795 14.5703 53.6371C7.66273 49.8997 2.84669 43.794 1.35076 36.8789C0.183093 31.4717 -0.736043 26.1848 0.844295 20.9302C1.6837 18.1318 3.40942 15.671 4.98507 13.6358C6.69136 11.4353 8.62957 9.41964 10.7671 7.62264C12.5622 6.06228 14.5623 4.74761 16.7133 3.7141C18.8564 2.73812 21.1495 2.23394 23.3723 1.74364L24.6244 1.4661C28.6761 0.564132 32.8637 -0.384087 37.0889 0.129343C39.8646 0.519366 42.5334 1.45188 44.939 2.87226C46.313 3.63547 48.3013 4.86122 49.7175 6.68366C51.462 8.92241 52.0904 11.6237 52.7047 14.2325L52.8219 14.7274C53.1643 16.1891 53.5488 17.6692 53.9239 19.0985C54.2991 20.5278 54.7118 22.1143 55.0682 23.6408L55.251 24.4224C56.0154 27.6603 56.8032 30.9814 56.9674 34.3811V34.7188C57.0799 37.7855 56.7282 45.2326 51.0259 48.1327C45.8441 50.8248 40.4887 53.6047 34.9177 55.6538C32.4922 56.5469 29.9238 57.0028 27.3349 56.9998ZM34.6504 1.85003C31.4475 1.85003 28.1977 2.57623 25.0371 3.27931L23.7803 3.56145C21.656 4.024 19.4613 4.50968 17.5012 5.41165C15.5043 6.37756 13.6479 7.60347 11.9817 9.05655C9.94617 10.7643 8.10066 12.6807 6.4763 14.7737C5.00382 16.6747 3.39535 18.9597 2.64035 21.4668C1.18663 26.3143 2.02605 31.1479 3.18434 36.5089C4.59117 42.892 9.04611 48.5352 15.4706 52.0274C21.6607 55.3763 28.5166 56.0794 34.2799 53.9609C39.7431 51.9488 45.0656 49.1966 50.1724 46.5323C54.9275 44.104 55.2042 37.5265 55.1057 34.8113V34.4968C54.9462 31.2589 54.1678 28.0211 53.4362 24.8711L53.2487 24.0848C52.8969 22.5815 52.503 21.0597 52.1185 19.5888C51.734 18.1179 51.3541 16.6562 51.0024 15.1761L50.8852 14.6765C50.3178 12.2574 49.7316 9.75962 48.2357 7.83541C47.0305 6.28587 45.2579 5.19889 44.0152 4.50969C41.825 3.21319 39.3959 2.35794 36.8685 1.99342C36.1325 1.90402 35.3919 1.85614 34.6504 1.85003Z" />
</g>
<defs>
<clipPath id="clip47">
<rect width="57" height="57" fill="white"/>
</clipPath>
</defs>
</svg>
