<svg width="60" height="62" viewBox="0 0 60 62" fill="none" xmlns="http://www.w3.org/2000/svg">
<g clip-path="url(#clip46)">
<path d="M25.8381 34.5368H20.2148V33.4785L25.8197 25.9569H27.5426V33.2162H29.3297V34.5188H27.5426V37.3184H25.8381V34.5368ZM26.0357 33.2342V27.9425L22.1076 33.2162L26.0357 33.2342Z" />
<path d="M32.6093 37.02C31.9377 36.6285 31.3977 36.0513 31.0565 35.3601C30.6554 34.5354 30.4601 33.6283 30.4868 32.7142C30.4868 30.4558 30.9569 28.7235 31.8972 27.5174C32.8375 26.3113 34.1913 25.7083 35.9585 25.7083C36.5055 25.7001 37.0511 25.7655 37.5802 25.9027V27.3048C37.1055 27.1266 36.5994 27.0436 36.0917 27.0606C33.7303 27.0606 32.4347 28.4552 32.205 31.2443C32.5499 30.822 33.0037 30.4987 33.519 30.3081C34.092 30.0914 34.7015 29.9839 35.3153 29.9915C35.9991 29.9753 36.6759 30.1309 37.2816 30.4437C37.8384 30.7437 38.2948 31.1961 38.5955 31.7463C38.9173 32.3542 39.0755 33.0331 39.055 33.7183C39.0652 34.4122 38.891 35.0967 38.5496 35.7039C38.2083 36.2874 37.7002 36.7593 37.0886 37.0608C36.3852 37.4079 35.6057 37.5787 34.8191 37.5583C34.047 37.5756 33.2842 37.3898 32.6093 37.02ZM36.6935 35.6044C36.9283 35.3649 37.1115 35.0812 37.2323 34.7703C37.3531 34.4595 37.4089 34.1278 37.3965 33.7952C37.4133 33.4622 37.3595 33.1293 37.2385 32.8178C37.1175 32.5063 36.9319 32.2231 36.6935 31.9861C36.1944 31.5335 35.534 31.2929 34.8559 31.3167C34.4042 31.3115 33.9585 31.4188 33.5603 31.6287C33.1771 31.8314 32.8589 32.1353 32.6415 32.5062C32.4101 32.9085 32.2927 33.3646 32.3015 33.8269C32.2994 34.2608 32.4118 34.6878 32.6277 35.0662C32.8442 35.4448 33.162 35.7577 33.5465 35.9707C33.9519 36.2034 34.4143 36.3223 34.8834 36.3145C35.218 36.3207 35.5504 36.2611 35.8612 36.1392C36.1721 36.0172 36.455 35.8354 36.6935 35.6044Z" />
<path d="M24.0368 62.0001C14.8806 62.0001 8.41654 57.9702 4.38285 49.7882C0.491584 41.8958 -0.817739 33.9581 0.496196 26.1968C2.43494 14.7131 7.95254 7.65284 17.3706 4.67224C18.4594 4.3285 19.5391 3.97118 20.6141 3.61387C24.7489 2.257 29.0306 0.823248 33.5559 0.149335C42.9648 -1.24372 52.3415 7.78852 53.4763 14.4236C54.1241 18.2048 55.2496 21.208 57.0138 23.9217C58.1893 25.7572 58.9522 27.8191 59.2512 29.9689C60.0809 34.3977 60.2358 38.9236 59.7106 43.3974C59.389 46.5634 58.1026 48.9786 55.7871 50.7787C52.8981 52.9476 49.7158 54.7089 46.3323 56.0118C45.5008 56.3464 44.6646 56.6902 43.8285 57.0339C39.3446 58.8747 34.709 60.7834 29.9127 61.5568C27.9691 61.8579 26.0043 62.0061 24.0368 62.0001ZM35.5222 1.80471C34.9547 1.80414 34.3879 1.84647 33.827 1.93135C29.4671 2.57812 25.2634 3.97119 21.2022 5.31901C20.1179 5.67632 19.0291 6.03815 17.9357 6.38641C9.11486 9.19514 4.15315 15.5815 2.31547 26.4817C1.07045 33.8676 2.31547 41.4389 6.04595 48.9877C10.5528 58.1375 18.0414 61.5478 29.6141 59.725C34.2083 59.0014 38.7289 57.1379 43.1118 55.3378C43.951 54.9911 44.7902 54.6488 45.6294 54.3111C48.8521 53.0716 51.8841 51.3972 54.6386 49.3359C56.5728 47.8343 57.6018 45.8714 57.8545 43.1622C58.3534 38.868 58.2094 34.5249 57.4273 30.2719V30.2402C57.17 28.3355 56.4994 26.5076 55.461 24.8806C53.494 21.7877 52.1988 18.3275 51.657 14.7176C50.7381 9.30369 43.2404 1.80471 35.5222 1.80471Z" />
</g>
<defs>
<clipPath id="clip46">
<rect width="60" height="62" fill="white"/>
</clipPath>
</defs>
</svg>
