<svg width="60" height="62" viewBox="0 0 60 62" fill="none" xmlns="http://www.w3.org/2000/svg">
<g clip-path="url(#clip36)">
<path d="M23.3139 38.8705C22.7633 38.789 22.2259 38.6355 21.7158 38.4139V37.0439C22.7549 37.5091 23.8826 37.7458 25.0221 37.738C25.8149 37.7953 26.6057 37.6019 27.2814 37.1855C27.5232 37.0029 27.7165 36.7644 27.8446 36.4906C27.9726 36.2169 28.0315 35.9161 28.0161 35.6146C28.0411 35.3186 27.983 35.0215 27.8485 34.7563C27.7139 34.4911 27.5081 34.2681 27.2538 34.1122C26.541 33.7652 25.75 33.6079 24.9578 33.6555H23.5802V32.2856H24.9027C25.6052 32.3172 26.3015 32.1425 26.9048 31.7832C27.1494 31.6254 27.3481 31.4066 27.481 31.1486C27.614 30.8906 27.6766 30.6024 27.6625 30.3128C27.6812 30.0392 27.6339 29.765 27.5245 29.5132C27.415 29.2614 27.2467 29.0392 27.0334 28.8652C26.495 28.4986 25.8474 28.3247 25.1966 28.372C24.6335 28.3636 24.0721 28.4359 23.5297 28.5867C22.9864 28.7485 22.4686 28.9852 21.9913 29.2899V27.9199C23.0244 27.322 24.2037 27.0201 25.3987 27.0477C26.6844 27.0477 27.6671 27.3354 28.3375 27.9017C28.6756 28.1947 28.9423 28.5603 29.1173 28.9709C29.2924 29.3815 29.3712 29.8264 29.3478 30.2717C29.3592 30.8478 29.1854 31.4126 28.8519 31.8837C28.4709 32.3761 27.9539 32.7474 27.364 32.9523C28.0266 33.0781 28.6314 33.4108 29.0907 33.9021C29.504 34.3883 29.7202 35.0103 29.6968 35.6466C29.7176 36.1131 29.6317 36.5782 29.4456 37.0069C29.2595 37.4356 28.9779 37.8167 28.6223 38.1216C27.9059 38.729 26.7855 39.0349 25.215 39.0349C24.5777 39.0336 23.9418 38.9786 23.3139 38.8705Z" />
<path d="M33.3525 38.4594C32.6803 38.0652 32.1403 37.4821 31.8003 36.7835C31.3994 35.9508 31.2042 35.035 31.2309 34.1121C31.2309 31.8319 31.7008 30.0844 32.6407 28.8697C33.5805 27.655 34.9337 27.0461 36.7001 27.0431C37.2468 27.0371 37.7918 27.1031 38.3211 27.2394V28.6551C37.8466 28.4751 37.3407 28.3913 36.8332 28.4085C34.4729 28.4085 33.178 29.8165 32.9484 32.6325C33.2931 32.2062 33.7467 31.8797 34.2617 31.6872C34.8344 31.4685 35.4437 31.36 36.0572 31.3676C36.7407 31.3512 37.4172 31.5084 38.0226 31.8243C38.5814 32.124 39.0384 32.5817 39.3359 33.1394C39.6523 33.7595 39.8145 34.4459 39.8089 35.1412C39.8033 35.8364 39.63 36.5202 39.3038 37.1351C38.9614 37.7233 38.4539 38.1994 37.8435 38.5051C37.1397 38.8535 36.361 39.0259 35.575 39.0074C34.7982 39.0257 34.0307 38.8365 33.3525 38.4594ZM37.4348 37.0301C37.6695 36.7883 37.8526 36.5019 37.9733 36.188C38.0941 35.8742 38.1499 35.5393 38.1374 35.2035C38.1554 34.8671 38.1021 34.5307 37.9811 34.216C37.8601 33.9014 37.674 33.6155 37.4348 33.3769C37.1885 33.1495 36.8994 32.9728 36.5842 32.8568C36.269 32.7408 35.9338 32.6879 35.598 32.701C35.1472 32.6965 34.7022 32.8032 34.303 33.0115C33.9198 33.218 33.6018 33.5263 33.3846 33.902C33.1533 34.3066 33.0359 34.7656 33.0448 35.2309C33.042 35.6691 33.1545 36.1004 33.3709 36.4821C33.5891 36.863 33.9063 37.1784 34.2893 37.3954C34.6948 37.629 35.157 37.7474 35.6255 37.7379C35.9554 37.7424 36.283 37.6822 36.5895 37.5607C36.896 37.4393 37.1754 37.259 37.4118 37.0301H37.4348Z" />
<path d="M35.9328 62C35.3496 62 34.7619 62 34.1603 61.9452C32.3279 61.8288 30.5081 61.5646 28.7187 61.1552C24.4435 60.2008 20.3382 58.5705 16.366 56.9951L14.7588 56.3603L14.2399 56.1548C11.7005 55.1593 9.07839 54.1273 6.70888 52.634C4.97767 51.538 1.88722 49.1589 0.693278 45.5239C-0.225136 42.7292 -0.0322936 39.7655 0.151389 36.8977C0.178942 36.473 0.206514 36.0574 0.229475 35.6419C0.394789 32.5732 0.743787 28.993 2.0663 25.7188C2.475 24.6868 2.9847 23.7004 3.48064 22.7505C3.87097 22.0016 4.27511 21.2253 4.61033 20.4672C5.26994 18.8539 5.82066 17.1987 6.25887 15.5125C6.95227 13.0786 7.66404 10.5578 9.01411 8.3111C12.1229 3.2331 18.4738 0.0456502 25.5915 -1.52588e-05H25.7706C32.3372 -1.52588e-05 38.5182 2.39742 43.6796 4.75376C47.413 6.44338 50.4024 8.06452 52.8638 10.4574C56.9967 14.5033 59.3754 20.7367 59.8805 28.9793C60.3397 36.1305 59.3937 42.3775 57.1252 47.5469C54.37 53.8852 49.4427 58.6938 43.6659 60.7442C41.1796 61.6003 38.5638 62.0251 35.9328 62ZM34.2705 60.1277C37.2431 60.3553 40.2312 59.9825 43.0551 59.0317C48.359 57.1503 52.873 52.6979 55.4537 46.8254C57.6028 41.9209 58.4799 35.957 58.062 29.098C57.6028 21.3349 55.4078 15.4852 51.5918 11.768C49.3279 9.55777 46.4992 8.03255 42.9403 6.41599C37.8891 4.13272 31.8964 1.79008 25.6053 1.84944C19.1167 1.89054 13.3628 4.74007 10.5846 9.28378C9.34017 11.3159 8.69269 13.6083 8.00388 16.0331C7.54617 17.7945 6.96931 19.523 6.27725 21.207C5.91448 22.0336 5.49657 22.8373 5.09706 23.609C4.60111 24.5634 4.13276 25.4676 3.75621 26.4129C2.5485 29.4451 2.22243 32.8426 2.06171 35.7652C2.06171 36.1807 2.01117 36.6054 1.98362 37.0347C1.81371 39.7289 1.63462 42.5145 2.44283 44.9805C3.45768 48.072 6.16703 50.1498 7.69619 51.1133C9.91416 52.5153 12.4582 53.5153 14.9149 54.4789L15.4384 54.6844L17.0456 55.3237C20.9535 56.8717 24.9899 58.4746 29.1228 59.3971C30.8162 59.7774 32.5377 60.0218 34.2705 60.1277Z" />
</g>
<defs>
<clipPath id="clip36">
<rect width="60" height="62" fill="white"/>
</clipPath>
</defs>
</svg>
