<svg width="56" height="57" viewBox="0 0 56 57" fill="none" xmlns="http://www.w3.org/2000/svg">
<g clip-path="url(#clip37)">
<path d="M21.3932 35.4569C20.8434 35.3741 20.307 35.218 19.7979 34.9928V33.6005C20.8382 34.0732 21.9673 34.3138 23.1082 34.3059C23.9006 34.3647 24.6911 34.1681 25.3657 33.7443C25.6105 33.561 25.8062 33.3191 25.9354 33.0404C26.0646 32.7618 26.1232 32.4551 26.1059 32.1479C26.1298 31.8472 26.0712 31.5456 25.9366 31.2763C25.802 31.0069 25.5965 30.7802 25.3426 30.621C24.629 30.2684 23.8369 30.1085 23.0438 30.1569H21.6645V28.7878H22.9886C23.6906 28.8204 24.3864 28.6428 24.9886 28.2773C25.235 28.1182 25.4354 27.8962 25.5694 27.6338C25.7034 27.3713 25.7664 27.0778 25.7519 26.7829C25.7698 26.5049 25.7221 26.2265 25.6126 25.9707C25.503 25.7149 25.3349 25.4891 25.122 25.3118C24.5829 24.9392 23.9345 24.7624 23.2829 24.8105C22.7191 24.802 22.157 24.8755 21.6139 25.0287C21.07 25.1932 20.5515 25.4337 20.0737 25.7434V24.3511C21.1066 23.744 22.2857 23.4372 23.4806 23.4647C24.7726 23.4647 25.7794 23.7571 26.4277 24.3325C26.7662 24.6303 27.0331 25.0019 27.2084 25.4192C27.3836 25.8365 27.4626 26.2885 27.4392 26.7412C27.4506 27.3267 27.2766 27.9006 26.9426 28.3794C26.5612 28.8799 26.0435 29.2572 25.453 29.4654C26.1159 29.5945 26.7212 29.9324 27.1817 30.4307C27.5943 30.9253 27.8092 31.5575 27.7841 32.2036C27.8049 32.6777 27.7189 33.1504 27.5325 33.5861C27.3462 34.0218 27.0643 34.4091 26.7082 34.7189C25.9909 35.3377 24.8553 35.6471 23.3013 35.6471C22.6611 35.6381 22.0228 35.5744 21.3932 35.4569Z" />
<path d="M35.2734 25.1214H29.1309V23.6827H36.9929V24.9358L32.3446 35.3639H30.6895L35.2734 25.1214Z" />
<path d="M29.1075 56.9992C27.034 57.0132 24.9694 56.7225 22.9788 56.136C16.7253 54.1992 10.7439 51.4604 5.18109 47.9865C1.43856 45.6986 -0.248775 42.074 0.0270874 36.8993C0.277464 32.984 0.801331 29.0914 1.59486 25.2506C2.05463 22.8976 2.67533 20.5447 3.27304 18.2892C3.73281 16.6417 4.1604 14.9384 4.54201 13.2584C5.62706 8.47361 7.99488 4.81653 11.3834 2.67242C15.2317 0.235928 20.3949 -0.54375 26.7305 0.351951C31.6501 1.04809 37.8891 2.24546 42.5328 5.35025C46.496 8.00023 49.5673 11.6202 52.5374 15.1194C55.7558 18.8971 56.0822 23.6309 55.9857 27.7613C55.6501 36.0918 53.5995 42.3989 49.5259 47.6106C45.0201 53.4118 36.7489 56.9992 29.1075 56.9992ZM21.9029 1.85562C18.0868 1.85562 14.8914 2.65387 12.3719 4.25035C8.62478 6.61723 7.02939 10.6827 6.34893 13.6761C5.95812 15.3886 5.50293 17.1057 5.06615 18.7811C4.47305 21.0227 3.86156 23.3432 3.41099 25.6404C2.63442 29.3938 2.12275 33.1981 1.87992 37.0247C1.64084 41.5124 2.99717 44.5012 6.1466 46.4272C11.5793 49.8106 17.4182 52.4791 23.5213 54.3678C31.5995 56.8183 42.8316 53.2122 48.096 46.4782C51.9121 41.5913 53.8386 35.6231 54.1604 27.7056C54.2478 23.9279 53.9535 19.6211 51.1535 16.3214C48.2661 12.9196 45.2776 9.40178 41.5305 6.89568C37.1949 3.99509 31.2133 2.85342 26.4868 2.18513C24.9682 1.96877 23.4366 1.85868 21.9029 1.85562Z" />
</g>
<defs>
<clipPath id="clip37">
<rect width="56" height="57" fill="white"/>
</clipPath>
</defs>
</svg>
