<svg width="59" height="58" viewBox="0 0 59 58" fill="none" xmlns="http://www.w3.org/2000/svg">
<g clip-path="url(#clip48)">
<path d="M24.993 32.6925H19.2793V31.6015L24.979 23.8713H26.7249V31.3311H28.5408V32.6739H26.7249V35.5599H24.993V32.6925ZM25.1984 31.3497V25.8948L21.2119 31.3497H25.1984Z" />
<path d="M30.875 34.9304C30.4911 34.6284 30.1855 34.2387 29.984 33.794C29.7825 33.3493 29.6911 32.8628 29.7173 32.3755C29.6995 31.7057 29.9065 31.0492 30.3054 30.5105C30.6967 30.0011 31.2471 29.6368 31.8693 29.4755C31.3494 29.2675 30.9038 28.9085 30.5902 28.4451C30.274 27.9638 30.1113 27.3981 30.1234 26.8226C30.1075 26.3786 30.1949 25.937 30.3787 25.5325C30.5626 25.128 30.8379 24.7716 31.183 24.4914C32.0007 23.881 33.0065 23.5759 34.0259 23.6288C35.0316 23.5822 36.022 23.8872 36.8268 24.4914C37.1727 24.7709 37.4486 25.1271 37.6325 25.5318C37.8165 25.9365 37.9034 26.3785 37.8864 26.8226C37.8985 27.3981 37.7358 27.9638 37.4196 28.4451C37.1073 28.9078 36.6634 29.2667 36.1452 29.4755C36.7682 29.6379 37.3198 30.0018 37.7137 30.5105C38.1176 31.0472 38.3281 31.7043 38.3112 32.3755C38.3374 32.8628 38.2459 33.3493 38.0445 33.794C37.843 34.2387 37.5374 34.6284 37.1535 34.9304C36.2373 35.5744 35.1306 35.8914 34.0119 35.8303C32.8948 35.89 31.7901 35.5731 30.875 34.9304ZM35.9165 33.97C36.1499 33.7516 36.3327 33.4849 36.452 33.1885C36.5714 32.8921 36.6244 32.5732 36.6074 32.2542C36.6212 31.9444 36.5641 31.6356 36.4403 31.3512C36.3165 31.0667 36.1294 30.8143 35.8932 30.6131C35.3644 30.1927 34.7012 29.9774 34.0259 30.007C33.351 29.9795 32.6885 30.1945 32.1587 30.6131C31.921 30.8134 31.7326 31.0656 31.608 31.3501C31.4834 31.6346 31.4258 31.944 31.4398 32.2542C31.4224 32.5737 31.4757 32.8931 31.5959 33.1896C31.7161 33.4862 31.9003 33.7526 32.1353 33.97C32.6732 34.4052 33.3533 34.6261 34.0446 34.5901C34.724 34.6226 35.3912 34.4016 35.9165 33.97ZM35.6317 28.3751C35.8357 28.197 35.9973 27.9757 36.1047 27.7272C36.2121 27.4788 36.2626 27.2096 36.2526 26.9391C36.2633 26.6633 36.2141 26.3885 36.1086 26.1334C36.003 25.8783 35.8435 25.649 35.6411 25.4611C35.197 25.0657 34.6155 24.8598 34.0212 24.8877C33.4256 24.86 32.8427 25.0658 32.3968 25.4611C32.195 25.6495 32.036 25.879 31.9305 26.1339C31.825 26.3889 31.7755 26.6634 31.7852 26.9391C31.7752 27.2096 31.8258 27.4788 31.9332 27.7272C32.0406 27.9757 32.2021 28.197 32.4061 28.3751C32.8586 28.7499 33.4339 28.9442 34.0212 28.9206C34.6053 28.9474 35.1787 28.7582 35.6317 28.3891V28.3751Z" />
<path d="M26.3184 58.0014H26.0057C23.021 57.9151 20.0815 57.25 17.351 56.0432C12.0958 53.7926 7.6073 50.0676 4.42972 45.3197C2.50031 42.4835 1.16202 39.2885 0.494521 35.925C-0.849889 28.9315 0.559889 21.7467 4.56511 15.1635C7.51544 10.253 11.8333 6.30654 16.9916 3.8059C19.7488 2.55909 22.6357 1.62091 25.5995 1.00847C29.1392 0.148717 32.7937 -0.140888 36.4248 0.150598C37.4798 0.249442 38.5275 0.414505 39.5618 0.644809C45.6303 1.98757 50.6672 5.69883 53.0712 10.571C54.4063 13.2752 54.9385 16.2545 55.4286 19.1311C55.5593 19.8631 55.6854 20.5905 55.8254 21.3178C56.1895 23.1828 56.6563 25.0804 57.1091 26.9127L57.3565 27.9197C57.4872 28.4419 57.6226 28.9688 57.758 29.4956C58.1548 31.0482 58.5656 32.6521 58.8223 34.2606C59.1891 36.9964 58.9224 39.7798 58.0428 42.3964C57.2232 45.1186 55.6347 47.5469 53.468 49.39C51.6334 50.8959 49.4721 51.7911 47.3995 52.6537C46.844 52.8821 46.2885 53.1199 45.7377 53.353C42.8941 54.6565 39.9576 55.7474 36.9523 56.6167C34.261 57.3456 31.5015 57.7956 28.7178 57.9594C27.9102 57.9781 27.1073 58.0014 26.3184 58.0014ZM33.7453 1.86635C31.1431 1.88435 28.5513 2.19717 26.0196 2.79883C23.1897 3.38333 20.4328 4.27769 17.7991 5.46571C12.9683 7.809 8.92471 11.5058 6.16159 16.1053C2.34776 22.3808 1.05469 28.9221 2.32908 35.552C2.94964 38.6708 4.19273 41.6328 5.9842 44.2614C8.95563 48.7065 13.1559 52.1939 18.0746 54.2995C20.5754 55.4205 23.2708 56.0444 26.0103 56.1365C26.8646 56.1365 27.7282 56.1365 28.5778 56.0712C31.2339 55.9161 33.8668 55.4865 36.4342 54.789C39.3494 53.9498 42.1985 52.8963 44.9581 51.6373C45.5183 51.3902 46.0878 51.171 46.6573 50.9193C48.7112 50.0707 50.6532 49.2688 52.259 47.9353C54.1535 46.3178 55.5382 44.1866 56.2455 41.7996C57.0334 39.4592 57.2777 36.9704 56.9598 34.5217C56.717 33.0017 56.3156 31.4352 55.9281 29.9246C55.7927 29.393 55.6574 28.8615 55.5267 28.33L55.2792 27.3276C54.8124 25.4627 54.3456 23.5604 53.9768 21.6442C53.8321 20.9075 53.7014 20.1662 53.5707 19.4249C53.0712 16.5482 52.5951 13.83 51.3767 11.3683C49.2201 6.99497 44.6453 3.6567 39.1416 2.43516C38.1806 2.22323 37.208 2.06756 36.2288 1.96892C35.4352 1.90365 34.5996 1.86635 33.7453 1.86635Z" />
</g>
<defs>
<clipPath id="clip48">
<rect width="59" height="58" fill="white"/>
</clipPath>
</defs>
</svg>
