<svg width="41" height="41" viewBox="0 0 41 41" fill="none" xmlns="http://www.w3.org/2000/svg">
<g clip-path="url(#clip34)">
<path d="M13.384 26.6296C12.8399 26.5479 12.3088 26.3939 11.8047 26.1717V24.7978C12.8316 25.2643 13.9462 25.5017 15.0723 25.4939C15.8559 25.5514 16.6374 25.3574 17.3052 24.9398C17.5443 24.7567 17.7353 24.5175 17.8619 24.243C17.9884 23.9684 18.0466 23.6669 18.0314 23.3645C18.056 23.0676 17.9987 22.7696 17.8657 22.5037C17.7327 22.2377 17.5293 22.0142 17.278 21.8578C16.5735 21.5099 15.7917 21.3521 15.0088 21.3999H13.6473V20.026H14.9543C15.6486 20.0577 16.3368 19.8826 16.9331 19.5223C17.1748 19.364 17.3711 19.1446 17.5025 18.8858C17.6339 18.6271 17.6958 18.3381 17.6819 18.0477C17.7004 17.7732 17.6536 17.4983 17.5455 17.2458C17.4373 16.9933 17.2709 16.7705 17.0602 16.596C16.5281 16.2283 15.888 16.0539 15.2448 16.1014C14.6883 16.093 14.1334 16.1655 13.5974 16.3167C13.0604 16.479 12.5487 16.7164 12.077 17.0219V15.648C13.101 15.0428 14.2716 14.7368 15.4581 14.7642C16.7289 14.7642 17.7001 15.0527 18.3627 15.6206C18.6968 15.9144 18.9603 16.2811 19.1333 16.6928C19.3063 17.1046 19.3842 17.5507 19.3611 17.9973C19.3724 18.5751 19.2007 19.1414 18.871 19.6139C18.4945 20.1077 17.9835 20.48 17.4006 20.6855C18.0553 20.8116 18.6531 21.1453 19.107 21.638C19.5155 22.1255 19.7291 22.7493 19.706 23.3874C19.7266 23.8552 19.6417 24.3216 19.4578 24.7516C19.2738 25.1815 18.9956 25.5637 18.6441 25.8694C17.9361 26.4785 16.8287 26.7853 15.2766 26.7853C14.6425 26.7878 14.0094 26.7357 13.384 26.6296Z" />
<path d="M26.4134 23.7033H20.8584V22.6317L26.3952 15.0161H28.0926V22.3844H29.858V23.7033H28.0926V26.5426H26.4134V23.7033ZM26.6086 22.3844V17.0264L22.7191 22.3844H26.6086Z" />
<path d="M21.1493 41.0048C20.5087 41.0059 19.8689 40.9631 19.2341 40.8766C15.4445 40.3729 12.1587 38.4266 9.70341 36.7871C7.66566 35.4133 5.41006 33.6914 4.09845 31.2322C3.37647 29.737 2.85746 28.1504 2.55541 26.5154C2.41472 25.9063 2.26495 25.2743 2.10157 24.6836C1.88373 23.8959 1.61141 23.0991 1.34818 22.3206C0.830716 20.9073 0.434427 19.4518 0.16366 17.9701C-0.120618 16.014 -0.00771592 14.0201 0.495509 12.1094C0.998734 10.1987 1.88178 8.41128 3.09094 6.8557C6.72167 2.12511 12.313 -0.292853 18.8891 0.0414482C26.3321 0.421544 33.7661 4.66213 37.8234 10.8444C41.1773 15.9643 41.908 21.881 39.8566 27.5137C38.4148 31.2496 35.9303 34.4836 32.7041 36.8237C29.1233 39.5302 24.9888 41.0048 21.1493 41.0048ZM17.7273 1.83202C12.2404 1.83202 7.58851 3.98437 4.56592 7.96393C3.5153 9.32626 2.74623 10.8874 2.30423 12.555C1.86222 14.2226 1.75628 15.9627 1.99265 17.6724C2.25227 19.0504 2.62883 20.4032 3.11817 21.7161C3.39047 22.5129 3.67185 23.3418 3.90331 24.1798C4.0803 24.821 4.23007 25.4713 4.35715 26.1032C4.62396 27.5784 5.08172 29.0119 5.71867 30.3667C6.83966 32.4687 8.89556 34.0303 10.7109 35.2622C14.092 37.5519 16.7879 38.7059 19.461 39.0631C23.3686 39.5852 27.7935 38.2342 31.6058 35.3583C34.5562 33.2295 36.8299 30.2814 38.1502 26.8726C39.06 24.4024 39.3671 21.7475 39.0456 19.1323C38.7241 16.517 37.7834 14.0183 36.303 11.8473C32.5543 6.13214 25.6831 2.23044 18.7938 1.8595C18.4308 1.84118 18.0677 1.83202 17.7273 1.83202Z" />
</g>
<defs>
<clipPath id="clip34">
<rect width="41" height="41" fill="white"/>
</clipPath>
</defs>
</svg>
