<svg width="48" height="39" viewBox="0 0 48 39" fill="none" xmlns="http://www.w3.org/2000/svg">
<g clip-path="url(#clip25)">
<path d="M16.1289 24.3817L18.6061 22.009C18.8247 21.7908 19.1298 21.5045 19.5168 21.1545C20.1361 20.5908 20.6143 20.1317 20.9421 19.7908C21.2591 19.4547 21.5287 19.0769 21.7436 18.6681C21.9529 18.2733 22.0609 17.8329 22.0578 17.3863C22.0765 17.1013 22.0332 16.8157 21.9311 16.5489C21.8289 16.2822 21.6702 16.0406 21.4658 15.8408C20.979 15.4546 20.3647 15.2648 19.7445 15.309C19.2059 15.3123 18.6718 15.406 18.1644 15.5863C17.6178 15.7752 17.1057 16.0515 16.648 16.4045V14.7999C17.631 14.1138 18.8097 13.763 20.0086 13.7999C21.0078 13.7433 21.9892 14.0813 22.7408 14.7408C23.0752 15.0758 23.3355 15.477 23.5049 15.9185C23.6743 16.3601 23.7491 16.8323 23.7244 17.3045C23.7256 17.8243 23.6121 18.3379 23.392 18.809C23.1435 19.3207 22.8264 19.7963 22.4494 20.2227C22.0441 20.6772 21.4976 21.2545 20.81 21.9181L18.5788 24.0954H24.1524V25.4863H16.1289V24.3817Z" />
<path d="M27.0988 25.5317C26.595 25.4321 26.1086 25.259 25.6553 25.0181V23.5272C26.1293 23.8127 26.6435 24.0256 27.1808 24.159C27.7097 24.3007 28.2543 24.3755 28.8019 24.3817C29.6111 24.4401 30.4157 24.2168 31.0787 23.7499C31.3413 23.5197 31.5473 23.2324 31.6807 22.91C31.8142 22.5876 31.8715 22.2389 31.8483 21.8908C31.8695 21.5612 31.8168 21.2309 31.6939 20.9242C31.571 20.6175 31.3811 20.3421 31.1379 20.1181C30.5252 19.6665 29.7708 19.4488 29.0113 19.5044C28.5974 19.5056 28.1844 19.5436 27.7773 19.6181C27.3831 19.6856 26.9959 19.789 26.6206 19.9272L25.883 19.5044L26.3064 14.0499H32.718V15.459H27.8319L27.586 18.4044C28.266 18.2626 28.9587 18.191 29.6534 18.1908C30.1722 18.1618 30.6916 18.2365 31.1811 18.4106C31.6706 18.5847 32.1204 18.8545 32.504 19.2044C32.852 19.56 33.1233 19.9831 33.3011 20.4475C33.4789 20.9119 33.5594 21.4078 33.5376 21.9044C33.5714 22.4352 33.484 22.9666 33.282 23.4587C33.0801 23.9508 32.7689 24.3907 32.3719 24.7454C31.5978 25.406 30.429 25.7363 28.8656 25.7363C28.2709 25.734 27.6783 25.6653 27.0988 25.5317Z" />
<path d="M16.9536 38.9948C15.8092 39 14.6656 38.9347 13.5292 38.7994C8.31531 38.1675 4.02578 35.6175 1.75807 31.863C-0.350273 28.3539 -0.568837 24.0039 1.14333 19.613C2.2863 16.6675 4.26258 13.7494 7.17236 10.6903C11.1614 6.49936 17.6457 1.27664 25.9698 0.176636C33.8385 -0.859728 41.8074 2.6221 45.3547 8.64937C47.117 11.6403 47.9822 15.3312 48.0004 19.9312C48.0004 20.3857 48.0004 20.8403 48.0004 21.2948C47.9275 23.7994 47.6315 27.0312 46.0149 29.7948C43.9385 33.3448 40.2956 35.1766 37.6089 36.0903C34.6764 37.0857 31.589 37.4766 28.6018 37.8539L27.5089 37.9948L25.9334 38.2039C22.9612 38.668 19.9612 38.9323 16.9536 38.9948ZM28.7931 1.813C27.9372 1.81242 27.0823 1.86861 26.2339 1.98118C18.4517 3.00845 12.3043 7.963 8.51567 11.9403C5.78348 14.8266 3.92104 17.5494 2.86004 20.2721C1.33912 24.1812 1.49395 27.8675 3.34273 30.9266C5.31901 34.2221 9.11676 36.4312 13.7706 36.9948C17.6958 37.4494 21.7622 36.9221 25.6966 36.3994L27.2813 36.1857L28.3787 36.0448C31.2748 35.6812 34.2711 35.2994 37.0306 34.363C40.414 33.213 43.0505 31.263 44.4485 28.8721C45.8465 26.4812 46.1197 23.5266 46.188 21.2357C46.188 20.8039 46.188 20.3721 46.188 19.9357C46.188 15.6675 45.3865 12.2766 43.7928 9.56755C40.9786 4.80391 35.0407 1.813 28.7931 1.813Z" />
</g>
<defs>
<clipPath id="clip25">
<rect width="48" height="39" fill="white"/>
</clipPath>
</defs>
</svg>
