<svg width="54" height="59" viewBox="0 0 54 59" fill="none" xmlns="http://www.w3.org/2000/svg">
<g clip-path="url(#clip17)">
<path d="M22.3113 26.2816L19.7773 28.1389V26.4896L22.5442 24.4101H24.0208V36.3056H22.3113V26.2816Z"/>
<path d="M31.9213 25.8893H25.6982V24.4242H33.6634V25.7002L28.9542 36.3196H27.2773L31.9213 25.8893Z"/>
<path d="M32.3346 59.0002C30.128 58.9766 27.9479 58.5091 25.9205 57.625L25.4268 57.417C20.2238 55.2099 14.3268 52.691 9.46388 49.482C6.22658 47.3363 -1.15632 41.5139 0.147912 33.8199C0.404828 32.4713 0.745542 31.1407 1.16801 29.8358C1.55084 28.6398 1.86194 27.4214 2.09961 26.1873C2.39808 24.0178 2.48389 21.8236 2.35579 19.637C2.26729 16.1917 2.1788 12.6235 3.70196 9.40508C6.44551 3.61566 13.1344 0.784762 18.0253 0.123115C23.3773 -0.59997 28.3893 2.01354 33.0053 4.92478C34.44 5.83218 35.9631 6.72541 37.4397 7.58555C40.5466 9.40035 43.7606 11.2766 46.5647 13.5498C51.805 17.8033 53.0859 23.4745 53.6914 28.4747C53.8639 29.829 53.9557 31.1925 53.9663 32.558C53.9663 35.8899 53.3095 38.5223 51.9307 40.5923C50.962 41.9283 49.8198 43.1254 48.535 44.151C47.8348 44.7364 47.1648 45.3579 46.5275 46.0131C45.2838 47.3316 44.7295 48.7589 44.0913 50.413C43.8212 51.103 43.5417 51.8308 43.197 52.5681C42.5249 53.9464 41.5812 55.1701 40.4243 56.1635C39.2673 57.1569 37.9218 57.8988 36.4709 58.3433C35.1333 58.7754 33.7383 58.9969 32.3346 59.0002ZM19.9024 1.89066C19.3665 1.88944 18.8311 1.92576 18.3001 1.99936C13.5163 2.64683 7.67521 5.43992 5.41143 10.2274C4.07925 13.0347 4.16309 16.2153 4.24693 19.5897C4.38098 21.9031 4.28423 24.2244 3.95814 26.5181C3.70247 27.8294 3.36804 29.1236 2.95669 30.3935C2.55412 31.6201 2.23048 32.872 1.98782 34.1412C0.869905 40.7293 7.5774 45.9563 10.484 47.8987C15.2025 51.0321 20.7688 53.3904 26.1488 55.6731L26.6146 55.881C28.8597 56.8263 32.2927 57.7195 35.9305 56.5521C37.1316 56.1792 38.2459 55.5636 39.2065 54.7425C40.167 53.9214 40.954 52.9117 41.5201 51.7741C41.8415 51.0841 42.107 50.3941 42.3679 49.7277C43.0479 47.9696 43.6954 46.3061 45.1627 44.7181C45.8474 43.995 46.588 43.3476 47.3053 42.7237C48.4629 41.8078 49.4938 40.738 50.3703 39.5431C51.5348 37.7897 52.0984 35.507 52.0891 32.5627C52.0783 31.27 51.9912 29.979 51.8282 28.6968C51.0643 22.1512 49.1359 18.0632 45.3862 15.0243C42.6939 12.8456 39.5452 11.0025 36.4988 9.22549C35.0083 8.3559 33.4665 7.45322 32.0039 6.53164C28.4545 4.25369 24.3135 1.89066 19.9024 1.89066Z"/>
</g>
<defs>
<clipPath id="clip17">
<rect width="54" height="59" fill="white"/>
</clipPath>
</defs>
</svg>
