<svg width="46" height="43" viewBox="0 0 46 43" fill="none" xmlns="http://www.w3.org/2000/svg">
<g clip-path="url(#clip21)">
<path d="M15.3057 25.6186L17.8333 23.2151C18.0567 22.9941 18.3733 22.704 18.7643 22.3495C19.4036 21.7786 19.8892 21.3181 20.2213 20.9682C20.5468 20.6278 20.824 20.2452 21.0452 19.8309C21.2556 19.4299 21.3642 18.9843 21.3617 18.5325C21.3821 18.2437 21.3385 17.954 21.234 17.6836C21.1295 17.4132 20.9665 17.1687 20.7566 16.967C20.259 16.5757 19.6311 16.3835 18.997 16.4283C18.4466 16.4324 17.9006 16.5273 17.3818 16.7092C16.8231 16.9005 16.2996 17.1804 15.8317 17.538V15.9126C16.8372 15.2191 18.0417 14.8639 19.267 14.8997C20.2961 14.8372 21.3085 15.1798 22.0832 15.8528C22.4251 16.192 22.6912 16.5984 22.8644 17.0457C23.0375 17.493 23.114 17.9713 23.0887 18.4496C23.0883 18.9765 22.9707 19.4968 22.7442 19.9737C22.4936 20.4939 22.1691 20.9761 21.7807 21.4056C21.3664 21.866 20.8078 22.4508 20.1049 23.123L17.824 25.3285H23.5216V26.7374H15.3057V25.6186Z" />
<path d="M27.5713 16.9625L25.0391 18.772V17.1651L27.8041 15.1392H29.2797V26.7283H27.5713V16.9625Z" />
<path d="M22.7996 42.9816C19.8314 42.9782 16.9471 42.0072 14.593 40.2189C7.54541 34.9746 0.274419 23.9518 0.00908822 13.0533C-0.101096 10.0102 0.441459 6.97847 1.60107 4.15769C3.16978 0.446588 6.88907 -0.815001 12.07 0.598534C18.8662 2.44027 25.6903 3.26446 30.8759 3.76173L32.0722 3.87223C33.9298 3.99673 35.7762 4.2506 37.5976 4.63195C43.8166 6.08692 46.6747 10.2354 45.8648 16.6309C44.4078 28.1049 38.9662 36.3927 29.6796 41.2595C27.5627 42.3803 25.2007 42.9716 22.7996 42.9816ZM8.27623 1.84632C6.22806 1.84632 4.28231 2.55538 3.31874 4.83453C2.25618 7.4157 1.75652 10.1897 1.85244 12.975C2.10846 23.3072 9.01171 33.7544 15.6962 38.7317C19.6296 41.6601 24.2799 41.9548 28.7952 39.5974C37.5092 35.0298 42.6296 27.2163 44.0028 16.3684C44.6964 10.8939 42.4527 7.62016 37.1554 6.3908C35.4235 6.03766 33.6691 5.80229 31.9047 5.68634C31.4997 5.65411 31.0993 5.61727 30.699 5.57583C25.439 5.06935 18.5078 4.24518 11.5766 2.35279C10.5036 2.04187 9.39401 1.87159 8.27623 1.84632Z" />
</g>
<defs>
<clipPath id="clip21">
<rect width="46" height="43" fill="white"/>
</clipPath>
</defs>
</svg>
