<svg width="445" height="165" viewBox="0 0 445 165" fill="none" xmlns="http://www.w3.org/2000/svg">
<g clip-path="url(#clip0)">
<path d="M154.276 8.99687C158.353 3.16745 163.924 0.709531 170.843 0.0927342C177.761 -0.524062 183.472 2.01733 189.318 5.24044C190.799 1.30778 194.137 0.380273 197.675 0.306072C204.867 0.15767 212.069 0.0834658 219.256 0.389545C221.448 0.482297 223.579 1.9153 226.142 2.88919C228.185 0.3478 231.714 0.166935 235.326 0.208673C241.362 0.278237 247.398 0.148382 253.434 0.292146C257.019 0.38026 260.399 1.21967 261.964 5.22652C267.772 1.95704 273.595 -0.519421 280.499 0.125201C287.403 0.769822 292.989 3.18136 296.88 8.93658C302.157 4.81995 308.296 1.94592 314.839 0.528667C318.048 -0.153056 320.471 0.667794 322.268 3.31121C324.065 5.95462 325.871 8.67687 327.729 11.413C330.844 9.09425 333.82 6.81257 336.871 4.63292C340.502 2.0266 343.636 0.5565 348.195 4.84161C349.286 5.87115 350.187 5.94535 351.59 4.94364C353.533 3.55651 355.74 2.58303 358.076 2.08363C360.411 1.58423 362.825 1.56956 365.166 2.04052C367.46 2.50427 368.848 4.2851 371.104 4.65147C373.361 5.01784 375.701 4.04394 377.958 3.83061C379.922 3.64975 381.918 3.83061 383.896 3.78888C384.88 3.75017 385.86 3.64637 386.831 3.47817C389.812 3.01441 394.004 2.42543 397.166 3.70076C400.621 5.09203 401.053 7.41082 405.185 5.29146C416.82 -0.639991 431.771 3.186 439.572 12.8507C443.435 17.632 444.99 23.3687 444.995 29.4717C444.995 60.3115 444.93 91.1514 444.995 121.991C444.995 124.454 444.164 125.511 442 126.35C427.495 131.999 413.036 137.759 398.555 143.468C385.142 148.773 371.725 154.054 358.303 159.31C355.861 160.27 353.335 161.063 351.004 162.241C346.361 164.559 341.505 164.968 336.402 164.958C262.351 164.884 188.299 164.9 114.248 165.005C107.933 165.031 101.675 163.818 95.8286 161.434C85.4698 157.292 74.9671 153.503 64.534 149.548C44.7761 142.047 25.0243 134.537 5.2787 127.018C0.092354 125.043 0.115572 124.982 0.115572 119.51C0.115572 92.2273 0.310582 64.9398 -0.000505934 37.657C-0.0933681 29.3094 2.4882 22.1536 6.70414 15.2669C9.43893 10.7916 13.0791 7.38299 17.894 5.28217C26.0659 1.70661 34.1449 2.56457 42.0939 5.98709C43.7143 6.68736 44.7637 6.87286 46.1195 5.4584C49.04 2.4208 53.1352 2.54601 56.7986 2.75934C61.4417 3.03759 66.0848 3.11643 70.7279 3.03295C71.8655 3.03295 73.0077 3.36685 74.1499 3.49671C77.2561 3.83525 80.1024 4.62364 83.4361 2.99121C88.9428 0.287512 94.6353 1.56284 99.6406 4.96218C101.075 5.94071 101.874 5.74129 103.049 4.84624C107.692 1.27995 109.609 1.25213 114.406 4.69321C117.447 6.8775 120.442 9.14527 123.576 11.4733C125.011 9.27048 126.473 7.13256 127.829 4.93435C131.367 -0.783765 133.721 -0.338554 138.763 1.01098C144.455 2.51216 149.749 5.23772 154.276 8.99687ZM359.223 36.3168C357.899 40.9543 356.859 45.207 355.457 49.3252C354.737 51.4306 353.976 54.023 351.186 54.3013C348.544 54.5702 347.16 52.4462 345.614 50.6886C342.401 47.0388 339.197 43.3798 335.831 39.8738C334.698 38.6912 333.091 37.9631 331.698 37.0263L331.132 37.555C331.132 40.0176 331.188 42.4801 331.132 44.9427C331.11 48.3483 330.215 51.6916 328.532 54.6537C327.004 57.26 324.752 58.5446 322.031 58.0994C318.939 57.5939 315.995 56.5783 313.929 54.074C311.324 50.9298 308.896 47.6417 306.287 44.5021C303.557 41.2187 300.715 38.0095 297.711 34.587C297.247 35.3893 296.931 35.7417 296.843 36.1452C295.204 43.6627 290.342 48.7733 284.241 52.9146C283.494 53.4277 282.648 53.7791 281.757 53.9463C280.866 54.1134 279.95 54.0926 279.068 53.8851C278.186 53.6777 277.357 53.2882 276.634 52.7417C275.911 52.1952 275.311 51.5038 274.871 50.7118C272.007 45.7579 268.406 41.2671 264.192 37.3927C263.482 36.8057 262.738 36.2606 261.964 35.7603C261.652 36.224 261.462 36.4559 261.327 36.7202C261.096 37.1237 260.907 37.5494 260.761 37.9909C259.173 43.672 255.524 47.8782 251.011 51.3981C246.326 55.0386 240.452 54.1343 237.016 49.3205C235.001 46.5009 233.023 43.6519 231.082 40.7735C229.248 38.0373 227.498 35.2455 225.617 32.3331C225.241 32.9499 224.953 33.4693 224.619 33.9609C220.979 39.3126 217.464 44.7571 213.643 49.9744C212.431 51.712 210.624 52.9466 208.564 53.4456C206.504 53.9445 204.332 53.6732 202.458 52.6828C197.762 50.2425 194.041 46.2753 191.908 41.4367C191.031 39.526 190.283 37.5597 189.475 35.6165L188.621 35.1528C187.019 37.0078 185.343 38.8303 183.843 40.7735C181.211 44.1867 178.657 47.6649 176.136 51.157C174.316 53.6705 170.258 55.1963 167.987 53.4433C164.361 50.6608 160.776 47.6046 157.93 44.0569C155.883 41.5016 155.061 37.9585 153.691 34.8467C153.518 34.8945 153.359 34.9818 153.227 35.1017C148.955 40.2633 144.665 45.4064 140.44 50.6051C137.575 54.1343 134.529 57.3342 129.714 58.0577C127.434 58.4009 125.071 58.2154 123.91 56.1609C122.368 53.5399 121.237 50.698 120.558 47.7345C119.875 44.4047 120.033 40.908 119.815 37.286C116.565 38.2135 114.564 40.4489 112.59 42.6888C109.828 45.8052 107.181 49.033 104.339 52.0752C100.927 55.7296 97.9737 55.136 96.279 50.3918C94.7096 45.9907 93.4327 41.4877 91.8959 36.6275C90.5029 37.4483 88.9104 38.1672 87.5824 39.2338C85.1773 41.1584 82.9393 43.2963 80.6178 45.3322C78.7187 46.9971 76.5597 48.6063 74.0153 47.3959C71.3641 46.1391 71.6426 43.3241 71.6287 40.8477C71.6287 38.195 71.6287 35.5377 71.6287 32.3841C69.9293 33.3116 68.736 33.9702 67.5196 34.587C64.5062 36.1266 61.5067 37.6988 58.4469 39.1364C56.5433 40.0315 54.9832 39.3915 53.9338 37.5782C53.421 36.8121 52.99 35.9946 52.6477 35.1388C51.8398 32.6253 51.148 30.0746 50.3261 27.255C49.0446 28.1315 48.0324 28.9384 46.9134 29.5737C44.4433 30.965 42.3725 30.4734 41.4717 27.8208C39.517 22.0609 39.0155 16.1758 41.8478 10.5133C42.535 9.14526 42.3864 8.60731 41.0956 8.09254C33.2581 4.96682 25.2626 4.0254 17.6526 8.20385C7.8742 13.5695 3.97399 22.9652 2.61356 33.3719C1.88923 38.937 2.64142 44.6459 2.41855 50.2805C2.30711 53.063 3.24966 55.1639 4.87011 57.2368C12.1923 66.5584 20.067 75.3929 29.5343 82.5487C34.8521 86.4927 40.5004 89.9714 46.4166 92.9461C53.6227 96.6562 61.5996 97.9732 69.6322 98.6828C81.2399 99.7077 92.7548 99.1465 104.084 96.1043C105.037 95.8068 106.053 95.7731 107.023 96.0069C114.791 98.5112 122.415 101.53 130.294 103.585C138.174 105.639 146.22 107.527 154.285 108.065C162.223 108.579 170.193 108.111 178.016 106.673C192.015 104.099 205.819 100.491 219.711 97.3425C222.089 96.8046 224.666 95.6127 226.857 96.0811C239.584 98.7987 252.162 102.221 264.907 104.804C273.298 106.476 281.788 107.609 290.324 108.194C301.592 108.997 312.638 107.003 323.318 103.422C329.6 101.317 335.696 98.6549 341.89 96.3315C342.819 95.9791 344.082 95.775 344.992 96.0811C354.757 99.3075 365.01 100.814 375.293 100.533C388.119 100.332 400.591 96.2935 411.096 88.9392C423.739 80.2021 433.489 68.7241 441.401 55.6415C441.902 54.8693 442.196 53.9814 442.255 53.063C442.311 44.5763 442.46 36.0895 442.232 27.6074C441.991 18.4621 437.459 11.8629 429.269 7.84212C421.278 3.92337 413.213 3.96047 405.185 7.77719C403.792 8.43108 402.97 9.0989 403.792 11.1162C406.062 16.57 405.649 22.2464 404.131 27.8439C403.388 30.5894 401.182 31.1273 398.907 29.43C398.141 28.8549 397.384 28.266 396.688 27.7326C395.978 30.7842 395.499 33.6548 394.626 36.4002C393.633 39.5399 391.743 40.3422 388.809 39.0622C387.358 38.3546 385.961 37.5408 384.63 36.6275C383.102 35.6675 381.621 34.6426 379.522 33.256C379.522 36.5579 379.573 39.2245 379.522 41.8911C379.462 44.0754 379.332 46.4267 377.015 47.4562C374.698 48.4857 372.711 47.1316 370.979 45.6475C369.247 44.1635 367.729 42.5497 365.974 41.1723C363.782 39.4518 361.438 37.8982 359.223 36.3168ZM107.418 99.0909C107.367 99.8654 107.306 100.399 107.306 100.946C107.306 120.577 107.343 140.208 107.251 159.843C107.251 162.162 108.295 162.231 110.036 162.231C186.558 162.204 263.079 162.204 339.601 162.231C341.825 162.231 342.452 161.647 342.443 159.412C342.354 140.166 342.392 120.92 342.392 101.674V99.281C341.955 99.1604 341.788 99.0538 341.667 99.0909C341.152 99.2428 340.647 99.4255 340.154 99.6381C330.273 104.128 319.881 107.399 309.207 109.377C297.298 111.547 285.527 110.587 273.743 108.913C267.735 108.055 261.764 106.822 255.83 105.505C247.194 103.585 238.618 101.419 230.005 99.4016C228.255 98.9935 226.328 98.2097 224.703 98.5761C211.577 101.549 198.534 104.86 185.413 107.851C173.975 110.532 162.173 111.31 150.483 110.151C141.47 109.224 132.727 107.095 124.091 104.508C118.584 102.857 113.152 100.96 107.418 99.0909ZM104.395 98.7894C101.79 99.3274 99.3573 99.9906 96.8826 100.315C88.2325 101.451 79.5824 102.226 70.8162 101.363C61.3907 100.436 52.2437 98.5807 43.6586 94.4765C32.8913 89.3474 23.9022 81.8623 15.7118 73.3895C11.338 68.8586 7.26131 64.0401 2.76678 59.0408C2.63665 59.824 2.54831 60.6135 2.50213 61.406C2.50213 81.1899 2.52534 100.974 2.45105 120.767C2.45105 122.863 3.31931 123.837 5.12548 124.477C8.96533 125.831 12.782 127.259 16.594 128.688C26.0999 132.268 35.5997 135.861 45.0933 139.466C61.4588 145.661 77.8211 151.865 94.1803 158.076C97.4583 159.319 100.755 160.515 104.395 161.856V98.7894ZM345.196 161.666C346.255 161.336 346.993 161.155 347.694 160.877C352.704 158.883 357.686 156.833 362.705 154.848C375.042 150.007 387.397 145.23 399.729 140.379C413.157 135.102 426.557 129.754 439.99 124.482C441.601 123.846 442.367 123.053 442.358 121.124C442.274 101.335 442.307 81.5469 442.297 61.7631C442.297 61.1324 442.2 60.5063 442.107 59.4443C441.499 60.2559 441.178 60.6594 440.876 61.0907C435.175 69.582 428.674 77.3871 421.004 84.1904C415.544 89.032 409.661 93.2939 403.058 96.3779C386.742 103.997 369.804 104.906 352.448 100.552C350.127 99.9674 347.74 99.4665 345.187 98.8822L345.196 161.666ZM191.374 20.2986C191.351 24.0087 191.402 27.7187 191.43 31.4288C191.425 32.1941 191.522 32.9566 191.718 33.6966C193.455 39.6419 196.143 44.9241 201.204 48.8892C205.03 51.8851 209.394 51.7042 212.264 47.753C215.133 43.8018 217.938 39.8692 220.501 35.7556C222.065 33.2421 223.988 30.4874 224.215 27.7095C224.763 21.2725 224.466 14.7521 224.354 8.26877C224.294 4.88798 222.585 3.16745 219.159 3.04223C212.761 2.77789 206.358 2.6063 199.955 2.57848C197.947 2.59616 195.958 2.95691 194.072 3.64511C193.143 3.97438 192.029 5.26826 191.946 6.21433C191.528 10.94 191.398 15.6147 191.374 20.2986ZM259.753 20.3218H259.726C259.726 16.148 259.753 11.9742 259.726 7.80037C259.726 5.94534 259.196 4.14133 257.163 3.59873C255.169 2.99571 253.106 2.6543 251.024 2.58311C244.854 2.58311 238.678 2.77325 232.508 3.04686C228.473 3.20918 227.252 4.63291 227.238 8.76035C227.215 14.9422 227.196 21.1195 227.266 27.3106C227.221 28.4592 227.479 29.5993 228.013 30.6172C231.561 36.2889 235.317 41.8308 238.864 47.5072C241.432 51.6161 247.134 51.9593 250.839 48.4347C256.819 42.7444 260.125 36.1081 259.786 27.7605C259.665 25.284 259.753 22.7936 259.753 20.3218ZM188.756 20.6464V15.5451C188.756 7.66125 188.811 7.52676 181.587 4.28974C174.093 0.932142 166.822 1.91066 160.089 6.38592C157.206 8.30123 155.562 11.1348 155.72 14.8309C155.924 19.6076 156.026 24.3843 156.082 29.161C156.184 38.3898 160.414 45.3322 167.82 50.5216C169.882 51.9639 173.053 51.4862 174.2 49.4782C177.645 43.5337 182.072 38.2137 187.293 33.7429C188.124 33.0148 188.626 31.5308 188.686 30.3621C188.9 27.139 188.756 23.8927 188.756 20.6464ZM262.535 20.5444C262.535 23.8649 262.423 27.19 262.595 30.5013C262.655 31.6096 263.134 33.0427 263.932 33.7105C269.094 38.0192 273.47 43.1875 276.868 48.9866C278.177 51.1987 280.935 52.0984 283.002 50.7257C289.822 46.1855 294.396 40.0871 294.967 31.6792C295.352 26.0678 295.222 20.4238 295.464 14.8031C295.612 11.3017 294.071 8.73717 291.494 6.63635C288.197 3.95583 284.274 3.07006 280.169 2.49036C274.514 1.69734 269.764 4.07177 265.019 6.47403C264.205 6.85418 263.527 7.47464 263.077 8.25168C262.627 9.02873 262.426 9.92496 262.502 10.8194C262.618 14.0657 262.535 17.312 262.535 20.5537V20.5444ZM122.694 33.2931H122.731C122.731 37.5411 122.443 41.8123 122.838 46.0232C123.088 48.6898 124.175 51.3471 125.284 53.8329C125.651 54.663 127.221 55.3447 128.284 55.4143C132.76 55.7203 135.416 52.7477 137.951 49.6452C142.043 44.6459 146.151 39.6574 150.274 34.6797C151.982 32.616 153.185 30.4642 153.06 27.5796C152.86 23.0348 152.902 18.4714 153.036 13.922C153.101 11.7098 152.266 10.1655 150.436 9.16846C147.65 7.65197 144.888 6.1123 141.995 4.86479C140.04 4.02076 137.9 3.58483 135.806 3.11179C133.484 2.58311 131.627 3.24165 130.327 5.43058C128.734 8.15747 126.984 10.7916 125.331 13.4814C123.474 16.4958 122.448 19.7004 122.652 23.3269C122.842 26.6474 122.694 29.9772 122.694 33.2931ZM328.434 33.2931C328.527 29.2723 328.546 25.2562 328.365 21.2354C328.339 19.3923 327.912 17.5769 327.111 15.9161C325.142 12.2663 322.774 8.82991 320.611 5.28217C319.394 3.28802 317.704 2.84281 315.466 3.13962C309.969 3.87235 305.326 6.59461 300.673 9.27048C298.927 10.2722 298.068 11.8443 298.161 14.0889C298.342 18.6384 298.361 23.2064 298.138 27.7512C297.989 30.8815 299.61 33.0009 301.43 35.111C303.584 37.6107 305.878 39.9897 307.991 42.5311C310.902 46.0186 313.446 49.8446 316.608 53.0769C320.434 56.9864 325.217 56.1841 327.241 51.6857C327.701 50.7081 327.96 49.6484 328.003 48.5692C328.086 43.454 328.318 38.3712 328.434 33.2884V33.2931ZM94.5889 28.368C94.7514 35.248 95.9119 42.0682 98.0341 48.6156C99.9284 54.445 103.857 48.3884 106.289 45.949L115.859 36.3724C117.136 35.0971 118.441 33.78 119.197 32.143C121.324 27.5518 118.631 21.8522 120.59 17.1868C121.055 16.0552 121.816 14.8356 121.361 13.6947C121.06 13.1095 120.608 12.6149 120.052 12.2617L112.386 6.4091C111.225 5.52332 109.93 4.59582 108.472 4.67929C107.079 4.75813 105.946 5.72738 104.915 6.65026C101.173 9.99395 97.2865 13.5463 95.6289 18.2813C94.756 20.7948 94.5796 23.4939 94.5564 26.1651C94.5657 26.8932 94.5703 27.6306 94.5889 28.368ZM356.567 28.4422C356.33 25.0753 356.688 21.5276 355.736 18.374C353.967 12.5353 349.454 8.5934 344.462 5.38884C343.492 4.76741 341.416 4.83697 340.409 5.47231C337.033 7.6056 333.909 10.1609 330.682 12.5029C329.539 13.3284 329.6 14.2837 329.864 15.5173C330.473 18.1037 330.916 20.7261 331.192 23.3687C331.416 25.9919 331.416 28.6293 331.192 31.2525C331.025 33.2699 331.893 34.2577 333.472 35.2594C335.649 36.568 337.667 38.1242 339.485 39.897C342.605 43.0876 345.414 46.589 348.428 49.8956C349.101 50.6376 350.164 51.6764 350.879 51.5604C351.594 51.4445 352.351 50.1692 352.736 49.2417C355.383 42.545 357.036 35.7 356.567 28.4422ZM352.077 8.07862C352.625 8.7047 353.061 9.23339 353.526 9.73888C356.107 12.5214 358.549 15.4385 358.768 19.4778C358.944 22.7009 359.265 25.9704 359.028 29.161C358.907 30.863 359.028 32.718 360.212 34.049C361.684 35.6675 364.126 36.2797 365.816 37.7034C368.323 39.8181 370.682 42.0998 373.245 44.196C374.015 44.7919 374.989 45.0617 375.957 44.9473C376.37 44.8777 376.788 43.4494 376.792 42.6285C376.854 35.1528 376.854 27.677 376.792 20.2012C376.803 19.2779 376.562 18.3691 376.096 17.5717C373.983 14.3486 371.778 11.1904 369.535 8.05544C368.829 7.06764 368.049 6.00099 367.046 5.37956C363.383 3.10715 355.123 4.59581 352.077 8.07862ZM99.2134 7.90239C95.5732 4.37321 91.3201 4.06249 86.9602 4.6561C85.4837 4.86015 83.7379 5.58361 82.7814 6.65953C80.5992 9.13135 78.8209 11.9603 76.9033 14.664C74.9982 17.2091 74.0676 20.351 74.2799 23.5217C74.4656 26.4295 74.0385 29.3697 74.0478 32.296C74.0478 36.0061 74.2149 39.6883 74.3588 43.3844C74.4378 45.3369 75.5939 45.4945 77.0658 44.7757C77.6051 44.4747 78.1043 44.107 78.5516 43.6812C82.605 40.2633 86.1106 36.1545 91.1483 33.9702C91.6591 33.7476 91.998 32.5789 92.0212 31.8554C92.1141 28.6091 91.9841 25.3628 92.0816 22.1165C92.1791 18.7636 92.8616 15.5405 95.016 12.8414C96.3068 11.2507 97.6812 9.70641 99.2134 7.90239ZM53.3488 28.0665C53.6877 29.3929 54.1753 32.0363 55.0482 34.5591C55.9211 37.082 56.9054 37.4205 59.3013 36.2286C62.1893 34.7725 64.873 32.834 67.8446 31.6467C71.1969 30.3158 72.0234 28.15 71.6426 24.8434C71.2015 21.0174 71.6426 17.3213 74.1824 14.1028C75.6032 12.2849 76.7826 10.2768 78.1244 8.39398C78.9184 7.28096 78.533 6.58533 77.3722 6.39519C74.7953 5.96389 72.1998 5.59752 69.595 5.36565C66.1452 5.05493 63.2525 6.3349 60.866 8.816C56.0557 13.806 53.5902 19.7653 53.3488 28.0665ZM372.521 7.41546C373.77 9.22411 374.666 10.62 375.664 11.9417C378.571 15.8048 380.6 19.9183 379.954 24.9687C379.779 26.3544 379.779 27.7567 379.954 29.1425C380.05 29.9308 380.431 30.6567 381.027 31.183C383.39 32.9128 385.828 34.5406 388.303 36.1035C390.694 37.6199 391.632 37.235 392.583 34.6194C394.441 29.5552 394.181 24.4863 392.653 19.4221C391.376 15.1695 389.542 11.209 386.269 8.06936C384.625 6.50186 382.675 5.59753 380.4 5.91289C377.999 6.24216 375.608 6.81721 372.521 7.4201V7.41546ZM59.6634 5.34246C58.0615 5.34246 56.4132 5.34246 54.7139 5.34246C48.7568 5.37956 44.5872 8.70471 42.9529 14.4646C42.066 17.581 41.7782 22.2047 43.0086 25.2469C44.9262 29.9772 50.6976 24.4307 51.3337 21.2679C51.7115 19.2359 52.3972 17.2733 53.3674 15.4477C55.2478 12.0623 57.4487 8.8531 59.6634 5.34246ZM388.186 6.07983C392.268 10.5644 394.84 15.5869 395.792 21.3142C396.256 24.0597 398.072 25.5437 400.031 27.0509C401.243 27.9784 401.93 27.4497 402.148 26.2115C402.942 21.6203 403.342 17.0106 401.786 12.4982C399.864 6.92387 393.405 3.76568 388.186 6.07519V6.07983Z"/>
<path d="M201.079 74.957C200.986 73.2225 200.874 71.1403 200.893 69.5867H200.837C200.41 71.0475 199.909 72.5965 199.268 74.3124L197.067 80.3412H195.864L193.835 74.4422C193.241 72.6892 192.744 71.0846 192.391 69.6052H192.354C192.317 71.1588 192.229 73.2411 192.118 75.1054L191.783 80.4386H190.251L191.119 68.0006H193.167L195.293 74.0295C195.813 75.5645 196.222 76.928 196.552 78.2033H196.607C196.918 76.9465 197.364 75.5831 197.917 74.0295L200.136 68.0006H202.184L202.964 80.4386H201.39L201.079 74.957Z"/>
<path d="M210.444 80.4201L210.313 79.2931H210.258C209.941 79.7161 209.527 80.0574 209.052 80.2889C208.576 80.5203 208.052 80.6353 207.523 80.6241C207.171 80.6498 206.818 80.6023 206.486 80.4847C206.154 80.3672 205.849 80.182 205.592 79.941C205.335 79.7 205.131 79.4083 204.993 79.0845C204.854 78.7606 204.785 78.4116 204.788 78.0595C204.788 75.8984 206.706 74.7158 210.165 74.7344V74.5535C210.165 73.8162 209.961 72.4852 208.131 72.4852C207.311 72.4892 206.508 72.7186 205.81 73.1484L205.438 72.0771C206.325 71.5453 207.343 71.2707 208.377 71.284C211.112 71.284 211.776 73.1391 211.776 74.9384V78.2821C211.764 78.9977 211.814 79.713 211.925 80.4201H210.444ZM210.207 75.8613C208.433 75.8242 206.418 76.1396 206.418 77.874C206.401 78.0802 206.428 78.2877 206.499 78.4822C206.57 78.6767 206.681 78.8536 206.827 79.0008C206.973 79.148 207.148 79.2619 207.342 79.3348C207.536 79.4077 207.744 79.4377 207.95 79.423C208.423 79.4355 208.887 79.2975 209.276 79.0291C209.665 78.7606 209.958 78.3756 210.114 77.9297C210.171 77.7639 210.203 77.5902 210.207 77.4149V75.8613Z"/>
<path d="M214.4 73.9043C214.4 72.9768 214.4 72.2255 214.326 71.4881H215.766L215.858 72.9628H215.896C216.189 72.4409 216.62 72.0088 217.141 71.713C217.662 71.4172 218.254 71.2689 218.853 71.284C220.093 71.284 222.015 72.0261 222.015 75.0869V80.4201H220.385V75.2723C220.385 73.8301 219.851 72.6336 218.319 72.6336C217.697 72.6577 217.109 72.9239 216.68 73.3754C216.251 73.8268 216.017 74.4277 216.026 75.0498V80.4201H214.4V73.9043Z"/>
<path d="M232.378 67.3189V78.1152C232.378 78.9082 232.378 79.8125 232.453 80.434H230.995L230.92 78.885H230.883C230.591 79.4338 230.15 79.8892 229.61 80.1992C229.071 80.5092 228.455 80.6613 227.833 80.638C225.669 80.638 224.007 78.8108 224.007 76.0978C224.007 73.1252 225.836 71.2979 228.018 71.2979C228.549 71.2667 229.079 71.377 229.553 71.6174C230.027 71.8578 230.428 72.2197 230.716 72.666H230.753V67.3328L232.378 67.3189ZM230.753 75.1239C230.759 74.8949 230.737 74.666 230.688 74.4422C230.571 73.9073 230.274 73.4285 229.847 73.0859C229.419 72.7432 228.887 72.5574 228.339 72.5594C226.658 72.5594 225.66 74.0341 225.66 76.0097C225.66 77.8184 226.547 79.3117 228.302 79.3117C228.861 79.3102 229.403 79.1175 229.837 78.7656C230.271 78.4138 230.572 77.924 230.688 77.3778C230.742 77.1469 230.767 76.91 230.763 76.6729L230.753 75.1239Z"/>
<path d="M236.887 68.9792C236.887 69.2461 236.781 69.502 236.592 69.6908C236.403 69.8795 236.147 69.9855 235.879 69.9855C235.612 69.9855 235.356 69.8795 235.167 69.6908C234.978 69.502 234.872 69.2461 234.872 68.9792C234.867 68.8438 234.889 68.7088 234.938 68.5825C234.988 68.4562 235.062 68.3413 235.157 68.2448C235.253 68.1483 235.367 68.0724 235.492 68.0216C235.618 67.9709 235.753 67.9464 235.889 67.9496C236.024 67.9448 236.159 67.9683 236.284 68.0188C236.41 68.0692 236.523 68.1455 236.617 68.2425C236.711 68.3396 236.784 68.4553 236.83 68.5822C236.877 68.7091 236.896 68.8443 236.887 68.9792ZM235.076 80.4201V71.4881H236.724V80.4201H235.076Z"/>
<path d="M239.324 80.4201C239.361 79.8125 239.399 78.9082 239.399 78.1013V67.3189H241.005V72.9304H241.042C241.351 72.4036 241.799 71.9716 242.337 71.6813C242.875 71.391 243.482 71.2536 244.093 71.284C246.312 71.284 247.881 73.1391 247.863 75.8428C247.863 79.0381 245.848 80.6241 243.851 80.6241C243.244 80.6578 242.641 80.5177 242.111 80.2203C241.581 79.9229 241.148 79.4806 240.861 78.9453H240.805L240.731 80.4201H239.324ZM241.005 76.8398C241.01 77.0397 241.035 77.2385 241.079 77.4335C241.216 77.9765 241.531 78.4582 241.973 78.8019C242.416 79.1457 242.961 79.3316 243.522 79.3302C245.221 79.3302 246.238 77.939 246.238 75.8984C246.238 74.1083 245.309 72.5779 243.577 72.5779C243.001 72.5881 242.445 72.7897 241.996 73.1508C241.547 73.5118 241.231 74.0119 241.098 74.5721C241.043 74.7892 241.012 75.0115 241.005 75.2353V76.8398Z"/>
<path d="M249.915 67.3189H251.54V80.4201H249.915V67.3189Z"/>
<path d="M255.181 76.2509C255.218 78.4444 256.62 79.3488 258.245 79.3488C259.095 79.3749 259.941 79.2167 260.725 78.885L260.999 80.049C260.057 80.4383 259.045 80.6263 258.027 80.6009C255.274 80.6009 253.63 78.7922 253.63 76.0978C253.63 73.4034 255.218 71.2794 257.809 71.2794C260.729 71.2794 261.523 73.844 261.523 75.4903C261.52 75.7432 261.502 75.9956 261.467 76.2462L255.181 76.2509ZM259.94 75.0868C259.94 74.0527 259.517 72.4481 257.688 72.4481C256.044 72.4481 255.325 73.9599 255.195 75.0868H259.94Z"/>
</g>
<defs>
<clipPath id="clip0">
<rect width="445" height="165" fill="white"/>
</clipPath>
</defs>
</svg>
