<svg width="47" height="39" viewBox="0 0 47 39" fill="none" xmlns="http://www.w3.org/2000/svg">
<g clip-path="url(#clip15)">
<path d="M18.3204 16.4177L15.8467 18.2189V16.6193L18.5477 14.6026H19.9892V26.139H18.3204V16.4177Z"/>
<path d="M23.2315 26.2077C22.7286 26.1065 22.243 25.932 21.79 25.6898V24.2093C22.2638 24.4964 22.7771 24.7111 23.3133 24.8464C23.8415 24.989 24.3854 25.0645 24.9322 25.071C25.7403 25.1298 26.5437 24.9047 27.2058 24.4339C27.468 24.2018 27.6737 23.9121 27.807 23.587C27.9402 23.2619 27.9975 22.9103 27.9742 22.5593C27.9955 22.2269 27.9429 21.8939 27.8201 21.5847C27.6974 21.2754 27.5077 20.9977 27.2649 20.7718C26.6543 20.3175 25.9028 20.0981 25.1459 20.153C24.731 20.1542 24.3171 20.1925 23.909 20.2676C23.5154 20.3357 23.1288 20.44 22.754 20.5793L22.0174 20.153L22.4448 14.653H28.8428V16.0738H23.9454L23.6999 19.0439C24.3788 18.9008 25.0706 18.8286 25.7643 18.8285C26.2824 18.7992 26.8011 18.8746 27.2899 19.0501C27.7787 19.2256 28.2278 19.4977 28.6109 19.8505C28.96 20.208 29.2319 20.6344 29.4096 21.103C29.5872 21.5715 29.6667 22.072 29.6431 22.5731C29.6719 23.101 29.5836 23.6288 29.3846 24.118C29.1856 24.6072 28.8809 25.0455 28.4926 25.401C27.7135 26.0641 26.5449 26.3971 24.9867 26.4002C24.3964 26.4017 23.8077 26.3371 23.2315 26.2077Z"/>
<path d="M29.1516 39.001C26.4324 38.9757 23.7166 38.7998 21.0166 38.4739C14.6505 37.7589 8.13889 36.4206 3.65534 31.5347C-0.950988 26.493 -0.769097 17.3262 1.79553 10.8453C4.28741 4.55233 10.1124 1.02771 19.5979 0.0743665C26.0276 -0.567307 31.3206 3.21399 35.6541 6.99987C41.5927 12.1837 47.8497 18.4812 46.9039 27.5518C46.5583 30.8426 45.2032 33.4689 42.8705 35.3435C39.4055 38.1806 34.3036 39.001 29.1516 39.001ZM19.7798 1.89856C10.9081 2.78773 5.73342 5.84943 3.4871 11.5237C1.19075 17.3262 0.936108 25.8742 4.99222 30.2926C9.04834 34.711 15.2007 35.976 21.2167 36.6543C27.6874 37.3785 36.8454 37.8919 41.7292 33.9318C43.6981 32.3322 44.7985 30.1872 45.0941 27.3592C45.949 19.1642 40.0558 13.2699 34.4627 8.38404C30.4248 4.85484 25.5183 1.32105 19.7798 1.89856Z"/>
</g>
<defs>
<clipPath id="clip15">
<rect width="47" height="39" fill="white"/>
</clipPath>
</defs>
</svg>
