<svg width="33" height="42" viewBox="0 0 33 42" fill="none" xmlns="http://www.w3.org/2000/svg">
<g clip-path="url(#clip41)">
<path d="M26.4772 42.0006H26.4214L13.0522 40.497L11.9551 40.3792C8.23629 39.9833 4.7127 39.611 1.57493 36.6086C1.13919 36.2139 0.768788 35.7508 0.477876 35.237C-0.0469551 34.1132 -0.159043 32.8363 0.161775 31.6361C1.1357 26.5136 2.44958 21.4636 4.09444 16.5206C5.60987 12.1891 7.34842 7.64081 9.92836 3.71937C10.6749 2.54401 11.7105 1.58604 12.9331 0.939761C14.1558 0.293482 15.5233 -0.0188258 16.9012 0.0335834C18.4715 0.102247 19.9981 0.578101 21.3353 1.41566C22.6724 2.25322 23.7754 3.4245 24.5387 4.81756C26.4958 8.21583 27.63 12.0713 28.7224 15.7995L29.0943 17.0579C30.1402 20.5693 30.9305 24.2033 31.6882 27.7146L32.153 29.8828C32.6281 31.771 32.9054 33.7047 32.9805 35.6518C33.0084 39.4884 30.4703 41.9912 26.5144 42.0289L26.4772 42.0006ZM16.6595 1.8859C15.6308 1.87821 14.6168 2.13324 13.711 2.62747C12.8052 3.1217 12.0367 3.83922 11.4763 4.71386C9.02654 8.48448 7.32518 12.882 5.84694 17.1004C4.23111 21.9623 2.93901 26.9286 1.97935 31.966C1.7617 32.737 1.81092 33.5604 2.11881 34.2991C2.31641 34.6344 2.56419 34.9365 2.85328 35.1946C5.53549 37.7775 8.59888 38.1027 12.1504 38.4939L13.2567 38.6165L26.5701 40.1106C29.4522 40.0634 31.1582 38.3902 31.1397 35.6329C31.0623 33.8194 30.8006 32.0189 30.3587 30.2598C30.196 29.5387 30.038 28.8129 29.8939 28.087C29.1408 24.6086 28.3598 21.0171 27.3325 17.567L26.9606 16.3038C25.8915 12.684 24.7898 8.94167 22.9443 5.73193C22.3376 4.61699 21.4594 3.67815 20.3934 3.0049C19.3274 2.33164 18.1092 1.9464 16.8547 1.8859H16.6595Z" />
<path d="M13.7787 25.5931H8.08887V24.4903L13.7415 16.6756H15.4801V24.2169H17.2883V25.5743H15.4801V28.4965H13.7601L13.7787 25.5931ZM13.9786 24.2357V18.7212L10.0227 24.2169L13.9786 24.2357Z" />
<path d="M21.0063 18.5184L18.4775 20.3707V18.7211L21.2388 16.6519H22.7124V28.5153H21.0063V18.5184Z" />
</g>
<defs>
<clipPath id="clip41">
<rect width="33" height="42" fill="white"/>
</clipPath>
</defs>
</svg>
