<svg width="61" height="63" viewBox="0 0 61 63" fill="none" xmlns="http://www.w3.org/2000/svg">
<g clip-path="url(#clip26)">
<path d="M21.7785 36.1811L24.2743 33.7749C24.4945 33.5536 24.8019 33.2632 25.1919 32.9082C25.8204 32.3366 26.2975 31.8711 26.6324 31.5253C26.9504 31.1833 27.2219 30.8004 27.4399 30.3868C27.6472 29.9853 27.7543 29.5392 27.7519 29.0869C27.7716 28.7982 27.7289 28.5086 27.6267 28.2381C27.5246 27.9676 27.3654 27.7224 27.16 27.5196C26.669 27.1291 26.0505 26.9367 25.4258 26.9802C24.8817 26.9839 24.3421 27.079 23.8292 27.2614C23.279 27.454 22.7632 27.7341 22.3015 28.0912V26.464C23.2925 25.7696 24.4796 25.414 25.6873 25.4498C26.6939 25.393 27.6825 25.7356 28.44 26.404C28.7769 26.7437 29.0392 27.1506 29.2099 27.5984C29.3806 28.0462 29.4559 28.525 29.431 29.0039C29.4306 29.5313 29.3147 30.0523 29.0915 30.5297C28.8445 31.0505 28.5247 31.5332 28.1418 31.9633C27.7335 32.4242 27.183 33.0097 26.4902 33.6827L24.2467 35.8907H29.8623V37.3012H21.751L21.7785 36.1811Z" />
<path d="M33.496 36.9693C32.8252 36.5684 32.286 35.9786 31.9453 35.273C31.5448 34.4324 31.3497 33.5079 31.3764 32.5763C31.3764 30.2746 31.8474 28.5106 32.7895 27.2844C33.7315 26.0583 35.0818 25.4437 36.8405 25.4406C37.387 25.4337 37.9319 25.5019 38.46 25.6434V27.0678C37.986 26.8862 37.4806 26.8015 36.9736 26.8189C34.6154 26.8189 33.3033 28.2432 33.0923 31.0828C33.4377 30.6534 33.8905 30.3241 34.4044 30.1286C34.9772 29.91 35.5856 29.8006 36.1983 29.8059C36.8812 29.7894 37.5569 29.9481 38.1618 30.2669C38.7201 30.5695 39.1767 31.0314 39.4739 31.5945C39.79 32.2204 39.952 32.9133 39.9464 33.6151C39.9409 34.3169 39.7678 35.0072 39.4419 35.6279C39.0998 36.2216 38.5927 36.7022 37.9829 37.0108C37.2797 37.3624 36.5018 37.5365 35.7165 37.5178C34.9411 37.535 34.1751 37.3458 33.496 36.9693ZM37.5746 35.5219C37.809 35.2778 37.992 34.9887 38.1127 34.6718C38.2333 34.355 38.289 34.017 38.2765 33.678C38.2945 33.3384 38.2413 32.9988 38.1204 32.6812C37.9995 32.3636 37.8136 32.075 37.5746 31.8342C37.3285 31.6047 37.0396 31.4263 36.7247 31.3092C36.4098 31.1921 36.075 31.1387 35.7395 31.1519C35.2884 31.1466 34.8433 31.2561 34.4457 31.47C34.0617 31.6747 33.7435 31.9848 33.5281 32.3643C33.2964 32.7741 33.1792 33.2391 33.1886 33.7103C33.1865 34.1511 33.2987 34.5848 33.5143 34.9687C33.7323 35.3532 34.0493 35.6716 34.4319 35.8906C34.8371 36.1264 35.2989 36.246 35.767 36.2364C36.1004 36.2439 36.432 36.1846 36.7424 36.062C37.0528 35.9393 37.3357 35.7557 37.5746 35.5219Z" />
<path d="M24.9756 62.9995C20.706 62.997 16.5232 61.7877 12.9051 59.51C3.8303 53.748 2.24289 44.7592 0.56374 35.2863C0.462807 34.7055 0.361855 34.1247 0.256334 33.5439C-0.633708 28.5931 0.793121 23.4995 4.27988 19.1987C7.07847 15.7461 10.657 13.1647 14.1163 10.6662C18.906 7.21362 24.3334 3.29081 30.4902 1.29484C32.6146 0.602397 34.8173 0.18115 37.0463 0.0410123C41.7213 -0.235566 45.9329 0.833872 49.2316 3.13869C52.5303 5.44352 55.1958 9.2557 56.8887 14.105C58.2651 18.0278 58.9395 22.1489 59.6139 26.1316L59.6735 26.4773C59.7791 27.1181 59.8937 27.7588 60.0084 28.3995C60.5682 31.5018 61.1417 34.7102 60.9673 37.9599C60.7334 42.3161 59.0266 46.0868 56.2785 48.2994C54.4113 49.8021 52.1495 50.5719 49.9978 51.3187C48.8646 51.7105 47.7039 52.1116 46.6165 52.6094C44.3547 53.6604 42.3911 55.1724 40.3083 56.7581C38.3979 58.3222 36.3441 59.7006 34.1743 60.8745C31.3133 62.2891 28.1643 63.0166 24.9756 62.9995ZM37.1013 0.962941L37.1564 1.88487C35.0814 2.01144 33.0309 2.40334 31.0545 3.05111C25.1729 4.9595 19.8694 8.79012 15.1898 12.1644C11.8269 14.5937 8.34929 17.1013 5.70211 20.3649C2.55943 24.2416 1.26569 28.8052 2.06397 33.2166C2.1695 33.802 2.27039 34.3829 2.37132 34.9637C3.98166 44.0447 5.49569 52.6232 13.8823 57.9474C19.796 61.7042 27.4393 62.2113 33.3531 59.2427C35.4178 58.1165 37.3731 56.7985 39.1934 55.306C41.2625 53.7157 43.4004 52.0793 45.8503 50.9361C47.0115 50.4151 48.1983 49.9535 49.4059 49.5532C51.5209 48.8249 53.535 48.138 55.1315 46.8381C57.4714 44.9528 58.9303 41.6707 59.1368 37.8355C59.2974 34.8023 58.7422 31.7 58.2192 28.7038C58.0999 28.0538 57.9852 27.4085 57.8751 26.7631L57.8201 26.4174C57.1594 22.5084 56.4758 18.4658 55.1683 14.6905C53.6176 10.2099 51.2089 6.7296 48.1947 4.62761C45.1805 2.52561 41.4277 1.60829 37.1839 1.86182L37.1013 0.962941Z" />
</g>
<defs>
<clipPath id="clip26">
<rect width="61" height="63" fill="white"/>
</clipPath>
</defs>
</svg>
