<svg width="36" height="42" viewBox="0 0 36 42" fill="none" xmlns="http://www.w3.org/2000/svg">
<g clip-path="url(#clip22)">
<path d="M7.95703 26.2336L10.4036 23.8815C10.6199 23.6652 10.9217 23.3813 11.3047 23.0344C11.9205 22.4756 12.3906 22.0251 12.715 21.6826C13.0301 21.3505 13.297 20.9759 13.5079 20.5696C13.7151 20.1783 13.8219 19.7417 13.8188 19.2989C13.8386 19.0163 13.7964 18.7328 13.6952 18.4682C13.594 18.2036 13.4363 17.9643 13.2331 17.7669C12.7515 17.384 12.1437 17.1959 11.53 17.2397C10.9971 17.2433 10.4687 17.3362 9.96653 17.5146C9.42576 17.7019 8.91905 17.9758 8.46617 18.3257V16.7351C9.43875 16.0549 10.6051 15.7072 11.7913 15.7438C12.7874 15.6826 13.7673 16.0179 14.5172 16.6765C14.8481 17.0085 15.1056 17.4062 15.2733 17.844C15.4409 18.2817 15.5149 18.7497 15.4904 19.2178C15.49 19.7334 15.3762 20.2426 15.157 20.7093C14.9128 21.2175 14.5989 21.6892 14.2244 22.1107C13.8234 22.5613 13.2827 23.1335 12.6023 23.7914L10.3946 25.9497H15.9095V27.3286H7.95703V26.2336Z" />
<path d="M17.3779 26.2337L19.829 23.8816C20.0453 23.6653 20.3471 23.3814 20.7301 23.0344C21.3489 22.4757 21.8205 22.0251 22.1449 21.6826C22.4586 21.3494 22.7253 20.975 22.9379 20.5697C23.1436 20.178 23.2489 19.7414 23.2443 19.299C23.2637 19.0168 23.2217 18.7338 23.1214 18.4693C23.0211 18.2049 22.8647 17.9653 22.663 17.767C22.1808 17.3852 21.5735 17.1972 20.9599 17.2398C20.4256 17.2434 19.8956 17.3363 19.392 17.5146C18.8521 17.7039 18.3456 17.9777 17.8916 18.3257V16.7351C18.8649 16.0564 20.0307 15.7088 21.2167 15.7438C22.2053 15.6882 23.1761 16.0232 23.9201 16.6765C24.251 17.0085 24.5085 17.4063 24.6762 17.844C24.8438 18.2817 24.9178 18.7498 24.8933 19.2179C24.8952 19.7337 24.7812 20.2434 24.5599 20.7094C24.3173 21.2185 24.0032 21.6904 23.6272 22.1107C23.2307 22.5613 22.6901 23.1336 22.0052 23.7914L19.802 25.9498H25.3169V27.3286H17.3779V26.2337Z" />
<path d="M12.8363 41.9954C12.6246 41.9954 12.3858 41.9954 12.1965 41.9954C9.31539 41.9359 6.55815 40.8124 4.45586 38.8412C0.490905 34.9526 0.22958 28.2432 0.0358375 23.3453C-0.243512 16.1853 1.02707 10.2419 3.80705 5.6684C6.10492 1.89241 9.38953 -0.216376 12.5975 0.0179333C15.5893 0.238725 17.8736 2.27091 20.149 4.55092C21.4196 5.8216 22.7352 7.09679 24.0013 8.33142C25.4836 9.76882 27.0201 11.2558 28.5069 12.7518C28.9575 13.2024 29.4711 13.6935 30.0028 14.1937C32.0258 16.1177 34.3237 18.2941 35.378 20.8625C36.3467 23.2101 36.18 26.0759 34.9275 28.7254C33.9632 30.7711 32.4268 32.6501 30.0929 34.6282C27.1618 37.1234 23.8242 39.0971 20.2256 40.4634C17.9079 41.4097 15.438 41.9287 12.9355 41.9954H12.8363ZM12.0884 1.80229C8.55599 1.80229 6.05086 5.45211 5.32996 6.60564C2.73471 10.8683 1.55425 16.4782 1.82008 23.2777C2.00931 28.1306 2.2436 34.1731 5.69942 37.557C7.48737 39.2096 9.82089 40.1463 12.2551 40.1885C12.4714 40.1885 12.7057 40.1885 12.9084 40.1885C15.1947 40.1205 17.4502 39.6428 19.5677 38.7782C22.9738 37.4818 26.1328 35.6118 28.9079 33.2493C31.0391 31.447 32.4268 29.7572 33.2784 27.9503C34.2966 25.792 34.4499 23.3993 33.6884 21.5429C32.7873 19.3305 30.6336 17.2938 28.7322 15.5004C28.196 14.9867 27.6824 14.5001 27.2003 14.0179C25.7269 12.5355 24.204 11.053 22.7262 9.62013C21.4511 8.38099 20.1355 7.10129 18.8514 5.82611C16.8283 3.80744 14.7963 1.98253 12.4443 1.8113L12.0884 1.80229Z" />
</g>
<defs>
<clipPath id="clip22">
<rect width="36" height="42" fill="white"/>
</clipPath>
</defs>
</svg>
