<svg width="54" height="57" viewBox="0 0 54 57" fill="none" xmlns="http://www.w3.org/2000/svg">
<g clip-path="url(#clip18)">
<path d="M32.7768 56.9997C30.3196 56.9997 27.8624 56.2174 25.6527 55.4306C20.9723 53.757 16.3234 51.8286 11.8365 49.6956C8.66376 48.1857 5.08597 46.3165 2.83578 43.2011C0.783608 40.3631 -0.161467 36.5701 0.027549 31.9221C0.160265 29.7064 0.406623 27.4992 0.765617 25.3093C0.986135 23.8085 1.21566 22.253 1.35967 20.7295C1.43168 19.9427 1.48566 19.1331 1.53967 18.3509C1.71968 15.5948 1.91322 12.7386 2.97081 10.0781C4.69896 5.73927 8.69528 2.2737 13.6547 0.818343C17.9571 -0.445999 22.8534 -0.245891 27.8129 1.40503C31.7147 2.70121 35.63 4.84786 40.1394 8.1588C43.2344 10.3647 46.0713 12.9189 48.5956 15.7721C50.9088 18.46 53.6045 22.0211 53.9331 25.7277C54.0155 26.673 54.0261 27.6233 53.9646 28.5702C53.5595 34.6781 50.1122 39.6673 46.764 44.4882C46.4129 44.9975 46.0574 45.5069 45.7064 46.0208C45.4183 46.4393 45.1348 46.8622 44.8558 47.2852L44.1222 48.4176C42.0431 51.6467 39.6804 55.3078 35.774 56.5449C34.8036 56.8497 33.7929 57.003 32.7768 56.9997ZM19.5097 1.8189C17.6986 1.80985 15.8954 2.06098 14.1542 2.56477C9.71686 3.8655 6.16156 6.93084 4.63593 10.7512C3.68185 13.1434 3.51085 15.7267 3.33084 18.4827C3.27683 19.2786 3.22281 20.0973 3.14631 20.9068C2.99779 22.4804 2.76829 24.0631 2.54327 25.5867C2.19057 27.7129 1.9502 29.8565 1.82319 32.0085C1.64768 36.229 2.47576 39.64 4.28491 42.1369C6.29208 44.9066 9.49634 46.5803 12.6016 48.0493C17.0345 50.155 21.6294 52.0606 26.2512 53.7161C29.091 54.7257 32.3583 55.7308 35.252 54.8167C38.5463 53.7752 40.621 50.5506 42.6326 47.4353C42.8786 47.0472 43.1261 46.6652 43.3752 46.2892C43.6587 45.8571 43.9512 45.4251 44.2437 44.9975L45.3058 43.4558C48.6451 38.6167 51.8044 34.0505 52.1734 28.4474C52.2281 27.5943 52.2176 26.7383 52.1419 25.8869C51.8629 22.7033 49.3742 19.4469 47.241 16.9683C44.8063 14.2176 42.0706 11.755 39.0863 9.6278C34.73 6.44421 30.9856 4.37032 27.2548 3.13327C24.7574 2.28684 22.1437 1.84328 19.5097 1.8189Z"/>
<path d="M20.3418 23.0948L17.8936 24.8822V23.2904L20.5668 21.2938H21.9934V32.7411H20.3418V23.0948Z"/>
<path d="M24.9004 32.1089C24.5285 31.8146 24.2325 31.4339 24.0374 30.9992C23.8423 30.5645 23.7539 30.0887 23.7798 29.6121C23.7576 28.951 23.9574 28.3018 24.3468 27.7701C24.7243 27.2744 25.255 26.9206 25.8545 26.765C25.3533 26.5597 24.9241 26.2082 24.6214 25.7554C24.3145 25.2885 24.1574 24.7375 24.1713 24.1772C24.1544 23.7444 24.2375 23.3135 24.414 22.9188C24.5906 22.5241 24.8557 22.1763 25.1884 21.9032C25.9754 21.3048 26.9456 21.0054 27.9291 21.0573C28.8992 21.0127 29.8543 21.3119 30.6294 21.9032C30.962 22.1763 31.2272 22.5241 31.4037 22.9188C31.5803 23.3135 31.6634 23.7444 31.6464 24.1772C31.6604 24.7375 31.5032 25.2885 31.1964 25.7554C30.8937 26.2082 30.4644 26.5597 29.9633 26.765C30.5642 26.9229 31.0971 27.2761 31.4799 27.7701C31.8729 28.3002 32.0746 28.9502 32.0515 29.6121C32.0782 30.0883 31.9907 30.5641 31.7964 30.9988C31.6021 31.4335 31.3067 31.8144 30.9354 32.1089C30.0511 32.7352 28.9849 33.0442 27.9066 32.9867C26.8359 33.0394 25.7783 32.7306 24.9004 32.1089ZM29.7608 31.1675C29.9844 30.9545 30.1594 30.6949 30.2737 30.4066C30.3879 30.1184 30.4387 29.8084 30.4224 29.4984C30.4361 29.1955 30.3812 28.8934 30.2618 28.6152C30.1425 28.3369 29.9619 28.0899 29.7338 27.8929C29.224 27.4828 28.5846 27.2728 27.9336 27.3017C27.2831 27.2761 26.6448 27.4857 26.1335 27.8929C25.9024 28.0879 25.7192 28.3343 25.5982 28.6129C25.4771 28.8914 25.4216 29.1945 25.4359 29.4984C25.4201 29.8092 25.472 30.1198 25.5879 30.4081C25.7037 30.6965 25.8807 30.9557 26.1065 31.1675C26.6233 31.5952 27.2803 31.8111 27.9471 31.7724C28.6053 31.8073 29.2525 31.5914 29.7608 31.1675ZM29.4818 25.7099C29.679 25.5364 29.8354 25.3206 29.9397 25.0783C30.044 24.836 30.0936 24.5732 30.0848 24.3091C30.0936 24.0398 30.0452 23.7718 29.9427 23.5231C29.8402 23.2744 29.6861 23.0508 29.4908 22.8674C29.0613 22.4845 28.5012 22.2855 27.9291 22.3125C27.3558 22.2863 26.7946 22.4851 26.363 22.8674C26.1692 23.0517 26.0164 23.2756 25.9148 23.5242C25.8131 23.7727 25.7649 24.0403 25.7735 24.3091C25.7638 24.5729 25.8125 24.8355 25.9161 25.0779C26.0196 25.3202 26.1754 25.5361 26.372 25.7099C26.8072 26.0774 27.3626 26.2672 27.9291 26.242C28.4927 26.2721 29.0469 26.087 29.4818 25.7235V25.7099Z"/>
</g>
<defs>
<clipPath id="clip18">
<rect width="54" height="57" fill="white"/>
</clipPath>
</defs>
</svg>
