<svg width="55" height="59" viewBox="0 0 55 59" fill="none" xmlns="http://www.w3.org/2000/svg">
<g clip-path="url(#clip27)">
<path d="M19.9656 33.353L22.5756 30.8716C22.8042 30.643 23.1233 30.343 23.5281 29.9762C24.179 29.3857 24.6759 28.9094 25.0188 28.5474C25.3519 28.1964 25.6341 27.8005 25.8571 27.3711C26.076 26.9574 26.1889 26.496 26.1857 26.028C26.2065 25.7293 26.1619 25.4296 26.055 25.1499C25.948 24.8702 25.7814 24.6173 25.5666 24.4087C25.0575 24.0039 24.415 23.8051 23.7662 23.8514C23.203 23.8552 22.6444 23.9534 22.1136 24.142C21.542 24.3399 21.0063 24.6294 20.5276 24.9993V23.318C21.5556 22.5991 22.7885 22.2315 24.0425 22.2702C25.0874 22.212 26.1134 22.566 26.9001 23.2561C27.2498 23.607 27.5221 24.0274 27.6993 24.4901C27.8765 24.9528 27.9547 25.4475 27.9289 25.9423C27.9284 26.4872 27.8081 27.0254 27.5764 27.5187C27.32 28.0568 26.988 28.5556 26.5906 28.9999C26.1667 29.4762 25.5951 30.081 24.8759 30.7764L22.5422 33.0577H28.3718V34.5151H19.9561L19.9656 33.353Z" />
<path d="M36.116 23.9896H29.7529V22.5131H37.8972V23.7991L33.0821 34.5008H31.3675L36.116 23.9896Z" />
<path d="M22.4122 58.9998C18.8783 58.9998 14.9585 57.8758 12.5724 54.6133C11.7705 53.4265 11.1149 52.1472 10.6197 50.8032C10.2733 49.9157 9.87247 49.0504 9.41946 48.2123C8.33475 46.485 7.05641 44.8871 5.60928 43.4496C3.27077 40.9397 0.846541 38.3393 0.246437 34.2863C-0.706109 27.9233 0.975134 21.0127 4.53289 16.6644C6.78567 13.9068 9.90047 12.1779 12.9105 10.5015C13.8631 9.96803 14.868 9.4108 15.8111 8.83928C17.1589 8.01058 18.521 7.07233 19.8355 6.16266C23.9648 3.30505 28.2322 0.361726 33.3474 0.0283388C36.2527 -0.162168 39.4008 0.504601 42.9681 2.11438C48.0642 4.39094 51.36 7.57717 52.4936 11.3302C53.1222 13.3972 53.0794 15.5261 53.0365 17.5883C53.0365 18.417 53.0032 19.2695 53.0365 20.0887C53.0365 20.3221 53.0366 20.565 53.0747 20.7888C53.2663 22.9063 53.5844 25.0104 54.0272 27.0898C54.8797 31.6382 55.7656 36.339 53.9938 40.7587C52.8174 43.6878 50.5123 46.3072 47.1403 48.5457C45.0332 49.8789 42.8391 51.0691 40.5725 52.1082C39.7962 52.4844 39.0198 52.8607 38.253 53.2512C37.4862 53.6417 36.7052 54.0513 35.9336 54.4609C32.714 56.1564 29.3896 57.9091 25.7223 58.6664C24.6328 58.8876 23.5239 58.9993 22.4122 58.9998ZM34.319 1.90483C34.0396 1.90483 33.7634 1.91436 33.4903 1.93341C28.9038 2.23346 25.0364 4.90531 20.9405 7.73434C19.6021 8.6583 18.2162 9.63941 16.8208 10.4681C15.8682 11.0635 14.8347 11.6254 13.8535 12.1732C10.8673 13.8306 8.0478 15.4022 6.0284 17.8884C2.80879 21.8271 1.26567 28.1567 2.16583 34.0148C2.68497 37.482 4.79961 39.7538 7.03809 42.1637C8.58623 43.7046 9.94671 45.4231 11.0912 47.2836C11.5861 48.1896 12.022 49.1266 12.3962 50.0888C12.8378 51.2913 13.4197 52.4375 14.1298 53.5036C16.7684 57.109 21.8169 57.5424 25.3413 56.8375C28.7371 56.1374 31.9472 54.4562 35.043 52.813C35.8288 52.3987 36.6051 51.9891 37.391 51.589C38.1768 51.189 38.9532 50.8175 39.739 50.4317C41.929 49.4289 44.0499 48.2818 46.0877 46.9978C49.1311 44.9784 51.1981 42.6543 52.2221 40.0872C53.7891 36.1866 52.9937 31.9573 52.1554 27.4804C51.7086 25.3263 51.3905 23.1475 51.2029 20.9555C51.2029 20.7031 51.1743 20.4459 51.1648 20.1935C51.1315 19.3219 51.1648 18.4408 51.1648 17.5883C51.2077 15.588 51.2458 13.6972 50.6885 11.9255C49.455 7.8677 45.3923 5.31967 42.2013 3.89087C39.2437 2.54779 36.667 1.90483 34.3 1.90483H34.319Z" />
</g>
<defs>
<clipPath id="clip27">
<rect width="55" height="59" fill="white"/>
</clipPath>
</defs>
</svg>
