<svg width="33" height="46" viewBox="0 0 33 46" fill="none" xmlns="http://www.w3.org/2000/svg">
<g clip-path="url(#clip32)">
<path d="M8.7289 30.1662C8.17012 30.0819 7.62488 29.9231 7.10742 29.6939V28.2772C8.16477 28.7583 9.31236 29.0031 10.4719 28.995C11.2773 29.0549 12.0807 28.8548 12.7663 28.4236C13.0151 28.2371 13.2141 27.9909 13.3454 27.7074C13.4767 27.4238 13.5363 27.1117 13.5186 26.7991C13.5429 26.4932 13.4834 26.1864 13.3466 25.9123C13.2098 25.6383 13.0009 25.4076 12.7429 25.2455C12.0176 24.8867 11.2126 24.724 10.4065 24.7733H9.00462V23.3802H10.3504C11.0638 23.4134 11.771 23.2327 12.3831 22.8608C12.6335 22.6989 12.8371 22.4729 12.9734 22.2059C13.1096 21.9389 13.1736 21.6402 13.1588 21.3402C13.1771 21.0572 13.1286 20.774 13.0172 20.5137C12.9059 20.2534 12.735 20.0236 12.5186 19.8432C11.9707 19.4641 11.3117 19.2842 10.6495 19.3332C10.0764 19.3245 9.50513 19.3992 8.95319 19.5551C8.40036 19.7225 7.87344 19.9673 7.38778 20.2824V18.8657C8.43756 18.248 9.63595 17.9358 10.8504 17.9637C12.1635 17.9637 13.1869 18.2612 13.8457 18.8468C14.1898 19.1498 14.4611 19.5279 14.6392 19.9525C14.8173 20.3771 14.8975 20.8371 14.8738 21.2977C14.8853 21.8934 14.7085 22.4774 14.3691 22.9646C13.9814 23.4738 13.4553 23.8578 12.8551 24.0697C13.5288 24.201 14.144 24.5449 14.6121 25.0519C15.0314 25.5551 15.2498 26.1984 15.2242 26.8558C15.2454 27.3382 15.158 27.8192 14.9686 28.2626C14.7792 28.7059 14.4927 29.1001 14.1308 29.4153C13.4018 30.045 12.2476 30.3598 10.6682 30.3598C10.0175 30.3506 9.36877 30.2858 8.7289 30.1662Z" />
<path d="M16.7617 28.9337L19.3038 26.4686C19.5281 26.2419 19.8412 25.9492 20.2384 25.5855C20.8739 24.9953 21.3645 24.523 21.701 24.1689C22.0278 23.8208 22.3046 23.4282 22.5234 23.0025C22.7371 22.5919 22.8479 22.1346 22.8458 21.6708C22.8651 21.374 22.8208 21.0765 22.716 20.7986C22.6111 20.5207 22.4482 20.2689 22.2384 20.0604C21.7389 19.6591 21.1085 19.462 20.472 19.5079C19.9191 19.513 19.371 19.612 18.8505 19.8007C18.288 19.9931 17.7618 20.2805 17.2944 20.6507V18.9838C18.3022 18.2691 19.5125 17.9045 20.743 17.9449C21.7684 17.8861 22.7754 18.2372 23.5468 18.9224C23.8899 19.2703 24.157 19.6871 24.3309 20.1459C24.5048 20.6047 24.5815 21.0952 24.5561 21.5858C24.5573 22.1258 24.4409 22.6594 24.215 23.1489C23.9589 23.6799 23.6336 24.1738 23.2477 24.6175C22.8303 25.0992 22.2695 25.6863 21.5655 26.3789L19.2757 28.6409H25.0234V30.0859H16.7617V28.9337Z" />
<path d="M8.33456 46.0001C8.00914 46.0001 7.68419 45.9748 7.36259 45.9245C4.55885 45.4901 2.18503 43.3981 0.97475 40.3239C0.257517 38.3957 -0.0728934 36.3426 0.00277917 34.2841C0.0310329 32.9624 0.141827 31.6438 0.334537 30.3362C0.596219 28.4473 0.769124 26.5253 0.95604 24.4947C1.59155 17.501 2.24576 10.2711 6.59623 4.55713C8.63828 1.87014 10.8906 0.358988 13.2831 0.0567605C15.4841 -0.221856 17.8439 0.528991 20.2925 2.29986C23.5635 4.66101 25.9794 8.12719 27.8766 13.2367L28.1617 14.0017C29.7037 18.1479 31.2972 22.4358 32.5962 26.6528C32.9518 27.6419 33.0594 28.7046 32.9093 29.7459C32.6757 30.9454 31.928 32.0504 30.6243 33.1318L30.2831 33.4151C27.5588 35.6724 24.7411 38.0052 21.6476 39.88C20.1617 40.782 18.5962 41.5328 17.0822 42.2411C16.2458 42.6425 15.386 43.0581 14.5542 43.4878C14.1149 43.7192 13.6757 43.9601 13.2458 44.2245C11.7691 45.1029 10.2411 46.0001 8.33456 46.0001ZM14.1757 1.88902C13.9554 1.88876 13.7353 1.90295 13.5168 1.93152C11.1803 2.2243 9.26445 4.151 8.07753 5.70936C4.05884 10.9889 3.42802 17.9449 2.81587 24.6647C2.6383 26.6339 2.45137 28.6645 2.18501 30.6006C2.00319 31.83 1.89863 33.0697 1.87194 34.3124C1.80033 36.1221 2.08626 37.9282 2.71305 39.625C3.67567 42.0712 5.51679 43.7287 7.64763 44.0592C9.37193 44.3284 10.7411 43.5303 12.3205 42.6095C12.7878 42.3497 13.2271 42.0806 13.7224 41.8303C14.5775 41.3864 15.4514 40.9661 16.2972 40.56C17.7738 39.8469 19.2972 39.115 20.7084 38.2602C23.685 36.4563 26.4467 34.166 29.1196 31.9512L29.4654 31.6679C30.4 30.8793 30.9514 30.1332 31.1009 29.3823C31.1856 28.6487 31.0943 27.9052 30.8345 27.2148C29.5542 23.0497 27.9701 18.7902 26.4374 14.6676L26.1523 13.9026C24.3906 9.18026 22.1943 5.96437 19.2317 3.83933C17.414 2.54542 15.7224 1.88902 14.1757 1.88902Z" />
</g>
<defs>
<clipPath id="clip32">
<rect width="33" height="46" fill="white"/>
</clipPath>
</defs>
</svg>
