<svg width="48" height="44" viewBox="0 0 48 44" fill="none" xmlns="http://www.w3.org/2000/svg">
<g clip-path="url(#clip35)">
<path d="M17.0347 28.8268C16.4789 28.7434 15.9366 28.5861 15.4219 28.3592V26.9564C16.4736 27.4327 17.6151 27.6752 18.7684 27.6672C19.5695 27.7258 20.3684 27.5277 21.0506 27.1014C21.2972 26.9162 21.4943 26.6722 21.6241 26.3915C21.7539 26.1108 21.8124 25.802 21.7943 25.4929C21.819 25.1904 21.7605 24.8869 21.6252 24.6156C21.4899 24.3442 21.2831 24.1156 21.0274 23.9545C20.3052 23.6013 19.505 23.4403 18.7034 23.4869H17.309V22.0842H18.6476C19.3572 22.1171 20.0607 21.9381 20.6695 21.5699C20.9185 21.4095 21.1211 21.1858 21.2566 20.9214C21.3921 20.657 21.4557 20.3613 21.4411 20.0642C21.4592 19.7841 21.4109 19.5036 21.3002 19.2459C21.1895 18.9882 21.0195 18.7606 20.8043 18.582C20.2593 18.2066 19.6038 18.0285 18.9451 18.077C18.3736 18.0684 17.8038 18.1424 17.2532 18.2967C16.7048 18.4626 16.1823 18.705 15.7008 19.0168V17.6141C16.745 17.0024 17.937 16.6933 19.1449 16.721C20.451 16.721 21.4689 17.0155 22.1243 17.5954C22.4657 17.896 22.735 18.2705 22.9121 18.6908C23.0892 19.1111 23.1695 19.5662 23.1469 20.0221C23.1584 20.612 22.9825 21.1903 22.6449 21.6727C22.2593 22.1769 21.7359 22.5571 21.1389 22.7669C21.8091 22.8969 22.421 23.2374 22.8866 23.7395C23.3017 24.2388 23.5186 24.875 23.4955 25.5256C23.5165 26.0033 23.4296 26.4796 23.2412 26.9185C23.0528 27.3575 22.7679 27.7478 22.4079 28.06C21.6828 28.6834 20.5347 28.9951 18.9637 28.9951C18.3171 28.994 17.6718 28.9376 17.0347 28.8268Z" />
<path d="M26.4939 28.7941C25.9799 28.6909 25.4836 28.5129 25.0205 28.2658V26.7321C25.5057 27.023 26.0302 27.2419 26.5776 27.382C27.1177 27.5261 27.6736 27.6015 28.2323 27.6065C29.0578 27.6678 29.8789 27.4398 30.5563 26.9612C30.8243 26.7244 31.0346 26.4288 31.1708 26.0972C31.307 25.7655 31.3655 25.4068 31.3418 25.0488C31.3635 24.7097 31.3097 24.37 31.1843 24.0545C31.0588 23.739 30.8649 23.4556 30.6167 23.2252C29.9926 22.7617 29.2244 22.5379 28.4507 22.5939C28.0267 22.5951 27.6036 22.6342 27.1865 22.7108C26.7836 22.778 26.3882 22.8845 26.0059 23.0288L25.2529 22.5939L25.6898 16.9829H32.2296V18.4324H27.2422L26.9913 21.4623C27.6853 21.3164 28.3924 21.2428 29.1014 21.2426C29.6311 21.2117 30.1616 21.2881 30.6614 21.4672C31.1612 21.6463 31.6201 21.9245 32.0111 22.2853C32.368 22.65 32.6459 23.085 32.8275 23.563C33.0091 24.041 33.0904 24.5516 33.0662 25.0628C33.0998 25.6082 33.0107 26.1543 32.8055 26.6602C32.6003 27.1662 32.2843 27.6191 31.881 27.9852C31.0846 28.6616 29.8901 29.0014 28.2973 29.0045C27.6903 29.0022 27.0854 28.9316 26.4939 28.7941Z" />
<path d="M25.0061 44.0001H24.216C22.6738 43.962 21.1362 43.8151 19.6144 43.5606C11.4851 42.1859 5.33109 36.818 1.32451 27.6065C-0.320887 23.8237 -0.43243 20.2513 0.985213 16.693C3.15119 11.2503 5.32179 6.50424 9.9791 3.5257C13.1072 1.52443 16.5514 -0.285133 20.5254 0.0515302C22.3742 0.264982 24.1843 0.73713 25.9032 1.45429C30.9184 3.36673 36.1288 5.5831 40.0471 9.69787C46.1267 16.1132 48.6784 22.6033 47.8464 29.5423C47.5277 31.7885 46.5798 33.8969 45.1134 35.6209C40.4794 40.9561 33.182 44.0001 25.0061 44.0001ZM24.2578 42.1297C32.1966 42.3215 39.2895 39.4879 43.7097 34.3678C44.9264 32.9322 45.72 31.1831 46.0012 29.3179C46.7728 22.8792 44.4488 17.053 38.6992 10.9931C35.0598 7.15419 30.2584 5.1155 25.2199 3.20307C23.6622 2.55191 22.0234 2.11773 20.3488 1.91253C16.9233 1.62263 13.8091 3.27788 10.9505 5.10615C6.76734 7.78543 4.73152 12.2509 2.6864 17.385C1.45003 20.4991 1.54763 23.5104 3.00246 26.8583C6.79524 35.5742 12.2985 40.4184 19.898 41.7136C21.3322 41.9533 22.7812 42.0924 24.2346 42.1297H24.2578Z" />
</g>
<defs>
<clipPath id="clip35">
<rect width="48" height="44" fill="white"/>
</clipPath>
</defs>
</svg>
