<svg width="35" height="43" viewBox="0 0 35 43" fill="none" xmlns="http://www.w3.org/2000/svg">
<g clip-path="url(#clip33)">
<path d="M10.8869 28.4328C10.3497 28.3513 9.82526 28.1991 9.32715 27.98V26.6215C10.3414 27.0823 11.4421 27.3171 12.5542 27.3098C13.328 27.3666 14.0998 27.1748 14.7593 26.7619C14.9954 26.5808 15.1841 26.3443 15.3091 26.0728C15.4341 25.8014 15.4915 25.5032 15.4765 25.2041C15.506 24.9078 15.4528 24.6091 15.3229 24.3418C15.193 24.0745 14.9916 23.8493 14.7414 23.6917C14.0457 23.3477 13.2736 23.1917 12.5004 23.2389H11.1558V21.9257H12.4466C13.1323 21.9571 13.8119 21.7839 14.4008 21.4276C14.6395 21.2711 14.8334 21.0542 14.9632 20.7983C15.0929 20.5425 15.154 20.2567 15.1403 19.9695C15.1586 19.6981 15.1124 19.4263 15.0055 19.1766C14.8987 18.9269 14.7344 18.7066 14.5263 18.5341C14.0008 18.1705 13.3687 17.9981 12.7335 18.045C12.1839 18.0367 11.6359 18.1084 11.1065 18.2579C10.5763 18.4184 10.0709 18.6531 9.60503 18.9552V17.5967C10.6136 17.0045 11.7645 16.7052 12.9307 16.7319C14.1857 16.7319 15.1448 17.0171 15.7992 17.5786C16.1291 17.8692 16.3894 18.2318 16.5602 18.6389C16.7311 19.0461 16.808 19.4872 16.7852 19.9288C16.7963 20.5001 16.6267 21.06 16.3012 21.5272C15.9293 22.0155 15.4247 22.3837 14.849 22.5869C15.4956 22.7116 16.086 23.0415 16.5342 23.5287C16.9377 24.0108 17.1486 24.6276 17.1259 25.2585C17.1462 25.7211 17.0623 26.1823 16.8807 26.6074C16.699 27.0325 16.4242 27.4105 16.0771 27.7128C15.3779 28.3151 14.2843 28.6184 12.7514 28.6184C12.1258 28.6101 11.5021 28.548 10.8869 28.4328Z" />
<path d="M20.147 28.4327C19.6111 28.3519 19.0881 28.1996 18.5918 27.9798V26.6214C19.606 27.0826 20.7067 27.3174 21.8188 27.3097C22.5912 27.3658 23.3614 27.174 24.0195 26.7617C24.2573 26.5824 24.4473 26.3461 24.5725 26.0742C24.6976 25.8024 24.754 25.5034 24.7366 25.204C24.7604 24.9111 24.704 24.6172 24.5736 24.3544C24.4431 24.0917 24.2437 23.8702 23.9971 23.7143C23.3007 23.3722 22.5291 23.2162 21.7561 23.2614H20.4115V21.9256H21.7023C22.388 21.9575 23.0678 21.7843 23.6565 21.4275C23.896 21.2716 24.0908 21.0548 24.2214 20.7989C24.3519 20.543 24.4137 20.257 24.4005 19.9694C24.418 19.6981 24.3714 19.4265 24.2647 19.1769C24.1579 18.9273 23.994 18.707 23.7864 18.534C23.2609 18.1704 22.6288 17.998 21.9936 18.0449C21.4425 18.0363 20.893 18.108 20.3622 18.2578C19.8322 18.4191 19.327 18.6538 18.8607 18.9551V17.5966C19.8694 17.0048 21.0202 16.7056 22.1863 16.7317C23.4458 16.7317 24.4005 17.017 25.0593 17.5785C25.3877 17.8702 25.6466 18.233 25.8165 18.64C25.9865 19.047 26.0632 19.4875 26.0409 19.9287C26.052 20.5 25.8824 21.0599 25.5568 21.5271C25.1866 22.0171 24.6815 22.3858 24.1047 22.5867C24.7525 22.7118 25.3442 23.0416 25.7944 23.5286C26.1933 24.0032 26.4069 24.6087 26.395 25.2312C26.4153 25.6938 26.3314 26.155 26.1498 26.5801C25.9681 27.0053 25.6933 27.3832 25.3462 27.6855C24.647 28.2893 23.5384 28.5911 22.0205 28.5911C21.3927 28.5923 20.7659 28.5393 20.147 28.4327Z" />
<path d="M14.2927 43.0051C13.5053 43.0097 12.721 42.9045 11.9621 42.6927C10.1375 42.1151 8.50597 41.0403 7.24701 39.5863C3.42834 35.4521 2.00754 29.6605 0.972197 24.5572C0.379927 21.8017 0.0541765 18.9946 -0.000418428 16.1754C-0.0744461 13.2629 0.407974 10.3633 1.4204 7.63521C3.07874 3.39679 7.50246 -0.683137 12.4327 0.104774C14.5168 0.439862 16.3455 1.57644 17.959 2.57718L25.0495 6.98314C27.2636 8.34161 29.5315 9.78158 31.3557 11.86C35.4164 16.5332 36.1604 24.1179 33.1485 30.3035C30.5579 35.6513 25.3857 39.9531 18.954 42.1131C17.4566 42.6571 15.8833 42.9582 14.2927 43.0051ZM1.79238 16.1528C1.84774 18.8565 2.16297 21.5483 2.73362 24.1904C3.76 29.2756 5.0553 34.5555 8.56023 38.3411C9.59588 39.5543 10.9417 40.4566 12.4506 40.9493C14.0462 41.4022 15.9421 41.2256 18.4162 40.3969C24.3952 38.3909 29.173 34.4242 31.5664 29.5292C34.2556 23.9776 33.6147 17.2124 30.0156 13.0736C28.3886 11.1989 26.2193 9.84951 24.1173 8.54539L17.0223 4.13037C15.4805 3.17039 13.8848 2.1787 12.1593 1.90248C8.12547 1.264 4.49504 4.72356 3.08769 8.30991C2.15622 10.8191 1.71777 13.4877 1.79687 16.1664L1.79238 16.1528Z" />
</g>
<defs>
<clipPath id="clip33">
<rect width="35" height="43" fill="white"/>
</clipPath>
</defs>
</svg>
