<svg width="40" height="46" viewBox="0 0 40 46" fill="none" xmlns="http://www.w3.org/2000/svg">
<g clip-path="url(#clip13)">
<path d="M15.6096 19.4149L13.1182 21.2178V19.6167L15.8436 17.5982H17.2934V29.1452H15.6096V19.4149Z"/>
<path d="M20.6836 29.2369C20.1336 29.1544 19.5968 29.0001 19.0869 28.7781V27.4018C20.1264 27.8646 21.2526 28.1007 22.3904 28.0946C23.1828 28.1544 23.9736 27.9599 24.6478 27.5395C24.8913 27.3577 25.0858 27.1184 25.2139 26.843C25.342 26.5675 25.3998 26.2646 25.3819 25.9613C25.4069 25.6639 25.3489 25.3655 25.2144 25.0991C25.08 24.8326 24.8743 24.6086 24.6203 24.452C23.9081 24.1034 23.1177 23.9454 22.3262 23.9932H20.9727V22.6399H22.2941C22.996 22.6717 23.6917 22.4962 24.2945 22.1353C24.5389 21.9767 24.7374 21.7569 24.8702 21.4977C25.0031 21.2385 25.0656 20.949 25.0516 20.658C25.0697 20.3836 25.0226 20.1088 24.9141 19.856C24.8057 19.6033 24.639 19.3798 24.4276 19.2038C23.889 18.8368 23.2424 18.6622 22.5923 18.7083C22.0283 18.7018 21.4661 18.7744 20.9222 18.9239C20.3793 19.0883 19.8619 19.3276 19.3851 19.635V18.2587C20.4176 17.6587 21.5957 17.3555 22.7896 17.3825C24.0789 17.3825 25.0562 17.6715 25.7306 18.245C26.0672 18.5391 26.3326 18.9058 26.5067 19.3175C26.6807 19.7292 26.759 20.175 26.7355 20.6213C26.7468 21.2001 26.5732 21.7674 26.2399 22.2408C25.8625 22.7388 25.3448 23.1126 24.7533 23.3143C25.4165 23.4403 26.0214 23.7765 26.4785 24.2731C26.8916 24.7596 27.1077 25.3832 27.0842 26.021C27.1049 26.4896 27.0191 26.9569 26.8332 27.3876C26.6472 27.8183 26.3659 28.2012 26.0105 28.5074C25.2948 29.1191 24.1599 29.425 22.6061 29.425C21.9612 29.415 21.3182 29.3521 20.6836 29.2369Z"/>
<path d="M23.2628 46.0003C15.1692 46.0003 4.91001 41.1191 1.5698 32.8246C-0.939955 26.636 -0.412307 19.1123 2.97838 12.6988C5.98824 7.01015 12.9577 0.637956 19.9548 0.0461536C23.9511 -0.29333 27.4611 1.33986 30.1039 4.77598C34.5751 10.6302 37.7854 17.3468 39.5326 24.5027C40.698 29.1179 39.7437 34.3982 36.9816 38.628C34.4535 42.5091 30.7508 45.0506 26.5618 45.748C25.5681 45.912 24.5635 46.0009 23.5565 46.014H23.2812L23.2628 46.0003ZM20.9687 1.83532C20.6797 1.83532 20.386 1.83532 20.0878 1.87202C13.9855 2.39042 7.41976 8.22128 4.59802 13.5567C1.45509 19.4976 0.959565 26.4433 3.26285 32.1365C6.36447 39.7978 15.9951 44.2891 23.5106 44.1606C24.4225 44.1504 25.3322 44.0691 26.2314 43.9175C29.902 43.2982 33.1734 41.0548 35.4078 37.6049C37.8946 33.7972 38.7572 29.0582 37.7019 24.9294C36.0213 18.0259 32.9349 11.5432 28.6356 5.88618C26.5572 3.19784 23.9832 1.83532 20.9733 1.83532H20.9687Z"/>
</g>
<defs>
<clipPath id="clip13">
<rect width="40" height="46" fill="white"/>
</clipPath>
</defs>
</svg>
