<svg width="47" height="41" viewBox="0 0 47 41" fill="none" xmlns="http://www.w3.org/2000/svg">
<g clip-path="url(#clip24)">
<path d="M15.0713 25.8768L17.6231 23.4213C17.8487 23.1955 18.1683 22.8991 18.563 22.5369C19.2084 21.9536 19.6988 21.4832 20.034 21.1257C20.3626 20.778 20.6425 20.3871 20.8658 19.9638C21.0782 19.5541 21.1879 19.0989 21.1854 18.6373C21.206 18.3423 21.1619 18.0463 21.0564 17.7701C20.9509 17.4938 20.7864 17.244 20.5744 17.038C20.0721 16.6382 19.4381 16.4418 18.798 16.4876C18.2423 16.4918 17.6911 16.5888 17.1673 16.7745C16.6033 16.97 16.0747 17.256 15.6023 17.6212V15.9607C16.6175 15.2522 17.8335 14.8893 19.0706 14.9259C20.1016 14.8683 21.1141 15.2179 21.8903 15.8996C22.2354 16.2462 22.504 16.6614 22.6789 17.1184C22.8537 17.5753 22.9309 18.064 22.9054 18.5526C22.905 19.0909 22.7863 19.6225 22.5576 20.1097C22.3046 20.6412 21.977 21.1338 21.5848 21.5726C21.1666 22.043 20.6026 22.6404 19.893 23.3272L17.5902 25.5804H23.3801V27.0198H15.0713V25.8768Z" />
<path d="M30.3118 24.0986H24.5596V22.9978L30.2977 15.1704H32.0553V22.7438H33.8834V24.0986H32.0553V27.0103H30.3118V24.0986ZM30.5186 22.7438V17.2401L26.5052 22.7438H30.5186Z" />
<path d="M19.4889 41C14.8645 41 10.9592 39.7488 6.48999 36.8417C3.25201 34.7343 0.695476 30.4725 0.126833 26.2342C-0.150733 24.411 -0.0216362 22.549 0.504884 20.7816C1.0314 19.0143 1.94228 17.3856 3.17212 16.0124C6.46179 12.3339 10.4188 9.42682 14.2677 6.60442C16.0065 5.32964 17.8065 4.01252 19.503 2.65307C27.3512 -3.65499 36.5106 2.70481 41.2712 7.056C47.5263 12.7714 48.0056 22.3769 45.8016 28.8825C44.7959 31.8554 41.8492 34.4991 39.3773 35.7974C34.354 38.4238 28.8921 40.1059 23.2626 40.7601C22.1009 40.905 20.932 40.9851 19.7615 41H19.4842H19.4889ZM26.8249 1.90984C24.5818 1.90297 22.4076 2.68554 20.6826 4.12071C18.9531 5.53191 17.1344 6.83962 15.3815 8.12381C11.6219 10.885 7.71656 13.7357 4.57257 17.2637C3.5246 18.4349 2.74921 19.8241 2.30226 21.3314C1.8553 22.8386 1.74791 24.4264 1.98783 25.9802C2.48598 29.7104 4.70416 33.4407 7.50978 35.2659C11.791 38.0506 15.3486 39.1655 19.7286 39.1184C20.8284 39.1031 21.9266 39.0277 23.0182 38.8926C28.4193 38.2648 33.6598 36.6513 38.4797 34.1322C41.0127 32.801 43.2826 30.3925 43.9969 28.2804C46.0083 22.3346 45.6089 13.5899 39.9788 8.44369C36.9476 5.64481 31.9051 1.90984 26.8249 1.90984Z" />
</g>
<defs>
<clipPath id="clip24">
<rect width="47" height="41" fill="white"/>
</clipPath>
</defs>
</svg>
