<svg width="61" height="63" viewBox="0 0 61 63" fill="none" xmlns="http://www.w3.org/2000/svg">
<g clip-path="url(#clip16)">
<path d="M25.7277 27.3567L23.2422 29.1569V27.5582L25.9561 25.5427H27.4045V37.0726H25.7277V27.3567Z"/>
<path d="M31.3294 36.7657C30.6599 36.3675 30.1215 35.7815 29.7805 35.0799C29.3837 34.2439 29.1896 33.3257 29.2139 32.4002C29.2139 30.1128 29.683 28.3599 30.6212 27.1414C31.5593 25.9229 32.9057 25.3121 34.6602 25.3091C35.2044 25.3025 35.747 25.3703 36.273 25.5106V26.9261C35.8009 26.7456 35.2976 26.6615 34.7926 26.6787C32.4442 26.6787 31.1558 28.0911 30.9273 30.916C31.2666 30.4903 31.7129 30.163 32.2203 29.9678C32.7893 29.7509 33.3936 29.6421 34.0022 29.6471C34.6838 29.6307 35.3582 29.7883 35.9623 30.1052C36.517 30.4076 36.9712 30.8663 37.269 31.4245C37.5865 32.041 37.7437 32.728 37.7259 33.4217C37.7361 34.1245 37.5629 34.8177 37.2233 35.4327C36.8808 36.0229 36.3744 36.5003 35.7658 36.8069C35.0673 37.1568 34.294 37.3299 33.5133 37.3108C32.7503 37.3237 31.9973 37.1357 31.3294 36.7657ZM35.3912 35.3273C35.6246 35.0847 35.8069 34.7974 35.927 34.4826C36.0471 34.1677 36.1026 33.8318 36.0902 33.495C36.1081 33.1575 36.0551 32.82 35.9347 32.5044C35.8143 32.1888 35.6291 31.902 35.3912 31.6626C35.1433 31.4318 34.8519 31.2529 34.5342 31.1365C34.2164 31.0201 33.8787 30.9685 33.5408 30.9847C33.0902 30.98 32.6456 31.0887 32.2477 31.3008C31.8653 31.5042 31.5484 31.8124 31.3339 32.1894C31.1032 32.5967 30.9864 33.0588 30.9958 33.527C30.9921 33.9647 31.1023 34.3958 31.3157 34.7776C31.534 35.1587 31.8494 35.4749 32.2295 35.6938C32.6347 35.928 33.096 36.0468 33.5636 36.0373C33.9002 36.0486 34.2356 35.9914 34.5497 35.8694C34.8638 35.7474 35.15 35.563 35.3912 35.3273Z"/>
<path d="M35.875 62.9999C33.056 62.9999 30.173 61.7676 27.6875 60.6087C25.0533 59.3088 22.5047 57.8415 20.0573 56.2157C16.8591 54.2001 13.5786 52.1204 10.0056 50.8744C8.18668 50.2662 6.50705 49.3002 5.06508 48.033C3.6231 46.7658 2.44778 45.223 1.60791 43.4947C-0.923282 38.1856 0.0681681 31.8136 1.1967 26.2617L1.32922 25.6112C2.46688 20.0089 3.6411 14.2233 6.49212 9.12027C9.64469 3.45838 14.8122 0.315938 21.4326 0.0319274C24.2111 -0.05762 26.9864 0.291738 29.6567 1.06719C33.0482 2.08236 36.2787 3.57534 39.2515 5.50142C43.8433 8.36443 49.1158 11.7222 53.5888 15.3364C58.8294 19.5691 61.3012 25.3135 60.9448 32.4137C60.7712 35.9089 60.1498 42.5786 57.9887 47.9519C56.2222 52.3824 53.1762 56.183 49.2412 58.8665C45.3061 61.55 40.6614 62.9941 35.9024 63.0136L35.875 62.9999ZM21.4966 1.85051C15.5569 2.10704 10.9012 4.92424 8.07298 9.99979C5.3636 14.8646 4.2168 20.5128 3.10654 25.9731L2.97402 26.6282C1.85463 32.1251 0.954562 37.9061 3.2436 42.7023C3.97886 44.2158 5.0083 45.5668 6.27151 46.676C7.53471 47.7851 9.0062 48.6301 10.5996 49.1612C14.3827 50.4759 17.7683 52.6152 21.0442 54.6857C23.4235 56.2618 25.9003 57.6847 28.4596 58.9458C30.7441 60.0223 33.4306 61.1675 35.875 61.1675H35.9207C40.3159 61.1475 44.6053 59.8129 48.2396 57.3346C51.8738 54.8562 54.6877 51.3468 56.321 47.2556C58.3816 42.1251 58.9756 35.689 59.1492 32.3084C59.4736 25.8265 57.2257 20.5952 52.4694 16.7336C48.0787 13.1835 42.8746 9.86236 38.3057 7.02683C35.4759 5.18978 32.3989 3.76757 29.1678 2.80332C26.675 2.07462 24.0826 1.74684 21.4874 1.83219L21.4966 1.85051Z"/>
</g>
<defs>
<clipPath id="clip16">
<rect width="61" height="63" fill="white"/>
</clipPath>
</defs>
</svg>
