<svg width="22" height="22" viewBox="0 0 22 22" fill="none" xmlns="http://www.w3.org/2000/svg">
<path d="M19.5556 2.44444V19.5556H2.44444V2.44444H19.5556ZM20.9 0H1.1C0.488889 0 0 0.488889 0 1.1V20.9C0 21.3889 0.488889 22 1.1 22H20.9C21.3889 22 22 21.3889 22 20.9V1.1C22 0.488889 21.3889 0 20.9 0ZM9.77778 4.88889H17.1111V7.33333H9.77778V4.88889ZM9.77778 9.77778H17.1111V12.2222H9.77778V9.77778ZM9.77778 14.6667H17.1111V17.1111H9.77778V14.6667ZM4.88889 4.88889H7.33333V7.33333H4.88889V4.88889ZM4.88889 9.77778H7.33333V12.2222H4.88889V9.77778ZM4.88889 14.6667H7.33333V17.1111H4.88889V14.6667Z" fill="white"/>
</svg>
