<svg width="8" height="6" viewBox="0 0 8 6" fill="none" xmlns="http://www.w3.org/2000/svg">
<path d="M0.0453172 5.7851C0.0116591 5.72039 -0.00374128 5.64774 0.00076912 5.57494C0.00527952 5.50214 0.0295295 5.43194 0.0709181 5.37188L3.67111 0.171605C3.70792 0.118468 3.75707 0.0750429 3.81433 0.0450503C3.8716 0.0150577 3.93528 -0.000608267 3.99992 -0.000608269C4.06457 -0.000608272 4.12825 0.0150577 4.18552 0.0450503C4.24278 0.0750429 4.29193 0.118467 4.32874 0.171605L7.92893 5.37188C7.97046 5.43189 7.99477 5.50212 7.99925 5.57496C8.00372 5.64781 7.98818 5.72048 7.95432 5.78513C7.92045 5.84977 7.86954 5.90392 7.80711 5.94171C7.74467 5.9795 7.67309 5.99949 7.60011 5.99951L0.399736 5.99951C0.326717 5.99952 0.255088 5.97955 0.192612 5.94175C0.130136 5.90396 0.0791979 5.84978 0.0453172 5.7851Z" />
</svg>
