<svg width="24" height="19" viewBox="0 0 24 19" fill="none" xmlns="http://www.w3.org/2000/svg">
<path d="M16.3128 11.8084L12.0363 7.11499L7.72266 11.4005L8.77184 12.4429L11.2494 9.98428V19H12.749V10.1316L15.1867 12.7771L16.3128 11.8084Z" fill="white"/>
<path d="M19.5011 6.33339C19.5011 6.29657 19.5011 6.22293 19.5011 6.14645C19.5011 2.75599 16.727 0 13.3143 0C11.139 0 9.07769 1.19247 7.9886 3.05623C7.76336 3.01941 7.53813 2.98259 7.3129 2.98259C5.2516 2.98259 3.52388 4.54611 3.37562 6.55999C1.38845 7.19446 0 9.05539 0 11.1797C0 13.8621 2.17534 16.0233 4.87527 16.0233H8.25089V14.5305H4.87242C2.99644 14.5305 1.49679 13.0407 1.49679 11.1769C1.49679 9.57373 2.66001 8.1575 4.23378 7.86009L4.90948 7.74962L4.87242 7.07833C4.87242 7.04151 4.87242 6.96786 4.87242 6.89139C4.87242 5.5488 5.95866 4.46963 7.31005 4.46963C7.60941 4.46963 7.8717 4.54327 8.134 4.61975L8.77263 4.84351L9.03492 4.20904C9.82181 2.56905 11.4726 1.48988 13.3115 1.48988C15.9002 1.48988 17.9986 3.5774 17.9986 6.14645C17.9986 6.40704 17.9615 6.66762 17.9244 6.96503L17.7733 7.82327H19.1247C21.0007 7.82327 22.5004 9.31314 22.5004 11.1769C22.5004 13.0407 21.0007 14.5305 19.1247 14.5305H15.7491V16.0204H19.1247C21.8247 16.0204 24 13.8593 24 11.1769C24 8.60503 22.0128 6.5175 19.5011 6.33339Z" fill="white"/>
</svg>
