<svg width="18" height="15" viewBox="0 0 18 15" fill="none" xmlns="http://www.w3.org/2000/svg">
<path d="M9 3.25C11.07 3.25 12.75 4.93 12.75 7C12.75 7.4875 12.6525 7.945 12.48 8.3725L14.67 10.5625C15.8025 9.6175 16.695 8.395 17.2425 7C15.945 3.7075 12.7425 1.375 8.9925 1.375C7.9425 1.375 6.9375 1.5625 6.0075 1.9L7.6275 3.52C8.055 3.3475 8.5125 3.25 9 3.25ZM1.5 1.2025L3.21 2.9125L3.555 3.2575C2.31 4.225 1.335 5.515 0.75 7C2.0475 10.2925 5.25 12.625 9 12.625C10.1625 12.625 11.2725 12.4 12.285 11.995L12.6 12.31L14.7975 14.5L15.75 13.5475L2.4525 0.25L1.5 1.2025ZM5.6475 5.35L6.81 6.5125C6.7725 6.67 6.75 6.835 6.75 7C6.75 8.245 7.755 9.25 9 9.25C9.165 9.25 9.33 9.2275 9.4875 9.19L10.65 10.3525C10.1475 10.6 9.5925 10.75 9 10.75C6.93 10.75 5.25 9.07 5.25 7C5.25 6.4075 5.4 5.8525 5.6475 5.35V5.35ZM8.88 4.765L11.2425 7.1275L11.2575 7.0075C11.2575 5.7625 10.2525 4.7575 9.0075 4.7575L8.88 4.765Z" fill="#616161"/>
</svg>
